<svg width="257" height="256" viewBox="0 0 257 256" fill="none" xmlns="http://www.w3.org/2000/svg">
<path d="M128.72 104.919L201.536 62.7957L128.72 20.7969L55.9012 62.8543L128.72 104.919Z" stroke="#D02138" stroke-linecap="round" stroke-linejoin="round"/>
<path d="M71.4076 71.8141L56.8463 84.031L141.314 118.103L200.467 69.3616L194.483 66.875" stroke="#D02138" stroke-linecap="round" stroke-linejoin="round"/>
<path d="M193.433 75.1602L197.042 76.1631L153.503 130.171L60.2448 104.916L72.0367 90.1572" stroke="#D02138" stroke-linecap="round" stroke-linejoin="round"/>
<path d="M73.4981 108.507L65.5417 125.615L165.155 140.937L192.487 81.8105" stroke="#D02138" stroke-linecap="round" stroke-linejoin="round"/>
<path d="M182.55 103.314L175.452 150.639L72.9401 145.433L75.7328 127.184" stroke="#D02138" stroke-linecap="round" stroke-linejoin="round"/>
<path d="M83.7142 164.501L92.2197 182.698L191.772 167.199L182.701 147.913M74.847 145.529L80.8817 158.444M65.5417 125.615L73.3952 142.422" stroke="#D02138" stroke-linecap="round" stroke-linejoin="round"/>
<path d="M179.268 125.197L184.445 159.391L81.8145 164.596L78.9792 145.738" stroke="#D02138" stroke-linecap="round" stroke-linejoin="round"/>
<path d="M73.3986 142.424L60.2448 145.787L103.756 199.795L197.1 174.536L191.131 167.301" stroke="#D02138" stroke-linecap="round" stroke-linejoin="round"/>
<path d="M193.445 175.524L200.353 181.397L116.004 215.646L56.9088 166.668L72.1699 160.588" stroke="#D02138" stroke-linecap="round" stroke-linejoin="round"/>
<path d="M71.4089 178.684L55.9635 188.118L128.635 230.138L201.54 188.118L194.442 183.8" stroke="#D02138" stroke-linecap="round" stroke-linejoin="round"/>
<path d="M141.521 222.707C141.711 223.599 141.811 224.526 141.811 225.474C141.811 232.733 135.927 238.617 128.667 238.617C121.408 238.617 115.524 232.733 115.524 225.474C115.524 224.565 115.616 223.681 115.79 222.826M128.639 59.1068C135.924 59.1068 141.83 53.2012 141.83 45.916C141.83 38.6308 135.924 32.7246 128.639 32.7246C121.354 32.7246 115.448 38.6308 115.448 45.916C115.448 53.2012 121.354 59.1068 128.639 59.1068Z" stroke="#D02138" stroke-linecap="round" stroke-linejoin="round"/>
<path d="M138.85 54.1406C143.708 56.0305 146.9 59.2299 146.9 62.8571C146.9 68.6649 138.726 73.3713 128.642 73.3713C118.559 73.3713 110.385 68.6649 110.385 62.8571C110.385 59.2487 113.543 56.0646 118.353 54.1725" stroke="#D02138" stroke-linecap="round" stroke-linejoin="round"/>
<path d="M114.917 69.7893C118.264 67.5928 123.171 66.207 128.644 66.207C134.117 66.207 139.023 67.5928 142.368 69.7865" stroke="#D02138" stroke-linecap="round" stroke-linejoin="round"/>
</svg>
