<svg width="257" height="256" viewBox="0 0 257 256" fill="none" xmlns="http://www.w3.org/2000/svg">
<path d="M144.189 98.017C144.218 98.0808 144.243 98.1445 144.274 98.2076H139.533C135.825 98.2076 132.331 96.6887 129.252 93.9961L129.159 93.9165C122.067 87.6405 117.232 75.1352 117.232 60.7298C117.232 50.9221 119.475 41.9934 123.144 35.313C127.219 27.8964 133.05 23.252 139.533 23.252H146.446C138.558 23.252 131.628 30.1349 127.661 40.5211C125.436 46.3505 124.148 53.287 124.148 60.7298C124.148 73.3551 127.86 84.5196 133.554 91.311C136.615 94.9649 140.253 97.352 144.189 98.017Z" stroke="#D02138" stroke-linecap="round" stroke-linejoin="round"/>
<path d="M165.651 41.6686C158.982 45.9694 152.551 53.3365 147.961 62.7146C141.567 75.7769 140.45 89.2698 144.191 98.017C140.255 97.352 136.617 94.9649 133.555 91.311C127.862 84.5196 124.149 73.3551 124.149 60.7298C124.149 53.2876 125.438 46.3528 127.663 40.5211C131.63 30.1349 138.559 23.252 146.449 23.252C154.338 23.252 161.771 30.6452 165.651 41.6686ZM129.254 93.9961C128.022 94.6333 126.227 95.5549 124.624 96.3803C121.48 97.9983 117.875 98.3015 114.106 97.4692C114.019 97.4481 113.932 97.4294 113.842 97.4083C104.556 95.2426 94.3321 86.2621 87.6397 73.2653C82.6898 63.6527 80.6515 53.7455 81.3967 45.6685C82.0766 38.2826 85.0814 32.4298 90.3112 29.7373C91.7198 29.0102 95.6349 26.9952 96.3449 26.6312C89.9631 29.991 86.9343 38.0988 87.4497 47.94C87.8115 54.823 89.9022 62.5542 93.7889 70.1005C99.7593 81.6979 108.547 90.0998 116.965 93.3072C121.266 94.9507 125.475 95.2374 129.162 93.9114C129.193 93.9394 129.224 93.9662 129.256 93.9916L129.254 93.9961Z" stroke="#D02138" stroke-linecap="round" stroke-linejoin="round"/>
<path d="M129.164 93.9164C118.255 97.8457 102.81 87.6262 93.7901 70.1056C84.3135 51.7032 85.5082 32.2136 96.4587 26.577C104.068 22.6597 114.382 26.4599 123.148 35.3152C119.48 41.9956 117.237 50.9244 117.237 60.7326C117.237 75.138 122.071 87.645 129.164 93.9193V93.9164Z" stroke="#D02138" stroke-linecap="round" stroke-linejoin="round"/>
<path d="M113.841 97.4114C111.196 99.7745 107.629 101.126 103.502 101.505C94.4701 102.345 82.7669 98.5281 72.2675 90.5119C65.1774 85.0989 59.7929 78.6534 56.5548 72.2881C52.2796 63.8839 51.7579 55.614 56.0092 50.0428C60.8368 43.7242 70.6308 42.4197 81.3936 45.6715C80.6506 53.7486 82.6889 63.6558 87.6366 73.2683C94.329 86.2628 104.553 95.2428 113.839 97.4114H113.841ZM95.0065 134.014C94.9735 134.078 94.9383 134.142 94.9053 134.205C90.3695 142.576 79.0867 150.075 64.8605 153.162C54.5961 155.392 44.7696 154.891 37.2398 152.285C29.9342 149.758 24.7891 145.245 23.5051 139.32C23.1758 137.793 22.2633 133.601 22.0755 132.726C24.8176 144.657 43.2575 150.778 63.3934 146.409C82.0944 142.351 95.7142 130.661 95.5942 119.407C95.6791 119.344 95.7614 119.28 95.8411 119.217C96.1141 120.47 96.4481 122.012 96.7536 123.421C97.513 126.927 96.8406 130.541 95.0042 134.012L95.0065 134.014Z" stroke="#D02138" stroke-linecap="round" stroke-linejoin="round"/>
<path d="M114.108 97.4699C113.311 98.5138 112.309 99.8262 111.394 101.023C109.292 103.779 106.245 105.58 102.583 106.464C102.471 106.492 102.358 106.518 102.245 106.542C92.9161 108.642 79.7526 104.922 68.0727 96.005C59.1491 89.1925 52.9249 80.744 50.291 72.8779C48.0666 66.2396 48.3983 60.0176 51.8173 55.5382L55.911 50.1719C48.6025 59.9898 55.89 78.0042 72.2706 90.5095C87.5646 102.187 105.405 104.95 113.844 97.4084C113.931 97.43 114.018 97.4488 114.108 97.4699Z" stroke="#D02138" stroke-linecap="round" stroke-linejoin="round"/>
<path d="M102.243 106.545C100.773 109.698 98.1019 112.334 94.5577 114.343C86.69 118.806 74.5306 120.179 61.7147 117.287C53.2046 115.365 45.7624 111.864 40.2038 107.556C32.5801 101.649 28.5024 94.2256 30.0731 87.2766C31.7712 79.7661 39.6702 74.5881 50.2891 72.8809C52.923 80.7469 59.1495 89.1955 68.0708 96.0079C79.7507 104.925 92.9142 108.645 102.243 106.545ZM100.969 148.045C100.969 148.113 100.965 148.178 100.962 148.247C100.529 157.749 93.6703 169.412 82.247 178.402C74.0709 184.838 65.1092 188.678 57.2529 189.675C49.4813 190.662 42.7917 188.869 39.0029 184.058C38.0386 182.835 35.3865 179.463 34.8318 178.757C42.5209 188.281 61.7795 185.715 77.9695 172.97C93.2049 160.98 100.32 144.23 94.8979 134.204C94.9332 134.138 94.9662 134.077 94.9986 134.013C95.8315 135.069 96.9175 136.45 97.9028 137.701C100.132 140.531 101.108 144.099 100.965 148.045H100.969Z" stroke="#D02138" stroke-linecap="round" stroke-linejoin="round"/>
<path d="M102.587 106.464C102.312 107.694 101.973 109.173 101.668 110.535C100.899 113.944 98.8507 116.877 95.8475 119.217L95.6006 119.407C87.9844 125.171 74.4988 127.258 60.1993 124.028C49.4296 121.594 40.3718 116.637 34.6789 110.716C29.6983 105.535 27.2902 99.6218 28.5577 94.0154C28.92 92.4191 29.9429 87.8879 30.0675 87.3281C27.4102 99.3277 41.5636 112.729 61.7227 117.281C80.3066 121.479 97.515 116.694 102.251 106.54C102.364 106.516 102.476 106.49 102.589 106.462L102.587 106.464Z" stroke="#D02138" stroke-linecap="round" stroke-linejoin="round"/>
<path d="M95.5933 119.405C95.6314 123.062 94.2206 126.766 91.6549 130.237C86.3238 137.448 76.0173 143.666 63.3925 146.408C55.407 148.141 47.6894 148.223 41.1119 146.946C31.0267 144.995 23.6197 139.85 22.0394 132.562C20.3839 124.927 25.5267 116.777 34.6738 110.717C40.3667 116.636 49.4251 121.595 60.1942 124.029C74.496 127.26 87.9816 125.169 95.5961 119.408L95.5933 119.405Z" stroke="#D02138" stroke-linecap="round" stroke-linejoin="round"/>
<path d="M96.2984 146.146C94.6356 154.945 88.0985 165.008 77.9802 172.972C71.6383 177.964 64.8281 181.392 58.4252 183.147C48.4031 185.893 39.3851 184.532 34.739 178.627C29.7066 172.236 31.0583 162.112 37.2455 152.285C44.7725 154.891 54.5995 155.392 64.8656 153.163C79.0924 150.075 90.3746 142.574 94.9109 134.205C96.7308 137.572 97.1398 141.697 96.3007 146.144L96.2984 146.146ZM138.693 195.502C138.581 206.476 135.672 216.321 131.126 223.129C127.1 229.161 121.793 232.808 116.009 232.747C114.262 232.73 109.098 232.676 109.098 232.676C121.413 232.803 131.568 216.128 131.782 195.431C131.98 176.269 123.587 160.377 112.571 158.021L112.444 157.749C113.733 157.76 115.329 157.779 116.782 157.793C120.291 157.829 123.594 159.225 126.522 161.68C126.599 161.743 126.675 161.808 126.751 161.873C133.977 168.111 138.846 180.849 138.696 195.499L138.693 195.502Z" stroke="#D02138" stroke-linecap="round" stroke-linejoin="round"/>
<path d="M102.908 190.555C99.1509 198.376 94.1139 204.817 88.7083 209.268C81.2212 215.434 73.0309 217.778 66.5808 214.683C59.1944 211.135 55.954 201.336 57.2545 189.68C65.1108 188.683 74.0703 184.843 82.2486 178.407C93.6719 169.417 100.532 157.752 100.964 148.252C104.002 150.387 106.161 153.754 107.397 157.926C109.972 166.591 108.588 178.732 102.908 190.557V190.555Z" stroke="#D02138" stroke-linecap="round" stroke-linejoin="round"/>
<path d="M109.142 193.549C104.382 203.455 97.5629 211.149 90.5536 215.389C84.3596 219.13 78.0199 220.179 72.814 217.677C71.3843 216.99 67.4101 215.079 66.6927 214.735C77.7917 219.942 93.9795 209.153 102.908 190.555C111.321 173.039 110.306 154.822 100.963 148.25C100.968 148.181 100.968 148.113 100.971 148.045C102.191 148.633 103.806 149.407 105.267 150.11C108.425 151.627 110.825 154.288 112.437 157.75L112.563 158.023C116.469 166.737 115.486 180.34 109.142 193.549Z" stroke="#D02138" stroke-linecap="round" stroke-linejoin="round"/>
<path d="M131.781 195.43C131.692 204.089 129.86 212.046 126.862 218.36C122.693 227.14 116.261 232.751 109.097 232.676C101.252 232.598 94.4278 225.717 90.5599 215.39C97.5698 211.153 104.389 203.459 109.148 193.55C115.493 180.341 116.476 166.736 112.57 158.025C116.05 158.768 119.267 160.861 122.032 163.982C128.03 170.742 131.915 182.321 131.781 195.433V195.43Z" stroke="#D02138" stroke-linecap="round" stroke-linejoin="round"/>
<path d="M155.275 230.952C148.129 234.209 139.015 230.865 131.126 223.128C135.671 216.321 138.58 206.478 138.693 195.501C138.844 180.851 133.973 168.113 126.747 161.875C130.397 161.026 134.415 161.658 138.451 163.521C146.554 167.255 154.716 175.956 160.023 187.602C163.287 194.765 165.003 202.01 165.26 208.519C165.679 219.131 162.219 227.789 155.275 230.954V230.952ZM153.354 152.394C153.359 152.378 153.365 152.355 153.371 152.326C153.366 152.348 153.36 152.371 153.354 152.394Z" stroke="#D02138" stroke-linecap="round" stroke-linejoin="round"/>
<path d="M171.392 211.256C170.585 219.246 167.237 225.501 161.563 228.085C160.145 228.732 156.239 230.51 155.426 230.884C166.501 225.673 168.566 206.353 160.023 187.602C152.072 170.159 137.728 159.328 126.749 161.877C126.674 161.811 126.598 161.747 126.521 161.684C127.84 161.082 129.16 160.48 130.481 159.881C133.792 158.373 137.521 158.279 141.359 159.387C141.414 159.402 141.469 159.417 141.526 159.433H141.53C150.633 162.136 160.305 171.546 166.317 184.738C170.555 194.036 172.182 203.47 171.397 211.258L171.392 211.256Z" stroke="#D02138" stroke-linecap="round" stroke-linejoin="round"/>
<path d="M198.337 208.124C193.108 214.58 182.611 215.406 171.391 211.256C172.177 203.468 170.55 194.033 166.312 184.735C160.3 171.544 150.628 162.131 141.521 159.431C144.409 156.812 148.399 155.455 153.006 155.281C161.958 154.942 173.23 159.091 183.25 167.205C189.548 172.306 194.415 178.217 197.54 184.101C202.398 193.239 203.052 202.301 198.335 208.124H198.337ZM234.47 121.677C232.77 114.648 225.631 109.734 215.943 107.846C209.18 106.524 201.173 106.679 192.907 108.619C180.21 111.601 169.931 118.086 164.772 125.475C162.242 129.096 160.942 132.936 161.191 136.684C161.137 136.722 161.082 136.762 161.029 136.804L159.937 132.162C159.129 128.72 159.712 125.148 161.429 121.693C161.468 121.615 161.508 121.536 161.549 121.456C165.903 112.972 177.094 105.229 191.328 101.887C201.853 99.4158 211.96 99.8413 219.613 102.52C226.21 104.613 231.183 108.967 232.909 115.03C233.351 116.581 234.317 121.007 234.47 121.675V121.677Z" stroke="#D02138" stroke-linecap="round" stroke-linejoin="round"/>
<path d="M226.403 169.191C224.573 177.157 215.769 182.469 204.153 183.786C201.451 176.324 195.714 168.405 187.601 161.835C176.297 152.68 163.397 148.572 154.036 150.261C155.508 146.708 158.473 143.787 162.483 141.64C170.376 137.412 182.31 136.187 194.863 139.068C202.723 140.874 209.667 144.022 215.05 147.907C223.478 153.986 228.079 161.863 226.398 169.191H226.403ZM190.591 41.8539C183.873 38.6232 175.225 41.2947 167.436 48.048C162.404 52.4102 157.732 58.4769 154.169 65.7547C148.502 77.3361 146.981 89.2532 149.316 97.902C150.461 102.149 152.537 105.608 155.507 107.854C155.503 107.947 155.503 108.037 155.5 108.131L151.514 106.182C148.281 104.601 145.857 101.817 144.274 98.2075C144.246 98.1466 144.218 98.0806 144.189 98.0169C140.448 89.272 141.566 75.7768 147.959 62.7145C152.549 53.3341 158.98 45.9693 165.649 41.6685C172.2 37.4405 178.98 36.173 184.461 38.8536C185.907 39.5619 189.966 41.5462 190.589 41.8517L190.591 41.8539Z" stroke="#D02138" stroke-linecap="round" stroke-linejoin="round"/>
<path d="M221.425 76.706C216.88 71.1587 208.398 69.7877 198.912 72.1862C192.206 73.8837 184.996 77.4677 178.327 82.7937C168.12 90.9441 161.613 101.227 160.134 110.125C159.43 114.336 159.856 118.24 161.549 121.457C161.509 121.535 161.469 121.614 161.429 121.694C160.611 120.669 159.581 119.378 158.641 118.202C156.44 115.444 155.433 111.981 155.499 108.131C155.499 108.037 155.504 107.945 155.506 107.851C155.793 98.3158 162.584 86.5159 174.012 77.3875C182.497 70.6132 191.851 66.66 199.94 65.8209C207.272 65.0563 213.562 66.8528 217.216 71.429C218.189 72.6492 220.87 76.0051 221.427 76.7031L221.425 76.706ZM202.688 202.751C201.708 203.965 199.003 207.297 198.441 207.995C206.03 198.39 199.265 180.175 183.253 167.207C168.084 154.92 150.036 151.724 141.529 159.433H141.524C141.469 159.416 141.413 159.4 141.357 159.385C142.218 158.323 143.389 156.877 144.445 155.572C146.709 152.773 149.961 151.033 153.834 150.299C153.902 150.288 153.97 150.274 154.038 150.262C163.4 148.573 176.3 152.679 187.603 161.836C195.716 168.406 201.454 176.326 204.156 183.787C206.81 191.119 206.533 198.008 202.688 202.754V202.751Z" stroke="#D02138" stroke-linecap="round" stroke-linejoin="round"/>
<path d="M227.95 162.451C227.604 163.949 226.67 168.022 226.447 168.984C227.997 161.715 223.402 153.929 215.052 147.908C209.669 144.023 202.725 140.874 194.864 139.068C182.312 136.187 170.376 137.41 162.484 141.641C158.475 143.788 155.51 146.708 154.038 150.261C153.97 150.273 153.902 150.287 153.833 150.299C154.137 148.984 154.534 147.249 154.894 145.68C155.7 142.167 157.864 139.169 161.026 136.806C161.081 136.764 161.135 136.724 161.189 136.686C168.857 131.059 182.244 129.079 196.412 132.331C206.553 134.659 215.165 139.226 220.872 144.716C226.517 150.148 229.321 156.483 227.952 162.451H227.95Z" stroke="#D02138" stroke-linecap="round" stroke-linejoin="round"/>
<path d="M220.875 144.717C215.168 139.226 206.557 134.659 196.414 132.331C182.247 129.079 168.86 131.059 161.192 136.686C160.943 132.935 162.243 129.098 164.773 125.477C169.932 118.088 180.211 111.603 192.908 108.621C201.174 106.681 209.179 106.526 215.944 107.847C225.658 109.743 232.809 114.676 234.485 121.733C234.485 121.745 234.49 121.755 234.492 121.766C236.366 129.747 230.767 138.417 220.873 144.719L220.875 144.717Z" stroke="#D02138" stroke-linecap="round" stroke-linejoin="round"/>
<path d="M219.614 102.524C211.96 99.8452 201.853 99.4197 191.328 101.892C177.094 105.233 165.904 112.976 161.549 121.46C159.856 118.244 159.432 114.34 160.133 110.128C161.612 101.23 168.119 90.9472 178.326 82.7973C184.996 77.4708 192.205 73.8874 198.911 72.1898C208.397 69.7885 216.879 71.1618 221.424 76.7091C221.439 76.7273 221.454 76.747 221.472 76.7682C221.477 76.7765 221.483 76.7844 221.49 76.7916C221.502 76.8058 221.514 76.8223 221.528 76.8359C226.49 83.051 225.38 92.8712 219.614 102.526V102.524Z" stroke="#D02138" stroke-linecap="round" stroke-linejoin="round"/>
<path d="M199.941 65.8252C191.854 66.6649 182.498 70.6176 174.013 77.3925C162.585 86.5208 155.794 98.3202 155.507 107.856C152.537 105.61 150.461 102.151 149.315 97.9043C146.981 89.2555 148.502 77.3356 154.169 65.757C157.731 58.4769 162.404 52.4125 167.436 48.0503C175.224 41.297 183.873 38.6255 190.591 41.8568C190.62 41.8682 190.645 41.8853 190.674 41.8966C197.794 45.3816 200.989 54.6818 199.938 65.8275L199.941 65.8252Z" stroke="#D02138" stroke-linecap="round" stroke-linejoin="round"/>
</svg>
