<svg width="256" height="256" viewBox="0 0 256 256" fill="none" xmlns="http://www.w3.org/2000/svg">
<path d="M178.601 135.12L240.073 134.636V124.794M178.601 135.12V125.278M178.601 135.12L174.302 130.611V120.769M147.285 175.161L148.844 169.07L157.358 164.16M147.285 175.161L155.799 170.25M147.285 175.161L178.432 228.14L186.946 223.23M157.358 164.16L155.799 170.25M157.358 164.16L188.505 217.14L186.946 223.23M155.799 170.25L186.946 223.23M131.29 215.222L135.568 210.691L135.104 149.24M131.29 215.222L130.826 153.771M131.29 215.222H121.448L120.984 153.771M135.104 149.24L130.826 153.771M135.104 149.24H125.263L120.984 153.771M130.826 153.771H120.984M240.073 124.794L178.601 125.278M240.073 124.794L235.774 120.284L174.302 120.769M178.601 125.278L174.302 120.769M75.1701 226.413L81.0286 224.6L111.354 171.156M75.1701 226.413L105.495 172.969M75.1701 226.413L66.6562 221.481L96.9813 168.038M111.354 171.156L105.495 172.969M111.354 171.156L102.84 166.225L96.9813 168.038M105.495 172.969L96.9813 168.038M154.218 121.507L148.338 119.715L143.428 111.201M154.218 121.507L149.308 112.993M154.218 121.507L207.219 90.3379L202.309 81.8244M143.428 111.201L149.308 112.993M143.428 111.201L196.429 80.033L202.309 81.8244M149.308 112.993L202.309 81.8244M54.2857 174.213L60.1651 175.54L113.166 144.414M54.2857 174.213L107.287 143.086M54.2857 174.213L49.3756 165.699L102.376 134.572M113.166 144.414L107.287 143.086M113.166 144.414L108.256 135.9L102.376 134.572M107.287 143.086L102.376 134.572M181.403 29.6033L151.078 83.1096M181.403 29.6033L175.545 30.9516L145.22 84.4584M181.403 29.6033L189.917 34.5128L159.592 88.0202M151.078 83.1096L159.592 88.0202M151.078 83.1096L145.22 84.4584M145.22 84.4584L153.734 89.3685L159.592 88.0202M16.5001 131.201L20.7992 135.268L82.2716 134.825M16.5001 131.201V121.359L77.9725 120.916M16.5001 131.201L77.9725 130.758M82.2716 134.825V124.984L77.9725 120.916M82.2716 134.825L77.9725 130.758M77.9725 120.916V130.758M125.284 40.8144H135.125L135.589 102.308M125.284 40.8144L121.006 44.8819L121.469 106.375H131.311L135.589 102.308M125.284 40.8144L125.747 102.308H135.589M69.6275 32.8061L78.1415 27.875L109.289 80.8972L107.729 86.5451L99.2154 91.4762M99.2154 91.4762L68.0681 38.433L69.6275 32.7851L100.775 85.8072L109.289 80.8761L107.729 86.5235M99.2154 91.4762L100.775 85.8283M106.317 123.024L111.227 114.51L109.647 108.862L104.736 117.376L106.317 123.003L102.671 120.937L52.831 92.6561L51.2512 87.0298M51.2512 87.0298L104.715 117.376L109.625 108.862L56.1613 78.5158L51.2512 87.0298ZM151.837 138.703L150.256 132.613M205.301 169.007L151.816 138.703L146.905 147.217M146.905 147.217L145.325 141.127L150.235 132.613L154.07 134.783L203.7 162.917L205.28 169.007L200.37 177.521L146.905 147.217ZM121.469 106.396L125.747 102.329" stroke="#D02138" stroke-linejoin="round"/>
</svg>
