<svg width="252" height="68" viewBox="0 0 252 68" fill="none" xmlns="http://www.w3.org/2000/svg">
<rect width="68" height="68" rx="5.44" fill="#282829"/>
<g clip-path="url(#clip0_2050_729)">
<mask id="mask0_2050_729" style="mask-type:luminance" maskUnits="userSpaceOnUse" x="12" y="17" width="44" height="34">
<path d="M55.7601 17.4573H12.2401V50.5787H55.7601V17.4573Z" fill="white"/>
</mask>
<g mask="url(#mask0_2050_729)">
<path d="M14.551 23.4269C16.9774 23.4269 19.4037 23.4269 21.8685 23.4269C21.8685 23.5809 21.8685 23.735 21.8685 23.889C21.8685 24.5438 21.83 25.1985 21.8685 25.8532C21.9841 27.0471 22.2922 28.2025 22.7929 29.3194C23.255 30.3208 23.8327 31.2066 24.603 31.9768C25.5273 32.9397 26.6442 33.6714 27.9536 34.0565C28.0692 34.0951 28.1077 34.1336 28.1077 34.2491C28.0692 34.8653 28.1847 35.443 28.0307 36.0592C27.7996 37.0606 27.2219 37.7538 26.3361 38.139C25.9124 38.3315 25.4888 38.4085 25.0266 38.4085C23.5631 38.4085 22.0611 38.4085 20.5976 38.4085C19.9044 38.4085 19.2496 38.293 18.6719 37.8694C17.8247 37.2531 17.4395 36.3673 17.4395 35.289C17.4395 32.4005 17.4395 29.4735 17.4395 26.585C17.4395 26.5079 17.4395 26.4309 17.4395 26.3539C17.4395 25.9302 17.1699 25.6992 16.7848 25.5836C15.7835 25.2755 15.0517 24.5823 14.5895 23.658C14.5895 23.6194 14.551 23.5424 14.551 23.5039C14.551 23.5039 14.551 23.4654 14.551 23.4269ZM18.826 29.9356C18.826 30.4748 19.2111 30.8985 19.7503 30.8985C20.251 30.8985 20.7131 30.4748 20.7131 29.9356C20.7131 29.3964 20.2895 28.9728 19.7503 28.9343C19.2882 28.9728 18.7875 29.3579 18.826 29.9356Z" fill="black"/>
<path d="M26.9141 29.9358C26.9141 30.398 26.4904 30.8216 26.0283 30.8216C25.5661 30.8216 25.1425 30.398 25.1425 29.8973C25.1425 29.4351 25.5661 29.0115 26.0283 29.0115C26.5289 29.05 26.9911 29.5121 26.9141 29.9358Z" fill="black"/>
<path d="M18.8261 29.9357C18.7876 29.358 19.2882 28.9729 19.7504 28.9729C20.2896 28.9729 20.7132 29.4351 20.7132 29.9742C20.7132 30.5134 20.2511 30.9371 19.7504 30.9371C19.2112 30.8986 18.8261 30.4749 18.8261 29.9357Z" fill="white"/>
<path d="M54.5277 39.9108C54.5662 39.9108 54.5662 39.9108 54.5277 39.9108C54.6047 39.9108 54.6047 39.9108 54.6432 39.9108C54.6817 39.9108 54.7588 39.8722 54.7973 39.8722C54.8358 39.8337 54.8358 39.8337 54.8743 39.7952C55.298 39.5256 55.2594 39.102 55.2594 38.6783C55.2594 36.7527 55.2594 34.7885 55.2594 32.8628C55.2594 32.2466 55.1824 31.6304 54.9898 31.0142C54.2966 28.896 52.3324 27.3554 50.0216 27.3554C47.5568 27.3169 45.0919 27.3169 42.6271 27.3169C38.3906 27.3169 34.1542 27.3169 29.9562 27.2784C29.9177 27.2784 29.8407 27.2784 29.8022 27.2784C29.7251 27.2784 29.6866 27.2399 29.6096 27.2399C29.5326 27.0473 29.6096 26.9318 29.8022 26.8548C29.8792 26.8162 29.9177 26.8162 29.9947 26.7777C31.1501 26.2 31.9589 25.2372 32.4596 24.0433C32.6521 23.6196 32.8062 23.1575 32.8447 22.6953C32.8447 22.1561 32.5751 21.848 32.0359 21.848C30.9961 21.848 29.9562 21.848 28.9164 21.8095C28.8008 21.8095 28.7238 21.8095 28.6083 21.8095C28.6083 21.694 28.6083 21.617 28.6083 21.5014C28.6083 21.0007 28.6083 20.5001 28.6083 20.0379C28.6083 19.8068 28.5697 19.5758 28.5312 19.3832C28.2616 18.4204 27.2988 17.7656 26.1819 17.9967C25.4117 18.1508 24.7184 18.8825 24.6799 19.6528C24.6414 20.269 24.6414 20.8852 24.6414 21.5014C24.6414 21.617 24.6414 21.7325 24.6414 21.8095H20.9826C20.9826 21.694 20.9826 21.5784 20.9826 21.4629C20.9826 20.9237 20.9826 20.3845 20.9826 19.8453C20.9441 18.5359 19.6732 17.5731 18.3252 18.0352C17.5164 18.3048 16.9772 19.1136 16.9772 19.9994C16.9772 20.5001 16.9772 21.0007 16.9772 21.5014C16.9772 21.617 16.9772 21.694 16.9772 21.8095C16.8617 21.8095 16.7462 21.8095 16.6306 21.8095C15.5908 21.8095 14.5509 21.8095 13.5111 21.848C13.0104 21.848 12.7023 22.1561 12.7408 22.6568C12.7793 22.9649 12.8563 23.273 12.9334 23.5426C13.3955 24.9676 14.2813 26.0845 15.6293 26.7777C15.8989 26.9318 15.9759 27.0473 15.9759 27.3554C15.9759 30.0899 15.9759 32.7858 15.9759 35.5202C15.9759 35.9054 16.0144 36.2905 16.13 36.6371C16.6691 38.4087 17.8245 39.5256 19.5961 39.8722C19.6347 39.8722 19.6732 39.9108 19.7117 39.9108H19.7502C19.7502 39.9108 19.7887 39.9108 19.8272 39.9108C19.8657 39.9108 19.9043 39.9108 19.9043 39.9493C19.9428 39.9493 19.9813 39.9493 20.0198 39.9493C20.1738 39.9493 20.2894 39.9493 20.4434 39.9493C20.482 39.9493 20.5205 39.9493 20.559 39.9493C20.7901 39.9493 21.0211 39.9493 21.2522 39.9493C21.3292 39.9493 21.3678 39.9493 21.4448 39.9493H24.2563C24.2948 39.9493 24.3333 39.9493 24.3718 39.9493C24.7569 39.9493 24.988 40.1418 25.1806 40.4499C25.2576 40.6425 25.3731 40.8736 25.3731 41.1047C25.3731 41.1432 25.3731 41.1432 25.3731 41.1817C25.3731 41.3358 25.3731 41.5283 25.3731 41.6824C25.3731 41.7209 25.3731 41.7209 25.3731 41.7594C25.4117 42.3756 25.4117 43.0303 25.4502 43.6466C25.4887 44.6094 25.5272 45.5722 25.5657 46.535C25.6042 47.2668 25.6042 47.9985 25.6042 48.7303C25.6427 49.4621 26.1434 50.0012 26.7981 50.0398C28.3387 50.0398 29.8407 50.0398 31.3812 50.0398C31.9204 50.0398 32.3826 49.6546 32.4981 49.1154C32.6521 48.4607 32.8062 47.7675 32.9217 47.1127C33.0758 46.4195 33.2298 45.7648 33.3839 45.0715C33.4609 45.0715 33.4609 45.033 33.4994 45.033C36.6575 45.033 39.7771 45.033 42.9352 45.033C43.1278 45.033 43.1663 45.1101 43.2048 45.2641C43.2818 45.6878 43.3974 46.1114 43.4744 46.5736C43.6669 47.3823 43.821 48.2296 44.0136 49.0384C44.1291 49.5776 44.6298 50.0398 45.169 50.0783C46.7095 50.0783 48.2115 50.0783 49.752 50.0783C50.3683 50.0783 50.9074 49.5391 50.946 48.8844C50.9845 48.1141 51.023 47.3438 51.0615 46.535C51.1 45.5722 51.177 44.6094 51.2155 43.608C51.2541 43.0303 51.2541 42.4912 51.2926 41.9135C51.3311 40.9121 51.4081 39.9493 51.4466 38.9479C51.5237 37.8696 51.5622 36.7527 51.6007 35.6743C51.6392 34.75 51.7162 33.8257 51.7162 32.9013C51.7162 31.5534 51.2541 30.3595 50.4453 29.3581C50.4068 29.3196 50.3683 29.2426 50.3297 29.1656C50.4068 29.1656 50.4453 29.1656 50.4838 29.1656C52.1399 29.3966 53.4493 30.9372 53.4493 32.6318C53.4493 34.673 53.4493 36.6756 53.4493 38.7169C53.4493 39.102 53.4878 39.4871 53.7959 39.7567C54.104 39.8722 54.2966 39.9108 54.5277 39.9108ZM26.1434 19.9609C26.1434 19.7298 26.3745 19.4987 26.6056 19.4987C26.7981 19.4987 27.0677 19.6528 27.0677 19.8839C27.0677 20.5386 27.0677 21.1548 27.0677 21.8095H26.1434C26.1434 21.1548 26.1434 20.5386 26.1434 19.9609ZM26.0664 29.05C26.5285 29.05 26.9907 29.5122 26.9522 29.9743C26.9522 30.4365 26.5285 30.8601 26.0664 30.8601C25.6042 30.8601 25.1806 30.4365 25.1806 29.9358C25.1806 29.4737 25.6042 29.05 26.0664 29.05ZM18.4793 20.0764C18.4793 19.9609 18.4793 19.8453 18.5563 19.7683C18.6333 19.5758 18.8644 19.4602 19.0184 19.4987C19.2495 19.5372 19.4036 19.7298 19.4036 19.9609C19.4036 20.5386 19.4036 21.1163 19.4036 21.694C19.4036 21.7325 19.4036 21.7325 19.3651 21.8095H18.5178C18.5178 21.7325 18.4793 21.694 18.4793 21.617C18.4793 21.1163 18.4793 20.5771 18.4793 20.0764ZM26.336 38.1777C25.9123 38.3702 25.4887 38.4473 25.0265 38.4473C23.563 38.4473 22.061 38.4473 20.5975 38.4473C19.9043 38.4473 19.2495 38.3317 18.6718 37.9081C17.8245 37.2919 17.4394 36.4061 17.4394 35.3277C17.4394 32.4392 17.4394 29.5122 17.4394 26.6237C17.4394 26.5467 17.4394 26.4696 17.4394 26.3926C17.4394 25.969 17.1698 25.7379 16.7847 25.6223C15.7833 25.3142 15.0516 24.621 14.5894 23.6967C14.5894 23.6196 14.5509 23.5426 14.5509 23.5041C14.5509 23.5041 14.5509 23.4656 14.5509 23.4271H21.8684C21.8684 23.5811 21.8684 23.7352 21.8684 23.8892C21.8684 24.544 21.8299 25.1987 21.8684 25.8534C21.984 27.0473 22.2921 28.2027 22.7927 29.3196C23.2549 30.321 23.8326 31.2068 24.6029 31.977C25.5272 32.9399 26.6441 33.6716 27.9535 34.0567C28.0691 34.0953 28.1076 34.1338 28.1076 34.2493C28.0691 34.8655 28.1846 35.4432 28.0306 36.0594C27.838 37.0608 27.2603 37.754 26.336 38.1777ZM50.0601 33.402C49.9831 34.3649 49.9446 35.3277 49.9061 36.2905C49.8291 37.5229 49.7906 38.7554 49.7135 39.9878C49.6365 41.3743 49.5595 42.7993 49.4824 44.1857C49.4439 45.033 49.3669 45.8803 49.3284 46.7276C49.2899 47.2668 49.2514 47.7675 49.2129 48.3452H45.6696C45.246 46.6891 44.9379 45.033 44.5142 43.3384C44.3987 43.3384 44.3217 43.2999 44.2446 43.2999C40.2393 43.2999 36.2339 43.2999 32.267 43.2999C31.9589 43.2999 31.9589 43.3384 31.8819 43.608C31.7278 44.3398 31.5353 45.1101 31.3812 45.8418C31.2272 46.535 31.0731 47.2668 30.9191 47.96C30.842 48.3067 30.842 48.3067 30.5339 48.3067C29.5326 48.3067 28.5697 48.3067 27.6069 48.3067C27.2988 48.3067 27.2988 48.3067 27.2988 47.96C27.2988 46.0344 27.2603 44.1087 27.2603 42.2216C27.2603 41.3743 27.2603 40.527 27.2218 39.6797C27.2218 39.4871 27.2603 39.3716 27.4529 39.2945C28.4157 38.7169 29.1089 37.8696 29.4555 36.7527C29.5711 36.4061 29.6096 36.0594 29.6096 35.7128C29.6096 33.6331 29.6096 31.5534 29.6096 29.4737C29.6096 29.3966 29.6096 29.3196 29.6096 29.2426C29.6096 29.0885 29.6866 29.05 29.8022 29.05C29.8792 29.05 29.9562 29.05 30.0332 29.05C31.3042 29.05 32.5366 29.05 33.8075 29.05H45.8237V29.0885C46.4399 29.0885 47.0176 29.0885 47.6338 29.0885C47.8264 29.0885 47.9804 29.1656 48.096 29.3196C48.3656 29.6277 48.5966 29.8973 48.8662 30.1669C49.7135 31.0527 50.1757 32.1311 50.0601 33.402Z" fill="white"/>
<path d="M54.5661 40.4112H54.5275C54.2965 40.4112 53.9884 40.3727 53.6802 40.2186L53.4877 40.1416L53.4492 40.026C53.1025 39.6409 53.064 39.1402 53.064 38.7166C53.064 36.9065 53.064 35.0963 53.064 33.2862V32.6315C53.064 31.5531 52.4478 30.5518 51.5235 30.0126C52.0242 30.9369 52.2938 31.8997 52.2553 32.9396C52.2553 33.5943 52.2167 34.249 52.1782 34.8653C52.1782 35.1734 52.1397 35.443 52.1397 35.7511L52.1012 36.9065C52.0627 37.6382 52.0242 38.3315 51.9857 39.0632C51.9471 39.6409 51.9086 40.1801 51.8701 40.7578C51.8316 41.1814 51.8316 41.6051 51.7931 42.0287C51.7931 42.3368 51.7546 42.6449 51.7546 42.953C51.7546 43.2226 51.7161 43.4537 51.7161 43.7233C51.6776 44.301 51.639 44.8402 51.639 45.4179L51.5235 47.1895C51.485 47.7672 51.4465 48.3834 51.4465 48.9611C51.408 49.8469 50.6377 50.5787 49.7904 50.5787C48.2499 50.5787 46.7479 50.5787 45.2073 50.5787C44.4371 50.5787 43.7438 49.9625 43.5898 49.1922C43.4742 48.653 43.3587 48.0753 43.2432 47.5361L43.0121 46.4963C42.935 46.1882 42.8965 45.9186 42.8195 45.6105C40.4702 45.6105 38.1594 45.6105 35.8486 45.6105H33.8074L33.7304 45.8801C33.6148 46.3422 33.4993 46.8044 33.4223 47.305C33.3838 47.5746 33.3067 47.8057 33.2682 48.0753C33.1912 48.499 33.0756 48.8841 32.9986 49.3077C32.8061 50.078 32.1513 50.6172 31.4196 50.6172C30.6108 50.6172 29.8405 50.6172 29.0703 50.6172C28.3 50.6172 27.5682 50.6172 26.8365 50.6172C25.9122 50.6172 25.1804 49.8469 25.1804 48.8456C25.1804 48.499 25.1804 48.1138 25.1419 47.7672C25.1419 47.3821 25.1419 47.0355 25.1034 46.6503C25.1034 45.9956 25.0649 45.3409 25.0264 44.6861L24.9108 41.7976V41.7591C24.9108 41.6051 24.9108 41.451 24.9108 41.297V41.2585V41.1814C24.9108 41.1044 24.8723 40.9889 24.7568 40.7193C24.6798 40.5652 24.5642 40.4882 24.3716 40.4882H24.3331C24.2946 40.4882 24.2561 40.4882 24.2561 40.4882H23.8325H21.4446C21.4061 40.4882 21.3291 40.4882 21.2906 40.4882H21.2521H21.098C20.9055 40.4882 20.7129 40.4882 20.5203 40.4882C20.4818 40.4882 20.4818 40.4882 20.4433 40.4882C20.2892 40.4882 20.1352 40.4882 20.0196 40.4882L19.7115 40.4497L19.519 40.3727C17.5933 39.9875 16.2839 38.7936 15.7062 36.8294C15.5906 36.4828 15.5521 36.0592 15.5521 35.5585C15.5521 32.9396 15.5521 30.2051 15.5521 27.3937C15.5521 27.3167 15.5521 27.2781 15.5521 27.2781C15.5521 27.2781 15.5136 27.2781 15.4751 27.2396C14.0501 26.5079 13.0873 25.3525 12.5481 23.7349C12.4325 23.4268 12.3555 23.0802 12.317 22.7336C12.2785 22.387 12.394 22.0403 12.6251 21.8093C12.8562 21.5782 13.2028 21.4241 13.5494 21.4241C14.3197 21.4241 15.0899 21.4241 15.8602 21.4241H16.5535V21.2701C16.5535 20.8464 16.5535 20.4228 16.5535 20.0376C16.5535 18.9208 17.2082 17.9579 18.2095 17.6113C18.9798 17.3417 19.7886 17.4573 20.4433 17.9194C21.0595 18.3816 21.4446 19.0748 21.4832 19.8451C21.4832 20.2302 21.4832 20.6153 21.4832 20.962C21.4832 21.0775 21.4832 21.193 21.4832 21.3471H24.2176C24.2176 21.193 24.2176 21.039 24.2176 20.8849C24.2176 20.4613 24.2176 20.0376 24.2561 19.614C24.2946 18.6127 25.1034 17.7268 26.1047 17.4958C27.3757 17.2262 28.6466 17.9964 28.9932 19.2289C29.0703 19.4599 29.0703 19.691 29.1088 19.9991C29.1088 20.3458 29.1088 20.6539 29.1088 21.0005C29.1088 21.116 29.1088 21.2316 29.1088 21.3086H30.2257C30.8419 21.3086 31.4581 21.3086 32.0743 21.3086C32.4594 21.3086 32.8061 21.4241 33.0371 21.6552C33.2682 21.8863 33.3838 22.2329 33.3452 22.618C33.3452 23.1957 33.1142 23.6964 32.9216 24.1586C32.4594 25.2369 31.7662 26.0842 30.8804 26.7004H33.8074C36.7729 26.7004 39.6999 26.7004 42.6655 26.7004C45.3999 26.7004 47.7107 26.7004 50.06 26.739C52.5248 26.7775 54.6816 28.3565 55.4519 30.7443C55.6444 31.322 55.7215 31.9768 55.76 32.747C55.76 33.9409 55.76 35.1348 55.76 36.3288C55.76 37.0605 55.76 37.8308 55.76 38.5625C55.76 38.8706 55.76 39.2558 55.5674 39.6024L54.5661 40.4112ZM25.8352 41.8362L25.9507 44.6091C25.9892 45.2638 25.9892 45.9186 26.0277 46.5733C26.0277 46.9584 26.0277 47.305 26.0662 47.6902C26.0662 48.0368 26.0662 48.4219 26.1047 48.7685C26.1047 49.2307 26.4514 49.5773 26.8365 49.6158C28.2615 49.6158 29.7635 49.6158 31.4196 49.6158C31.7277 49.6158 32.0358 49.3848 32.1128 49.0381C32.1898 48.6145 32.3054 48.2294 32.3824 47.8057C32.4209 47.5361 32.4979 47.2665 32.5365 47.0355C32.652 46.5733 32.7675 46.1111 32.8446 45.6105L33.0371 44.7247L33.3452 44.6476C33.3838 44.6476 33.4608 44.6091 33.5378 44.6091H35.8486C38.2364 44.6091 40.5857 44.6091 42.9736 44.6091C43.3587 44.6091 43.6283 44.8402 43.7053 45.2253C43.7823 45.5719 43.8594 45.9186 43.9364 46.2267L44.1675 47.2665C44.283 47.8442 44.3985 48.3834 44.5141 48.9611C44.5911 49.3077 44.8992 49.6158 45.2458 49.6158C46.7864 49.6158 48.2884 49.6158 49.8289 49.6158C50.1755 49.6158 50.5222 49.2692 50.5607 48.8841C50.5992 48.3064 50.6377 47.6902 50.6377 47.1125L50.7532 45.3409C50.7918 44.7632 50.8303 44.224 50.8303 43.6463C50.8303 43.3767 50.8688 43.1456 50.8688 42.876C50.8688 42.5679 50.9073 42.2598 50.9073 41.9517C50.9458 41.5281 50.9458 41.1044 50.9843 40.6808C51.0228 40.1031 51.0613 39.5639 51.0999 38.9862C51.1384 38.2544 51.1769 37.5612 51.2154 36.8294L51.2539 35.674C51.2539 35.3659 51.2924 35.0963 51.2924 34.7882C51.3309 34.172 51.3695 33.5173 51.3695 32.9011C51.3695 31.7457 50.9843 30.6288 50.2141 29.666C50.1755 29.6275 50.137 29.5504 50.0985 29.5119L49.5978 28.7802L50.4451 28.7031C50.4836 28.7031 50.5607 28.7031 50.6377 28.7031C52.4863 28.9727 54.0269 30.7058 54.0269 32.6315V33.2862C54.0269 35.0963 54.0269 36.9065 54.0269 38.7166C54.0269 39.0247 54.0654 39.2173 54.1809 39.3713C54.2579 39.4098 54.335 39.4098 54.412 39.4098H54.5661H54.6046C54.6046 39.4098 54.6046 39.4098 54.6431 39.4098H54.6816C54.8742 39.2943 54.8742 39.1402 54.8742 38.7166C54.8742 37.9463 54.8742 37.2146 54.8742 36.4443C54.8742 35.2504 54.8742 34.0565 54.8742 32.8626C54.8742 32.2078 54.7971 31.6687 54.6431 31.168C53.9884 29.2038 52.1782 27.8558 50.137 27.8173C47.7877 27.7788 45.4769 27.7788 42.7425 27.7788C39.777 27.7788 36.8499 27.7788 33.8844 27.7788H30.0716H29.9561C29.879 27.7788 29.8405 27.7788 29.7635 27.7788C29.6865 27.7788 29.648 27.7403 29.5709 27.7403L29.2628 27.6633L29.1858 27.3937C29.0318 26.97 29.2243 26.5849 29.648 26.4308C29.6865 26.3923 29.7635 26.3923 29.802 26.3538C30.8034 25.8146 31.5736 25.0059 32.0743 23.8505C32.2284 23.4653 32.3824 23.0802 32.4209 22.6951C32.4209 22.541 32.4209 22.464 32.3439 22.4255C32.3054 22.387 32.1898 22.3484 32.0743 22.3484C31.4581 22.3484 30.8419 22.3484 30.2257 22.3484H28.9547C28.8777 22.3484 28.8007 22.3484 28.7236 22.3484L28.1845 22.3099L28.1459 21.7707C28.1459 21.6937 28.1459 21.6167 28.1459 21.5397C28.1459 21.3856 28.1459 21.193 28.1459 21.039C28.1459 20.7309 28.1459 20.3843 28.1459 20.0762C28.1459 19.9221 28.1459 19.691 28.0689 19.537C27.8764 18.8822 27.1831 18.3045 26.2588 18.4586C25.6811 18.5741 25.1419 19.1518 25.1034 19.691C25.0649 20.0762 25.0649 20.4998 25.0649 20.9235C25.0649 21.116 25.0649 21.3086 25.0649 21.5011C25.0649 21.5782 25.0649 21.6552 25.0264 21.7322L24.9879 22.2714H20.4818V21.4626C20.4818 21.3086 20.4818 21.116 20.4818 20.962C20.4818 20.6153 20.4818 20.2302 20.4818 19.8836C20.4818 19.3829 20.2507 18.9593 19.8271 18.6897C19.4419 18.4201 18.9028 18.3431 18.4406 18.4971C17.8244 18.6897 17.4393 19.3059 17.4393 19.9991C17.4393 20.4228 17.4393 20.8464 17.4393 21.2701V21.5397C17.4393 21.6167 17.4393 21.6937 17.4393 21.7707L17.4007 22.3099H15.8217C15.0514 22.3099 14.2812 22.3099 13.5109 22.3099C13.3954 22.3099 13.3183 22.3484 13.2413 22.387C13.2028 22.4255 13.2028 22.541 13.2028 22.618C13.2028 22.8876 13.3183 23.1572 13.3954 23.3883C13.819 24.7363 14.6663 25.7376 15.8217 26.3153C16.2453 26.5464 16.4379 26.8545 16.4379 27.3167C16.4379 30.1281 16.4379 32.8626 16.4379 35.4815C16.4379 35.8666 16.4764 36.2132 16.5535 36.4828C17.0541 38.1004 18.0555 39.0632 19.673 39.3713C19.7501 39.3713 19.8271 39.4098 19.8656 39.4483C19.8656 39.4483 19.8656 39.4483 19.9041 39.4483H19.9426C19.9811 39.4483 19.9811 39.4483 20.0196 39.4483C20.1352 39.4483 20.2507 39.4483 20.4048 39.4483C20.4048 39.4483 20.4433 39.4483 20.4818 39.4483C20.6744 39.4483 20.8669 39.4483 21.098 39.4483H21.175C21.2521 39.4483 21.3291 39.4483 21.4061 39.4483H24.6798V39.4869C25.0649 39.5639 25.373 39.8335 25.5656 40.2186C25.6426 40.4112 25.7966 40.7193 25.7966 41.0274C25.7966 41.0659 25.7966 41.1044 25.7966 41.1814C25.7966 41.3355 25.7966 41.4895 25.7966 41.6436C25.8352 41.7591 25.8352 41.7976 25.8352 41.8362ZM27.6068 48.8456C27.0291 48.8456 26.8365 48.6145 26.8365 48.0368L26.798 41.9517C26.798 41.2199 26.798 40.4497 26.7595 39.7179C26.7595 39.3713 26.9135 39.1017 27.2216 38.9092C28.1074 38.37 28.7236 37.5997 29.0318 36.6369C29.1088 36.3673 29.1473 36.0592 29.1473 35.7125C29.1473 34.1335 29.1473 32.593 29.1473 31.0139V29.4349V29.3964C29.1473 29.3579 29.1473 29.3193 29.1473 29.2423C29.1473 28.9727 29.2243 28.8187 29.3399 28.7416C29.4169 28.6646 29.5709 28.5491 29.8405 28.5491H30.8034C31.6892 28.5491 32.575 28.5491 33.4993 28.5491H33.8074H46.2857V28.6261C46.7093 28.6261 47.1715 28.6261 47.5952 28.6261C47.9418 28.6261 48.2114 28.7416 48.4039 29.0112C48.635 29.2808 48.9046 29.5504 49.1742 29.8585C50.1755 30.8599 50.6377 32.0923 50.5222 33.4788C50.4836 34.1335 50.4451 34.8267 50.4066 35.4815L50.1755 40.026C50.0985 41.4125 50.0215 42.8375 49.9445 44.224C49.9059 44.9172 49.8674 45.6105 49.8289 46.3422L49.6749 48.8456H45.3614L45.2844 48.499C45.0533 47.6131 44.8607 46.6888 44.6681 45.803C44.5141 45.1483 44.36 44.4936 44.206 43.8388C40.2776 43.8388 36.3493 43.8388 32.3824 43.8388C32.2669 44.301 32.1898 44.7632 32.0743 45.2253L31.8432 46.1882C31.6892 46.8429 31.5351 47.4976 31.3811 48.1909C31.2655 48.73 31.073 48.8841 30.5338 48.8841L27.6068 48.8456ZM27.7223 39.7179C27.7223 40.4882 27.7223 41.2199 27.7608 41.9517V47.8827H30.4953C30.6493 47.228 30.8034 46.5733 30.9189 45.9186L31.15 44.9557C31.2655 44.4936 31.3811 44.0314 31.4581 43.5307C31.5736 43.0686 31.7277 42.8375 32.2669 42.8375C36.2722 42.8375 40.2776 42.8375 44.2445 42.8375C44.3215 42.8375 44.3985 42.8375 44.4756 42.8375L44.8992 42.876L44.9762 43.2226C45.1688 43.9929 45.3229 44.7632 45.5154 45.5334C45.6695 46.3037 45.8621 47.074 46.0546 47.8442H48.8276L48.9431 46.2267C48.9816 45.5334 49.0201 44.8402 49.0587 44.147C49.1357 42.7605 49.2127 41.3355 49.2897 39.949L49.5208 35.4044C49.5593 34.7112 49.5978 34.0565 49.6364 33.3632C49.7134 32.2464 49.3668 31.322 48.558 30.4747C48.2884 30.1666 47.9803 29.897 47.7492 29.5889C47.7107 29.5504 47.7107 29.5504 47.6337 29.5504C47.0175 29.5504 46.4398 29.5504 45.8235 29.5504H45.3614V29.5119H33.8459C32.8446 29.5119 31.8432 29.5119 30.8419 29.5119H30.1486V31.0524C30.1486 32.6315 30.1486 34.172 30.1486 35.7511C30.1486 36.1747 30.0716 36.5984 29.9561 36.945C29.5324 38.1389 28.8007 39.0632 27.7223 39.7179ZM20.5973 38.9092C19.7115 38.9092 19.0183 38.7166 18.4021 38.2544C17.4393 37.5612 16.9771 36.5598 16.9386 35.2889C16.9386 33.2477 16.9386 31.2065 16.9386 29.2038V26.5079C16.9386 26.4694 16.9386 26.3923 16.9386 26.3538C16.9386 26.2383 16.9001 26.1227 16.6305 26.0457C15.5521 25.6991 14.7433 24.9673 14.1656 23.889C14.1271 23.8119 14.0886 23.7349 14.0886 23.6579C14.0501 23.5424 14.0501 23.4268 14.0886 23.3883L14.1656 23.0032L14.5508 22.9647H22.3304V23.889C22.3304 24.0815 22.3304 24.3126 22.3304 24.5052C22.3304 24.9673 22.3304 25.391 22.369 25.8146C22.446 26.893 22.7541 28.0099 23.2548 29.0883C23.6784 30.0511 24.2561 30.9369 24.9493 31.6301C25.9122 32.6315 26.9135 33.2477 28.0689 33.5943C28.5696 33.7484 28.5696 34.1335 28.5696 34.249C28.5696 34.4416 28.5696 34.6342 28.5696 34.8267C28.5696 35.2504 28.6081 35.674 28.4926 36.1362C28.2615 37.2531 27.5682 38.0619 26.5284 38.5625C26.1047 38.7551 25.6426 38.8706 25.0264 38.8706H23.4088C22.4845 38.8706 21.5602 38.8706 20.5973 38.9092ZM15.2825 23.889C15.7062 24.5052 16.2453 24.9288 16.9386 25.1214C17.7474 25.391 17.9014 25.9687 17.9014 26.3153C17.9014 26.3923 17.9014 26.4694 17.9014 26.5079V29.1653C17.9014 31.2065 17.9014 33.2092 17.9014 35.2504C17.9014 36.1747 18.248 36.9065 18.9413 37.4456C19.3649 37.7538 19.9041 37.9078 20.5973 37.9078C21.5217 37.9078 22.4845 37.9078 23.4088 37.9078H25.0264C25.4885 37.9078 25.8352 37.8308 26.1433 37.7152C26.9135 37.3686 27.4142 36.7909 27.5682 35.9436C27.6453 35.597 27.6453 35.2504 27.6068 34.8653C27.6068 34.7497 27.6068 34.5957 27.6068 34.4801C26.3743 34.095 25.2575 33.3632 24.2561 32.3234C23.4858 31.5531 22.8696 30.5903 22.369 29.5119C21.8298 28.318 21.5217 27.1241 21.4061 25.8917C21.3676 25.4295 21.3676 24.9288 21.3676 24.5052C21.3676 24.3126 21.3676 24.1201 21.3676 23.9275H15.2825V23.889ZM26.0662 31.322C25.7196 31.322 25.373 31.168 25.1034 30.8984C24.8338 30.6288 24.7183 30.2822 24.7183 29.9356C24.7183 29.2038 25.3345 28.5876 26.0662 28.5876C26.4514 28.5876 26.8365 28.7802 27.0676 29.0883C27.2987 29.3579 27.4142 29.7045 27.3757 30.0126C27.3757 30.7058 26.7595 31.322 26.0662 31.322ZM26.0277 29.5119C25.8352 29.5119 25.6426 29.7045 25.6426 29.9356C25.6426 30.0126 25.6811 30.1281 25.7581 30.2052C25.8352 30.2822 25.9507 30.3592 26.0662 30.3592C26.2588 30.3592 26.4514 30.1666 26.4514 29.9356V29.897C26.4514 29.82 26.4129 29.743 26.3743 29.666C26.2973 29.5889 26.1433 29.5119 26.0277 29.5119ZM19.7501 22.3099H18.1325L18.0555 21.8863C18.0555 21.8478 18.017 21.7707 18.017 21.6552C18.017 21.116 18.017 20.6153 18.017 20.0762C18.017 19.8836 18.0555 19.691 18.1325 19.5755C18.2865 19.1904 18.7487 18.9593 19.1338 19.0363C19.596 19.1133 19.9041 19.4985 19.9041 19.9606C19.9041 20.4228 19.9041 20.8849 19.9041 21.3086V21.6937C19.9041 21.8093 19.8656 21.8863 19.8656 21.9248L19.7501 22.3099ZM27.5297 22.2714H25.6811V21.2701C25.6811 20.8079 25.6811 20.3843 25.6811 19.9606C25.6811 19.4599 26.0662 19.0748 26.5669 19.0363C26.798 19.0363 27.0676 19.1133 27.2601 19.2674C27.4527 19.4214 27.5297 19.6525 27.5682 19.8836C27.5682 20.3458 27.5682 20.8079 27.5682 21.2701L27.5297 22.2714Z" fill="white"/>
<path d="M48.8666 30.1668C48.597 29.8972 48.3274 29.5891 48.0963 29.3195C47.9808 29.1655 47.8267 29.0884 47.6341 29.0884C47.2105 29.0884 46.7869 29.0884 46.4017 29.0884V29.0499H34.8092C34.6937 29.0499 34.6167 29.0499 34.5011 29.0499C32.9991 29.0499 31.4971 29.0499 29.9951 29.0499C29.918 29.0499 29.841 29.0499 29.764 29.0499C29.6099 29.0499 29.5714 29.127 29.5714 29.2425C29.5714 29.3195 29.5714 29.3965 29.5714 29.4736C29.5714 31.5533 29.5714 33.633 29.5714 35.7127C29.5714 36.0593 29.5329 36.4445 29.4174 36.7526C29.0707 37.831 28.416 38.6782 27.4147 39.2945C27.2606 39.41 27.1836 39.487 27.1836 39.6796C27.1836 40.5269 27.1836 41.3742 27.2221 42.2215C27.2221 44.1471 27.2606 46.0728 27.2606 47.9599C27.2606 48.268 27.2606 48.3066 27.5687 48.3066C28.5701 48.3066 29.5329 48.3066 30.4957 48.3066C30.8038 48.3066 30.8038 48.3066 30.8809 47.9599C31.0349 47.2667 31.189 46.535 31.343 45.8417C31.4971 45.11 31.6896 44.3397 31.8437 43.6079C31.9207 43.2998 31.9207 43.2998 32.2288 43.2998C36.2342 43.2998 40.2396 43.2998 44.2065 43.2998C44.2835 43.2998 44.399 43.2998 44.4761 43.3384C44.8612 45.0329 45.2078 46.689 45.6315 48.3451C46.8254 48.3451 47.9808 48.3451 49.1747 48.3451C49.2132 47.7674 49.2517 47.2667 49.2902 46.7275C49.3287 45.8802 49.4058 45.0329 49.4443 44.1856C49.5213 42.7992 49.5983 41.3742 49.6753 39.9877C49.7524 38.7553 49.7909 37.5228 49.8679 36.2904C49.9064 35.3276 49.9449 34.3648 50.022 33.4019C50.176 32.131 49.7139 31.0526 48.8666 30.1668Z" fill="black"/>
<path d="M35.8877 34.2878C37.6208 34.2878 39.0458 32.8628 39.0458 31.0912C39.0458 29.3196 37.6593 27.8561 35.8877 27.8561C34.1546 27.8561 32.7296 29.2811 32.7296 31.0527C32.7296 32.8243 34.1546 34.2878 35.8877 34.2878Z" fill="white"/>
<path d="M44.9378 40.6425C46.4013 40.6425 47.5952 39.4486 47.5952 37.9465C47.5952 36.4445 46.4013 35.2506 44.9378 35.2506C43.4743 35.2506 42.2804 36.4445 42.2804 37.9465C42.2804 39.4486 43.4743 40.6425 44.9378 40.6425Z" fill="white"/>
<path d="M35.9647 44.3399C37.4282 44.3013 38.8917 44.4939 40.3167 44.6865C40.3552 44.6865 40.3937 44.6865 40.4322 44.6865C40.4707 44.4554 40.4707 44.2628 40.4707 44.0317C40.4707 41.6439 38.5836 39.7183 36.2343 39.7183C33.885 39.7183 31.9978 41.6439 31.9978 44.0317C31.9978 44.4554 32.0748 44.8405 32.1519 45.2257C33.1532 44.2628 34.6937 44.3784 35.9647 44.3399Z" fill="white"/>
<path d="M37.9669 27.6635C37.8514 27.6635 37.7744 27.6635 37.6973 27.625C37.3122 28.0486 37.1196 28.5108 37.1196 29.05C37.1196 30.475 38.6987 31.6304 40.6629 31.6304C42.627 31.6304 44.2061 30.475 44.2061 29.05C44.2061 28.5493 44.0135 28.0486 43.6669 27.6635H37.9669Z" fill="white"/>
<path d="M25.1806 29.9357C25.142 29.358 25.6427 28.9729 26.1049 28.9729C26.6441 28.9729 27.0677 29.4351 27.0677 29.9742C27.0677 30.5134 26.6055 30.9371 26.1049 30.9371C25.5657 30.8986 25.1806 30.4749 25.1806 29.9357Z" fill="black"/>
<path d="M19.4805 21.3859C19.0568 21.3859 18.6332 21.3859 18.2095 21.3859C18.2095 21.3089 18.171 21.2319 18.171 21.1548C18.171 20.5001 18.171 20.6927 18.171 19.9994C18.171 19.8454 18.2095 19.6913 18.248 19.5758C18.3636 19.3447 18.7102 19.1907 18.9413 19.2292C19.2879 19.3062 19.5575 19.5373 19.5575 19.8839C19.5575 20.6156 19.5575 20.5001 19.5575 21.2704C19.5575 21.2704 19.519 21.3089 19.4805 21.3859Z" fill="black"/>
<path d="M27.2606 21.3859C26.837 21.3859 26.4133 21.3859 25.9897 21.3859C25.9897 21.3089 25.9512 21.2319 25.9512 21.1548C25.9512 20.5001 25.9512 20.6927 25.9512 19.9994C25.9512 19.8454 25.9897 19.6913 26.0282 19.5758C26.1437 19.3447 26.4904 19.1907 26.7214 19.2292C27.0681 19.2677 27.2991 19.5373 27.2991 19.8454C27.2991 20.5771 27.2991 20.4616 27.2991 21.2319C27.2991 21.2704 27.2606 21.3089 27.2606 21.3859Z" fill="black"/>
</g>
</g>
<rect x="92" width="68" height="68" rx="5.44" fill="#282829"/>
<g clip-path="url(#clip1_2050_729)">
<mask id="mask1_2050_729" style="mask-type:luminance" maskUnits="userSpaceOnUse" x="103" y="11" width="45" height="45">
<path d="M147.42 11.8999H103.9V55.4199H147.42V11.8999Z" fill="white"/>
</mask>
<g mask="url(#mask1_2050_729)">
<mask id="mask2_2050_729" style="mask-type:luminance" maskUnits="userSpaceOnUse" x="103" y="11" width="45" height="45">
<path d="M147.42 11.8999H103.9V55.4199H147.42V11.8999Z" fill="white"/>
</mask>
<g mask="url(#mask2_2050_729)">
<path d="M134.372 37.5637C133.617 38.5755 132.029 40.2554 131.145 40.2554H127.039V37.5615H130.31C130.778 37.5615 131.224 37.3722 131.546 37.0393C133.226 35.2985 134.196 33.2269 134.196 31.0052C134.196 27.2146 131.363 23.8636 127.037 21.8443V20.0338C127.037 19.2548 126.406 18.6238 125.627 18.6238C124.848 18.6238 124.217 19.2548 124.217 20.0338V20.7845C123.005 20.4299 121.721 20.16 120.381 20.0055C122.6 22.4165 123.956 25.6414 123.956 29.1774C123.956 32.3478 122.872 35.2593 121.051 37.5659H124.217V40.2641H119.582C118.955 40.2641 118.446 39.7571 118.446 39.1282V37.9488C118.446 37.7421 118.279 37.5724 118.07 37.5724H111.96C111.84 37.5724 111.738 37.6703 111.738 37.79C111.733 42.6164 115.552 46.2394 120.12 46.2394H133.012C136.102 46.2394 137.484 42.2791 139.295 39.7593C139.997 38.7844 141.684 38.0011 142.195 37.7835C142.289 37.7443 142.343 37.6573 142.343 37.555V35.9883C142.343 35.8294 142.186 35.7097 142.032 35.7533C142.032 35.7533 134.579 37.4658 134.492 37.4897C134.405 37.5158 134.372 37.5659 134.372 37.5659V37.5637Z" fill="white"/>
<path d="M121.569 29.1665C121.569 26.7359 120.735 24.4989 119.343 22.7299L112.329 34.8654H119.874C120.946 33.2291 121.571 31.2707 121.571 29.1686L121.569 29.1665Z" fill="white"/>
<path d="M125.849 11.9C113.681 11.7999 103.8 21.6812 103.9 33.8494C104.002 45.665 113.655 55.3199 125.468 55.4179C137.637 55.5223 147.522 45.6367 147.418 33.4686C147.32 21.6572 137.665 12.0023 125.849 11.9ZM119.343 22.73C120.736 24.4991 121.569 26.7382 121.569 29.1666C121.569 31.2708 120.944 33.2292 119.872 34.8634H112.327L119.341 22.7278L119.343 22.73ZM142.343 35.9862V37.5529C142.343 37.6552 142.289 37.7422 142.195 37.7814C141.684 37.999 139.997 38.7823 139.295 39.7572C137.484 42.277 136.102 46.2373 133.013 46.2373H120.12C115.554 46.2373 111.736 42.6143 111.738 37.7879C111.738 37.6682 111.84 37.5703 111.96 37.5703H118.07C118.281 37.5703 118.446 37.74 118.446 37.9468V39.1262C118.446 39.7528 118.953 40.262 119.582 40.262H124.217V37.5638H121.051C122.872 35.2572 123.956 32.3457 123.956 29.1753C123.956 25.6393 122.6 22.4145 120.381 20.0035C121.723 20.1601 123.007 20.4278 124.217 20.7825V20.0318C124.217 19.2527 124.848 18.6217 125.627 18.6217C126.406 18.6217 127.037 19.2527 127.037 20.0318V21.8422C131.363 23.8615 134.196 27.2126 134.196 31.0031C134.196 33.227 133.224 35.2964 131.546 37.0372C131.224 37.3701 130.778 37.5594 130.31 37.5594H127.039V40.2533H131.145C132.031 40.2533 133.62 38.5735 134.373 37.5616C134.373 37.5616 134.405 37.5116 134.492 37.4855C134.579 37.4593 142.032 35.749 142.032 35.749C142.189 35.7055 142.343 35.8252 142.343 35.984V35.9862Z" fill="#0086FF"/>
</g>
</g>
</g>
<rect x="184" width="68" height="68" rx="5.44" fill="#282829"/>
<g clip-path="url(#clip2_2050_729)">
<path fill-rule="evenodd" clip-rule="evenodd" d="M218 12.2401C229.977 12.2401 239.76 22.0408 239.76 34.0001C239.76 45.9768 229.959 55.7601 218 55.7601C206.023 55.7601 196.24 45.9594 196.24 34.0001C196.24 22.0234 206.041 12.2401 218 12.2401Z" fill="#1EEFA4"/>
<path d="M220.333 38.8744C220.333 37.708 221.273 36.7506 222.456 36.7506H223.309C224.476 36.7506 225.416 37.6906 225.416 38.8744V39.7274C225.416 40.8937 224.476 41.8512 223.292 41.8512H222.439C221.273 41.8512 220.333 40.9111 220.333 39.7274V38.8744ZM222.456 29.1433C221.29 29.1433 220.35 30.0833 220.35 31.2671V32.1201C220.35 33.2864 221.29 34.2439 222.474 34.2439H223.327C224.493 34.2439 225.433 33.3038 225.433 32.1201V31.2671C225.433 30.1008 224.493 29.1433 223.309 29.1433H222.456Z" fill="black"/>
<path fill-rule="evenodd" clip-rule="evenodd" d="M212.708 20.2477C208.025 20.2477 204.248 24.0426 204.248 28.708V39.292C204.248 43.9748 208.043 47.7523 212.708 47.7523H223.292C227.975 47.7523 231.752 43.9574 231.752 39.292V28.708C231.752 24.0252 227.957 20.2477 223.292 20.2477H212.708ZM223.292 23.6248H212.708C209.905 23.6248 207.625 25.9053 207.625 28.708V39.292C207.625 42.0947 209.905 44.3752 212.708 44.3752H223.292C226.095 44.3752 228.375 42.0947 228.375 39.292V28.708C228.375 25.9053 226.095 23.6248 223.292 23.6248Z" fill="black"/>
</g>
<defs>
<clipPath id="clip0_2050_729">
<rect width="43.52" height="33.1214" fill="white" transform="translate(12.2401 17.4573)"/>
</clipPath>
<clipPath id="clip1_2050_729">
<rect width="43.52" height="43.52" fill="white" transform="translate(103.9 11.8999)"/>
</clipPath>
<clipPath id="clip2_2050_729">
<rect width="43.52" height="43.52" fill="white" transform="translate(196.24 12.2401)"/>
</clipPath>
</defs>
</svg>
