<svg width="252" height="68" viewBox="0 0 252 68" fill="none" xmlns="http://www.w3.org/2000/svg">
<rect width="68" height="68" rx="5.44" fill="#282829"/>
<path opacity="0.8" d="M51.6801 42.013C51.6801 48.6254 46.2259 53.9954 39.5082 53.9954H16.5121V45.9931H39.5082C41.7194 45.9931 43.5094 44.2031 43.5094 41.9919C43.5094 39.7808 41.7194 37.9908 39.5082 37.9908H31.4006V30.0095H39.5082C41.7194 30.0095 43.5094 28.2195 43.5094 26.0084C43.5094 23.7972 41.7194 22.0072 39.5082 22.0072H16.5121V14.0049H39.5082C46.2259 14.0259 51.6801 19.3959 51.6801 26.0084C51.6801 28.9776 50.5851 31.8206 48.5845 34.0107C50.5851 36.2008 51.6801 39.0648 51.6801 42.013Z" fill="#FE815F"/>
<path opacity="0.12" d="M16.5121 45.9931H36.2652C32.0745 50.8366 25.3989 53.9954 17.8809 53.9954C17.4176 53.9954 16.9754 53.9743 16.5331 53.9533C16.5121 53.9743 16.5121 45.9931 16.5121 45.9931ZM40.3927 37.9908H32.7484V30.0095H40.3927C41.0034 32.6419 41.0034 35.3795 40.3927 37.9908ZM36.2652 22.0072H16.5121V14.047C16.9543 14.0259 17.4176 14.0049 17.8598 14.0049C25.3778 14.0259 32.0534 17.1637 36.2652 22.0072Z" fill="black"/>
<path d="M16.5123 14.0259C27.7156 14.0259 36.7919 22.9758 36.7919 34.0106C36.7919 45.0454 27.7156 53.9953 16.5123 53.9953V45.993C23.2301 45.993 28.6843 40.623 28.6843 34.0106C28.6843 27.3982 23.2301 22.0282 16.5123 22.0282V14.0259Z" fill="#FF6238"/>
<rect x="92" width="68" height="68" rx="5.44" fill="#282829"/>
<g clip-path="url(#clip0_2050_771)">
<path fill-rule="evenodd" clip-rule="evenodd" d="M111.992 19.04C111.312 15.504 114.032 12.24 117.568 12.24C120.696 12.24 123.28 14.824 123.28 17.952V25.024C124.096 25.024 124.912 24.888 125.728 24.888C126.544 24.888 127.224 24.888 128.04 25.024V17.952C128.04 14.824 130.624 12.24 133.752 12.24C137.288 12.24 140.008 15.504 139.464 19.04L137.968 27.336C143.272 29.648 147.352 33.728 147.352 38.76V41.888C147.352 46.104 144.632 49.64 140.688 51.952C136.744 54.4 131.576 55.76 125.728 55.76C119.88 55.76 114.712 54.4 110.768 51.952C106.96 49.64 104.24 46.104 104.24 41.888V38.76C104.24 33.728 108.184 29.648 113.488 27.336L111.992 19.04ZM135.928 28.424L137.696 18.632C138.104 16.184 136.336 13.872 133.752 13.872C131.576 13.872 129.808 15.64 129.808 17.816V26.792C129.264 26.656 128.584 26.656 128.04 26.656C127.224 26.656 126.544 26.52 125.728 26.52C124.912 26.52 124.096 26.52 123.28 26.656C122.736 26.656 122.056 26.792 121.512 26.792V17.952C121.512 15.776 119.744 14.008 117.568 14.008C115.12 14.008 113.216 16.32 113.76 18.768L115.528 28.56C109.816 30.736 106.008 34.544 106.008 38.896V42.024C106.008 48.688 114.848 54.128 125.728 54.128C136.608 54.128 145.448 48.688 145.448 42.024V38.896C145.584 34.408 141.776 30.6 135.928 28.424Z" fill="#633001"/>
<path d="M145.584 41.8878C145.584 48.5518 136.744 53.9918 125.864 53.9918C114.984 53.9918 106.144 48.5518 106.144 41.8878V38.7598H145.72V41.8878H145.584Z" fill="#FEDC90"/>
<path fill-rule="evenodd" clip-rule="evenodd" d="M113.76 18.7681C113.216 16.3201 115.12 14.0081 117.568 14.0081C119.744 14.0081 121.512 15.7761 121.512 17.9521V26.9281C122.872 26.7921 124.232 26.6561 125.728 26.6561C127.088 26.6561 128.448 26.7921 129.808 26.9281V17.9521C129.808 15.7761 131.576 14.0081 133.752 14.0081C136.2 14.0081 138.104 16.3201 137.696 18.7681L135.928 28.5601C141.64 30.7361 145.584 34.5441 145.584 38.8961C145.584 45.5601 136.744 51.0001 125.864 51.0001C114.984 51.0001 106.144 45.5601 106.144 38.8961C106.144 34.5441 109.952 30.7361 115.664 28.5601L113.76 18.7681Z" fill="#D1884F"/>
<path d="M120.288 37.9439C120.288 39.7119 119.336 41.2079 118.112 41.2079C116.888 41.2079 115.936 39.7119 115.936 37.9439C115.936 36.1759 116.888 34.6799 118.112 34.6799C119.336 34.6799 120.288 36.1759 120.288 37.9439Z" fill="#633001"/>
<path d="M135.384 37.9439C135.384 39.7119 134.432 41.2079 133.208 41.2079C131.984 41.2079 131.032 39.7119 131.032 37.9439C131.032 36.1759 131.984 34.6799 133.208 34.6799C134.432 34.6799 135.384 36.1759 135.384 37.9439Z" fill="#633001"/>
</g>
<rect x="184" width="68" height="68" rx="5.44" fill="#282829"/>
<g clip-path="url(#clip1_2050_771)">
<path d="M205.237 32.7811C205.237 32.5394 205.285 32.3001 205.378 32.077C205.471 31.8538 205.607 31.6512 205.778 31.4808C205.949 31.3103 206.153 31.1753 206.376 31.0837C206.6 30.992 206.839 30.9454 207.081 30.9465L210.137 30.9564C210.625 30.9564 211.092 31.15 211.437 31.4946C211.781 31.8392 211.975 32.3066 211.975 32.7939V44.3517C212.319 44.2497 212.76 44.1409 213.244 44.0267C213.58 43.9477 213.88 43.7576 214.094 43.4871C214.308 43.2166 214.425 42.8817 214.425 42.5367V28.2011C214.425 27.7138 214.618 27.2464 214.963 26.9017C215.307 26.5571 215.775 26.3634 216.262 26.3633H219.328C219.815 26.3634 220.283 26.5571 220.627 26.9017C220.972 27.2464 221.165 27.7138 221.165 28.2011V41.5068C221.165 41.5068 221.932 41.1965 222.679 40.8811C222.956 40.7638 223.193 40.5674 223.36 40.3164C223.526 40.0653 223.615 39.7709 223.615 39.4696V23.6073C223.615 23.12 223.809 22.6527 224.153 22.3081C224.498 21.9635 224.965 21.7699 225.452 21.7698H228.515C229.002 21.7703 229.469 21.9641 229.813 22.3086C230.157 22.6532 230.351 23.1203 230.351 23.6073V36.6693C233.006 34.7452 235.696 32.4308 237.832 29.648C238.141 29.2441 238.347 28.7697 238.429 28.2673C238.51 27.7649 238.467 27.25 238.301 26.7685C237.313 23.9248 235.741 21.3187 233.688 19.1171C231.635 16.9154 229.144 15.1667 226.376 13.9827C223.608 12.7988 220.623 12.2057 217.613 12.2415C214.603 12.2773 211.633 12.9411 208.894 14.1905C206.154 15.4399 203.706 17.2474 201.706 19.4972C199.705 21.7471 198.196 24.3898 197.276 27.2562C196.355 30.1226 196.043 33.1497 196.36 36.1436C196.676 39.1376 197.614 42.0325 199.114 44.6431C199.375 45.0935 199.759 45.46 200.221 45.6995C200.684 45.9389 201.205 46.0415 201.723 45.9951C202.303 45.9441 203.024 45.872 203.881 45.7714C204.255 45.729 204.599 45.5507 204.85 45.2706C205.1 44.9905 205.238 44.6282 205.239 44.2525V32.7811" fill="white"/>
<path d="M205.172 51.3164C208.4 53.6647 212.215 55.0745 216.194 55.3891C220.173 55.7041 224.162 54.9118 227.72 53.1004C231.277 51.2889 234.263 48.5286 236.349 45.1251C238.435 41.7215 239.539 37.8072 239.538 33.8153C239.538 33.3159 239.515 32.8244 239.482 32.3342C231.576 44.1257 216.978 49.638 205.172 51.3164Z" fill="#F0B90B"/>
</g>
<defs>
<clipPath id="clip0_2050_771">
<rect width="43.112" height="43.52" fill="white" transform="translate(104.24 12.24)"/>
</clipPath>
<clipPath id="clip1_2050_771">
<rect width="43.52" height="43.52" fill="white" transform="translate(196.24 12.24)"/>
</clipPath>
</defs>
</svg>
