<?xml version="1.0" encoding="utf-8"?><svg viewBox="0 0 250 250" xmlns="http://www.w3.org/2000/svg" xmlns:xlink="http://www.w3.org/1999/xlink"><style>:root>svg{display:none}:root>svg:target{display:block}</style><svg viewBox="0 0 74 74" id="bnb-black" xmlns="http://www.w3.org/2000/svg"><g clip-path="url(#aclip0_108_31535)"><path d="M14.821 36.937l.036 13.13 11.157 6.566v7.687L8.328 53.947v-20.85l6.493 3.84zm0-13.13v7.652l-6.497-3.844v-7.651l6.497-3.844 6.53 3.843-6.53 3.844zm15.852-3.843l6.498-3.844 6.529 3.843-6.53 3.844-6.497-3.843z"/><path d="M19.516 47.346V39.66l6.498 3.844v7.651l-6.498-3.808zm11.157 12.04l6.497 3.844 6.53-3.844v7.652l-6.53 3.843-6.497-3.843v-7.652zm22.345-39.422l6.498-3.844 6.53 3.843v7.652l-6.53 3.844v-7.652l-6.498-3.843zm6.498 30.104l.036-13.13 6.497-3.844v20.85L48.363 64.315V56.63l11.153-6.561z"/><path d="M54.857 47.346l-6.498 3.808v-7.651l6.498-3.844v7.687z"/><path d="M54.857 26.529l.035 7.687-11.188 6.565v13.162l-6.498 3.808-6.497-3.808V40.781L19.52 34.216v-7.687l6.526-3.844 11.12 6.597 11.19-6.597 6.529 3.844h-.028zm-35.34-13.127L37.17 2.994l17.687 10.408-6.498 3.844-11.189-6.597-11.156 6.597-6.498-3.844z"/></g><defs><clipPath id="aclip0_108_31535"><path d="M0 0h74v74H0z"/></clipPath></defs></svg><svg viewBox="0 0 48 48" id="bnb-yellow" xmlns="http://www.w3.org/2000/svg"><g clip-path="url(#bclip0_2013_231)"><path d="M9.614 23.96l.023 8.516 7.237 4.259v4.986L5.402 34.993V21.469l4.212 2.49zm0-8.518v4.964l-4.215-2.494V12.95l4.215-2.493 4.235 2.493-4.235 2.494zm10.282-2.493l4.214-2.493 4.236 2.493-4.236 2.494-4.214-2.494z"/><path d="M12.66 30.711v-4.986l4.214 2.493v4.963l-4.215-2.47zm7.236 7.81l4.214 2.493 4.236-2.493v4.963l-4.236 2.493-4.214-2.493V38.52zM34.39 12.949l4.215-2.493 4.235 2.493v4.963l-4.235 2.494v-4.963l-4.215-2.494zm4.215 19.527l.023-8.517 4.215-2.493V34.99L31.37 41.72v-4.987l7.234-4.256z"/><path d="M35.583 30.711l-4.215 2.47v-4.963l4.215-2.493v4.986z"/><path d="M35.583 17.208l.023 4.986-7.258 4.259v8.537l-4.214 2.47-4.215-2.47v-8.537l-7.257-4.259v-4.986l4.232-2.493 7.214 4.279 7.257-4.28 4.236 2.494h-.018zM12.659 8.693L24.11 1.942l11.473 6.751-4.215 2.494-7.258-4.28-7.236 4.28-4.215-2.494z"/></g><defs><clipPath id="bclip0_2013_231"><path d="M0 0h48v48H0z"/></clipPath></defs></svg><svg viewBox="0 0 250 250" id="favicon" xmlns="http://www.w3.org/2000/svg"><rect width="250" height="250" rx="46"/><path d="M142.754 31.548l.404.139c.956.358 1.664.921 2.352 1.662l.298.292c.55.565.55.565.55.874h.212l.139.331c.102.243.209.466.338.696.551 1.218.52 2.434.477 3.742l-.007.351c-.036.769-.308 1.395-.629 2.087l-.192.45-.126.292h-.212v.318h-.212l-.08.232c-.277.623-.745 1.01-1.272 1.417l-.199.156c-.614.47-1.227.773-1.947 1.057l-.106.106c-1.562.3-3.474.47-4.981-.106l-.391-.12c-1.226-.465-2.417-1.547-3.086-2.659-.115-.205-.115-.205-.338-.295v.212l-.33.16c-.88.429-1.723.876-2.532 1.43l-.345.233c-1.777 1.222-3.458 2.699-4.776 4.41-.155.202-.315.393-.483.583-.492.567-.937 1.172-1.391 1.769l-.206.266-.172.224-.146.19c-.132.182-.132.182-.218.486h-.212l-.212.636h-.212l-.034.177c-.087.297-.222.535-.377.803a7.12 7.12 0 00-.51 1.073c-.139.384-.139.384-.285.615-.226.394-.364.804-.51 1.233a134.92 134.92 0 00-.298.868h-.212c-.017.256-.017.256 0 .53.25.25.442.305.775.417.416.14.759.31 1.133.537.273.136.551.263.828.39l.223.103.539.249v.212l.185.038c.748.21 1.423.741 2.069 1.158.405.254.822.485 1.243.711v.212l.184.037c.263.076.459.183.691.328l.227.138.17.133v.212l.23.08c.331.145.577.322.863.543l.332.254.18.14c.217.165.437.326.657.487l.235.173.462.338c.184.136.362.279.539.423v.212l.181.079c.284.156.49.342.726.563.381.35.769.684 1.173 1.007.507.41.965.85 1.417 1.318.249.25.499.5.749.748l.775.77.265.262a29.238 29.238 0 012.345 2.672l.137.173c.145.182.289.366.432.549l.138.173c.252.323.434.624.565 1.013h.211c.15.183.15.183.325.443l.197.29.22.326.257.366.131.186.255.362c.182.26.316.478.417.782l6.253.106v.212l.245.093c.32.133.549.236.724.543.279.681.372 1.274.383 2.007l.009.338a88.467 88.467 0 01.02 1.374c.016 1.575.026 3.152-.036 4.727l-.007.241c-.042.82-.323 1.642-.914 2.23-.737.532-1.564.468-2.437.423.267 1.516.267 1.516.642 3.008.455 1.64.585 3.351.523 5.047h.212c.079 9.427.079 9.427-.741 11.023-.056.269-.104.536-.146.808a47.794 47.794 0 01-.596 2.901l.183.043c.238.063.462.141.691.229l.227.086.17.066v.212h.424v.212c.254.002.254.002.53-.106.154-.238.266-.446.378-.702l.19-.406.174-.376c.136-.251.278-.496.424-.742h.212l.035-.173c.22-.774.678-1.5 1.131-2.158.131-.23.258-.463.385-.695.207-.369.428-.729.65-1.09.145-.236.145-.236.237-.547h.212l.033-.172c.092-.318.238-.595.391-.888h.212l.212-.636h.212l.046-.198c.06-.226.06-.226.166-.438h.212l.031-.177c.226-.75.816-1.424 1.29-2.039.189-.258.357-.526.527-.798.294-.47.614-.905.96-1.338.181-.233.327-.48.477-.735l.318-.318.13-.222c.247-.405.531-.778.817-1.156l.169-.224c.293-.39.591-.774.898-1.154l.201-.253c.389-.49.786-.97 1.201-1.437.203-.235.394-.477.585-.72.423-.534.878-1.032 1.341-1.53.224-.243.443-.487.659-.736l.171-.196.437-.502.26-.296.241-.275c.203-.202.203-.202.415-.202l.076-.18c.167-.3.371-.504.614-.746l.29-.29.152-.15c.151-.148.301-.298.45-.448a26.73 26.73 0 011.529-1.424c.169-.148.324-.303.479-.465.225-.218.225-.218.437-.218v-.212c.156-.14.319-.27.484-.398.315-.245.628-.49.927-.755.568-.49 1.17-.94 1.769-1.39l.187-.142a54.755 54.755 0 012.416-1.713l.241-.162a11.56 11.56 0 011.289-.74l.311-.208c.347-.23.706-.414 1.08-.593.501-.237.501-.237.96-.546.193-.136.193-.136.617-.136v-.212h.424v-.212l.283-.105.373-.14.369-.138c.348-.135.348-.135.631-.314.256-.154.48-.233.768-.31.319-.09.603-.185.908-.318.427-.18.855-.294 1.304-.408.234-.046.234-.046.345-.175.268-.042.533-.08.802-.112l.228-.03.56-.07v-.212c.827-.193 1.644-.27 2.491-.324l.738-.05.326-.021c.261-.013.261-.013.472-.135.267-.011.53-.017.796-.017l.244-.002h.513c.256 0 .512-.002.768-.004 2.7-.01 2.7-.01 3.403.341.203.023.407.044.61.063.688.065 1.277.135 1.895.46.333.15.678.232 1.032.319.702.177 1.326.429 1.974.748l.647.302.943.44v.212l.186.04c.731.203 1.362.704 1.973 1.139l.195.139c.238.172.47.34.677.55.151.161.151.161.39.283.54.338.966.817 1.414 1.267l.158.157c2.214 2.22 2.214 2.22 2.214 2.996h.212c.426.518.732 1.121 1.022 1.724.165.334.346.659.528.985.29.537.511 1.05.675 1.636a3551.804 3551.804 0 00.239.798c.164.542.335 1.075.563 1.594.199.512.239 1.054.296 1.597.008.369.008.369.174.675.291 1.251.245 2.548.24 3.823-.001.362 0 .724.001 1.087.001 1.525-.086 2.927-.482 4.406-.116.496-.174.996-.233 1.501-.056.311-.056.311-.268.629-.061.2-.061.2-.102.419l-.052.246-.051.256a10.16 10.16 0 01-.537 1.835l-.139.365-.132.344-.133.345c-.111.285-.223.57-.338.854h-.212v.529h-.211l-.041.237a3.278 3.278 0 01-.27.756l-.123.258-.13.266-.125.263c-.26.54-.526 1.077-.795 1.612h-.212l-.035.174c-.226.797-.68 1.524-1.192 2.167a4.932 4.932 0 00-.403.66c-.262.489-.579.925-.909 1.37-.204.275-.4.554-.594.835-.352.505-.724.99-1.107 1.471l-.19.243a40.112 40.112 0 01-3.446 3.821c-.36.353-.715.711-1.068 1.071-.684.697-1.367 1.364-2.134 1.969-.255.203-.498.415-.74.633-.476.427-.968.831-1.465 1.233-.205.167-.407.336-.61.504l-.455.376-.218.182c-.358.295-.669.534-1.12.673v.212c-.203.168-.203.168-.49.37l-.318.227-.358.25-.607.428-.399.28c-.346.232-.346.232-.584.564l.291.016.378.024.377.022c.332.044.332.044.65.256.217.047.436.086.656.119l.349.054.267.039v.212h.636v.212l.218-.02c.324.021.547.112.839.247.334.142.681.234 1.029.335.266.08.521.176.775.286v.212l.205.025c.462.115.871.318 1.299.525l.275.132c1.607.779 3.084 1.804 4.475 2.921l.236.178c1.595 1.217 2.882 2.728 4.003 4.38l.18.264c.668.987.668.987.668 1.538h.212c.362.682.682 1.34.885 2.087.065.232.145.451.234.675.704 1.848.588 4.096.378 6.034l-.025.236a3.981 3.981 0 01-.306 1.142l-.047.358c-.065.421-.201.739-.377 1.126-.057.145-.112.291-.166.437-.117.316-.238.629-.364.941h-.212l-.04.185c-.216.777-.765 1.446-1.239 2.083-.176.236-.344.476-.51.719l-.225.298h-.212v.212c-.156.153-.156.153-.371.331-.306.259-.587.523-.861.815-.533.542-1.152.959-1.777 1.387a25.05 25.05 0 00-.426.299c-.624.438-1.3.767-1.984 1.099a33.676 33.676 0 00-.8.402l-.547.28c-.506.237-.938.402-1.501.369v.211l-.202.047-.904.212-.319.074-.303.071-.281.066c-.214.041-.214.041-.322.166-.236.04-.472.075-.709.106-.541.073-.541.073-1.08.162a5.917 5.917 0 01-.921.064l-.344.001-.367-.001-.384.001-.806-.001-1.217.001c-3.68.001-3.68.001-4.135-.227a13.366 13.366 0 00-.527-.076l-.315-.041-.662-.083-.315-.041-.29-.037c-.223-.04-.223-.04-.329-.146l-.371-.053c-.371-.053-.371-.053-.477-.159l-.377-.039a3.932 3.932 0 01-1.075-.296c-.492-.179-1.006-.287-1.515-.406v-.212a47.457 47.457 0 01-.305-.034c-.813-.117-1.576-.41-2.331-.722a8.837 8.837 0 00-.544-.198l-.042.386-.057.501a24.79 24.79 0 01-.028.255c-.073.635-.073.635-.191.871-.033.275-.054.55-.076.826-.03.234-.03.234-.136.34-.022.159-.038.318-.053.477-.041.465-.041.465-.159.583a36.04 36.04 0 00-.159.795c-.144.781-.144.781-.265.901l-.053.371c-.053.371-.053.371-.158.477a25.16 25.16 0 00-.04.331 3.326 3.326 0 01-.297.932c-.111.28-.177.563-.246.857a8.042 8.042 0 01-.477 1.377c-.051.183-.099.366-.146.55-.142.542-.341 1.039-.563 1.553-.147.353-.273.709-.398 1.07a18.171 18.171 0 01-.752 1.794c-.146.313-.278.628-.407.949-.33.805-.73 1.576-1.126 2.351h-.212l-.035.179c-.272.945-.952 1.841-1.449 2.683l-.158.275a18.007 18.007 0 01-1.115 1.664c-.19.258-.373.519-.555.783-.812 1.162-1.654 2.282-2.623 3.319l-.344.391-.18.205c-.176.203-.351.408-.526.613a35.538 35.538 0 01-1.778 1.964l-.163.165c-.374.371-.374.371-.613.371v.212h-.211v.212a10.47 10.47 0 01-.524.438c-.384.307-.761.617-1.126.947-.707.634-1.456 1.214-2.212 1.788l-.318.242c-.272.189-.272.189-.59.295l.001.213c.005 2.515-.006 5.031-.026 7.546l-.012 1.863c-.002.612-.007 1.223-.012 1.834l-.004.69c-.007 2.297-.321 3.964-1.947 5.673-.225.198-.225.198-.437.198v.212a39.311 39.311 0 01-.632.331c-.216.093-.216.093-.534.093v.212c-1.162.326-2.378.381-3.498-.106l-.318-.106v-.212l-.166-.025c-.367-.115-.668-.322-.986-.531l-.193-.123a8.464 8.464 0 01-.895-.657c-.27-.225-.528-.4-.833-.572a18.954 18.954 0 01-1.977-1.31c-.247-.189-.247-.189-.567-.279v-.212l-.219-.073a4.278 4.278 0 01-.857-.53c-.234-.167-.479-.31-.726-.457-.197-.129-.393-.26-.589-.391-.339-.227-.678-.454-1.018-.678a28.131 28.131 0 01-1.607-1.132 7.533 7.533 0 00-.707-.449c-.289-.19-.576-.383-.863-.577a19.378 19.378 0 00-1.469-.907v-.211l-.987.152-.283.043-.272.043-.251.038c-.24.04-.24.04-.539.147a19.29 19.29 0 01-.761.007l-.409-.003-.313-.004v.212h-1.802v.212c-3.21.167-6.432.155-9.645.06l-.222-.006c-1.203-.036-1.203-.036-1.791-.16-.37-.026-.74-.046-1.11-.064-.575-.031-.575-.031-.692-.148-.836-.204-1.688-.266-2.544-.318v-.211l-.338.013c-.637.002-1.261-.118-1.888-.225v-.212l-.178-.02-.51-.057a73.803 73.803 0 00-.491-.053 7.552 7.552 0 01-1.364-.294 43.808 43.808 0 00-.954-.212v-.212l-.404-.033c-.499-.055-.962-.179-1.443-.318-.291-.084-.291-.084-.67-.126a3.043 3.043 0 01-.872-.284c-.264-.107-.529-.175-.804-.246a5.764 5.764 0 01-1.212-.477 21.712 21.712 0 00-.497-.146c-.516-.147-.987-.355-1.47-.587a3.242 3.242 0 00-.683-.221v-.212h-.424v-.212l-.223.022c-.397-.028-.632-.174-.976-.373-.567-.319-.567-.319-1.166-.57a9.753 9.753 0 01-1.238-.563v-.212l-.178-.04a8.237 8.237 0 01-.796-.264l-.283-.106c-.227-.12-.227-.12-.333-.438l-.272-.019c-.395-.094-.587-.227-.903-.469-.363-.264-.763-.464-1.157-.677l-.742-.424v-.212a8.981 8.981 0 00-.186-.034c-.272-.083-.433-.2-.655-.377a6.282 6.282 0 00-.678-.479 14.134 14.134 0 01-.991-.674 57.743 57.743 0 00-1.655-1.152l-.18-.146v-.212l-.179-.08c-.825-.444-1.525-1.182-2.209-1.82-.33-.306-.67-.591-1.023-.869a20.04 20.04 0 01-3.17-3.236 7.924 7.924 0 00-.633-.679c-.47-.456-.863-.961-1.265-1.477l-.43-.536-.418-.524-.173-.215c-.598-.753-1.144-1.545-1.695-2.333l-.37-.526c-1.683-2.39-1.683-2.39-1.683-2.861H74.5l-.09-.187a19.894 19.894 0 00-.818-1.509 8.634 8.634 0 01-.684-1.442 6.897 6.897 0 00-.533-.994c-.1-.213-.1-.213-.1-.637h-.213l-.126-.358a8.378 8.378 0 00-.444-.98c-.284-.554-.486-1.127-.688-1.715a9.004 9.004 0 00-.292-.736 9.928 9.928 0 01-.383-1.147 5.331 5.331 0 00-.26-.661c-.133-.325-.17-.523-.138-.868h-.212c-.154-.481-.237-.867-.213-1.378h-.211l-.04-.325c-.056-.408-.056-.408-.167-.759a11.454 11.454 0 01-.264-1.281c-.1-.597-.227-1.162-.417-1.738-.098-.359-.125-.717-.15-1.087-.01-.222-.01-.222-.128-.427a10.136 10.136 0 01-.007-.543l.003-.293.004-.224h-.212a212.52 212.52 0 01-.047-.715l-.026-.403c-.02-.343-.02-.343-.09-.575-.079-.342-.06-.687-.056-1.036l.002-.224c0-.182.003-.363.005-.545h-.212c-.111-2.792-.17-5.585-.06-8.379l.013-.323c.033-.717.033-.717.153-.836.03-.243.052-.487.072-.731l.02-.226.08-.956c.102-1.225.23-2.412.57-3.598.058-.336.112-.673.162-1.01.05-.262.05-.262.156-.368.037-.249.07-.499.099-.749.071-.576.165-1.13.325-1.689h.212l-.014-.322c.014-.439.098-.789.225-1.208l.12-.397.093-.299h.212l-.014-.284c.014-.352.088-.563.225-.881v-.318a60.664 60.664 0 01-2.125-1.194 53.401 53.401 0 00-.628-.365l-.294-.17-.263-.151a15.974 15.974 0 00-.187-.134v-.212l-.174-.029c-.822-.254-1.57-.949-2.237-1.481a19.392 19.392 0 00-.782-.57c-.78-.564-1.495-1.201-2.212-1.842l-.175-.155a57.27 57.27 0 01-2.197-2.097l-.24-.239a21.292 21.292 0 01-1.932-2.205 39.995 39.995 0 00-1.06-1.338 11.807 11.807 0 01-.861-1.173c-.19-.273-.382-.546-.574-.819-.38-.544-.38-.544-.38-.876h-.212a2.209 2.209 0 01-.424-1.06h-.212l-.386-.773-.251-.498a29.755 29.755 0 01-1.354-3.064 12.385 12.385 0 00-.394-.885c-.265-.568-.438-1.152-.605-1.755a16.333 16.333 0 00-.508-1.504c-.157-.479-.236-.874-.212-1.378h-.212l-.015-.186a5.297 5.297 0 00-.303-1.404c-.108-.35-.117-.667-.112-1.033l.003-.316.004-.24h-.212l-.02-.31-.027-.406-.026-.402c-.02-.34-.02-.34-.088-.558-.068-.308-.064-.597-.063-.913v-.417l.001-.45v-.462l.003-1.213.002-1.238c.002-.809.003-1.619.006-2.428l-.28.007c-.346.007-.692.012-1.038.016-.15.002-.298.005-.448.009-1.54.037-1.54.037-2.156-.456-.5-.553-.667-.93-.657-1.667l.001-.241.007-.761.003-.517c.002-.422.006-.844.01-1.265l-.293.003a229.362 229.362 0 01-1.549.013 88.87 88.87 0 01-.673.004l-.409.004a2.173 2.173 0 01-.891-.236v-.212l-.192-.02c-.333-.124-.4-.301-.55-.616-.386-1.589-.224-3.362-.212-4.982l-.298.01c-.368.011-.736.02-1.105.025l-.476.013c-1.591.055-1.591.055-2.206-.51l-.155-.174-.162-.173c-.842-1.084-.49-3.242-.487-4.537l-.001-1.043c0-1.042.008-2.083.055-3.124l.01-.247c.023-.425.081-.772.268-1.156h.211v-.212h.212v-.212h.212v-.212c.41-.272.836-.24 1.308-.237l.273-.001a701.137 701.137 0 001.554.002c.587 0 1.175.001 1.762.003l1.842.001c1.162 0 2.325.003 3.487.005l3.97.004c2.722.003 5.445.006 8.167.011v-.212h.212l.037-.184c.076-.263.183-.459.328-.69l.138-.227.133-.17h.212l.037-.189c.075-.255.17-.404.332-.615l.16-.212.173-.223.176-.23c.166-.218.333-.435.5-.651l.22-.287a74.86 74.86 0 01.725-.926c.407-.515.825-1.014 1.264-1.5.13-.145.258-.29.385-.436.445-.516.908-1.007 1.39-1.489.11-.112.11-.112.225-.226l.468-.47.71-.712.458-.46.21-.212c.429-.427.876-.807 1.36-1.172.383-.293.743-.614 1.104-.934.324-.28.61-.478 1.02-.61v-.211c.46-.424.46-.424.847-.424v-.212c.179-.137.179-.137.411-.278l.231-.143c.206-.109.206-.109.418-.109v-.212c.144-.125.144-.125.338-.258l.205-.141c.239-.157.482-.305.73-.449l.317-.212h.318v-.212c.248-.164.248-.164.583-.35a21 21 0 001.365-.832c.172-.09.172-.09.49-.09V60.8h.424v-.212l.616-.317.346-.18c.31-.138.31-.138.627-.138v-.212h.424v-.212l.365-.133c.488-.183.962-.395 1.437-.61.378-.167.528-.211.954-.211v-.212l.954-.318c-.186-1.102-.716-2.132-1.251-3.102l-.103-.188-.3-.54c-.148-.303-.148-.303-.148-.621h-.212l-.217-.549c-.091-.2-.091-.2-.254-.344-.208-.21-.311-.432-.443-.697-.3-.564-.658-1.034-1.071-1.52-.217-.254-.421-.514-.625-.779-1.25-1.565-2.7-2.938-4.279-4.166l-.328-.262c-1.051-.835-2.169-1.494-3.381-2.07l-.307-.147c-.464-.217-.88-.405-1.39-.489v-.212l-.229-.046-1.36-.272-.046.192a8.216 8.216 0 01-.166.55h-.212l-.212.636h-.212l-.083.187c-.59 1.088-1.858 1.767-2.99 2.145l-.345.165c-.86.365-1.795.384-2.716.391l-.26.003c-.49-.003-.88-.059-1.343-.241l-.357-.1a15.526 15.526 0 01-1.233-.43v-.212l-.186-.036c-.7-.208-1.371-.895-1.827-1.448v-.212l-.199-.066c-.315-.204-.345-.429-.437-.782h-.212c-.449-.737-.942-1.547-.848-2.438h-.212c-.008-.467-.014-.934-.017-1.402a62.983 62.983 0 00-.007-.476c-.027-1.607-.027-1.607.342-2.361l.086-.242c.171-.485.39-.908.656-1.348h.212l.02-.179c.121-.346.353-.525.616-.775l.212-.318h.212v-.212h.212v-.212c.243-.183.243-.183.563-.384l.316-.203c.287-.154.287-.154.605-.154v-.212c.416-.177.837-.3 1.271-.424l.239-.111c.568-.198 1.189-.136 1.785-.135.24 0 .48-.002.721-.005h.886c.454.044.73.161 1.139.357l.377.119c1.485.556 2.75 1.684 3.548 3.036.102.236.102.236.102.66h.212c.166.38.262.738.331 1.146l.054.313.039.237.276.008a8.22 8.22 0 013.01.7c.287.126.538.199.847.246v.212l.212.033c.407.093.777.239 1.166.39v.213l.178.035c.507.146.956.447 1.412.706l.27.154c.686.4 1.322.853 1.956 1.33l.172.13a27.64 27.64 0 011.87 1.51c.18.16.366.31.554.46l.265.232v.212h.212v.212h.212v.212h.212c.138.137.138.137.305.338.294.346.595.682.906 1.014a19.598 19.598 0 011.692 2.028c2.15 2.925 2.15 2.925 2.712 4.13.106.221.225.427.353.638.18.33.18.33.18.755h.211c.827 1.635.827 1.635 1.113 2.252l.096.207c.063.19.063.19.063.614h.212v.318c.157-.032.314-.066.47-.1l.265-.055c.216-.036.216-.036.325-.163.274-.053.546-.1.821-.146a24.135 24.135 0 001.716-.344 8.88 8.88 0 011.509-.23c.195-.002.195-.002.3-.128.262-.041.523-.076.788-.106l.24-.028a29.805 29.805 0 012.056-.147c.411-.013.411-.013.813-.09.336-.075.67-.067 1.012-.066h1l.532-.001h4.17a200.629 200.629 0 011.159 0c.312.014.312.014.418.12.244.02.49.035.735.047 1.541.087 3.021.282 4.53.614.576.127 1.142.231 1.73.293v.212l.298-.02c.455 0 .858.12 1.293.246.333.097.668.185 1.005.271l.315.08c.274.07.274.07.586.06l.311-.61.176-.343c.119-.255.203-.47.255-.744h.212v-.424h.212l.013-.291c.086-.621.412-1.19.729-1.722l.212-.106c.094-.176.181-.356.265-.537.314-.647.68-1.25 1.067-1.855.209-.327.413-.647.576-1h.212l.084-.233c.5-1.162 1.55-2.19 2.353-3.158l.176-.217.171-.206.153-.186c.136-.133.136-.133.348-.133l.082-.187c.143-.262.304-.438.514-.65l.227-.227.237-.235.237-.239c.075-.075.149-.15.227-.226l.207-.207c.177-.149.177-.149.389-.149v-.212h.212v-.212c.158-.141.322-.275.49-.404l.293-.229c.092-.07.183-.142.277-.215l.351-.291.285-.239.284-.245c.245-.179.245-.179.563-.179v-.212c.17-.14.17-.14.407-.299l.256-.171.271-.179.268-.18.258-.172.237-.157c.211-.114.211-.114.529-.114v-.211c.281-.155.413-.212.742-.212v-.212l.801-.404.227-.115.224-.113.224-.112c.211-.1.424-.184.642-.268l.32-.154c.07-.345.07-.345.075-.597.181-1.482 1.487-3.114 2.574-4.066.718-.53.718-.53 1.166-.53v-.212l.298-.113.384-.146.384-.145c.295-.096.295-.096.418-.232 1.564-.382 3.195-.362 4.663.318z"/><path d="M86.9 84.858a2029.394 2029.394 0 014.12-.008 661.083 661.083 0 011.742-.003h.672l.387-.001c.287.012.287.012.393.118.011.245.015.49.016.734l.002.232.003.501.005.794c.007.753.013 1.505.016 2.258.002.46.006.92.011 1.38l.003.525c0 .246.003.491.006.737l.002.423c.044.386.144.58.36.895v.212l.192.093c.232.119.232.119.55.331.26.025.511.04.773.044l.226.006.716.016.486.013c.397.01.793.019 1.19.027v.403c0 .497.005.995.01 1.492.002.214.003.429.003.643 0 .31.003.62.008.93l-.003.286c.016.724.224 1.227.724 1.757.553.339 1.065.367 1.695.372l.268.006c.28.006.559.009.839.013l.572.011c.465.009.93.016 1.395.022l.002.301c.003.371.008.742.014 1.113.003.16.004.321.005.481.001.231.005.462.01.693l.005.42c.085.462.242.729.6 1.02.758.477 1.502.482 2.376.473l.424.001c.384.001.768-.001 1.152-.004.408-.002.817-.002 1.226-.002.692-.001 1.384-.003 2.076-.007.952-.004 1.905-.006 2.857-.007 3.454-.005 6.907-.029 10.36-.1 2.079-.042 4.158-.048 6.237-.036v-.212c.308-.134.509-.212.848-.212v-.212l.245-.166c.525-.476.615-1.128.657-1.815a1243.922 1243.922 0 00.052-1.729h4.558v-.212l.284-.08c.444-.167.772-.35 1-.779.123-.404.129-.794.134-1.213l.005-.26c.006-.274.01-.547.014-.82l.015-.826.009-.513c.011-.584.011-.584.128-.702.197-.01.394-.011.59-.01a476.271 476.271 0 01.742.003l.381.002.937.005c.244.715.302 1.443.378 2.192l.079.77.035.342c.029.285.029.285.092.5.056.24.065.45.066.694l.001.28-.001.3v.956 1.62l.001.301-.001.278-.001.245c-.013.213-.013.213-.119.531-.012.155-.019.31-.022.465l-.009.279-.009.296c-.03.815-.116 1.561-.31 2.354a6.436 6.436 0 00-.14.872c-.04.397-.04.397-.146.609-.033.247-.054.494-.076.742-.03.212-.03.212-.136.318-.039.247-.074.494-.106.742h-.212v.742h-.212l.02.258c-.035.672-.309 1.264-.563 1.881a4.056 4.056 0 00-.305 1.146h-.212l-.026.265c-.081.378-.208.643-.388.98-.126.26-.216.521-.308.795-.201.573-.483 1.069-.798 1.587a8.702 8.702 0 00-.394.738c-.193.398-.431.756-.68 1.121-.331.487-.646.979-.903 1.509h-.212l-.077.225c-.159.36-.363.631-.605.941l-.141.18a47.48 47.48 0 01-2.391 2.795c-.183.194-.183.194-.284.417h-.212v.212h-.212v.211h-.212v.212h-.212v.212h-.212v.212c-.166.15-.34.292-.516.431-.404.322-.794.65-1.173 1-1.572 1.431-1.572 1.431-2.02 1.431v.212c-.574.424-.574.424-.848.424v.212c-.173.111-.351.216-.53.318-.274.194-.545.392-.815.591-.245.151-.245.151-.563.151v.212l-.636.212v.212l-.27.131-.352.173-.35.172c-.304.143-.304.143-.511.372h-.318v.211h-.424v.212c-.185.09-.371.178-.557.265l-.313.149c-.296.116-.296.116-.72.116v.212c-.132.072-.265.142-.397.212l-.224.12c-.227.092-.227.092-.651.092v.212l-.306.105-.403.14-.398.138c-.333.13-.602.282-.907.465a17.61 17.61 0 01-.728.265c-.403.139-.799.277-1.186.457a1.572 1.572 0 01-.841.126v.212h-.636v.212l-.279.058c-.627.137-1.165.279-1.735.578-.246.04-.494.077-.742.106l-.106.106-.742.106-.106.106c-.359.047-.718.087-1.079.123-.463.038-.463.038-.828.301-.236.051-.236.051-.529.086l-.325.04-.345.039-.351.042c-.696.082-1.39.145-2.089.191a8.836 8.836 0 00-1.071.181c-1.853.389-3.733.392-5.618.388l-.98.001h-.923a12.828 12.828 0 01-1.555-.096 7.963 7.963 0 00-.69-.05l-.25-.011-.258-.01c-1.435-.065-2.849-.204-4.26-.472a19.14 19.14 0 00-1.722-.223 11.151 11.151 0 01-1.983-.354 6.688 6.688 0 00-1.004-.176v-.212h-.848v-.212l-.37.02c-.403 0-.71-.09-1.085-.247-.395-.15-.806-.237-1.217-.335a9.463 9.463 0 01-.931-.286v-.212l-.285.013a2.012 2.012 0 01-.881-.225v-.212h-.636v-.212l-.225.013c-.346-.015-.618-.105-.94-.225v-.212a45.47 45.47 0 00-.206-.033c-.438-.098-.856-.244-1.279-.391v-.212l-.23-.042c-.956-.205-1.79-.644-2.631-1.124l-.583-.311a21.937 21.937 0 01-1.477-.898 6.97 6.97 0 00-.716-.387c-.392-.186-.718-.429-1.06-.695a6.792 6.792 0 00-.722-.464 125.364 125.364 0 01-.953-.636v-.212l-.172-.023c-.353-.116-.614-.332-.902-.56l-.186-.146a25.356 25.356 0 01-1.602-1.391l-.204-.19c-1.48-1.378-2.92-2.748-4.142-4.367l-.253-.336a58.917 58.917 0 01-1.694-2.4l-.187-.276c-.975-1.461-.975-1.461-1.151-2.287h-.212v-.424h-.212v-.424h-.212v-.424h-.212l-.212-.51-.12-.287c-.092-.263-.092-.263-.092-.581h-.212v-.636h-.212a2.897 2.897 0 01-.212-1.272H55l-.035-.248c-.09-.587-.194-1.125-.418-1.675-.24-.611-.32-1.23-.369-1.881-.014-.229-.014-.229-.132-.435-.053-.338-.08-.68-.112-1.02l-.03-.27c-.074-.787-.075-1.57-.072-2.361v-.357l.002-.867.307-.002 7.39-.034 3.575-.017 3.116-.015 1.65-.008a804.427 804.427 0 002.122-.01c1.729.102 1.729.102 3.282-.464l.251-.184.246-.22.29-.248c.425-.527.323-1.272.326-1.912l.008-.42c.007-.341.01-.682.012-1.024l.386-.003c.475-.004.95-.011 1.424-.019l.615-.007c.296-.002.591-.007.887-.012l.275-.001c.785-.019 1.286-.261 1.92-.71.323-.46.292-.872.288-1.422l.004-.325c.004-.342.004-.683.004-1.025l.009-1.03c.002-.213.003-.426.003-.64l.001-.29v-.257c.013-.194.013-.194.12-.3.236-.014.473-.022.71-.026l.44-.01.697-.015c.224-.004.447-.01.671-.015l.407-.008c.656-.058.987-.281 1.42-.774.123-.37.124-.707.128-1.093l.003-.239.008-.779.007-.54.016-1.423.017-1.451.033-2.848zM193.12 81.869c.236.002.472.002.708.002 1.148.004 1.148.004 1.391.126.357.033.715.054 1.073.076.305.03.305.03.411.136l.371.052c.371.053.371.053.477.16.246.038.494.074.741.105v.212l.229-.016c.353.02.574.12.891.275.333.162.637.303 1 .377v.212l.23.035c.785.186 1.495.698 2.118 1.195.199.156.199.156.443.292.341.21.642.457.945.717l.183.156c.798.688 1.521 1.4 2.122 2.269l.219.311c.735 1.162.735 1.162.735 1.596h.212c.471.91.835 1.81 1.09 2.802.077.296.077.296.235.663.201.505.279 1.04.371 1.574.066.407.066.407.212.79.01.169.013.337.014.506l.001.318-.001.345V98.25 100.103l.001.344-.001.32-.001.281c-.013.238-.013.238-.119.556-.039.276-.074.551-.106.828a26.115 26.115 0 01-.212 1.503h-.212l.011.183c.018.497-.013.846-.238 1.3-.118.277-.181.556-.25.849-.117.488-.268.92-.477 1.378a58.73 58.73 0 00-.271.695l-.133.345c-.12.323-.231.647-.338.974h-.212v.424h-.212v.424h-.212l-.046.304c-.06.331-.06.331-.166.543h-.212l-.032.168c-.098.342-.247.65-.398.972l-.176.376-.136.286h-.211l-.035.179c-.199.682-.685 1.294-1.131 1.835-.107.152-.213.304-.318.457a41.488 41.488 0 01-2.968 3.782l-.242.275c-.13.147-.261.294-.393.44-.12.136-.241.272-.358.41a31.563 31.563 0 01-1.675 1.775l-.495.499a20.737 20.737 0 01-1.885 1.695c-.256.202-.256.202-.483.444-.192.186-.192.186-.404.186v.211c-.224.207-.224.207-.517.438l-.29.232c-.253.178-.253.178-.465.178l-.106.318a9.608 9.608 0 01-.45.305c-.334.215-.645.462-.961.702a66.443 66.443 0 01-2.121 1.536c-.304.212-.6.424-.889.657a4.2 4.2 0 01-.706.45 6.978 6.978 0 00-.901.57c-.331.232-.331.232-.649.232v.212c-.702.424-.702.424-1.06.424v.212l-.636.212v.212h-.424v.211l-.187.09c-.508.249-.998.512-1.482.805-.82.484-1.728.967-2.676 1.119v.212l-.358.126c-.34.127-.658.275-.98.444-.55.283-1.119.482-1.704.68-.351.121-.351.121-.676.293a4.04 4.04 0 01-.886.312c-.342.088-.665.18-.987.324-.533.237-1.028.4-1.616.365v.212l-.848.106-.212-.411-.119-.231c-.093-.206-.093-.206-.093-.418h-.212l-.124-.26-.167-.343-.164-.339c-.169-.331-.169-.331-.394-.597-.228-.285-.367-.572-.529-.899a16.244 16.244 0 00-.424-.589c-.269-.36-.515-.718-.741-1.107l-.179-.284c-.139-.245-.139-.245-.139-.457h-.212c-.149-.167-.149-.167-.312-.391l-.162-.22c-.162-.237-.162-.237-.314-.497a6.951 6.951 0 00-.603-.813l-.256-.309-.261-.314-.477-.59a34.024 34.024 0 00-1.183-1.362 32.905 32.905 0 01-.58-.659c-.409-.468-.84-.91-1.28-1.35l-.245-.247-.513-.513-.774-.779c-.793-.795-1.575-1.561-2.473-2.237a24.002 24.002 0 01-.53-.477 23.94 23.94 0 00-1.326-1.117 34.3 34.3 0 01-.514-.412 30.593 30.593 0 00-1.773-1.332c-.36-.254-.709-.516-1.05-.795.073-.388.239-.691.43-1.034l.176-.316.136-.24h.212l.033-.166c.098-.349.244-.668.391-1h.211v-.424h.212l.036-.233c.074-.31.182-.532.342-.807l.146-.254.112-.19h.212l.027-.212c.106-.423.299-.782.503-1.166h.212l.212-.635h.212l.033-.173c.092-.318.238-.595.391-.887h.212l.08-.226c.15-.346.341-.63.556-.94l.212-.318.834-1.251.442-.668.214-.327.216-.329c.202-.287.202-.287.36-.438.203-.212.325-.455.466-.71.192-.325.426-.613.661-.907.414-.515.414-.515.728-1.093h.212l.09-.189a4.28 4.28 0 01.388-.607l.157-.209.167-.221.173-.229a50.23 50.23 0 011.463-1.83l.477-.584.236-.287c.17-.208.338-.417.505-.628l.259-.323.235-.296.196-.215h.212v-.212h.212l.07-.172c.19-.338.446-.602.711-.88l.346-.37.179-.19c.226-.241.45-.486.673-.73 1.296-1.414 1.296-1.414 1.73-1.79h.212v-.213h.212v-.212h.212v-.212h.212v-.212h.212v-.212c.148-.15.148-.15.358-.324.341-.29.676-.585 1.007-.888 2.064-1.861 2.064-1.861 2.557-1.861v-.212c.573-.424.573-.424.847-.424v-.212c.249-.184.497-.356.756-.524l.213-.142c.408-.268.818-.499 1.257-.712l.219-.166c.234-.173.464-.258.735-.364.178-.103.355-.21.53-.318a29.43 29.43 0 011.389-.77c.201-.078.201-.078.625-.078v-.212l.302-.105.4-.14.395-.138c.385-.138.385-.138.731-.322.333-.163.561-.169.927-.143v-.212l.321-.065.414-.087.414-.086c.319-.045.319-.045.441-.186.218-.033.436-.054.656-.076.194-.01.194-.01.298-.136.156-.021.313-.038.47-.052.361-.031.361-.031.696-.16 1.102-.188 2.19-.243 3.306-.233zM168.297 141.984h.212l.113.332c.16.43.361.836.569 1.245.491.968.837 1.912 1.126 2.959.112.38.253.722.418 1.082.172.459.251.892.318 1.377l.106.106c.004.177.004.354 0 .53h.212l.033.318c.053.379.17.709.31 1.064.219.565.323 1.11.372 1.711.007.195.007.195.133.299.22.844.236 1.676.212 2.543h.211c.036.643.067 1.285.093 1.928.012.267.027.533.043.799.041.921-.071 1.578-.516 2.399a2.273 2.273 0 00-.255.704h-.212l-.031.165c-.104.355-.271.673-.44 1l-.1.198-.277.544-.212.424h-.212l-.034.172c-.091.319-.229.598-.377.895l-.165.335c-.147.26-.273.409-.484.612a9.316 9.316 0 00-.272.477 9.368 9.368 0 01-.47.795h-.212v.424h-.212v.212h-.212l-.069.214c-.19.42-.453.759-.732 1.124l-.174.228a46.53 46.53 0 01-1.608 1.998 63.727 63.727 0 01-2.009 2.274c-.211.23-.415.461-.617.698a30.2 30.2 0 01-1.396 1.467l-.449.452a21.507 21.507 0 01-1.806 1.621 14.47 14.47 0 00-.844.741 23.02 23.02 0 01-1.372 1.163 40.63 40.63 0 00-.559.449l-.288.236-.262.215c-.215.156-.215.156-.427.156v.212c-.215.185-.215.185-.523.411l-.169.123c-.192.141-.386.28-.58.42l-.228.165-.719.517-.232.167c-.372.264-.714.491-1.153.635v.212h-.318v.211c-.318.212-.318.212-.635.212v.212c-.198.16-.198.16-.458.332l-.257.173c-.239.131-.239.131-.557.131v.212l-.636.212v.212l-.636.212v.212l-.206.101a23.55 23.55 0 00-1.795.974c-.51.303-.51.303-.861.303v.212l-.176.082-.797.375-.278.13c-.368.173-.725.344-1.073.557-.219.128-.219.128-.537.128v.212h-.424v.212l-.331.112c-.515.19-.996.442-1.479.7-.354.184-.536.248-.946.248v.212l-.801.311-.227.089a5.303 5.303 0 01-1.41.341v.212l-.209.059c-.405.116-.786.226-1.162.418-.392.193-.786.289-1.208.398-.302.078-.302.078-.653.238-.411.176-.82.285-1.252.398a6.662 6.662 0 00-.702.238c-.469.186-.954.294-1.444.408-.251.044-.251.044-.365.175-.211.004-.424.005-.635 0v.212h-.848v.212h-.848v.212l-.349.062-.459.084-.229.04a6.37 6.37 0 00-.955.235c-.518.166-1.049.237-1.585.321-.929.148-.929.148-1.853.324-.467.096-.933.16-1.406.212-.519.043-.519.043-1.007.206-1.06.179-2.124.245-3.197.282a27.62 27.62 0 00-.277.01l-.246.007c-.211.007-.211.007-.414.125-.371.039-.746.046-1.119.059l-.358.014a113.98 113.98 0 01-3.557.046l-.286.001h-1.068a14.43 14.43 0 01-1.499-.094c-.471-.045-.944-.061-1.416-.079l-.641-.027-.998-.039-.971-.04-.305-.012-.279-.011a18.023 18.023 0 00-.246-.01c-.187-.02-.187-.02-.293-.126a20.74 20.74 0 00-.748-.06l-.415-.027-.321-.019v-.212l-.317.004-.411.002-.41.004c-.345-.01-.345-.01-.557-.116a10.894 10.894 0 00-.477-.053c-.454-.041-.454-.041-.69-.159-.246-.033-.493-.054-.741-.076-.212-.03-.212-.03-.318-.136a7.547 7.547 0 00-.424-.053c-.412-.041-.412-.041-.53-.159a6.952 6.952 0 00-.43-.06l-.418-.046v-.212l-.417.007a6.182 6.182 0 01-.43-.007l-.107-.106-.324-.04a4.799 4.799 0 01-1.032-.299c-.389-.141-.787-.244-1.187-.35a15.11 15.11 0 01-1.61-.512c-.339-.125-.689-.198-1.04-.279-1.129-.39-1.847-1.161-2.663-1.998l-.366-.369a35.215 35.215 0 01-1.74-1.876c-.246-.27-.493-.538-.74-.806a5.576 5.576 0 01-.532-.784c-.15-.19-.302-.378-.457-.563a23.802 23.802 0 01-1.557-2.087l-.357-.51c-.505-.72-.994-1.436-1.414-2.21a27.703 27.703 0 00-.95-1.584c-.14-.253-.14-.253-.14-.571h-.212l-.212-.742h-.212a38.701 38.701 0 01-.212-.404l-.12-.227c-.092-.217-.092-.217-.092-.535.263.049.435.113.662.259.374.212.72.285 1.14.377v.212h.53v.212l.225-.02c.38.025.601.165.94.338.279.09.559.171.84.249.22.069.22.069.326.175.247.039.494.075.742.106v.212l.212-.02c.294.019.456.064.722.172.432.175.828.231 1.292.272v.212l.311-.007c.325.007.325.007.43.113.226.025.45.05.675.072.452.055.895.15 1.34.246v.212l.224-.004.292-.003.29-.003c.253.01.253.01.465.116.192.021.384.039.577.053.33.025.59.053.907.159.212.021.424.038.636.053.347.024.623.049.954.159a24.679 24.679 0 001.04.073l.55.033v.212a5399.684 5399.684 0 005.894.008 1092.036 1092.036 0 002.495.003 75.118 75.118 0 003.488-.058l.288-.013a14.375 14.375 0 001.507-.152c.163-.008.326-.012.489-.011l.254.001.257.003.265.002.642.005v-.212h1.696v-.212l.225-.02.292-.027.29-.026c.254-.019.254-.019.465-.139a13.45 13.45 0 011.928-.258 4.34 4.34 0 001.283-.29c.485-.149.986-.22 1.487-.3.386-.032.386-.032.707-.212.161-.008.323-.009.484-.007a689.328 689.328 0 00.47.007v-.212l.652-.072c.197-.015.197-.015.302-.14l.742-.106.106-.106c.247-.004.494-.004.742 0v-.212l.249-.055c1.513-.329 1.513-.329 2.97-.841.427-.182.854-.319 1.298-.449l.237-.072c.404-.119.755-.204 1.181-.173v-.212l.191-.051c.61-.171 1.17-.393 1.743-.662.287-.133.576-.259.868-.38l.251-.104c.232-.074.232-.074.656-.074v-.212l.656-.259.369-.145c.297-.106.573-.181.883-.232v-.212l.391-.139c.357-.134.662-.297.987-.497l.33-.138c.539-.227 1.044-.516 1.553-.801.434-.236.795-.393 1.296-.439v-.212l.325-.152c.537-.267 1.045-.582 1.553-.899.327-.2.61-.353.984-.433v-.212c.232-.152.232-.152.554-.329a27.733 27.733 0 002.029-1.294l.353-.241a96.562 96.562 0 002.995-2.129l.277-.206.543-.405.249-.185.222-.167c.197-.131.197-.131.515-.237v-.212c.226-.174.453-.336.689-.497a15.37 15.37 0 001.643-1.305l.41-.364.178-.159c.154-.113.154-.113.365-.113v-.212c.142-.121.289-.235.439-.346.755-.59 1.413-1.271 2.085-1.952l.386-.389.706-.713c.423-.428.85-.853 1.278-1.277l.485-.483.251-.248.238-.237.217-.215c.177-.173.177-.173.275-.393h.212l.072-.175c.181-.323.423-.572.676-.838.466-.498.904-1.01 1.332-1.541.285-.349.579-.689.874-1.029a38.516 38.516 0 002.498-3.209l.165-.203h.212l.023-.17c.117-.358.339-.622.566-.916a49.135 49.135 0 001.564-2.226l.214-.319c.452-.678.857-1.37 1.236-2.092l.237-.443.313-.592c.426-.803.426-.803.616-1.085z"/><path d="M145.088 118.137c.947.178 1.847.941 2.648 1.462.343.223.688.432 1.048.625.395.212.742.463 1.096.738.357.27.741.479 1.143.673v.212l.172.079c.576.303 1.086.701 1.597 1.1.323.252.645.501.987.728v.212l.212.06c.457.219.843.499 1.165.894 0 .365 0 .365-.106.636h-.212v.424h-.212l-.046.186-.166.662h-.212l-.079.265a9.626 9.626 0 01-.556 1.219h-.212a25.97 25.97 0 00-.036.174c-.225.797-.679 1.524-1.191 2.167a4.83 4.83 0 00-.403.66c-.262.489-.579.925-.909 1.369-.204.276-.4.555-.595.836-.301.434-.62.849-.947 1.263-.18.235-.328.482-.477.738-.14.178-.281.354-.424.53l-.193.242c-.753.945-1.508 1.88-2.322 2.773-.336.378-.652.771-.967 1.167-.239.283-.492.539-.757.799l-.393.397-.435.438-.216.219c-.422.423-.854.827-1.306 1.217-.345.297-.676.608-1.01.917a2.588 2.588 0 01-.668.416v.211c-.159.138-.159.138-.377.292-.289.209-.567.421-.835.656-.348.303-.71.587-1.077.868a41.86 41.86 0 00-1.064.866c-.253.182-.487.29-.78.392v.212c-.174.111-.351.215-.53.318a68.99 68.99 0 00-.702.503c-1.802 1.299-1.802 1.299-2.159 1.299v.212l-.183.097c-.391.212-.769.421-1.122.691-.422.313-.887.529-1.359.756-.306.146-.306.146-.588.329-.246.14-.246.14-.564.14v.212a83.748 83.748 0 01-.713.357l-.776.386-.226.112-.445.221a9.395 9.395 0 00-.885.487c-.24.133-.24.133-.664.133v.212h-.424v.212l-.358.126a8.305 8.305 0 00-.98.444c-.548.28-1.113.481-1.694.682-.643.225-1.268.478-1.883.768-.476.216-.961.33-1.468.448-.313.073-.313.073-.665.235-.451.193-.904.298-1.381.408-.254.043-.254.043-.368.175-.212.004-.424.004-.636 0v.212l-.322.058-.427.081-.21.038a4.38 4.38 0 00-1.022.307 2.339 2.339 0 01-.867.218c-.303 0-.303 0-.544.145l-.741.106-.106.106c-.157.02-.314.035-.471.047-.939.032-.939.032-1.755.377-.19.023-.38.039-.57.053-.333.025-.596.053-.914.159-.331.033-.662.054-.994.077-.27-.001-.27-.001-.384.135-2.649.446-5.402.463-8.08.452l-.652-.002c-2.784-.005-5.571-.048-8.331-.45v-.212l-.276.008c-1.217.018-2.324-.143-3.497-.454a21.812 21.812 0 00-1.646-.295c-.612-.096-.612-.096-.729-.212l-.37-.053c-.371-.053-.371-.053-.477-.159l-.332-.047a7.571 7.571 0 01-1.152-.271v-.212l-.325.013c-.436-.014-.748-.091-1.159-.225v-.212l-.325.02a2.168 2.168 0 01-.952-.248 5.74 5.74 0 00-.737-.249c-.441-.128-.849-.296-1.272-.477a25.015 25.015 0 00-.802-.239 8.836 8.836 0 01-.787-.291 129.29 129.29 0 00-.326-.133l-.337-.139-.34-.139c-.27-.119-.27-.119-.375-.225-.131-1.722-.004-3.457.205-5.167l.03-.241c.163-1.323.163-1.323.295-1.587.024-.198.043-.397.06-.596l.026-.322.02-.248h.212l-.02-.344c-.002-.515.127-.978.26-1.473.09-.349.143-.687.184-1.044h.212l-.02-.312c0-.405.108-.722.246-1.099.186-.577.29-1.176.41-1.769h.212v-.424c.7.165 1.354.458 2.013.742.594.248 1.179.472 1.802.636l.55.152c.942.256 1.888.489 2.842.696v.212h.848v.212l.35-.02c.489-.002.912.122 1.377.26a6.58 6.58 0 001.134.184v.212a15.606 15.606 0 01.51-.007l.287-.004c.263.011.263.011.58.117.201.023.402.043.604.059l.319.027.244.02v.211l.317-.003.411-.003.41-.004c.346.01.346.01.558.116.296.023.59.04.887.053l.486.024.218.009c.21.02.21.02.407.073.574.135 1.19.097 1.777.113l.237.007c2.619.072 5.246.094 7.864-.007l.329-.013c.451.019.451.019.831-.153.15-.009.3-.011.451-.01l.274.001.288.003.29.001.71.005v-.212l.288-.015c.839-.052 1.652-.129 2.462-.362.263-.056.506-.057.774-.053l.287.003.217.004v-.212l.407-.059.54-.081.267-.037a7.83 7.83 0 001.545-.391c.208-.068.208-.068.586-.121.369-.054.66-.161 1.004-.298.308-.108.627-.133.95-.179.202-.075.403-.151.603-.231.397-.141.806-.231 1.217-.326.289-.076.553-.178.83-.291.142-.043.286-.083.43-.119l.209-.054c.209-.039.209-.039.633-.039v-.212l.205-.058a12.013 12.013 0 001.596-.578c.321-.139.497-.212.848-.212v-.212l.331-.113c.475-.178.922-.402 1.374-.632a55.87 55.87 0 011.654-.798 28.87 28.87 0 003.934-2.229c.218-.14.439-.261.669-.381.533-.289 1.008-.648 1.492-1.009.437-.326.879-.639 1.33-.945.64-.44 1.237-.916 1.828-1.418l.183-.154c.963-.807.963-.807 1.864-1.681.184-.184.376-.351.574-.519.443-.385.844-.798 1.241-1.229l.21-.226.409-.444.46-.496c.625-.678 1.185-1.402 1.736-2.14l.145-.193a29.592 29.592 0 001.677-2.434c.094-.152.195-.3.298-.446h.212l.028-.165c.11-.366.293-.688.476-1.021l.115-.215c.207-.382.418-.76.633-1.136.19-.339.328-.674.455-1.039.206-.521.475-1.015.731-1.512zM96.93 60.786h3.809a501.274 501.274 0 012.207 0h.396c.305.014.305.014.517.12.146.015.292.026.438.033l.259.013.27.013.273.014.668.032v.212l.284-.007c.816-.012 1.569.037 2.366.22v.211l.198-.007a6.18 6.18 0 011.815.22v.211l.371-.02c.403 0 .711.09 1.085.248.288.108.577.178.876.25.44.105.853.23 1.272.397.247.092.496.165.748.238.318.093.603.193.908.325.323.137.63.216.97.295.383.112.734.287 1.094.457.298.138.598.26.903.38.635.261 1.235.577 1.837.906.452.245.906.462 1.383.658v.212l.217.025c.405.105.729.306 1.081.525l.212.13c.469.287.929.585 1.38.9.196.134.196.134.501.221v.212l.217.073c.4.178.734.414 1.088.67l.207.144c.172.123.338.254.502.385v.212l.233.078c.333.15.541.328.807.578.314.293.63.582.955.864a46.523 46.523 0 013.673 3.606c.224.24.458.471.691.703 1.696 1.798 1.696 1.798 1.696 2.332-2.977.004-5.953.006-8.929.007h-.366c-10.982.004-21.964-.02-39.05-.059l-1.23-.003-21.223-.05c.176-.374.386-.633.669-.935.293-.317.565-.63.808-.987l.219-.305h.212l.087-.191c.122-.228.24-.376.422-.557l.181-.184.197-.195.204-.205.43-.43c.217-.215.433-.431.648-.648a26.043 26.043 0 012.388-2.147c.115-.095.23-.191.343-.288 3.004-2.535 3.004-2.535 3.79-2.68v-.212c.318-.212.318-.212.636-.212v-.212l.16-.086c.494-.27.974-.554 1.45-.854.595-.37 1.203-.688 1.834-.995.496-.246.977-.517 1.459-.79.29-.136.29-.136.714-.136v-.212l.352-.126c.472-.176.928-.384 1.385-.596.468-.212.817-.368 1.337-.338v-.212l.229-.058.308-.081.301-.078c.337-.096.337-.096.676-.258.448-.197.908-.282 1.387-.373.513-.097 1.009-.2 1.502-.373.468-.163.931-.253 1.42-.329.549-.072.549-.072 1.066-.252.186-.03.372-.054.559-.076l.338-.04a1795.199 1795.199 0 011.356-.162c.19-.026.38-.058.569-.095.423-.085.853-.093 1.284-.115.517-.03.945-.16 1.471-.161zM102.905 109.659c.67.272 1.183.672 1.59 1.272v.423h.212c.09 1.213.062 1.992-.742 2.968l-.166.231a15.076 15.076 0 01-3.119 3.161l-.336.256a16.56 16.56 0 01-4.752 2.499l-.404.141c-1.149.39-2.322.615-3.517.813l-.222.039c-1.864.317-3.775.236-5.647.034l-.353-.038a11.077 11.077 0 01-1.899-.39 3.988 3.988 0 00-.702-.122 2.819 2.819 0 01-.91-.271c-.31-.134-.626-.237-.945-.345a9.943 9.943 0 01-1.67-.77c-.364-.208-.737-.39-1.112-.575v-.212l-.176-.03c-2.135-.649-4.22-3.263-5.335-5.057-.324-.663-.327-1.445-.15-2.156.295-.68.913-1.245 1.569-1.575.651-.199 1.469-.213 2.098.068.814.488 1.45 1.181 2.012 1.934 1.27 1.611 3.069 2.795 4.963 3.531.137.059.274.118.41.179 1.727.725 3.527.678 5.366.682l.414.002c1.154.084 1.154.084 2.183-.227.231-.052.463-.1.695-.146.666-.139 1.271-.297 1.875-.616.185-.086.185-.086.61-.086v-.212c.167-.087.335-.173.503-.258l.283-.146c.235-.108.444-.181.697-.232v-.212c.318-.212.318-.212.636-.212v-.212c.178-.16.178-.16.41-.331l.232-.173c.206-.132.206-.132.418-.132v-.212h.212v-.212h.212v-.212h.212v-.212h.212l.079-.173c.886-1.665 2.113-2.789 4.054-2.476zM101.301 84.846h.562l.317.002h.29c.359 0 .718.002 1.078.004l2.431.006v5.088h4.769v-5.088l2.431-.006.768-.003.599-.001.318-.002H115.425c.198.012.198.012.304.118.01.16.013.32.012.48v.308l-.001.336-.001.341c0 .362-.002.724-.003 1.085l-.002.734-.005 1.804h4.77v5.087c1.53-.004 1.53-.004 3.059-.01h.573l.304-.002H124.972c.19.012.19.012.296.118.01.153.012.306.012.46V96l-.002.322v.327l-.003 1.04-.002.703a994.42 994.42 0 01-.005 1.728c-.677.003-1.355.005-2.032.006l-.692.002-.992.003-.314.001h-.29l-.256.001c-.193-.013-.193-.013-.299-.119a6.13 6.13 0 01-.012-.45v-.293l.001-.31.001-.284c0-.352.002-.703.003-1.054l.007-2.378h-4.876v4.769h-4.769v-4.77h-4.769v-5.192h-4.982l-.005-2.168-.003-.738-.002-1.058-.002-.336v-.309-.273c.017-.274.042-.307.316-.324zM51.291 84.858l2.379-.006.751-.003.586-.001.31-.002h.55c.194.012.194.012.3.118.01.157.012.313.012.47v.302l-.002.328v.335a470.744 470.744 0 01-.005 1.781l-.005 1.766h4.77a1360.097 1360.097 0 01.007 2.966l.002 1.08.002.343V94.93c-.012.21-.012.21-.118.316-.143.01-.287.012-.43.012h-.28l-.297-.002h-.271a52045.986 52045.986 0 01-3.279-.01l-.106 4.875H51.29l-.006-2.43-.003-.77v-.598l-.002-.318v-.3l-.001-.261c.012-.198.012-.198.118-.304.15-.01.3-.013.45-.012h.294l.31.002h.284l1.054.003 2.378.007v-5.087l-4.876.106-.105 4.98h-4.558v-5.192h4.663v-5.088z"/><path d="M110.853 90.051h4.664v5.088h4.875V90.05h.106v5.088l3.06-.01h.573l.303-.002h.287l.251-.001c.189.013.189.013.295.119.01.153.013.306.012.46V96l-.001.322-.001.327c0 .347-.002.693-.003 1.04l-.001.703-.006 1.728a687.165 687.165 0 01-2.723.008l-.992.002-.315.002h-.289l-.256.001c-.194-.013-.194-.013-.3-.119-.01-.15-.012-.3-.012-.45v-.293l.002-.31v-.284l.003-1.054.007-2.378h-4.875v4.769h-4.77v-4.77h-4.769v-.105h4.769l-.003-1.06-.002-1.012-.003-.705-.002-1.011-.002-.32v-.296-.261c.012-.21.012-.21.118-.423z"/><path d="M105.978 90.051h4.769v5.088h-4.769V90.05zM101.103 84.964h4.769v4.982h-4.769v-4.982zM41.643 84.964h4.663v5.088h-4.663v-5.088zM120.5 95.245h4.769v4.875H120.5v-4.875zM51.395 84.964h4.663v4.982h-4.663v-4.982zM56.27 90.051h4.557v5.088H56.27V90.05zM110.853 95.245h4.664v4.769h-4.664v-4.77zM138.093 118.773c.071.184.071.184.106.424-.11.221-.11.221-.278.451l-.178.251-.18.252c-.098.152-.196.304-.291.457l-.124.198c-.12.201-.225.407-.327.617h-.212l-.076.225c-.16.359-.364.631-.606.941l-.141.18a48.178 48.178 0 01-2.39 2.795c-.184.194-.184.194-.284.416h-.212v.212h-.212v.212h-.212v.212h-.212v.212h-.212v.212c-.167.15-.34.292-.517.431-.403.322-.793.649-1.172 1-1.572 1.431-1.572 1.431-2.021 1.431v.212c-.573.424-.573.424-.847.424v.212c-.174.111-.351.216-.53.318-.274.194-.545.392-.816.59-.244.152-.244.152-.562.152v.211l-.636.212v.212l-1.484.742v-.424l.636-.212v-.212l.181-.09c1.592-.833 3.084-1.858 4.482-2.983l.267-.209a60.23 60.23 0 002.277-1.911l.303-.262c.436-.353.436-.353.757-.798h.212l.082-.188c.141-.256.296-.419.507-.62.274-.256.274-.256.471-.569h.212l.079-.179c.157-.29.338-.529.557-.775h.212l.078-.232c.15-.334.331-.558.571-.835.433-.516.81-1.05 1.176-1.614.15-.228.303-.447.467-.665.295-.403.517-.847.746-1.29.141-.24.141-.24.353-.346z"/><path d="M51.291 84.858l2.379-.006.751-.003.586-.001.31-.002h.55c.194.012.194.012.3.118.01.157.012.313.012.47v.302l-.002.328v.335a470.744 470.744 0 01-.005 1.781l-.005 1.766h4.77a1360.097 1360.097 0 01.007 2.966l.002 1.08.002.343V94.93c-.012.21-.012.21-.118.316-.143.01-.287.012-.43.012h-.277l-.3-.002h-.306c-.324 0-.648-.002-.972-.004l-.657-.001-1.615-.005-.106.212v-.212h-4.77v-.106h4.77v-5.087l-4.876.106-.105 4.98h-.106v-5.086h-4.452v-.106h4.663v-5.088zm.107.106v4.982h4.663v-4.982h-4.663zm4.875 5.088v5.087h4.557v-5.087h-4.557zM87.007 84.964h7.101v8.055h-.212c-.118-.353-.12-.617-.12-.99v-.42-.454-.466-.977-1.251a441.146 441.146 0 010-2.07v-.37c.014-.315.014-.315.12-.739l-6.889.106v-.424zM86.902 138.275c.71.039 1.402.123 2.1.255a36.103 36.103 0 003.146.421c3.077.302 6.185.262 9.274.278v.212c-.706.106-1.395.121-2.108.12h-.367l-.766-.001-1.151.001c-2.52.001-5.025-.076-7.508-.541-.379-.07-.752-.13-1.137-.162a4.206 4.206 0 01-1.377-.371l-.106-.212z"/><path d="M91.777 138.805l1.318-.007.38-.003.362-.001.334-.001c.256.012.256.012.361.118.211.01.422.013.634.013l.41.001h1.857c.409-.001.817-.001 1.226 0h1.392l.632-.001h.363c.263.017.263.017.376-.119.181-.009.362-.012.543-.011l.332.001.35.003a2402.438 2402.438 0 001.212.007l.106.212c.246.043.494.079.742.106v.106c-.333.052-.667.102-1 .152l-.276.043c-1.759.261-3.528.243-5.302.235l-.68-.001-1.645-.005v-.106l5.618-.106v-.212l-.25.001c-.789.004-1.577.008-2.366.01-.405.001-.81.002-1.215.005-3.096.018-3.096.018-4.538-.11l-.287-.025c-.402-.042-.647-.077-.99-.305zM101.301 84.846h.562l.317.002h.29c.359 0 .718.002 1.078.004l2.431.006v5.088h4.769v-5.088h4.875v.106h-4.769v4.982h4.663v.106h-4.663l-.106.211v-.211h-9.751a35717.882 35717.882 0 01-.009-3.34l-.001-.624-.002-.332v-.313-.273c.017-.274.042-.307.316-.324zm-.198.118v4.982h4.77v-4.982h-4.77zM94.107 84.964h.106l.002.299c.006.927.014 1.855.023 2.783l.012 1.431.012 1.381.004.527c0 .246.004.492.007.738v.22c.009.458.108.725.364 1.1v.212l.192.093c.232.119.232.119.55.331.261.025.511.04.773.044l.415.011.528.011 1.675.04v4.451h-.105l-.107-3.18-.106 2.227h-.105v-3.286c-1.028.008-1.028.008-2.055.02h-.388l-.397.004c-.328-.023-.485-.079-.764-.236h-.318c-.179-.14-.179-.14-.318-.318v-.318h-.212v-.212h-.212c-.192-.856-.237-1.667-.212-2.544h.106l.043.326.057.43.027.213c.056.42.119.84.191 1.257h.212v-8.055zM120.392 90.051h.106v5.088h4.663v.106h-4.663v4.769h-.106v-4.77h-9.539v4.77h-.106v-4.77h-4.769v-.105h14.414V90.05zM105.553 104.571l.226.052c.319.057.615.069.939.071l.386.003.421.002.445.003 1.206.008 1.261.008 2.387.014 2.719.017c1.863.012 3.727.024 5.59.034-.358.216-.631.239-1.046.238l-.386.001-.421-.003-.446.001-1.207-.003-1.262-.002c-.796 0-1.593-.002-2.389-.004-.907-.003-1.814-.004-2.721-.005-1.865-.002-3.73-.006-5.596-.011l-.106-.424zM103.436 109.553v.212a73.358 73.358 0 00-.199-.012c-1.419-.142-1.419-.142-2.702.316-.205.203-.205.203-.384.438l-.225.259c-.332.397-.633.812-.928 1.238l-.225.304h-.212v.212h-.212v.212h-.212v.212h-.212v.212c-.178.16-.178.16-.41.331l-.232.174c-.206.131-.206.131-.418.131v.212l-.636.212v.212c-.167.092-.335.182-.503.272l-.283.152c-.296.114-.408.113-.697 0 .251-.282.511-.432.847-.603a10.357 10.357 0 003.498-3c1.375-1.793 1.375-1.793 2.408-1.996.658-.05 1.357-.037 1.937.3zM93.684 121.105l-.106.318-.221-.004-.29-.003-.286-.003c-.277-.002-.277-.002-.581.116l.106.424-.632.072c-.237.031-.237.031-.534.14-.383.027-.765.047-1.149.064-.345.017-.641.038-.97.148v-.212h-2.968l-.106-.212 4.027-.106-2.544-.106v-.106l.187-.003c1.717-.034 4.522-1.006 6.067-.527zM118.59 64.72c.315.07.586.172.876.31l.26.124.269.13.263.126c.543.259 1.081.524 1.618.795v.212l.216.025c.409.105.735.31 1.089.531l.212.13.603.374.292.18c.186.116.371.233.555.35l-.106.211a8.133 8.133 0 01-1.04-.483l-.305-.168a76.953 76.953 0 01-.996-.566 86.986 86.986 0 01-.432-.25 6.609 6.609 0 00-1.087-.509c-.379-.143-.379-.143-.485-.355a24.46 24.46 0 00-1.089-.452l-.229-.094-.212-.083c-.166-.113-.166-.113-.242-.337l-.03-.2zM100.573 100.12h3.709c.013 1.649.013 1.649.013 2.165-.008.913-.008.913.423 1.686l.306.282-.106.318c-.54-.42-.924-.788-1.06-1.483a14.29 14.29 0 01-.01-.621l.001-.359.003-.372.001-.377.005-.921c-.301-.151-.568-.129-.905-.14l-.418-.013-.439-.013a64.925 64.925 0 01-.441-.014l-1.082-.032v-.106zM104.388 110.825h.212v.212h.212v.212h.212l-.106.212a7.21 7.21 0 00.001.465l.005.281c.005.194.01.389.017.584.008.542-.009.868-.341 1.319l-.048.213c-.084.305-.261.492-.462.734l-.221.268-.223.269-.226.299a25.86 25.86 0 00-.198.231h-.212v-.318l-.424.212c.153-.346.345-.586.603-.861a11.7 11.7 0 001.199-1.577l.123-.185c.142-.379.139-.764.155-1.166l.013-.255c.01-.206.018-.413.027-.619h-.212l-.106-.53zM84.887 115.806c.821-.013.821-.013 1.06.106.852.11 1.712.126 2.57.126h.346a16.97 16.97 0 002.701-.232c-.07.204-.07.204-.212.424-.822.284-1.77.246-2.63.238l-.364-.001a15.518 15.518 0 01-3.577-.449l.106-.212z"/><path d="M94.107 84.964h.106l.002.299c.006.927.014 1.855.023 2.783l.012 1.431.012 1.381.004.527c0 .246.004.492.007.738v.22c.009.458.108.725.364 1.1v.212l.212.106h-.318l.106.53c-.265-.192-.265-.192-.53-.424v-.318h-.212v-.212h-.212c-.192-.856-.237-1.667-.212-2.544h.106l.043.326.057.43.027.213c.056.42.119.84.191 1.257h.212v-8.055zM149.749 120.893l.17.109.227.143.224.141c.212.128.427.241.651.349v.212l.172.079c.575.303 1.085.701 1.596 1.1.324.252.646.501.987.729v.212l.239.073c.345.165.496.36.715.669l-.212.106-.257-.199c-1.84-1.427-1.84-1.427-3.754-2.753l-.295-.195-.269-.173-.194-.178v-.424zM73.125 149.191l.318.106-.043.37a52.982 52.982 0 00-.275 3.658h-.106l-.106-.53-.212 2.967h-.106c-.077-3.843-.077-3.843.318-5.617l.106-.106c.024-.143.043-.286.06-.43l.046-.418zM101.632 139.017l1.119-.007.319-.003c.557-.002 1.086.018 1.635.116v.106c-.333.052-.666.102-1 .152l-.276.043c-1.759.261-3.528.243-5.301.235l-.68-.001-1.645-.005v-.106l5.617-.106.212-.424zM93.685 121.105l-.106.318-.22-.004-.29-.003-.287-.003c-.277-.002-.277-.002-.58.116l.105.212c-1.547.243-1.547.243-2.332.212v-.106l-2.543-.106v-.106l.186-.003c1.717-.034 4.523-1.006 6.067-.527zM119.649 134.671l.212.106-.106.318c-.293.136-.293.136-.662.265-.506.178-.506.178-.98.424-.32.192-.641.304-.994.424a12.17 12.17 0 00-1.199.464c-.298.119-.298.119-.616.013h.212v-.212l.199-.033c.264-.06.264-.06.437-.391.262-.098.262-.098.596-.185a12.997 12.997 0 001.689-.623l.218-.097c.277-.125.551-.25.818-.396l.176-.077z"/><path d="M85.206 121.529l.576-.007.324-.003c.273.007.526.026.796.06.688.082 1.38.094 2.073.116l.416.013 1.008.033c-.39.249-.765.243-1.213.24l-.232.001-.486-.001c-.245-.002-.49 0-.734.001-.864.001-1.682-.039-2.528-.241v-.212zM145.511 118.455c.511.038.782.188 1.175.489.214.156.433.28.666.406 1.316.715 1.316.715 1.656 1.225a2.418 2.418 0 01-1.007-.377l-.276-.172-.307-.193-.54-.332-.522-.321a18.367 18.367 0 00-.621-.366l-.224-.147v-.212zM154.2 126.511c.106.317.106.317-.046.673-.069.136-.14.271-.212.406l-.109.21c-.088.171-.178.342-.269.512h-.212l-.037.182a3.453 3.453 0 01-.314.732l-.131.25c-.171.238-.308.319-.577.426.173-.647.512-1.189.847-1.762l.345-.594.154-.263c.139-.238.139-.238.248-.48.101-.187.101-.187.313-.292zM168.298 141.984h.212l.159.404.09.228c.069.216.069.216.069.534l-.53-.318-.106.424h.212c.066.192.066.192.106.424l-.212.318h-.318v-.212h.212l-.212-.424-.53.318c.16-.566.422-1.27.848-1.696zM81.899 158.444c.395.087.782.14 1.185.18-.283.271-.414.317-.815.344-.351-.026-.351-.026-.457-.132l-.331-.047a7.454 7.454 0 01-1.153-.271v-.212h-.742v-.106c.785-.214 1.544.062 2.313.244zM113.261 137.261l.26.033.197.027v.106l-.338.093c-.385.105-.385.105-.669.231-.331.125-.657.159-1.007.206l-.106.106-.742.106-.106.106a22.88 22.88 0 01-.741 0l.424-.106.106-.424a12.053 12.053 0 011.801-.106l.106-.318c.328-.109.48-.103.815-.06zM102.693 116.23h.212c-.034.322-.106.423-.345.651l-.304.236-.318.251-.305.24c-.249.209-.495.422-.742.635l-.318-.317-.424.212c.421-.448.881-.807 1.378-1.166-.127.264-.26.496-.424.742l.676-.623a204.345 204.345 0 00.552-.508c.123-.116.243-.234.362-.353zM99.724 100.014l.372.051c.434.054.863.077 1.3.089l.225.007.699.019.479.014 1.164.032c-.388.259-.579.24-1.042.24l-.214.001-.449-.001c-.227-.001-.454 0-.681.001l-.437-.001h-.4a4.499 4.499 0 01-1.122-.24l.106-.212zM109.263 137.745h.848v.212c-.375.093-.75.182-1.126.272l-.321.079c-.973.229-.973.229-1.52.073l.106-.212c.192-.04.192-.04.424-.06.295-.006.295-.006.53-.152.178-.008.357-.009.536-.007l.295.003.228.004v-.212zm-1.589.742h1.272l-.106.212c-.289.044-.289.044-.643.066l-.355.024-.274.016.106-.318zM111.594 62.39c.712.037 1.266.115 1.908.423.386.118.774.224 1.166.318l-.106.318c-1.006-.234-1.985-.532-2.968-.847v-.212zM137.561 129.796c0 .318 0 .318-.152.507l-.212.21-.235.233-.249.242-.239.237c-1.392 1.373-1.392 1.373-1.987 1.644v-.212c.137-.13.137-.13.338-.291.511-.431.951-.918 1.394-1.416.317-.351.601-.611 1.024-.836.186-.168.186-.168.318-.318zM98.559 95.35h.106l.008.3a502.952 502.952 0 00.044 1.574l.02.683.012.416c-.014.301-.014.301.128.42.004.176.004.353 0 .53h-.212c-.257-.386-.241-.667-.237-1.111v-.233c0-.163.002-.325.003-.487.002-.25.002-.499.002-.748a248.279 248.279 0 01.002-.7c.005-.525.005-.525.124-.643zM130.46 135.519l.212.106c-.564.771-1.275 1.266-2.119 1.696h-.318a8.752 8.752 0 00-.424.106c.312-.341.623-.554 1.026-.775a10.994 10.994 0 001.623-1.133zM119.441 141.666c-.454.559-1.393.804-2.085.878a8.907 8.907 0 01-.565-.03l-.106.106a9.365 9.365 0 01-.53 0c.708-.367 1.423-.636 2.226-.636v-.212c.666-.257.666-.257 1.06-.106z"/><path d="M84.781 121.423l.855-.007.241-.002c.495-.002.96.033 1.448.115v.106l-2.12-.106v.212h.53l.106.212h-1.378v-.212l-.305.013c-.33-.013-.33-.013-.543-.225l.404-.007.228-.003c.216.01.216.01.534.116v-.212zM72.912 152.689h.106v2.967l-.318.106c-.024-2.082-.024-2.082.106-2.968l.106-.105zM131.732 134.671l.212.106-.106.212.318.106-.769.57-.219.163-.213.157-.195.145c-.199.134-.401.24-.618.343.161-.482.548-.689.954-.954l-.424-.106 1.06-.742zM110.432 137.957v.212c-1.771.486-1.771.486-2.649.424l.106-.212c.267-.087.528-.16.801-.226l.222-.058a5.284 5.284 0 011.52-.14zM103.013 115.7c0 .317 0 .317-.118.473l-.165.162-.181.179-.192.186-.185.184c-.34.334-.688.645-1.066.935l-.212-.106.251-.238c.277-.256.277-.256.365-.491.178-.319.424-.495.708-.721l.315-.253c.268-.204.268-.204.48-.31zM125.479 68.642c.448.064.779.323 1.14.577l.193.13c.161.112.315.232.469.353v.212l.212.106-.106.212h-.318l-.166-.218c-.316-.382-.676-.61-1.09-.879-.228-.175-.228-.175-.334-.493zM85.63 137.957c.997.102.997.102 1.484.212v.318l.636.106v.106c-.65.037-1.19-.072-1.817-.241a7.546 7.546 0 00-1.045-.183v-.106l.742-.106v-.106zM141.696 124.391c.124.373.058.51-.104.857-.226.423-.461.825-.863 1.097-.199.059-.199.059-.517.059l.217-.279.287-.37.142-.183c.297-.384.573-.775.838-1.181zM116.047 142.726l-.636.318.283-.069.373-.09.369-.089c.307-.061.572-.084.883-.07-.25.222-.376.315-.715.338l-.239-.02v.212h-1.166v-.212l-.741.106c.106-.212.106-.212.387-.306l.348-.085.347-.087c.295-.052.295-.052.507.054zM94.53 114.322l.319.106v.424l.212.212h-.318v.212l-.182.066-.236.086-.234.086c-.194.064-.194.064-.302.186-.177.004-.354.004-.53 0l.185-.073c.299-.174.454-.397.663-.669l.212-.106v-.424l.212-.106zM89.551 61.965l-.357.14c-.403.146-.403.146-.597.496a3.561 3.561 0 01-1.695 0c.325-.217.484-.255.86-.311.487-.08.929-.203 1.389-.379.188-.052.188-.052.4.054zM74.923 142.832h.106c.02.511-.025.901-.212 1.378h-.212l-.212-.212-.318.424c.07-.476.18-.919.318-1.378l.318.212.212-.424zM74.397 144.422h.212a7.972 7.972 0 01-.318 1.59l-.318-.212-.212.742h-.106a5.998 5.998 0 01.212-1.802h.106v.742h.212l.212-1.06zM77.256 142.196c.57-.043.972.1 1.484.318l.22.092c.174.074.348.15.522.226v.212c-.569-.049-1.03-.206-1.555-.431a4.247 4.247 0 00-.67-.205v-.212zM91.035 115.594h.636l-.106.318-.636-.106.106-.212zm1.166 0l.848.212v.106l-.321.066-.415.086-.413.086c-.319.045-.319.045-.441.186-.231.025-.463.044-.696.06l-.384.026-.298.02c.376-.251.615-.253 1.054-.282.241-.018.241-.018.43-.248.278.04.278.04.53.106l.106-.424zM85.844 115.594v.212l-.954.106 1.59.318v.106c-.913.029-1.684-.115-2.544-.424v-.106a6.326 6.326 0 011.908-.212z"/><path d="M73.017 155.55l.318.106-.106.212.318.106.106-.212 1.06.424v.424c-.701-.175-1.351-.457-2.014-.742l.318-.318zM74.077 146.224h.106c.039.696-.092 1.25-.318 1.907h-.106l-.106-1.06-.106.53h-.106c-.02-.641-.02-.641 0-.848l.212-.212.106.212.152-.264.166-.265zM80.013 143.044c.488-.019.829.008 1.271.212l.345.099.291.113.106.318a5.533 5.533 0 01-1.695-.424l-.318-.106v-.212zM115.41 136.261v.212l-.742.318.424.212h-.636v.212h-.53l.424-.106-.106-.212h-.636v-.212l.338-.093c.388-.106.388-.106.682-.238.277-.102.489-.11.782-.093zM135.868 131.173l.212.106c-.224.231-.45.46-.675.689l-.194.199-.186.189a14.44 14.44 0 00-.172.175c-.151.126-.151.126-.363.126l.106.318-.635.424-.318-.212.298-.252c.667-.566 1.323-1.128 1.927-1.762zM108.734 61.753l1.696.106v.212l.424.106v.106c-.736.051-1.41-.138-2.12-.318v-.212zM138.304 128.736c.106.212.106.212.04.463-.177.339-.368.479-.676.703l-.351.291-.285.239-.212-.106 1.484-1.59zM122.195 133.823h-.212v.212c-.328.187-.449.212-.848.212v.212c-.333.197-.57.233-.954.212a2.816 2.816 0 011.007-.722l.301-.141c.296-.095.42-.094.706.015zM106.19 138.699l-.106.318c-.71.074-1.406.117-2.12.106l.106-.212c.278-.051.548-.09.828-.12l.233-.027c.356-.041.7-.065 1.059-.065z"/><path d="M73.652 146.965h.106l.007.464.004.261c-.01.229-.01.229-.117.441a12.83 12.83 0 00-.06.543l-.026.293-.02.224c-.212-.212-.212-.212-.232-.534l.007-.38.006-.382.007-.294h.212l-.006-.258c.006-.272.006-.272.112-.378zM122.618 132.446h.106v.529l.529-.211v.211c-.317.212-.317.212-.635.212v.212l-.212.106.318.212c-.193.113-.193.113-.424.212-.318-.106-.318-.106-.53-.318h.424l.106-.424h.212a29.597 29.597 0 01-.007-.311c.007-.324.007-.324.113-.43zM96.97 119.833l.211.106-.318.212h.742l-.318.106v.212h-.424v.212h-.53l-.105-.53c.244-.113.491-.219.741-.318zM86.901 92.807h.106c.046.272.046.272 0 .636a2.918 2.918 0 01-1.166.954c0-.424 0-.424.178-.613l.233-.182c.31-.244.497-.429.65-.795zM168.297 141.984h.212a42.033 42.033 0 01.249.632c.069.216.069.216.069.534l-.238-.165c-.274-.179-.274-.179-.537-.12l-.179.073c.186-.715.186-.715.424-.954zM117.424 142.408v.212c-.314.092-.627.182-.941.272l-.27.079-.259.073-.239.069c-.199.037-.199.037-.411-.069.526-.526 1.401-.671 2.12-.636zM74.924 141.136c.334.074.639.187.954.318a2.714 2.714 0 01-.848.106l-.026.338c-.086.433-.206.617-.504.934l.212-1.272h.212v-.424zM102.906 109.659c.538-.066.808.064 1.221.383.183.171.289.332.368.57l-.212.212c-.07-.076-.139-.153-.212-.231-.298-.302-.634-.508-.999-.721l-.166-.107v-.106zM104.812 111.355l.212.106c.129.385.101.669.073 1.073l-.025.405-.048.323-.212.106v-2.013zM133.11 133.611l.212.106-.106.318.212.106c-.119.107-.238.213-.358.318l-.201.179c-.183.139-.183.139-.395.139l.106-.318.212-.106-.106-.106h-.318l.742-.636zM74.396 143.68h.106a64.207 64.207 0 01-.062.942c-.042.32-.122.567-.256.86h-.212c-.06-.684.145-1.182.424-1.802zM93.577 115.17c.219.046.219.046.424.106-.253.293-.476.422-.848.53-.285.016-.561.01-.848 0 .106-.212.106-.212.345-.299l.291-.079c.348-.074.348-.074.636-.258zM153.355 123.648l.423.106v.212l.239.073c.346.165.496.36.715.669l-.212.106a778.693 778.693 0 00-.91-.631l-.255-.217v-.318zM90.505 61.86v.212l-.603.158-.34.09c-.299.063-.555.083-.86.07.143-.285.338-.349.624-.467.39-.11.778-.088 1.179-.063zM114.458 143.15v.106l-.365.092-.377.119-.106.212c-.522.14-.96.082-1.484 0v-.106l.318-.033c.306-.042.563-.12.848-.238.409-.165.728-.18 1.166-.152zM145.088 118.562h.106c.042.472-.083.739-.318 1.146l-.178.313-.14.236h-.212a4.63 4.63 0 01.312-.907l.109-.246c.109-.224.109-.224.321-.542zM112.128 143.786l-.258.086-.272.126-.106.318h-.53v-.106h-.953c.248-.249.317-.242.655-.265.325-.028.617-.074.928-.172.324-.093.324-.093.536.013zM120.813 141.03c-.106.318-.106.318-.31.446l-.253.11-.25.115c-.273.078-.407.059-.67-.035.245-.368.331-.384.742-.497l.284-.081c.245-.058.245-.058.457-.058zM123.786 139.44l.212.106-.212.212.106.212c-.703.305-.703.305-1.06.424v-.212l-.318-.106c.207-.109.415-.217.622-.324l.351-.183.299-.129zM126.964 137.745l.212.106-.318.424.53-.106a3.457 3.457 0 01-.636.53c-.232-.04-.232-.04-.424-.106l.318-.106v-.212l-.53.106c.16-.319.429-.38.742-.53l.106-.106z"/><path d="M115.198 143.044v.212c-.346.203-.636.25-1.034.278l-.316.024-.24.016c.25-.375.415-.4.843-.494.252-.042.492-.052.747-.036zM87.537 62.6c-.278.417-.474.427-.954.53-.365.014-.365.014-.636 0 .159-.317.403-.35.726-.466.294-.081.561-.086.864-.063zM77.997 157.458l.51.093.287.052c.263.067.263.067.581.279-.45.123-.814.08-1.272 0l-.106-.424zM75.455 141.454c.458.054.852.127 1.272.318v.318c-.484-.058-.845-.19-1.272-.424v-.212zM84.356 137.745c.635-.034 1.021.033 1.59.317v.106h-1.06v-.212h-.53v-.211zM112.974 143.68v.212a3.914 3.914 0 01-1.483.212c.106-.212.106-.212.324-.332.403-.12.739-.107 1.159-.092zM73.23 147.601h.105l.106 1.696h-.212l-.106.742h-.106a74.266 74.266 0 01-.01-.807c.01-.253.01-.253.116-.465.025-.198.044-.397.06-.596a233.782 233.782 0 01.046-.57zM107.778 138.486l-.212.318c-.299.031-.299.031-.649.02l-.352-.009-.271-.011.106-.212c.231-.071.231-.071.517-.126l.284-.057c.259-.029.259-.029.577.077zM84.781 121.423l.854-.007.242-.002c.494-.002.96.033 1.448.115v.106l-2.12-.106v.212h-.424v-.318zM93.685 121.105l-.106.318h-1.907a3.32 3.32 0 011.006-.338l.302-.058c.272-.027.448-.008.705.078zM75.985 156.822c.458.054.852.127 1.272.318v.212c-.152-.012-.305-.026-.457-.04l-.257-.022c-.24-.044-.24-.044-.558-.256v-.212zM82.237 143.68c.511-.021.9.025 1.378.212l-.106.212a90.065 90.065 0 01-.517-.047l-.29-.026c-.253-.033-.253-.033-.465-.139v-.212zM125.373 138.699l.106.212-.212.212-.106.211-.424-.105v.317l-.424.106v-.212l-.212-.106 1.272-.635zM131.732 134.671l.212.106c-.154.406-.35.56-.742.742-.298.02-.298.02-.53 0 .321-.345.664-.595 1.06-.848zM104.389 110.825h.212v.212h.212v.212h.212l-.106.212a26.93 26.93 0 00-.06.808l-.013.227-.033.554h-.106v-1.695h-.212l-.106-.53zM118.59 64.72c.415.084.781.254 1.166.425l-.318.212c-.391-.093-.391-.093-.742-.212l-.106-.424zM94.108 92.807c.291.252.39.494.53.848l.212.106-.424.106c-.43-.574-.43-.574-.398-.888l.08-.172zM127.386 70.02c.47.148.728.382 1.06.742-.232.033-.232.033-.53 0-.298-.252-.298-.252-.53-.53v-.212zM74.393 143.044c.212.212.212.212.226.596l-.014.358h-.212c-.173.208-.173.208-.318.424.07-.475.18-.919.318-1.378z"/><path d="M116.047 142.726l-.636.318.318.106-.53.106v-.212l-.741.106c.106-.212.106-.212.387-.306l.348-.085.347-.087c.295-.052.295-.052.507.054zM114.458 136.897c-.106.212-.106.212-.325.331-.403.12-.739.107-1.159.093v-.212a113.227 113.227 0 01.973-.259c.299-.059.299-.059.511.047zM94.745 120.893v.212c-.437.212-.79.231-1.272.212.212-.318.212-.318.517-.391.33-.033.33-.033.755-.033zM144.24 120.469c.128.384.058.492-.106.848h-.424v.318h-.212v.318l-.212-.106.318-.636h.318l.04-.192c.066-.232.066-.232.278-.55zM138.621 117.501l.424.106-.245.418-.138.234c-.147.196-.147.196-.465.302.117-.369.24-.718.424-1.06zM101.421 116.971c0 .418-.155.54-.424.848l-.212.212h-.636l.252-.205.325-.265.324-.265c.191-.156.191-.156.371-.325zM115.942 63.555c.129.218.129.218.212.424a40.06 40.06 0 01-.464-.093l-.261-.052c-.229-.067-.229-.067-.441-.279.337-.168.596-.083.954 0zM85.522 63.131l-.742.318v.212c-.388.12-.587.077-.954-.106.106-.106.106-.106.378-.113l.258.007v-.212c.666-.257.666-.257 1.06-.106zM76.726 157.246h1.06l.212.424c-.504.046-.825-.108-1.272-.318v-.106zM73.867 144.74h.106v.742h.212l-.106.424h-.212l-.106.635h-.106a5.995 5.995 0 01.212-1.801zM151.978 130.432l.106.318c-.185.337-.185.337-.424.636h-.318l.199-.418.112-.235c.113-.195.113-.195.325-.301zM74.606 156.292c.923.197.923.197 1.165.53-.49.034-.771-.016-1.165-.318v-.212zM81.284 143.256l.848.106v.212h.847v.106h-.741v.212l-.424-.106.106-.318h-.53l-.106-.212zM143.073 141.666l.318.106-.954.954-.106-.318.742-.742zM139.684 127.146l.106.424h.212c-.122.262-.217.429-.424.636l-.106-.318.212-.318-.318.106c.199-.411.199-.411.318-.53zm-.318 1.06l.212.106-.212-.106zM145.086 118.137c.304.061.409.092.636.318l-.298.086c-.313.117-.45.192-.656.444.199-.609.199-.609.318-.848zM115.517 136.367l.424.106-.424-.106zm0 .106v.212c-.332.197-.57.233-.954.212.333-.348.448-.424.954-.424zM112.445 137.321l-.106.424h-.848l-.106-.212c.702-.212.702-.212 1.06-.212zM74.818 142.302c.17.424.031.747-.106 1.166l-.212-.212c.035-.404.09-.613.318-.954zM128.128 137.215l.212.212c-.116.091-.233.182-.351.271l-.197.153-.193.106-.318-.106c.234-.37.433-.502.847-.636zM140.848 125.557l.212.212c-.013.212-.013.212-.106.424-.274.182-.408.211-.742.211l.636-.847z"/><path d="M143.71 121.317h.212c-.075.389-.241.711-.424 1.06h-.212v-.424h.212v-.318h.212v-.318zM139.577 116.336c-.083.415-.254.78-.424 1.166-.212-.318-.212-.318-.212-.53h.318l-.106-.53c.212-.106.212-.106.424-.106zM130.885 135.413l.318.106-.954.742-.212-.106c.133-.127.268-.253.404-.378l.227-.212.217-.152zM133.854 133.187l.106.318c-.504.424-.504.424-.742.424.156-.496.156-.496.437-.669l.199-.073zM84.038 121.211l1.06.106-.318.106v.212l-.636-.106-.106-.318zM85.843 63.131v.212c-.787.258-.787.258-1.166.106.406-.286.67-.352 1.166-.318zM73.973 145.694c.15.45.02.712-.106 1.165l-.212-.106c.08-.821.08-.821.318-1.059zM79.483 142.832l1.06.106v.106h-.53v.212l-.53-.106v-.318zM132.795 134.035l.106.318-.742.53-.212-.106.848-.742zM125.585 131.492l.212.106c-.066.205-.066.205-.212.424-.331.079-.331.079-.636.106v-.212c.208-.148.42-.289.636-.424zM142.333 123.861c0 .361-.071.465-.265.761l-.149.23-.116.175-.106-.318c.168-.336.359-.597.636-.848zM148.903 120.363c.313.145.577.317.848.53-.179.073-.179.073-.424.106-.292-.152-.292-.152-.53-.318l.106-.318zM96.97 119.833l.211.106-.53.53-.318-.106-.105-.212c.244-.113.491-.219.741-.318zM94.532 93.76c.39.054.594.117.847.425-.318.106-.318.106-.602-.033l-.245-.18v-.211zM76.727 141.772l.742.318-.212.212c-.331-.04-.331-.04-.636-.106l.106-.424z"/><path d="M133.11 133.611l.212.106c-.139.265-.139.265-.318.53h-.636l.742-.636zM154.733 124.602l.424.318-.106.636a3.932 3.932 0 01-.424-.848l.106-.106zM99.195 118.773c-.026.199-.026.199-.106.424-.218.133-.218.133-.424.212v-.212l-.212-.106c.504-.318.504-.318.742-.318zM82.451 158.73c.702-.027.702-.027 1.06.212l-.106.106c-.7-.064-.7-.064-.954-.318zM143.922 140.818l.106.318-.636.53-.106-.318.636-.53zM122.3 140.182l.212.106-.106.318c-.716.12-.716.12-.954 0 .136-.073.273-.146.411-.218l.231-.123.206-.083zM153.99 126.192l.106.212h.318l-.106.424-.106-.212h-.212l-.106.318c-.067-.192-.067-.192-.106-.424l.212-.318zM94.957 120.681v.424h-.211v-.212l-.848.106c.334-.334.591-.318 1.06-.318zM98.455 119.197v.212h-.318l-.106.424-.318-.106-.106-.212c.61-.318.61-.318.848-.318zM98.984 99.378l.742.424-.106.212c-.304-.06-.41-.091-.636-.318v-.318zM89.553 61.965l-.365.146c-.382.127-.382.127-.483.384h-.212l-.106-.318c.154-.056.309-.11.463-.165l.261-.093c.23-.06.23-.06.442.046zM126.647 138.275v.212c-.246.179-.246.179-.53.318l-.318-.106c.49-.424.49-.424.848-.424z"/><path d="M126.964 137.745l.212.106c-.112.265-.112.265-.318.53-.39.033-.39.033-.742 0 .16-.319.429-.38.742-.53l.106-.106zM142.331 123.437l.212.424-.742.53a3.05 3.05 0 01.53-.954zM105.023 104.254l.742.212-.212.105v.212l-.424-.106-.106-.423zM117.636 64.297c.314.065.464.133.742.318-.349.085-.499.116-.848 0l.106-.318zM130.46 135.519l.212.106-.742.848-.106-.424.636-.53zM116.155 63.767l.742.106-.318.106v.212l-.424-.106v-.318zM83.615 180.139l.742.106v.212l-.742-.106v-.212zM73.549 146.541l.317.318-.106.212h-.106l-.105.53h-.107c-.013-.821-.013-.821.107-1.06zM74.712 141.56h.106c.08.338.08.338.106.742-.205.312-.205.312-.424.53l.212-1.272zM122.194 133.399l.53.212c-.193.166-.193.166-.424.318-.318-.106-.318-.106-.53-.318h.424v-.212z"/><path d="M122.936 133.081l.106.318c-.318.212-.318.212-.55.172a11.07 11.07 0 01-.192-.066l.318-.106v-.212l.318-.106zM140.742 126.087c0 .318 0 .318-.265.602l-.265.245v-.423c.265-.239.265-.239.53-.424zM103.222 115.276v.53l-.636.212c.333-.742.333-.742.636-.742zM94.635 114.746l.424.212-.317.106v.212h-.424v-.212h.212l.105-.318zM121.559 66.205h.318v.212l.53.106c-.324.104-.525.104-.848 0v-.318zM116.894 64.191h.636l.106.212-.106.212c-.516-.186-.516-.186-.636-.424zM114.669 63.131l.636.212-.106.212h-.53l-.106-.212.106-.212zM186.363 139.018l.222-.001.463.001c.232.002.463 0 .695-.001 2.22-.002 2.22-.002 2.918.347.275.033.549.054.825.076.235.03.235.03.341.136.204.025.409.049.613.072.338.049.651.144.976.246v.212l.265-.02c.37.02.644.108.985.247.342.133.693.232 1.046.335.297.088.591.185.884.286v.212l.212.033c.872.2 1.647.619 2.438 1.027v.212l.182.037c.434.123.807.374 1.195.598l.325.179.205.139v.212l.232.073c.355.166.557.391.828.669l.318.106v.212l.424.212v.212l.184.08c.277.153.468.332.691.556l.226.225c.171.199.171.199.171.411h.212c.34.37.645.77.954 1.166l.158.201c.667.892 1.074 1.819 1.351 2.896.051.283.051.283.187.4.337 2.061.188 4.308-.848 6.147l-.192.365c-.278.479-.629.901-.974 1.331l-.205.278c-.322.371-.692.679-1.067.994l-.285.245c-.25.183-.482.291-.775.391v.212c-.702.424-.702.424-1.06.424v.212c-.893.348-.893.348-1.377.424v.212l-.233.058c-.653.169-.653.169-1.271.432-.387.189-.719.208-1.146.252l-.106.106a9.251 9.251 0 01-.47.053c-.362.031-.362.031-.696.159-.25.026-.497.045-.748.059l-.239.014c-2.038.101-4.078.025-6.114-.073v-.212h-1.59v-.212h-1.06v-.212h-.847v-.212l-.378.02c-.382 0-.646-.077-.992-.246-.476-.199-.991-.294-1.492-.41v-.212l-.219.02c-.395-.026-.699-.175-1.053-.338a17.042 17.042 0 00-1.784-.65 315.416 315.416 0 01-.654-.198l-.008-.318-.031-1.165-.013-.504-.02-.725a16.611 16.611 0 01-.005-.228c-.007-.398-.007-.398-.135-.769-.029-.23-.054-.46-.076-.69l-.041-.416-.062-.659-.062-.634-.037-.384c-.008-.281-.008-.281-.145-.397a10.31 10.31 0 01-.047-.497 4.913 4.913 0 00-.271-1.199 30.316 30.316 0 01-.163-.995c-.035-.274-.035-.274-.155-.489a18.305 18.305 0 010-.741h-.212l-.047-.365c-.018-.357-.018-.357-.165-.483l-.04-.325a4.585 4.585 0 00-.297-1.028 8.729 8.729 0 01-.246-.827 8.301 8.301 0 00-.477-1.318 17.787 17.787 0 01-.954-2.861l.248-.059c.567-.137 1.112-.282 1.653-.498.266-.097.535-.167.808-.238.462-.122.88-.286 1.318-.477.28-.088.562-.17.844-.25.213-.049.213-.049.322-.174.177-.005.354-.005.53 0v-.212l.228-.066.295-.087.295-.085c.236-.058.236-.058.348-.186.212-.004.424-.005.636 0v-.212l.206-.058c.424-.124.841-.245 1.245-.426a4.47 4.47 0 011.882-.392z"/></svg></svg>