<svg width="257" height="256" viewBox="0 0 257 256" fill="none" xmlns="http://www.w3.org/2000/svg">
<path d="M127.443 75.0587C131.474 74.2143 135.582 73.7896 139.701 73.7915C172.023 73.7915 198.318 99.6001 199.103 131.733M111.698 158.622C105.373 151.672 101.875 142.61 101.888 133.213C101.888 112.328 118.818 95.3992 139.701 95.3992C143.364 95.3992 146.905 95.9201 150.252 96.8904" stroke="#D02138" stroke-linecap="round" stroke-linejoin="round"/>
<path d="M214.451 103.664C218.083 112.839 220.316 122.747 220.316 133.212C220.316 177.737 184.222 213.831 139.697 213.831C114.958 213.831 92.8193 202.689 78.0327 185.148" stroke="#D02138" stroke-linecap="round" stroke-linejoin="round"/>
<path d="M145.622 111.627C155.106 114.226 162.077 122.904 162.077 133.212C162.077 145.572 152.057 155.592 139.697 155.592C128.635 155.592 119.446 147.565 117.64 137.016" stroke="#D02138" stroke-linecap="round" stroke-linejoin="round"/>
<path d="M91.066 222.83C59.1915 205.517 37.4507 172.036 37.4507 133.213C37.4507 76.7448 83.2286 30.9644 139.7 30.9644C157.347 30.9644 174.193 35.9103 188.679 43.7797" stroke="#D02138" stroke-linecap="round" stroke-linejoin="round"/>
<path d="M129.136 213.147C114.416 224.052 100.567 228.041 90.7166 222.647C69.8282 211.206 74.8228 161.892 101.874 112.498C128.926 63.1063 167.787 32.339 188.678 43.7809C200.784 50.4113 204.196 69.7611 199.661 94.474" stroke="#D02138" stroke-linecap="round" stroke-linejoin="round"/>
<path d="M168.727 115.852C167.759 119.74 165.34 124.444 161.756 129.41M160.194 105.949C152.546 106.915 141.162 113.171 130.385 122.95C114.931 136.973 106.573 152.938 111.714 158.605C115.163 162.405 123.802 160.615 133.775 154.8M121.531 82.3315C130.562 84.1107 140.541 89.1539 150.246 96.8954M102.138 137.592C99.5929 133 97.5321 128.419 95.9858 123.962" stroke="#D02138" stroke-linecap="round" stroke-linejoin="round"/>
<path d="M126.652 167.474C124.058 165.261 121.572 162.926 119.203 160.475M150.248 96.8918C155.454 101.043 160.542 105.967 165.286 111.579C173.91 121.779 180.109 132.723 183.585 142.973" stroke="#D02138" stroke-linecap="round" stroke-linejoin="round"/>
<path d="M184.046 93.6681C200.054 92.9039 211.496 96.1897 214.453 103.667C220.227 118.275 191.437 143.345 150.151 159.662C142.129 162.834 134.222 165.442 126.65 167.477" stroke="#D02138" stroke-linecap="round" stroke-linejoin="round"/>
<path d="M126.652 167.475C107.873 172.525 91.1419 174.057 79.7358 171.953" stroke="#D02138" stroke-linecap="round" stroke-linejoin="round"/>
</svg>
