<svg width="257" height="256" viewBox="0 0 257 256" fill="none" xmlns="http://www.w3.org/2000/svg">
<path d="M75.5685 124.896L73.4809 123.69L71.3919 122.487L69.3042 121.28L67.2153 120.074L65.1276 118.868L63.0386 117.663L60.9509 116.457L58.8633 115.251L56.7743 114.045L54.6866 112.84L52.5977 111.635M75.7029 226.835L73.6153 225.629L71.5276 224.424L69.4386 223.218L67.3509 222.012L65.262 220.806L63.1743 219.601L61.0853 218.395L58.9977 217.189L56.9087 215.983L54.8223 214.777L52.7333 213.573M155.795 62.254L156.257 61.9877L157.099 61.5013L157.926 61.0239L158.735 60.5554L159.528 60.0997L160.302 59.6517L161.056 59.2165L161.789 58.7929L162.504 58.3807L163.196 57.9813L163.865 57.5948L164.512 57.221L165.135 56.8613L165.734 56.5157L166.306 56.1855L166.853 55.8706L167.371 55.5698L167.863 55.2869L168.326 55.0194L168.76 54.7685L169.162 54.5369L169.535 54.3218L169.875 54.1247L170.184 53.9468L170.459 53.7881L170.699 53.6498L170.905 53.5308L171.076 53.4322L171.209 53.3554L171.306 53.2991L171.364 53.2658L171.384 53.2543L171.697 53.0751L172.009 52.9036L172.321 52.7372L172.631 52.5772L172.938 52.4236L173.245 52.2738L173.551 52.1317L173.856 51.9961L174.158 51.8642L174.46 51.7401L174.758 51.621L175.057 51.5084L175.352 51.4009L175.648 51.2997L175.94 51.2037L176.232 51.1141L176.52 51.0297L176.808 50.9529L177.093 50.8786L177.377 50.8121L177.659 50.7506L177.938 50.6956L178.216 50.6457L178.492 50.6009L178.765 50.5625L179.036 50.5292L179.306 50.5023L179.572 50.4805L179.837 50.4626L180.1 50.4524L180.36 50.4473H180.617L180.873 50.4537L181.125 50.4639L181.376 50.4805L181.624 50.5023L181.869 50.5279L182.111 50.5612L182.351 50.5996L182.588 50.6418L182.822 50.6905L183.055 50.7442L183.284 50.8044L183.51 50.8684L183.732 50.9375L183.954 51.013L184.171 51.0924L184.385 51.1781L184.598 51.2677L184.806 51.3637L185.011 51.4636L185.213 51.5711L185.413 51.6812L185.61 51.7951L187.304 52.773L187.501 52.8869L187.698 52.9996L189.391 53.9775L189.588 54.0927L189.787 54.2053L191.479 55.1833L191.676 55.2985L191.874 55.4111L193.568 56.389L193.765 56.5029L193.962 56.6181L195.656 57.5961L195.853 57.7087L196.05 57.8239L197.745 58.8005L197.942 58.9157L198.139 59.0284L199.832 60.0063L200.029 60.1215L200.226 60.2341L201.921 61.2121L202.118 61.326L202.315 61.4399L204.009 62.4178L204.206 62.5317L204.403 62.6469L206.098 63.6236L206.295 63.7375L206.492 63.8501L207.562 64.4978L207.776 64.6258L207.981 64.7269L208.184 64.8319" stroke="#D02138" stroke-linejoin="round"/>
<path d="M112.838 147.633L112.646 147.511L112.457 147.386L112.27 147.254L112.088 147.118L111.909 146.977L111.732 146.831L111.56 146.68L111.392 146.524L111.225 146.364L111.064 146.199L110.905 146.027L110.752 145.852L110.601 145.673L110.454 145.487L110.31 145.298L110.171 145.103L110.035 144.905L109.905 144.7L109.777 144.491L109.652 144.278L109.532 144.06L109.417 143.837L109.305 143.61L109.198 143.378L109.094 143.141L108.994 142.9L108.9 142.655L108.81 142.404L108.723 142.149L108.641 141.89L108.563 141.627L108.49 141.358L108.421 141.085L108.357 140.808L108.297 140.526L108.242 140.241L108.191 139.95L108.145 139.656L108.104 139.356L108.066 139.053L108.034 138.744L108.009 138.432L107.986 138.116L107.969 137.796L107.956 137.471L107.949 137.142L107.946 136.809L107.949 136.472L107.956 136.134L107.969 135.795L107.986 135.455L108.008 135.113L108.034 134.77L108.066 134.426L108.104 134.079L108.145 133.732L108.191 133.385L108.242 133.035L108.297 132.686L108.357 132.335L108.421 131.983L108.49 131.631L108.563 131.278L108.64 130.925L108.723 130.57L108.809 130.216L108.9 129.861L108.994 129.505L109.094 129.149L109.197 128.794L109.305 128.438L109.417 128.082L109.532 127.723L109.652 127.369L109.777 127.01L109.905 126.656L110.036 126.3L110.171 125.944L110.312 125.588L110.454 125.233L110.601 124.878L110.752 124.525L110.905 124.171L111.064 123.818L111.225 123.465L111.392 123.114L111.561 122.763L111.732 122.413L111.908 122.065L112.087 121.716L112.27 121.37L112.457 121.024L112.646 120.678L112.838 120.337L113.034 119.994L113.234 119.653L113.436 119.314L113.641 118.976L113.849 118.641L114.061 118.305L114.276 117.972L114.493 117.64L114.713 117.312L114.936 116.984L115.163 116.659L115.392 116.335L115.624 116.013L115.858 115.695L116.096 115.378L116.335 115.063L116.578 114.749L116.823 114.44L117.071 114.132L117.321 113.825L117.574 113.523L117.83 113.224L118.086 112.925L118.347 112.631L118.61 112.339L118.875 112.05L119.141 111.763L119.41 111.48L119.681 111.2L119.955 110.922L120.23 110.65L120.508 110.378L120.788 110.111L121.07 109.847L121.353 109.586L121.638 109.33L121.926 109.076L122.216 108.826L122.506 108.58L122.799 108.337L123.094 108.097L123.389 107.863L123.688 107.633L123.987 107.406L124.288 107.182L124.591 106.964L124.895 106.749L125.202 106.538L125.509 106.332L125.816 106.13L126.126 105.933L126.437 105.741L126.749 105.551L127.063 105.367L127.083 105.357L127.141 105.323L127.237 105.267L127.371 105.19L127.542 105.092L127.746 104.973L127.988 104.833L128.262 104.676L128.571 104.497L128.911 104.301L129.284 104.086L129.687 103.854L130.121 103.603L130.583 103.334L131.076 103.053L131.594 102.752L132.141 102.437L132.713 102.106L133.312 101.76L133.934 101.402L134.58 101.028L135.251 100.641L135.942 100.242L136.657 99.8297L137.39 99.4047L138.145 98.9695L138.918 98.5228L139.711 98.0658L140.521 97.5986L141.346 97.1212L142.189 96.6348L143.048 96.1394L143.919 95.6351L144.806 95.1231L145.705 94.6047L146.616 94.0799L147.539 93.5462L148.471 93.0073L149.414 92.4633L150.367 91.9129L151.327 91.3586L152.294 90.8006L153.268 90.2374L154.249 89.6729L155.234 89.1033L156.224 88.5324L157.216 87.959L158.213 87.3829L159.21 86.807L160.21 86.2309L161.208 85.6549L162.208 85.0764L163.205 84.5004L164.201 83.927L165.194 83.3535L166.184 82.7813L167.169 82.213L168.148 81.6473L169.124 81.0841L170.091 80.5247L171.051 79.9717L172.004 79.4213L172.947 78.8774L173.879 78.3397L174.802 77.806L175.713 77.2799L176.612 76.7615L177.497 76.2495L178.37 75.7452L179.229 75.2511L180.07 74.7634L180.898 74.286L181.707 73.8188L182.5 73.3618L183.273 72.9138L184.027 72.4786L184.761 72.0562L185.476 71.6428L186.167 71.2447L186.836 70.8582L187.484 70.4831L188.106 70.1247L188.705 69.7791L189.277 69.4489L189.824 69.1327L190.344 68.8332L190.834 68.549L191.298 68.2828L191.731 68.0319L192.134 67.7989L192.507 67.5839L192.847 67.3868L193.156 67.2089L193.43 67.0501L193.672 66.9119L193.876 66.7929L194.047 66.6943L194.18 66.6175L194.277 66.5625L194.336 66.5279L194.355 66.5164L194.669 66.3385L194.981 66.1669L195.292 66.0005L195.602 65.8393L195.91 65.6857L196.216 65.5359L196.522 65.3951L196.827 65.2582L197.129 65.1276L197.431 65.0022L197.729 64.8831L198.027 64.7705L198.324 64.6642L198.62 64.5618L198.912 64.4671L199.204 64.3775L199.492 64.2917L199.78 64.2149L200.064 64.142L200.349 64.0741L200.63 64.0127L200.91 63.9577L201.188 63.9078L201.463 63.8642L201.737 63.8258L202.008 63.7926L202.277 63.7644L202.545 63.7426L202.808 63.726L203.072 63.7157L203.33 63.7093H203.588L203.844 63.7157L204.097 63.726L204.347 63.7426L204.595 63.7644L204.84 63.79L205.083 63.8245L205.322 63.863L205.56 63.9052L205.794 63.9538L206.026 64.0076L206.255 64.0665L206.482 64.1305L206.705 64.2009L206.925 64.2751L207.142 64.3557L207.357 64.4402L207.563 64.4978L207.955 64.6949L208.156 64.8127L208.187 64.8293L208.26 64.8729L208.384 64.9433L208.58 65.0585L208.772 65.1813L208.961 65.3068L209.147 65.4374L209.331 65.573L209.51 65.7138L209.686 65.861L209.858 66.0108L210.027 66.1669L210.193 66.3282L210.354 66.4934L210.511 66.6636L210.666 66.8389L210.817 67.0182L210.964 67.2037L211.106 67.3932L211.246 67.5878L211.383 67.7874L211.513 67.9922L211.641 68.1996L211.766 68.4134L211.886 68.6309L212.001 68.8537L212.114 69.0815L212.22 69.3119L212.324 69.55L212.422 69.7906L212.518 70.0377L212.609 70.2873L212.695 70.542L212.777 70.8005L212.855 71.0655L212.928 71.3343L212.997 71.6069L213.062 71.8834L213.121 72.165L213.176 72.4517L213.227 72.741L213.272 73.0354L213.314 73.335L213.352 73.6396L213.382 73.9468L213.41 74.2591L213.432 74.5753L213.45 74.8953L213.462 75.2217L213.471 75.5493L213.472 75.8821V96.2815L213.471 96.2879L213.451 96.2982L213.426 96.3135L213.391 96.334L213.345 96.3596L213.291 96.3916L213.226 96.4274L213.153 96.4697L213.073 96.517L212.982 96.5682L212.883 96.6271L212.776 96.6886L212.659 96.7551L212.536 96.8268L212.406 96.901L212.267 96.9817L212.121 97.0662L211.969 97.1545L211.809 97.2454L211.643 97.3426L211.47 97.4425L211.291 97.5449L211.105 97.6524L210.916 97.7625L210.719 97.8764L210.516 97.9916L210.309 98.1132L210.097 98.2348L209.879 98.3615L209.656 98.4895L209.43 98.6201L209.199 98.7532L208.964 98.8889L208.724 99.0258L208.482 99.1666L208.237 99.3074L207.987 99.4521L207.735 99.5993L207.48 99.7465L207.222 99.8949L206.961 100.045L206.698 100.198L206.434 100.351L206.168 100.504L205.899 100.658L205.629 100.815L205.358 100.971L205.085 101.128L204.813 101.285L204.539 101.444L204.265 101.602L203.991 101.76L203.716 101.919L203.441 102.077L203.167 102.236L202.894 102.394L202.62 102.551L202.349 102.708L202.077 102.865L201.807 103.021L201.54 103.176L201.273 103.329L201.009 103.483L200.747 103.634L200.486 103.784L200.229 103.932L199.974 104.079L199.722 104.224L199.474 104.367L199.228 104.509L198.986 104.65L198.748 104.787L198.514 104.923L198.283 105.055L198.057 105.185L197.837 105.313L197.62 105.439L197.408 105.56L197.202 105.681L197 105.796L196.805 105.91L196.614 106.02L196.43 106.125L196.252 106.227L196.081 106.327L195.915 106.423L195.757 106.515L195.606 106.602L195.461 106.684L195.324 106.763L195.195 106.839L195.072 106.909L194.959 106.975L194.852 107.036L194.754 107.092L194.665 107.144L194.585 107.19L194.514 107.232L194.452 107.268L194.399 107.298L194.355 107.324L194.336 107.336L194.277 107.368L194.18 107.425L194.047 107.502L193.876 107.599L193.672 107.718L193.43 107.858L193.156 108.017L192.847 108.194L192.507 108.39L192.134 108.605L191.731 108.838L191.298 109.088L190.834 109.357L190.344 109.638L189.824 109.939L189.277 110.254L188.705 110.587L188.106 110.932L187.484 111.291L186.836 111.663L186.167 112.05L185.476 112.45L184.761 112.863L184.027 113.286L183.273 113.722L182.5 114.168L181.707 114.626L180.898 115.092L180.07 115.57L179.229 116.056L178.37 116.552L177.497 117.056L176.612 117.568L175.713 118.086L174.802 118.611L173.879 119.145L172.947 119.684L172.004 120.228L171.051 120.778L170.091 121.332L169.124 121.89L168.148 122.454L167.169 123.018L166.184 123.588L165.194 124.159L164.201 124.732L163.205 125.308L162.208 125.884L161.208 126.46L160.21 127.037L159.21 127.613L158.213 128.191L157.216 128.765L156.224 129.339L155.772 129.6L155.234 129.91L154.249 130.479L153.268 131.045L152.294 131.607L151.327 132.166L150.367 132.721L149.414 133.27L148.471 133.814L147.539 134.353L146.616 134.885L145.705 135.411L144.806 135.931L143.919 136.442L143.048 136.946L142.189 137.441L141.346 137.928L140.521 138.405L139.711 138.872L138.918 139.329L138.145 139.776L137.39 140.212L136.657 140.636L135.942 141.048L135.251 141.448L134.58 141.834L133.934 142.208L133.312 142.568L132.713 142.912L132.141 143.243L131.594 143.558L131.076 143.858L130.583 144.142L130.121 144.41L129.687 144.659L129.284 144.892L128.911 145.107L128.571 145.304L128.262 145.482L127.988 145.641L127.748 145.779L127.542 145.898L127.371 145.997L127.237 146.074L127.141 146.13L127.082 146.163L127.063 146.175L126.749 146.353L126.437 146.525L126.126 146.692L125.816 146.852L125.509 147.007L125.202 147.155L124.895 147.297L124.591 147.433L124.288 147.565L123.987 147.689L123.688 147.808L123.389 147.921L123.094 148.028L122.799 148.129L122.506 148.225L122.216 148.315L121.926 148.399L121.638 148.477L121.353 148.55L121.07 148.617L120.788 148.678L120.508 148.733L120.23 148.783L119.955 148.828L119.681 148.866L119.41 148.9L119.141 148.927L118.873 148.948L118.61 148.965L118.347 148.977L118.088 148.982H117.829L117.574 148.977L117.321 148.965L117.071 148.948L116.823 148.927L116.578 148.9L116.335 148.868L116.096 148.829L115.858 148.786L115.624 148.737L115.392 148.683L115.163 148.625L114.936 148.561L114.713 148.491L114.493 148.416L114.276 148.337L114.061 148.251L113.849 148.16L113.641 148.065L113.436 147.964L113.234 147.859L113.034 147.748L112.893 147.667L112.813 147.62L112.586 147.489L112.187 147.259L111.144 146.656L110.946 146.542L110.749 146.427L109.056 145.449L108.859 145.335L108.662 145.221L106.968 144.243L106.771 144.129L106.574 144.015L104.879 143.037L104.682 142.923L104.553 142.848L104.485 142.81L102.792 141.832L102.594 141.718L102.396 141.605L100.703 140.628L100.504 140.514L100.307 140.401L98.6137 139.423L98.4165 139.309L98.2207 139.194L96.5273 138.214L96.3301 138.1L96.133 137.986L94.4383 137.009L94.2412 136.895L94.0441 136.781L92.3506 135.803L92.1535 135.689L91.9564 135.575L90.2617 134.597L90.0645 134.483L89.8674 134.37L89.6754 134.249L89.486 134.123L89.3004 133.992L89.1173 133.856L88.9381 133.715L88.7615 133.569L88.59 133.418L88.421 133.262L88.2546 133.102L88.0933 132.937L87.9359 132.765L87.7823 132.59L87.63 132.411L87.4841 132.225L87.3407 132.036L87.1999 131.841L87.0655 131.643L86.9337 131.438L86.8057 131.229L86.6815 131.016L86.5625 130.798L86.4473 130.575L86.3346 130.347L86.2271 130.116L86.1247 129.879L86.0249 129.638L85.9289 129.393L85.8393 129.142L85.7522 128.887L85.6703 128.628L85.5935 128.363L85.5193 128.096L85.4501 127.823L85.3861 127.546L85.326 127.264L85.2709 126.978L85.2197 126.688L85.1749 126.394L85.1327 126.094L85.0969 125.789L85.0649 125.482L85.038 125.171L85.0149 124.854L84.9983 124.534L84.9855 124.209L84.9778 123.88L84.9753 123.547L84.9778 123.21L84.9855 122.872L84.9983 122.533L85.0149 122.193L85.038 121.851L85.0636 121.508L85.0969 121.162L85.1327 120.817L85.1737 120.471L85.2197 120.123L85.2709 119.773L85.3017 119.357L85.3567 119.246L85.477 119.177L85.6729 119.063L85.8674 118.95L86.0594 118.84L86.2501 118.73L86.437 118.623L86.6213 118.515L86.8031 118.41L86.9823 118.308L87.1577 118.205L87.3305 118.107L87.4994 118.01L87.6645 117.914L87.8258 117.82L87.9833 117.729L88.1369 117.64L88.2866 117.555L88.4313 117.471L88.5721 117.389L88.7077 117.312L88.8383 117.235L88.965 117.162L89.0853 117.092L89.2005 117.025L89.3119 116.961L89.4156 116.902L89.5154 116.845L89.6076 116.791L89.6946 116.74L89.7753 116.695L89.8508 116.651L89.9186 116.612L89.9801 116.577L90.0338 116.545L90.0812 116.517L90.1221 116.494L90.1554 116.475L90.1708 116.467L90.2143 116.442L90.2885 116.398L90.3909 116.339L90.5202 116.265L90.6777 116.175L90.8607 116.068L91.0706 115.946L91.3061 115.81L91.566 115.661L91.8501 115.497L92.1573 115.32L92.4876 115.128L92.8409 114.923L93.2159 114.707L93.6127 114.479L94.03 114.239L94.4665 113.985L94.9221 113.723L95.3983 113.449L95.8911 113.163L96.4031 112.869L96.9305 112.563L97.4745 112.25L98.0351 111.926L98.6111 111.593L99.2012 111.252L99.8053 110.903L100.424 110.547L101.055 110.182L101.697 109.811L102.351 109.434L103.017 109.05L103.694 108.659L104.38 108.262L105.075 107.86L105.779 107.455L106.491 107.044L107.21 106.629L107.936 106.209L108.669 105.787L109.408 105.359L110.15 104.93L110.899 104.499L111.65 104.065L112.406 103.63L113.163 103.191L113.924 102.753L114.684 102.313L115.447 101.874L116.21 101.432L116.971 100.993L117.733 100.553L118.493 100.114L119.25 99.6774L120.005 99.2409L120.758 98.8057L121.505 98.3756L122.248 97.9468L122.987 97.5206L123.72 97.0956L124.445 96.677L125.166 96.2623L125.878 95.8502L126.582 95.4444L127.277 95.0437L127.961 94.647L128.639 94.2566L129.304 93.8725L129.96 93.4949L130.602 93.1237L131.233 92.759L131.85 92.4031L132.454 92.0537L133.046 91.7132L133.62 91.3804L134.181 91.0566L134.726 90.7429L135.254 90.437L135.764 90.1426L136.258 89.8572L136.733 89.5833L137.19 89.3196L137.627 89.0674L138.043 88.8268L138.44 88.599L138.815 88.3813L139.168 88.1778L139.498 87.9858L139.807 87.8092L140.091 87.6454L140.351 87.4956L140.585 87.3599L140.795 87.2383L140.979 87.1321L141.137 87.0412L141.266 86.9657L141.367 86.9068L141.441 86.8658L141.485 86.8402L141.501 86.8313L141.741 86.6905L141.979 86.5445L142.216 86.3935L142.452 86.2386L142.688 86.0799L142.921 85.9161L143.155 85.7471L143.387 85.573L143.618 85.3964L143.848 85.2146L144.077 85.0278L144.305 84.8396L144.53 84.6437L144.754 84.4454L144.978 84.2431L145.199 84.037L145.421 83.8271L145.641 83.6121L145.858 83.3945L146.075 83.1717L146.289 82.9465L146.502 82.7161L146.715 82.4857L146.925 82.2489L147.133 82.0095L147.341 81.7663L147.545 81.5193L147.749 81.2697L147.951 81.0175L148.152 80.7615L148.351 80.5017L148.546 80.2393L148.741 79.973L148.934 79.7055L149.125 79.4354L149.313 79.1602L149.5 78.8837L149.687 78.6047L149.869 78.3231L150.05 78.0377L150.23 77.7497L150.406 77.4604L150.58 77.1685L150.754 76.8741L150.923 76.5772L151.092 76.2777L151.259 75.9756L151.421 75.6722L151.584 75.365L151.743 75.0591L151.899 74.7493L152.052 74.4383L152.205 74.1247L152.354 73.8085L152.502 73.4911L152.645 73.1737L152.788 72.8537L152.928 72.5311L153.064 72.2073L153.199 71.8834L153.33 71.557L153.458 71.2293L153.585 70.8991L153.709 70.5701L153.829 70.2386L153.947 69.9058L154.061 69.573L154.173 69.2377L154.283 68.9023L154.39 68.5657L154.493 68.229L154.594 67.8898L154.692 67.5519L154.785 67.2127L154.877 66.8722L154.966 66.5317L155.05 66.1913L155.132 65.8495L155.211 65.5078L155.287 65.166L155.36 64.8242L155.429 64.4799L155.494 64.1382L155.557 63.7951L155.617 63.4521L155.672 63.109L155.725 62.766L155.775 62.423L155.796 62.254L155.821 62.0812L155.862 61.7382L155.9 61.3964L155.936 61.0546L155.968 60.7141L155.996 60.3724L156.019 60.0332L156.04 59.6927L156.057 59.3535L156.07 59.0156L156.079 58.6789L156.086 58.3423L156.088 58.007L156.086 57.6716L156.079 57.3426L156.07 57.0162L156.057 56.6924L156.04 56.3724L156.019 56.0575L155.996 55.7452L155.968 55.438L155.936 55.1321L155.9 54.8313L155.862 54.5343L155.821 54.2399L155.775 53.9506L155.725 53.6639L155.672 53.3823L155.617 53.1033L155.557 52.8293L155.494 52.558L155.429 52.2918L155.36 52.0293L155.287 51.7708L155.211 51.5148L155.132 51.2652L155.05 51.0182L154.966 50.7749L154.877 50.5382L154.785 50.3026L154.692 50.0722L154.594 49.8457L154.493 49.6242L154.39 49.4066L154.283 49.1929L154.173 48.9842L154.061 48.7794L153.947 48.5785L153.829 48.3813L153.709 48.1893L153.585 48.0012L153.458 47.8182L153.33 47.6389L153.199 47.4649L153.064 47.2946L152.928 47.1295L152.788 46.9682L152.645 46.8121L152.502 46.6597L152.354 46.5126L152.205 46.3705L152.052 46.2322L151.899 46.0991L151.743 45.9711L151.584 45.847L151.421 45.7266L151.259 45.6114L151.092 45.5026L150.923 45.3977L150.754 45.2978L150.653 45.2402L150.582 45.2005L150.441 45.1237L150.303 45.0367L149.87 44.7884L148.836 44.1906L148.665 44.0921L148.494 43.9935L146.748 42.9849L146.578 42.8863L146.406 42.7878L144.66 41.7791L144.489 41.6805L144.317 41.582L142.573 40.5746L142.401 40.4748L142.23 40.3775L140.484 39.3676L140.312 39.2703L140.141 39.1705L138.396 38.1618L138.225 38.0633L138.053 37.9647L136.307 36.9561L136.136 36.8575L135.965 36.759L134.219 35.7516L134.048 35.6518L133.878 35.5532L132.13 34.5458L131.959 34.4473L131.789 34.3487L130.043 33.3401L129.871 33.2415L129.701 33.1429L127.954 32.1343L127.784 32.0357L127.611 31.9397L127.435 31.8501L127.259 31.7644L127.08 31.6837L126.899 31.607L126.716 31.5366L126.53 31.4713L126.344 31.4111L126.154 31.3548L125.962 31.3036L125.77 31.2588L125.576 31.2178L125.378 31.1833L125.18 31.1525L124.98 31.127L124.778 31.1077L124.575 31.0937L124.37 31.0847L124.162 31.0796L123.954 31.0809L123.744 31.0873L123.531 31.1001L123.319 31.118L123.104 31.1397L122.886 31.1679L122.669 31.2012L122.45 31.2409L122.23 31.2857L122.007 31.3343L121.784 31.3906L121.559 31.4521L121.332 31.5186L121.106 31.5916L120.877 31.6684L120.646 31.7516L120.416 31.8412L120.184 31.9372L119.951 32.037L119.717 32.1433L119.481 32.2559L119.245 32.3724L119.008 32.4978L118.77 32.6258L118.53 32.7615L118.515 32.7705L118.47 32.7961L118.397 32.8396L118.295 32.8985L118.164 32.9727L118.008 33.0623L117.824 33.1698L117.615 33.2914L117.38 33.4258L117.12 33.5769L116.836 33.7407L116.529 33.9173L116.197 34.1094L115.844 34.3142L115.469 34.5305L115.072 34.7583L114.656 34.999L114.219 35.2524L113.762 35.5148L113.288 35.7887L112.793 36.0742L112.283 36.3685L111.755 36.6745L111.21 36.9881L110.649 37.3119L110.073 37.6447L109.485 37.9852L108.879 38.3333L108.262 38.6905L107.631 39.054L106.989 39.4252L106.333 39.8041L105.668 40.1881L104.992 40.5785L104.306 40.9753L103.611 41.3759L102.907 41.7817L102.195 42.1938L101.476 42.6085L100.749 43.0284L100.017 43.4508L99.278 43.8783L98.5356 44.3058L97.7868 44.7385L97.0354 45.1724L96.2802 45.6076L95.5225 46.0466L94.7621 46.4844L94.0005 46.9247L93.2389 47.3637L92.4761 47.8053L91.7132 48.2444L90.9529 48.6847L90.1925 49.1237L89.4348 49.5602L88.6796 49.9954L87.9282 50.4306L87.1807 50.862L86.437 51.2908L85.6985 51.717L84.9663 52.1394L84.2393 52.5593L83.5199 52.9753L82.8082 53.3874L82.1042 53.7919L81.4092 54.1938L80.7231 54.5906L80.0473 54.9797L79.3817 55.3637L78.7263 55.7426L78.0837 56.1138L77.4527 56.4786L76.8345 56.8345L76.2303 57.1839L75.6415 57.5244L75.0655 57.8572L74.5049 58.181L73.9596 58.4946L73.4322 58.7993L72.9202 59.0937L72.4274 59.3804L71.9525 59.6543L71.4956 59.918L71.0591 60.1701L70.6418 60.4108L70.245 60.6386L69.8713 60.8562L69.518 61.0597L69.1865 61.2505L68.8793 61.4284L68.5951 61.5922L68.3353 61.742L68.0997 61.8777L67.8898 61.9993L67.7068 62.1042L67.5493 62.1951L67.4201 62.2719L67.3177 62.3308L67.2447 62.3717L67.1999 62.3974L67.1845 62.4063L66.9452 62.5471L66.7071 62.693L66.4703 62.8441L66.2335 62.9977L65.998 63.1577L65.7637 63.3215L65.5308 63.4905L65.2991 63.6645L65.0687 63.8412L64.8383 64.023L64.6092 64.2098L64.3813 64.3993L64.1561 64.5938L63.9308 64.7922L63.7081 64.9945L63.4853 65.2005L63.2652 65.4105L63.045 65.6255L62.8274 65.8431L62.6111 66.0645L62.3961 66.2898L62.1836 66.5202L61.9711 66.7532L61.7612 66.9887L61.5525 67.2281L61.3452 67.4713L61.1404 67.7183L60.9356 67.9679L60.7346 68.2201L60.5337 68.4761L60.3353 68.7359L60.1394 68.9983L59.9449 69.2633L59.7516 69.5321L59.5596 69.8022L59.3714 70.0774L59.1845 70.3538L58.9989 70.6329L58.8159 70.9145L58.6354 71.1999L58.4562 71.4879L58.2796 71.7772L58.1042 72.069L57.9314 72.3634L57.7612 72.6604L57.5935 72.9599L57.4271 73.262L57.2633 73.5654L57.102 73.87L56.9433 74.1785L56.7871 74.4882L56.6322 74.7993L56.4799 75.1129L56.3314 75.429L56.1842 75.7452L56.0396 76.0652L55.8975 76.3852L55.758 76.7052L55.621 77.0303L55.4866 77.3541L55.3561 77.6805L55.2268 78.0082L55.1001 78.3372L54.9772 78.6674L54.8569 78.9989L54.7391 79.3317L54.6239 79.6645L54.5113 79.9999L54.4025 80.3353L54.2962 80.6719L54.1925 81.0085L54.0914 81.3465L53.9941 81.6844L53.8994 82.0249L53.8085 82.3654L53.7202 82.7045L53.6345 83.0463L53.5525 83.3881L53.4745 83.7298L53.3977 84.0716L53.326 84.4133L53.2569 84.7577L53.1903 85.0994L53.1276 85.4425L53.0687 85.7855L53.0124 86.1286L52.9612 86.4703L52.91 86.8146L52.8652 87.1564L52.8229 87.4994L52.7845 87.8412L52.75 88.1817L52.718 88.5234L52.6898 88.8639L52.6655 89.2044L52.645 89.5449L52.6284 89.8841L52.6156 90.2207L52.6053 90.5586L52.6002 90.8953L52.5977 91.2306V111.616L52.6002 111.631L52.5977 111.635M169.677 137.633L169.468 137.515L168.923 137.238L168.667 137.171L168.457 137.094L168.243 137.021L168.028 136.955L167.81 136.893L167.589 136.837L167.366 136.786L167.14 136.74L166.912 136.699L166.68 136.663L166.447 136.634L166.213 136.608L165.975 136.589L165.734 136.575L165.491 136.566L165.247 136.562L165 136.564L164.75 136.572L164.499 136.585L164.246 136.603L163.99 136.627L163.732 136.657L163.473 136.691L163.213 136.732L162.949 136.778L162.684 136.829L162.417 136.887L162.148 136.95L161.878 137.019L161.605 137.093L161.331 137.172L161.056 137.258L160.778 137.35L160.499 137.448L160.219 137.55L159.937 137.659L159.653 137.773L159.369 137.893L159.082 138.02L158.794 138.152L158.506 138.29L158.216 138.434L157.924 138.584L157.631 138.739L157.337 138.902L157.042 139.069L157.023 139.08L156.969 139.112L156.878 139.164L156.753 139.237L156.591 139.329L156.398 139.441L156.171 139.571L155.913 139.721L155.622 139.889L155.301 140.073L154.952 140.276L154.571 140.495L154.163 140.731L153.728 140.982L153.266 141.249L152.777 141.532L152.262 141.829L151.723 142.14L151.16 142.465L150.574 142.803L149.966 143.155L149.335 143.519L148.683 143.895L148.011 144.283L147.32 144.682L146.61 145.092L145.882 145.512L145.137 145.943L144.374 146.383L143.597 146.831L142.803 147.29L141.995 147.757L141.174 148.23L140.34 148.712L139.493 149.201L138.637 149.696L137.768 150.196L136.888 150.705L136.001 151.217L135.106 151.734L134.201 152.256L133.29 152.782L132.374 153.311L131.451 153.844L130.524 154.379L129.592 154.917L128.657 155.457L127.72 155.997L126.781 156.54L125.841 157.083L124.9 157.627L123.959 158.17L123.021 158.711L122.082 159.252L121.148 159.793L120.216 160.33L119.289 160.865L118.367 161.399L117.449 161.928L116.539 162.454L115.635 162.976L114.739 163.493L113.851 164.005L112.973 164.512L112.104 165.014L111.246 165.509L110.401 165.998L109.565 166.479L108.745 166.953L107.937 167.42L107.144 167.877L106.365 168.326L105.604 168.767L104.859 169.197L104.129 169.618L103.42 170.027L102.729 170.427L102.057 170.815L101.404 171.191L100.774 171.554L100.166 171.906L99.5801 172.244L99.0169 172.57L98.478 172.881L97.9634 173.178L97.4745 173.46L97.0124 173.727L96.5772 173.979L96.1676 174.214L95.7887 174.433L95.438 174.635L95.118 174.821L94.8274 174.989L94.5689 175.137L94.3423 175.269L94.149 175.38L93.9877 175.473L93.8623 175.546L93.7727 175.598L93.7164 175.63L93.6985 175.64L93.4041 175.813L93.1097 175.991L92.8153 176.174L92.5247 176.361L92.2341 176.552L91.9449 176.747L91.6581 176.947L91.3714 177.152L91.086 177.361L90.8031 177.573L90.5215 177.791L90.2399 178.011L89.9621 178.236L89.6844 178.465L89.4092 178.697L89.1353 178.934L88.8626 179.174L88.5925 179.418L88.3237 179.665L88.0562 179.915L87.7913 180.17L87.5276 180.429L87.2665 180.69L87.0066 180.955L86.7506 181.222L86.4946 181.494L86.2412 181.768L85.9903 182.044L85.7407 182.324L85.4937 182.607L85.2492 182.894L85.006 183.182L84.7666 183.474L84.5285 183.768L84.293 184.065L84.0588 184.365L83.8284 184.667L83.6005 184.971L83.374 185.279L83.1513 185.587L82.9298 185.898L82.7122 186.212L82.4959 186.528L82.2834 186.847L82.0735 187.165L81.8649 187.488L81.6601 187.812L81.4591 188.137L81.2594 188.465L81.0636 188.794L80.8703 189.125L80.6796 189.457L80.4927 189.791L80.3084 190.126L80.1266 190.463L79.9474 190.802L79.7733 191.141L79.6018 191.482L79.4329 191.823L79.2665 192.166L79.1052 192.511L78.9465 192.855L78.7903 193.202L78.638 193.549L78.4895 193.896L78.3436 194.244L78.2028 194.593L78.0633 194.943L77.9289 195.293L77.7983 195.644L77.6703 195.995L77.5461 196.347L77.4258 196.699L77.3093 197.051L77.1967 197.403L77.0879 197.756L76.9817 198.108L76.8818 198.46L76.7833 198.813L76.6898 199.165L76.6002 199.517L76.5157 199.869L76.4338 200.221L76.357 200.573L76.2841 200.924L76.2149 201.275L76.1509 201.624L76.0895 201.974L76.0332 202.322L75.982 202.67L75.9333 203.017L75.8898 203.364L75.8514 203.709L75.8169 204.054L75.7874 204.398L75.7618 204.74L75.7401 205.082L75.7234 205.421L75.7119 205.76L75.7055 206.097L75.7029 206.433V226.831M85.326 119.424L85.3554 119.245" stroke="#D02138" stroke-linejoin="round"/>
<path d="M52.7324 213.569V193.171L52.735 192.835L52.7414 192.497L52.7542 192.159L52.7695 191.818L52.79 191.477L52.8156 191.135L52.8451 190.792L52.8796 190.448L52.918 190.102L52.9628 189.755L53.0102 189.408L53.0614 189.06L53.119 188.711L53.1791 188.362L53.2431 188.012L53.3123 187.661L53.3865 187.31L53.4633 186.96L53.5439 186.608L53.6297 186.256L53.7193 185.904L53.8127 185.55L53.91 185.198L54.0124 184.845L54.1161 184.493L54.2262 184.141L54.3388 183.788L54.454 183.436L54.5756 183.084L54.6985 182.733L54.8265 182.381L54.9583 182.03L55.0927 181.681L55.231 181.331L55.3731 180.982L55.519 180.634L55.6675 180.286L55.8198 179.939L55.9747 179.593L56.1347 179.248L56.2959 178.905L56.4623 178.562L56.6313 178.218L56.8028 177.878L56.9782 177.539L57.1561 177.201L57.3379 176.864L57.5209 176.529L57.7091 176.195L57.8998 175.862L58.0918 175.532L58.2889 175.203L58.4873 174.875L58.6895 174.549L58.8943 174.225L59.1017 173.904L59.3129 173.584L59.5254 173.266L59.7404 172.95L59.958 172.636L60.1795 172.325L60.4035 172.016L60.6287 171.708L60.8579 171.404L61.0883 171.103L61.3212 170.803L61.5567 170.506L61.7948 170.212L62.0355 169.92L62.2787 169.631L62.5219 169.345L62.7702 169.063L63.0185 168.782L63.2707 168.505L63.5228 168.231L63.7788 167.959L64.0361 167.692L64.2959 167.427L64.5571 167.166L64.8207 166.908L65.0857 166.654L65.3519 166.403L65.6207 166.156L65.8921 165.911L66.1635 165.671L66.4374 165.435L66.7139 165.202L66.9903 164.973L67.2694 164.749L67.551 164.528L67.8326 164.311L68.1155 164.097L68.4009 163.89L68.6863 163.685L68.9743 163.486L69.2636 163.29L69.5542 163.098L69.8447 162.911L70.1391 162.729L70.4323 162.551L70.7267 162.378L70.7459 162.367L70.8009 162.335L70.8905 162.284L71.0185 162.211L71.1772 162.119L71.3718 162.006L71.5983 161.875L71.8569 161.726L72.1462 161.558L72.4662 161.374L72.8182 161.171L73.1971 160.951L73.6054 160.716L74.0406 160.465L74.5039 160.197L74.9929 159.916L75.5075 159.619L76.0451 159.308L76.6083 158.983L77.1958 158.643L77.8038 158.293L78.4348 157.928L79.0863 157.553L79.7571 157.164L80.4483 156.766L81.1587 156.355L81.8883 155.935L82.6332 155.505L83.3948 155.065L84.1731 154.615L84.9667 154.157L85.7731 153.691L86.5948 153.216L87.4294 152.735L88.2755 152.247L89.1331 151.752L90.0009 151.25L90.8803 150.743L91.7673 150.23L92.6633 149.713L93.567 149.191L94.4783 148.666L95.3948 148.136L96.3177 147.603L97.2457 147.067L98.1775 146.529L99.1119 145.991L100.049 145.449L100.988 144.906L101.929 144.364L102.87 143.821L103.81 143.278L104.551 142.851M75.5715 124.894L75.5843 124.887L75.6035 124.874L75.6303 124.859L75.6649 124.84L75.7059 124.817L75.7545 124.789L75.8108 124.755L75.8735 124.72L75.9427 124.68L76.0182 124.636L76.1001 124.589L76.1884 124.538L76.2819 124.484L76.3817 124.426L76.4867 124.365L76.598 124.301L76.7145 124.234L76.8374 124.164L76.9641 124.09L77.0959 124.013L77.2316 123.935L77.3724 123.853L77.5196 123.77L77.6694 123.683L77.823 123.593L77.9817 123.504L78.1443 123.409L78.3107 123.313L78.4796 123.216L78.6524 123.116L78.8278 123.013L79.007 122.911L79.19 122.805L79.3756 122.698L79.5625 122.59L79.7532 122.48L79.9452 122.368L80.1398 122.257L80.3369 122.143L80.5353 122.028L80.7363 121.913L80.9385 121.795L81.142 121.678L81.3468 121.561L81.5516 121.441L81.759 121.321L81.9676 121.201L82.175 121.081L82.3836 120.961L82.5935 120.84L82.8035 120.72L83.0121 120.598L83.222 120.476L83.4307 120.356L83.6393 120.236L83.8479 120.115L84.0553 119.995L84.2627 119.876L84.4675 119.757L84.6723 119.639L84.8771 119.523L85.078 119.406L85.2777 119.291M75.5676 124.896L75.5689 124.894L75.5663 124.877V104.494L75.5689 104.159L75.574 103.822L75.5843 103.484L75.5971 103.145L75.6137 102.806L75.6355 102.468L75.6598 102.126L75.6867 101.786L75.7187 101.445L75.7532 101.102L75.7916 100.762L75.8339 100.42L75.8799 100.076L75.9299 99.734L75.9811 99.3897L76.0374 99.0479L76.0975 98.7049L76.1603 98.3618L76.2255 98.0188L76.2947 97.677L76.3676 97.334L76.4431 96.9922L76.5225 96.6492L76.6044 96.3087L76.6889 95.9682L76.7785 95.6265L76.8681 95.286L76.9641 94.9481L77.0614 94.6089L77.1612 94.2709L77.2649 93.933L77.3711 93.5977L77.4812 93.261L77.5926 92.9269L77.7078 92.5941L77.8255 92.2613L77.9459 91.9285L78.07 91.5996L78.1955 91.2706L78.3235 90.9429L78.4566 90.6165L78.5897 90.2914L78.7267 89.9689L78.8675 89.6463L79.0083 89.3263L79.1529 89.0076L79.3001 88.6901L79.4499 88.3753L79.6009 88.0617L79.7545 87.7506L79.9119 87.4396L80.0719 87.1324L80.2332 86.8265L80.3958 86.5231L80.5622 86.2223L80.7311 85.9241L80.9014 85.6271L81.0742 85.3327L81.2483 85.0396L81.4249 84.749L81.6041 84.4623L81.7859 84.1769L81.9689 83.8953L82.1532 83.6162L82.3401 83.3397L82.5295 83.0658L82.7215 82.7945L82.9135 82.5257L83.1081 82.2607L83.3052 81.997L83.5036 81.7397L83.7033 81.4837L83.9055 81.229L84.1091 80.9794L84.3139 80.7337L84.5212 80.4905L84.7299 80.2511L84.9398 80.0143L85.1523 79.7826L85.366 79.5522L85.5798 79.3269L85.7974 79.1055L86.015 78.8879L86.2339 78.6741L86.454 78.4629L86.6767 78.2569L86.9007 78.0533L87.1247 77.8549L87.3513 77.6617L87.5779 77.4709L87.807 77.2853L88.0374 77.1036L88.2678 76.9257L88.4995 76.7529L88.7324 76.5852L88.9667 76.4201L89.2022 76.2601L89.439 76.1065L89.6758 75.9554L89.9151 75.8095L90.1532 75.6687L90.1686 75.6597L90.2134 75.6341L90.2863 75.5919L90.3887 75.533L90.5193 75.4588L90.6755 75.3679L90.8598 75.2604L91.0697 75.1413L91.3039 75.0044L91.5638 74.8546L91.8479 74.6908L92.1551 74.5129L92.4867 74.3209L92.8399 74.1186L93.215 73.901L93.6118 73.6732L94.0278 73.4313L94.4643 73.1804L94.9212 72.9167L95.3961 72.6415L95.8902 72.3573L96.4009 72.0629L96.9295 71.7557L97.4735 71.4421L98.0342 71.1196L98.6102 70.7868L99.199 70.4463L99.8044 70.0969L100.423 69.7397L101.052 69.3762L101.696 69.005L102.349 68.6274L103.015 68.2434L103.693 67.8517L104.378 67.4562L105.073 67.0556L105.777 66.6485L106.489 66.2377L107.209 65.8217L107.935 65.4031L108.667 64.9807L109.406 64.5545L110.149 64.1244L110.897 63.693L111.65 63.2578L112.405 62.8226L113.161 62.3849L113.922 61.9458L114.683 61.5068L115.445 61.0665L116.208 60.6274L116.97 60.1858L117.731 59.7468L118.491 59.3077L119.249 58.87L120.004 58.4348L120.755 58.0009L121.503 57.5695L122.247 57.1394L122.985 56.7132L123.717 56.2908L124.444 55.8709L125.164 55.4549L125.875 55.0453L126.579 54.6383L127.275 54.2377L127.961 53.8409L128.638 53.4505L129.302 53.0665L129.957 52.6876L130.6 52.3164L131.231 51.9529L131.849 51.5957L132.453 51.2476L133.043 50.9058L133.619 50.573L134.179 50.2505L134.724 49.9356L135.253 49.6309L135.762 49.3365L136.256 49.0524L136.731 48.7772L137.188 48.5135L137.625 48.2613L138.042 48.0207L138.439 47.7916L138.814 47.574L139.166 47.3705L139.497 47.181L139.806 47.0018L140.089 46.838L140.35 46.6882L140.584 46.5525L140.794 46.4309L140.977 46.326L141.134 46.2364L141.264 46.1596L141.366 46.102L141.439 46.0585L141.484 46.0329L141.499 46.0252L141.739 45.8882L141.977 45.7602L142.213 45.6361L142.45 45.5183L142.686 45.4057L142.92 45.2994L143.153 45.1983L143.386 45.1036L143.616 45.014L143.845 44.9308L144.074 44.8527L144.302 44.7797L144.528 44.7145L144.753 44.653L144.976 44.598L145.198 44.5468L145.419 44.502L145.639 44.4636L145.856 44.4303L146.073 44.4034L146.288 44.3804L146.501 44.3625L146.713 44.3497L146.922 44.3433H147.131L147.339 44.3458L147.543 44.3561L147.748 44.3689L147.949 44.3906L148.15 44.4162L148.348 44.4457L148.544 44.4815L148.74 44.5199L148.932 44.5673L149.124 44.6172L149.312 44.6722L149.499 44.7337L149.685 44.7989L149.868 44.8693L150.048 44.9461L150.227 45.0268L150.44 45.1253L150.563 45.1893M155.771 129.6L157.148 130.395L157.339 130.506L157.531 130.617L159.237 131.601L159.428 131.712L159.62 131.822L161.324 132.807L161.516 132.918L161.708 133.028L163.413 134.012L163.605 134.124L163.797 134.234L165.5 135.218L165.692 135.328L165.884 135.44L167.589 136.424L167.781 136.534L167.973 136.645L168.922 137.237L169.079 137.34L169.28 137.433L169.467 137.514L169.663 137.621L169.75 137.671L169.869 137.74L170.06 137.852L170.247 137.97L170.431 138.093L170.613 138.22L170.791 138.353L170.966 138.49L171.139 138.632L171.306 138.779L171.472 138.931L171.634 139.088L171.793 139.249L171.949 139.415L172.1 139.587L172.25 139.762L172.394 139.943L172.537 140.128L172.675 140.318L172.81 140.512L172.941 140.712L173.069 140.915L173.193 141.124L173.314 141.337L173.43 141.554L173.543 141.777L173.651 142.003L173.756 142.234L173.859 142.469L173.956 142.71L174.048 142.954L174.138 143.204L174.224 143.457L174.304 143.715L174.382 143.977L174.455 144.243L174.524 144.513L174.59 144.789L174.65 145.069L174.706 145.352L174.759 145.64L174.806 145.932L174.848 146.229L174.888 146.529L174.923 146.834L174.952 147.143L174.978 147.456L174.998 147.772L175.016 148.094L175.027 148.419L175.034 148.749L175.036 149.082L175.034 149.418L175.027 149.755L175.016 150.094L174.998 150.435L174.978 150.775L174.952 151.118L174.923 151.461L174.888 151.806L174.848 152.151L174.806 152.498L174.759 152.845L174.706 153.193L174.65 153.541L174.59 153.891L174.524 154.24L174.455 154.591L174.382 154.942L174.304 155.294L174.224 155.646L174.138 155.998L174.048 156.35L173.956 156.702L173.859 157.055L173.756 157.407L173.651 157.76L173.543 158.112L173.43 158.464L173.314 158.816L173.193 159.168L173.069 159.52L172.941 159.871L172.81 160.222L172.675 160.572L172.537 160.922L172.394 161.271L172.25 161.619L172.1 161.966L171.949 162.314L171.793 162.66L171.634 163.004L171.472 163.349L171.306 163.692L171.139 164.033L170.966 164.374L170.791 164.714L170.613 165.052L170.431 165.389L170.247 165.724L170.06 166.058L169.869 166.39L169.676 166.722L169.479 167.05L169.28 167.378L169.079 167.703L168.873 168.027L168.666 168.35L168.456 168.67L168.242 168.987L168.027 169.303L167.81 169.617L167.588 169.928L167.365 170.238L167.139 170.544L166.911 170.848L166.679 171.15L166.446 171.45L166.212 171.747L165.974 172.041L165.733 172.333L165.49 172.621L165.246 172.908L164.999 173.191L164.749 173.471L164.498 173.747L164.245 174.023L163.989 174.293L163.731 174.562L163.472 174.825L163.212 175.086L162.948 175.345L162.683 175.6L162.416 175.85L162.147 176.097L161.877 176.342L161.604 176.581L161.33 176.818L161.055 177.051L160.777 177.279L160.498 177.504L160.218 177.724L159.936 177.942L159.652 178.154L159.368 178.363L159.081 178.568L158.793 178.768L158.505 178.963L158.215 179.154L157.923 179.341L157.63 179.524L157.337 179.702L157.041 179.875L157.022 179.885L156.968 179.917L156.877 179.969L156.752 180.042L156.59 180.135L156.397 180.247L156.17 180.378L155.912 180.526L155.621 180.694L155.3 180.88L154.951 181.082L154.57 181.301L154.162 181.536L153.727 181.788L153.265 182.055L152.776 182.337L152.261 182.634L151.722 182.945L151.159 183.271L150.573 183.609L149.965 183.961L149.334 184.324L148.682 184.7L148.01 185.088L147.319 185.488L146.609 185.897L145.881 186.318L145.136 186.748L144.373 187.189L143.596 187.638L142.802 188.096L141.994 188.562L141.173 189.036L140.339 189.517L139.492 190.006L138.636 190.501L137.767 191.003L136.887 191.51L136 192.022L135.106 192.539L134.201 193.061L133.289 193.587L132.373 194.117L131.45 194.65L130.523 195.185L129.591 195.722L128.656 196.263L127.719 196.804L126.78 197.345L125.84 197.889L124.899 198.432L123.958 198.975L123.02 199.518L122.082 200.058L121.147 200.598L120.215 201.136L119.289 201.672L118.366 202.204L117.448 202.733L116.538 203.259L115.634 203.781L114.738 204.298L113.85 204.812L112.972 205.319L112.103 205.819L111.245 206.314L110.4 206.803L109.564 207.285L108.744 207.76L107.936 208.225L107.143 208.684L106.364 209.133L105.603 209.572L104.858 210.003L104.128 210.423L103.419 210.833L102.728 211.232L102.056 211.62L101.403 211.996L100.773 212.361L100.165 212.712L99.5791 213.05L99.0159 213.375L98.4771 213.687L97.9625 213.984L97.4735 214.266L97.0115 214.533L96.5763 214.784L96.1667 215.02L95.7878 215.24L95.4371 215.442L95.1171 215.626L94.8265 215.794L94.5679 215.944L94.3414 216.074L94.1481 216.186L93.9868 216.279L93.8614 216.351L93.7718 216.403L93.7155 216.435L93.6975 216.446L93.6566 216.47L93.6054 216.498L93.5478 216.533L93.4799 216.571L93.4044 216.615L93.3212 216.663L93.2291 216.717L93.1292 216.775L93.0217 216.836L92.9065 216.903L92.7849 216.973L92.6569 217.047L92.5199 217.125L92.3779 217.209L92.2281 217.294L92.0732 217.384L91.9119 217.477L91.7443 217.575L91.5702 217.674L91.391 217.777L91.2067 217.884L91.0185 217.993L90.8227 218.106L90.6243 218.221L90.4195 218.339L90.2121 218.459L89.9996 218.582L89.782 218.706L89.5619 218.834L89.3379 218.963L89.11 219.095L88.8796 219.228L88.6454 219.363L88.4073 219.5L88.1679 219.638L87.9247 219.779L87.6815 219.92L87.4332 220.063L87.1849 220.206L86.934 220.351L86.6819 220.497L86.4284 220.643L86.1724 220.79L85.9164 220.938L85.6604 221.087L85.4031 221.235L85.1446 221.384L84.886 221.534L84.6275 221.682L84.3689 221.832L84.1116 221.98L83.8531 222.13L83.5971 222.279L83.3411 222.426L83.0851 222.573L82.8303 222.72L82.5782 222.866L82.3273 223.011L82.0777 223.154L81.8307 223.297L81.5862 223.44L81.343 223.579L81.1023 223.717L80.8655 223.856L80.63 223.99L80.3996 224.124L80.1692 224.256L79.9452 224.385L79.7251 224.513L79.5075 224.639L79.2937 224.762L79.0851 224.883L78.8803 225.001L78.6793 225.116L78.4847 225.229L78.294 225.339L78.1084 225.447L77.9292 225.55L77.7551 225.65L77.5862 225.747L77.4236 225.842L77.2675 225.932L77.1164 226.019L76.9731 226.102L76.8361 226.181L76.7055 226.257L76.5827 226.327L76.4675 226.394L76.3574 226.457L76.2575 226.515L76.1641 226.569L76.0783 226.618L76.0015 226.663L75.9324 226.702L75.8723 226.737L75.8211 226.766L75.7788 226.792L75.7455 226.811L75.7212 226.825L75.7071 226.833L75.702 226.835" stroke="#D02138" stroke-linejoin="round"/>
</svg>
