<svg width="257" height="256" viewBox="0 0 257 256" fill="none" xmlns="http://www.w3.org/2000/svg">
<path d="M179.419 36.4321L178.156 34.8346L176.195 33.4801L175.097 32.9715L172.486 31.8912L163.57 28.9478L160.682 28.231L151.938 26.4595L149.012 26.0595L140.692 25.4554L137.963 25.3086L134.921 25.3405L131.604 25.5532L125.489 26.0214L122.792 26.3189L119.948 26.7485L116.985 27.306L113.942 27.9864L110.849 28.78L107.744 29.6771L104.665 30.6704L101.642 31.7467L98.7138 32.893L95.9109 34.0991L93.269 35.3449L90.8171 36.6238L88.5796 37.9146L82.7923 41.2813L80.1635 42.9828L77.8856 44.6611L71.5181 49.7566L69.1868 51.7665L63.0934 58.0772L60.939 60.3379L55.3349 67.7267L53.5799 70.145L53.0952 70.9614L52.0336 73.2329L51.6826 75.3173L52.0359 77.193L53.0844 78.8416L54.8075 80.2496L57.1787 81.4022L60.167 82.2914L63.7317 82.9103L67.8339 83.2568L72.426 83.3267L77.4538 83.1248L82.8668 82.6549L88.6069 81.9233L94.6178 80.9363L100.834 79.7069L107.2 78.25L113.647 76.5763L120.114 74.7069L126.539 72.6567L132.86 70.4465L139.011 68.0987L144.934 65.6337L150.569 63.0794L155.858 60.4551L160.745 57.7921L165.18 55.1127L169.11 52.4474L172.494 49.8209L175.291 47.262L177.465 44.7987L178.983 42.4595L179.825 40.267L179.974 38.2508L179.419 36.4321Z" fill="white" stroke="white" stroke-linecap="round" stroke-linejoin="round"/>
<path d="M53.0942 70.9612C68.9941 48.0253 146.748 24.5387 173.543 32.3848L176.192 33.4799L178.152 34.8345L179.414 36.4319L179.969 38.2501L179.82 40.2668L178.978 42.457L177.459 44.7991C176.379 46.1815 173.835 48.6824 172.491 49.8201C160.967 59.0549 146.584 65.27 132.855 70.4463C113.605 77.2844 92.9255 82.7059 72.4205 83.3266C66.4654 83.2418 55.0785 83.2185 52.0326 77.1928C51.5946 75.2404 51.6754 75.155 52.0304 73.2328C52.3006 72.5285 53.2046 70.7359 53.5749 70.1443C54.5415 68.7931 55.5284 67.4566 56.5354 66.1353L60.9335 60.3355C62.2863 58.9337 67.6993 53.2722 69.1812 51.7646C71.8977 49.3804 77.2276 45.1029 80.1579 42.981C86.7707 38.7353 94.2357 34.418 101.637 31.7465C107.422 29.6024 113.862 27.799 119.943 26.7483C125.551 25.8745 132.283 25.3721 137.957 25.3062C141.496 25.5127 148.432 25.8955 151.933 26.4593C153.851 26.8757 161.77 28.3838 163.564 28.9453C166.165 29.8516 173.799 32.1567 176.189 33.4777" stroke="#D02138" stroke-linecap="round" stroke-linejoin="round"/>
<path d="M190.335 62.6536L188.719 60.6733L184.392 56.4709L176.538 50.3639L174.188 48.8154L165.893 43.7306L158.211 40.1381L155.501 39.0703L152.135 38.275L148.14 37.7687L143.559 37.5542L138.44 37.6412L132.842 38.0304L126.825 38.7176L120.464 39.6978L113.828 40.9607L107.001 42.4927L100.065 44.2728L93.1039 46.2827L86.2044 48.4968L79.45 50.8872L72.9203 53.4268L66.6972 56.0806L60.8524 58.8181L55.4548 61.6063L50.5675 64.412L46.2411 67.1979L42.5234 69.9371L39.4542 72.5938L37.0592 75.1395L35.3582 77.5448L30.9004 85.0314L26.9062 93.8856L25.7491 96.5099L22.6845 105.966L21.5228 111.6L21.21 114.167L21.8335 116.449L23.3734 118.429L25.7958 120.086L29.0646 121.411L33.1333 122.391L37.9489 123.027L43.4507 123.31L49.5759 123.246L56.2564 122.838L63.4198 122.096L70.9957 121.026L78.9055 119.644L87.0702 117.964L95.4141 116.005L103.855 113.784L112.314 111.325L120.713 108.652L128.969 105.785L137.008 102.757L144.752 99.5921L152.122 96.321L159.049 92.9731L165.459 89.5831L171.287 86.18L176.466 82.8002L180.939 79.4785L184.65 76.2477L187.551 73.1405L189.601 70.197L190.762 67.4448L191.014 64.92L190.335 62.6536Z" fill="white" stroke="white" stroke-linecap="round" stroke-linejoin="round"/>
<path d="M21.5235 111.599C21.8125 108.116 24.6689 99.8994 25.7492 96.5094C26.4956 94.9398 30.054 86.7916 30.9028 85.0309C33.0378 81.477 36.3345 75.3154 39.4549 72.5933C55.4099 58.6515 79.8648 50.0954 100.065 44.2723C116.391 40.0926 139.001 34.9778 155.501 39.0698C167.399 43.6573 179.758 51.5905 188.719 60.6722L190.335 62.6519L191.014 64.9195L190.763 67.4437L189.599 70.196C182.706 80.5731 169.773 87.2046 159.047 92.9726C131.536 106.521 101.22 115.957 70.9935 121.026C57.5051 122.863 38.4741 125.609 25.7941 120.085L23.3695 118.426C23.3695 118.426 21.8296 116.448 21.8296 116.447L21.2061 114.164L21.5189 111.597L22.7802 108.771L24.9875 105.715C48.4046 81.0538 111.246 62.384 144.98 57.6372C156.897 56.2206 178.744 53.379 188.717 60.6699" stroke="#D02138" stroke-linecap="round" stroke-linejoin="round"/>
<path d="M225.715 79.8191L223.263 75.0723L217.67 66.6243L216.093 64.5314L209.664 56.7962L206.809 54.0445L204.349 52.3412L200.965 50.9759L196.686 49.9718L191.55 49.3443L185.605 49.106L178.914 49.2635L171.549 49.8228L163.597 50.7802L155.146 52.1239L146.305 53.8425L137.179 55.9161L127.882 58.3197L118.533 61.0247L109.247 63.9983L100.144 67.1972L91.3392 70.5872L82.9401 74.12L75.0496 77.7524L67.7627 81.4405L61.1613 85.1348L55.3228 88.7911L50.3081 92.3682L46.1626 95.8225L42.9296 99.1147L40.6284 102.209L39.2779 105.072L38.4359 109.217L38.0252 111.865L37.1064 121.916L37.2811 132.036L37.9148 137.053L38.5105 139.459L40.1227 141.524L42.7168 143.236L46.2519 144.578L50.6716 145.543L55.9168 146.131L61.9271 146.337L68.6263 146.165L75.9428 145.623L83.7991 144.721L92.1129 143.468L100.802 141.883L109.781 139.982L118.967 137.783L128.269 135.309L137.602 132.585L146.884 129.635L156.022 126.485L164.936 123.167L173.541 119.709L181.751 116.142L189.491 112.501L196.677 108.819L203.236 105.131L209.1 101.476L214.198 97.8853L218.467 94.3992L221.855 91.0541L224.309 87.8894L225.792 84.9369L226.268 82.2358L225.715 79.8191Z" fill="white" stroke="white" stroke-linecap="round" stroke-linejoin="round"/>
<path d="M37.9154 137.05C38.8825 124.138 67.389 110.335 78.1808 104.999C109.152 90.7196 143.03 80.3129 176.721 74.9767C189.897 73.2496 204.758 71.416 217.836 74.5745L221.494 75.9592L224.125 77.7159L225.718 79.8174L226.271 82.2335L225.794 84.9345L224.312 87.8865C215.879 99.1397 201.708 106.12 189.491 112.501C156.364 128.278 120.12 139.431 83.7997 144.72C70.9178 146.103 54.9724 148.204 42.7179 143.235L40.1232 141.525C40.1232 141.525 38.511 139.46 38.511 139.459C36.3179 131.419 37.173 120.072 38.0258 111.867C38.226 110.314 38.932 106.643 39.2784 105.074L40.6313 102.209L42.9301 99.1141C61.7723 79.5876 101.816 65.759 127.883 58.3213C149.007 52.8811 179.678 45.7114 200.967 50.977L204.351 52.3423L206.812 54.0461L209.664 56.8007C210.821 58.2064 216.753 65.2333 217.669 66.6288L223.263 75.0746C223.761 76.0616 225.222 78.8497 225.716 79.8214" stroke="#D02138" stroke-linecap="round" stroke-linejoin="round"/>
<path d="M216.648 112.276L214.06 102.478L213.428 100.145L209.791 90.6546L207.601 86.3863L205.908 84.3252L203.179 82.6111L199.43 81.2646L194.682 80.3117L188.98 79.765L182.372 79.6353L174.93 79.9334L166.736 80.6627L157.884 81.8175L148.479 83.3871L138.634 85.3566L128.472 87.705L118.122 90.3992L107.718 93.4109L97.3943 96.6991L87.2852 100.227L77.5253 103.947L68.2245 107.808L59.5046 111.757L51.4668 115.749L44.2061 119.729L37.8043 123.651L32.3259 127.466L27.8272 131.131L24.3456 134.604L21.9062 137.845L20.5192 140.825L20.1768 143.504L20.8003 148.556L23.1287 158.458L23.8199 160.779L27.1912 170.347L28.4228 172.921L30.101 174.808L32.7657 176.341L36.3725 177.511L40.869 178.308L46.1943 178.732L52.2814 178.785L59.0597 178.472L66.453 177.798L74.3839 176.777L82.7699 175.42L91.5262 173.746L100.569 171.768L109.815 169.512L119.171 166.998L128.552 164.248L137.874 161.289L147.049 158.15L155.991 154.858L164.615 151.442L172.842 147.937L180.586 144.373L187.772 140.782L194.325 137.203L200.174 133.666L205.248 130.209L209.492 126.871L212.844 123.683L215.26 120.679L216.695 117.902L217.118 115.377L216.648 112.276Z" fill="white"/>
<path d="M28.4206 172.918C27.2914 171.301 24.5863 162.722 23.816 160.774C22.5502 156.388 20.4812 148.045 20.1729 143.499L20.5153 140.818L21.9017 137.838C33.9991 121.019 67.9055 107.622 87.283 100.221C116.812 89.7075 168.871 74.8771 199.427 81.2577L203.179 82.6037L205.908 84.3178L207.601 86.3766C212.041 94.6141 215.585 106.156 217.12 115.368C216.412 125.549 196.073 136.194 187.774 140.775C154.985 157.33 118.828 168.649 82.7723 175.413C67.8332 177.78 51.3946 180.421 36.3748 177.501L32.7681 176.334L30.1028 174.8C28.4439 172.91 28.4781 173.382 27.7675 170.687L28.1566 168.141L29.5988 165.293L32.1019 162.175C41.8452 152.507 55.5014 145.777 67.7524 139.875C98.989 125.738 133.042 115.391 166.855 109.708C176.479 108.298 215.289 102.453 217.123 115.368" stroke="#D02138" stroke-linecap="round" stroke-linejoin="round"/>
<path d="M236.292 115.825L235.22 108.881L234.716 106.603L233.163 104.642L230.567 103.025L226.934 101.781L222.291 100.926L216.678 100.477L210.14 100.444L202.751 100.833L194.591 101.648L185.752 102.883L176.339 104.527L166.465 106.561L156.254 108.964L145.835 111.705L135.342 114.753L124.909 118.067L114.679 121.608L104.772 125.328L95.3225 129.18L86.4433 133.112L78.2376 137.074L70.8045 141.015L64.2242 144.886L58.5689 148.642L53.8915 152.238L50.2358 155.633L47.6303 158.794L46.084 161.684L45.5908 164.274L46.1461 166.542L49.3279 173.146L54.7277 181.823L61.0464 189.899L62.4333 191.564L63.7156 192.88L65.9935 194.197L69.1474 195.184L73.1313 195.832L77.8889 196.143L83.3656 196.116L89.4931 195.756L96.2032 195.071L103.426 194.072L111.085 192.77L119.103 191.183L127.402 189.324L135.899 187.216L144.514 184.879L153.169 182.334L161.776 179.607L170.262 176.72L178.54 173.705L186.536 170.589L194.17 167.396L201.367 164.164L208.056 160.916L214.162 157.69L219.626 154.512L224.38 151.42L228.37 148.442L231.543 145.614L233.854 142.965L235.269 140.526L235.756 138.325L236.12 136.2L236.756 126.004L236.292 115.825Z" fill="white" stroke="white" stroke-linecap="round" stroke-linejoin="round"/>
<path d="M63.7156 192.882C54.515 184.159 86.1498 168.496 92.4001 165.356C125.762 149.637 162.203 138.426 198.685 132.977C208.326 131.95 225.555 129.542 233.878 134.757C242.996 143.037 214.009 157.81 208.056 160.92C175.264 176.899 139.38 188.022 103.428 194.075C93.0913 195.438 72.4907 198.628 63.7156 192.882ZM63.7156 192.882C57.0414 185.751 50.0509 175.514 46.1461 166.543L45.5908 164.276L46.084 161.687L47.6303 158.797C62.0505 140.719 102.797 125.693 124.912 118.068C144.266 111.705 165.634 106.119 185.754 102.884C198.026 101.226 222.893 97.414 233.163 104.643C234.74 106.651 234.693 106.164 235.22 108.884C236.9 117.649 237.143 129.504 235.756 138.329" stroke="#D02138" stroke-linecap="round" stroke-linejoin="round"/>
<path d="M217.026 142.89L215.516 141.289L213.051 140.002L209.645 139.051L205.328 138.452L200.132 138.213L194.1 138.343L187.305 138.845L179.816 139.722L171.722 140.961L163.114 142.556L154.098 144.488L144.785 146.731L135.291 149.265L125.735 152.055L116.243 155.067L106.932 158.261L97.9161 161.598L89.3105 165.035L81.2244 168.529L73.7526 172.034L66.9811 175.507L60.9873 178.908L55.832 182.194L51.5699 185.327L48.2373 188.273L45.8617 190.999L44.4537 193.478L44.0088 195.681L44.5236 197.593L45.9806 199.197L51.7292 205.135L59.5139 211.602L67.9761 217.206L69.8352 218.187L75.1845 220.952L77.5937 221.611L80.6566 222.015L84.3277 222.162L88.5687 222.052L93.3241 221.69L98.5453 221.084L104.173 220.237L110.15 219.163L116.411 217.874L122.895 216.383L129.538 214.707L136.271 212.864L143.032 210.866L149.756 208.74L156.372 206.505L162.819 204.179L169.034 201.787L174.952 199.354L180.518 196.902L185.672 194.454L190.359 192.038L194.528 189.674L198.133 187.39L201.132 185.208L203.486 183.156L205.164 181.252L206.14 179.519L209.205 173.862L213.04 164.49L215.83 154.788L216.198 152.75L217.581 144.783L217.026 142.89Z" fill="white" stroke="white" stroke-linecap="round" stroke-linejoin="round"/>
<path d="M171.722 140.964C183.1 139.291 205.589 135.494 215.513 141.292C216.946 142.853 216.983 142.449 217.58 144.788L216.198 152.753C214.507 161.282 210.553 172.04 206.138 179.522L205.161 181.253L203.484 183.157C182.213 202.028 109.324 223.82 80.6538 222.016L77.5914 221.612L75.1816 220.953C74.7561 220.663 73.0466 219.883 72.5892 219.613C63.1456 215.03 52.9921 206.984 45.9783 199.198L44.5231 197.594L44.0088 195.682L44.4525 193.479L45.8611 191C52.9244 182.51 64.1156 177.051 73.7526 172.035C104.532 157.407 138.204 147.009 171.722 140.962" stroke="#D02138" stroke-linecap="round" stroke-linejoin="round"/>
<path d="M75.1844 220.955L73.4743 220.062L72.4429 218.885C72.0538 217.299 72.1857 217.395 72.6192 215.878C75.4802 211.12 81.2567 207.922 85.8698 205.097C99.0857 197.723 114.154 191.978 128.49 187.2C149.143 180.683 170.997 174.679 192.729 173.711C196.467 173.745 201.319 173.743 204.707 175.555L205.92 176.655L206.396 177.982L206.141 179.521" stroke="#D02138" stroke-linecap="round" stroke-linejoin="round"/>
<path d="M224.218 170.209L223.078 169.082L221.205 168.199L218.61 167.574L215.316 167.216L211.351 167.133L206.757 167.331L201.576 167.805L195.865 168.554L189.693 169.575L183.128 170.853L176.249 172.378L169.14 174.131L161.883 176.092L154.569 178.237L147.286 180.541L140.125 182.974L133.174 185.507L126.518 188.108L120.233 190.746L114.396 193.389L109.077 196.005L104.332 198.562L100.215 201.031L96.7672 203.383L94.0217 205.591L92.001 207.633L90.7205 209.483L90.1846 211.127L90.3951 212.55L91.3394 213.734L92.9966 214.673L96.5015 216.472L105.86 220.045L107.797 220.607L117.217 223.055L126.894 224.437L128.587 224.668L130.65 224.748L139.553 224.964L141.378 224.909L143.447 224.741L151.095 223.931L152.639 223.741L154.318 223.48L156.115 223.148L158.01 222.748L159.982 222.287L162.01 221.765L164.075 221.195L166.153 220.576L168.225 219.922L170.265 219.233L172.251 218.518L174.165 217.786L175.986 217.044L177.696 216.3L179.272 215.564L180.699 214.839L187.264 211.285L189.147 210.238L190.765 209.236L192.105 208.286L199.613 202.856L201.002 201.68L208.114 195.144L209.341 193.798L215.875 186.268L221.515 178.098L222.521 176.411L224.289 173.133L224.62 171.566L224.218 170.209Z" fill="white" stroke="white" stroke-linecap="round" stroke-linejoin="round"/>
<path d="M183.128 170.853C191.338 169.273 218.718 163.671 224.217 170.209L224.618 171.566L224.289 173.135L222.521 176.413C219.595 181.553 213.382 189.478 209.341 193.799C207.689 195.718 201.529 201.205 199.613 202.858C198.643 203.587 191.531 208.692 190.765 209.239C187.143 211.448 181.535 214.483 177.694 216.304C174.727 217.635 171.313 218.909 168.223 219.923C163.759 221.374 158.943 222.673 154.318 223.484C150.177 224.081 143.732 224.839 139.553 224.968C138.271 224.909 129.744 224.764 128.587 224.673C122.855 224.08 113.312 222.346 107.797 220.611C104.152 219.522 96.2781 216.576 92.9984 214.679L91.3395 213.738L90.3952 212.554C88.6129 206.524 104.558 198.493 109.077 196.01C132.298 184.467 157.829 176.377 183.13 170.857" stroke="#D02138" stroke-linecap="round" stroke-linejoin="round"/>
</svg>
