<svg width="232" height="232" viewBox="0 0 232 232" fill="none" xmlns="http://www.w3.org/2000/svg">
<mask id="path-1-inside-1_522_98" fill="white">
<path fill-rule="evenodd" clip-rule="evenodd" d="M108.541 215L110.295 214.841C148.207 216.246 184.711 198.134 203.948 161.486C223.96 123.261 215.809 78.0208 187.456 47.5913L184.926 44.9395L184.783 45.0986L170.248 33.1655C148.694 19.2436 123.452 14.0873 98.8508 18.5805C35.1745 30.0496 -6.59211 101.648 31.5945 167.652L31.3201 168.355L31.1053 168.739L32.7163 169.521C44.2578 186.917 60.1537 200.152 78.4209 207.575L80.0439 208.37V208.211C89.2396 211.802 98.8209 214.031 108.541 214.841V215ZM173.553 68.0368L172.145 67.9572C171.573 67.9175 171.028 67.6707 170.594 67.2545C168.722 65.4875 166.502 64.2354 164.114 63.5996C161.726 62.9638 159.236 62.9622 156.847 63.595L151.93 67.5727C151.298 68.0368 150.809 67.9705 150.307 67.4931C147.913 65.0181 145.271 64.7574 142.384 66.7109C142.104 66.9126 141.786 67.0392 141.454 67.0806C141.123 67.122 140.787 67.0772 140.474 66.9495L138.028 65.7695C134.03 63.6745 131.142 62.2691 126.512 66.2468C125.749 66.9037 124.811 67.2602 123.845 67.2602C122.88 67.2602 121.941 66.9037 121.178 66.2468L119.698 65.0004C116.19 61.8713 112.121 58.0527 107.562 60.9432L103.063 63.5154C102.419 63.8425 101.953 63.6613 101.667 62.9718C97.3711 53.5314 95.0679 54.2208 90.7839 55.5467C89.0297 56.1036 86.8459 56.8063 84.0415 56.8726C79.125 56.4086 75.2586 58.1322 72.6691 61.8713C72.4675 62.1546 72.3201 62.4807 72.236 62.8295C72.1518 63.1783 72.1327 63.5426 72.1798 63.8999L72.8123 69.124C72.8719 69.8267 72.8123 69.9195 72.3827 69.3627L68.2418 63.0381C68.1433 62.8901 68.0182 62.7665 67.8744 62.6752C67.7306 62.5839 67.5712 62.5269 67.4065 62.5077C67.2427 62.4852 67.0764 62.5007 66.9183 62.5531C66.7601 62.6056 66.6135 62.694 66.4876 62.8127L63.9577 65.2258C63.8259 65.3726 63.727 65.5517 63.6688 65.7487C63.6106 65.9457 63.5948 66.1551 63.6226 66.3602C63.6505 66.5652 63.7212 66.7601 63.8291 66.9292C63.9371 67.0984 64.0792 67.237 64.2441 67.334L65.8551 68.3417C65.9048 68.3729 65.945 68.4198 65.9705 68.4765C65.996 68.5332 66.0057 68.5971 65.9983 68.6599L65.8551 68.819H65.7119L61.9291 68.3417C61.6799 68.3125 61.4283 68.3631 61.2042 68.4876C60.98 68.6122 60.7926 68.8054 60.6641 69.0444C58.0627 73.6586 58.6355 77.2385 62.4183 79.9699C62.9792 80.434 63.0508 80.898 62.6928 81.5345C59.3276 87.2359 64.1009 90.5771 68.0389 93.3085L70.5569 95.2576C70.9706 95.5846 70.9268 95.7172 70.4256 95.6553L60.8789 94.6344C60.5174 94.581 60.1509 94.679 59.8509 94.9094C59.5509 95.1398 59.3388 95.4861 59.256 95.8808C59.1747 96.2628 59.2132 96.6642 59.365 97.0186C59.5169 97.373 59.7732 97.6592 60.0913 97.8298L65.6523 100.72C65.8294 100.823 65.9649 100.996 66.0314 101.205C66.0979 101.415 66.0903 101.644 66.0103 101.847C65.9531 101.98 65.8764 102.101 65.7835 102.205L62.7644 105.083C62.683 105.177 62.6147 105.284 62.5615 105.401C62.5435 105.533 62.5435 105.667 62.5615 105.799V106.024C62.5615 106.183 62.6928 106.263 62.7644 106.342L68.1702 111.646C68.4103 111.873 68.5825 112.175 68.6638 112.514C68.7452 112.852 68.7318 113.21 68.6255 113.54C68.5193 113.869 68.3252 114.155 68.069 114.359C67.8129 114.564 67.5068 114.676 67.1917 114.682C64.9482 114.682 63.8265 113.661 63.7549 111.328C63.7416 110.98 63.66 110.639 63.5157 110.33C63.3714 110.021 63.1679 109.75 62.9195 109.538C59.5745 106.798 55.6565 105.05 51.5351 104.459C51.2657 104.422 50.9924 104.479 50.753 104.621C50.5137 104.764 50.32 104.985 50.1986 105.255C50.0666 105.534 50.023 105.855 50.075 106.165C50.1269 106.476 50.2714 106.757 50.485 106.965L51.6067 108.053L51.7499 108.212V108.358C51.7447 108.419 51.7203 108.476 51.6811 108.52C51.6419 108.563 51.5903 108.59 51.5351 108.596H51.4635L41.2128 108.358C40.4527 108.328 39.7085 108.604 39.1168 109.135C38.525 109.666 38.1252 110.416 37.9908 111.248C36.9287 117.175 44.0291 116.326 47.1079 115.928H47.4659C48.0293 115.852 48.5982 116.009 49.0646 116.368C49.531 116.727 49.8624 117.265 49.9957 117.878C50.1346 118.52 50.0524 119.197 49.7655 119.776C49.4785 120.355 49.0074 120.794 48.4444 121.007L45.3537 122.094C45.0269 122.206 44.7324 122.412 44.4994 122.69C44.2664 122.968 44.1032 123.31 44.0259 123.68C43.9486 124.05 43.9601 124.436 44.059 124.8C44.158 125.164 44.341 125.493 44.5899 125.753L49.5661 131.216L49.9241 131.057L50.8311 132.622C55.4612 136.201 56.3204 139.649 57.5137 144.157C57.7882 145.257 58.0627 146.504 58.4803 147.75C58.5587 148.032 58.7063 148.285 58.9065 148.479C59.1068 148.674 59.3517 148.802 59.614 148.851C62.7644 149.558 65.2187 149.248 66.9769 147.922C70.4256 145.337 73.8624 142.924 77.4424 140.577C79.0534 139.49 79.8291 137.766 79.5427 135.353C79.5242 135.048 79.4382 134.753 79.2925 134.494C79.1468 134.235 78.9458 134.02 78.7073 133.868C76.0974 132.178 72.9922 131.701 70.0676 132.542C69.3635 132.701 68.8027 132.542 68.3134 131.839L65.0914 127.318C65.0193 127.241 64.963 127.148 64.9264 127.044C64.8898 126.941 64.8738 126.83 64.8795 126.719C64.8851 126.608 64.9123 126.5 64.9592 126.402C65.0061 126.304 65.0716 126.218 65.1511 126.151C65.2619 126.077 65.3828 126.023 65.5091 125.992C65.6635 125.931 65.832 125.931 65.9864 125.992C67.7525 126.854 69.2919 127.782 70.7001 128.644C75.0557 131.216 78.4209 133.245 84.8769 131.693C85.1633 131.614 85.4497 131.693 85.7241 131.76C86.0185 131.901 86.2055 132.166 86.285 132.555C87.5499 135.737 89.6621 137.541 92.8125 137.766C93.3774 137.854 93.7274 138.221 93.8627 138.867C94.7815 144.316 96.5357 149.474 98.994 154.313C99.1449 154.609 99.3768 154.843 99.656 154.981C99.9351 155.119 100.247 155.155 100.545 155.082C101.659 154.782 102.359 153.743 102.646 151.966L101.524 150.561C101.808 150.298 102.143 150.112 102.502 150.017L102.085 145.642C102.005 144.882 102.307 144.625 102.992 144.873L105.104 145.403C105.398 145.486 105.707 145.471 105.993 145.36C106.28 145.249 106.531 145.048 106.715 144.78L112.049 136.52C112.256 136.229 112.524 135.999 112.83 135.851C113.136 135.703 113.471 135.641 113.803 135.671C114.138 135.709 114.457 135.844 114.73 136.063C115.002 136.282 115.218 136.576 115.355 136.917C116.966 140.577 119.293 143.467 122.515 145.496C123.004 145.801 123.35 146.278 123.422 147.047C124.126 152.51 126.166 157.27 129.388 161.486L129.889 162.269C130.16 163.064 130.017 163.197 129.46 162.667C127.431 160.545 124.615 158.291 121.739 158.596C121.178 158.676 121.035 158.994 121.453 159.524L129.889 170.993L131.286 171.935L130.999 172.717C131.921 174.011 133.136 175.009 134.52 175.607C134.639 175.652 134.767 175.661 134.891 175.633C135.014 175.605 135.129 175.541 135.224 175.448C135.333 175.361 135.417 175.241 135.468 175.103C135.519 174.964 135.533 174.813 135.51 174.666C135.167 171.108 133.754 167.782 131.5 165.226L131.453 165.04C131.453 164.97 131.469 164.902 131.5 164.841C131.557 164.764 131.637 164.713 131.725 164.698C131.813 164.684 131.904 164.706 131.978 164.761L132.204 164.921H132.336L132.479 164.987C132.678 165.102 132.898 165.162 133.122 165.162C133.346 165.163 133.567 165.103 133.766 164.989C133.965 164.874 134.136 164.708 134.265 164.505C134.394 164.302 134.477 164.067 134.508 163.82C134.567 163.503 134.521 163.173 134.376 162.892L127.634 148.068C127.544 147.863 127.516 147.63 127.555 147.406C127.594 147.181 127.697 146.976 127.849 146.822C128.004 146.679 128.196 146.594 128.398 146.579C128.6 146.565 128.8 146.622 128.971 146.742C130.868 147.989 132.193 149.858 133.04 152.205C133.875 154.857 135.426 155.56 137.67 154.459C139.854 153.372 141.047 152.126 141.25 150.561C141.465 149.394 140.832 147.989 139.436 146.186C138.101 144.378 136.645 142.685 135.08 141.121C135.037 140.959 135.034 140.787 135.072 140.623C135.109 140.46 135.187 140.311 135.295 140.192C135.424 140.111 135.566 140.057 135.713 140.033L139.567 139.331C139.782 139.331 139.854 139.172 139.925 139.012C139.925 138.787 139.997 138.628 139.925 138.482C139.917 138.173 140.009 137.987 140.2 137.925L150.307 133.324C150.611 133.184 150.869 132.943 151.046 132.635C151.223 132.327 151.311 131.966 151.298 131.601C151.237 127.546 150.247 123.576 148.422 120.065C148.28 119.792 148.074 119.568 147.826 119.416C147.578 119.264 147.297 119.19 147.014 119.203H145.116C144.003 119.124 143.839 118.655 144.627 117.798L146.035 116.247C146.513 115.623 146.453 115.146 145.677 114.921L139.997 113.197C139.848 113.161 139.714 113.074 139.613 112.947C139.512 112.821 139.45 112.662 139.436 112.494C139.421 112.332 139.446 112.167 139.506 112.018C139.567 111.869 139.662 111.741 139.782 111.646C143.851 108.676 147.503 113.595 150.307 117.347L151.715 119.283C151.907 119.537 152.165 119.719 152.454 119.802C152.743 119.885 153.048 119.866 153.326 119.747C154.735 119.287 155.578 118.196 155.856 116.472C155.887 116.165 155.837 115.856 155.712 115.58C155.587 115.305 155.392 115.076 155.152 114.921C152.972 113.683 152.018 111.783 152.288 109.219C152.319 108.903 152.445 108.607 152.647 108.38C152.848 108.154 153.113 108.01 153.398 107.973C156.143 107.734 157.754 106.024 158.386 102.908C158.446 102.625 158.589 102.371 158.791 102.187C158.994 102.002 159.246 101.897 159.508 101.887C159.723 101.887 159.997 101.887 160.212 102.126C160.427 102.285 160.566 102.519 160.63 102.828L163.446 113.197C163.649 113.993 163.446 114.364 162.73 114.443C159.142 115.062 156.922 117.25 156.071 121.007C155.964 121.487 155.993 121.993 156.156 122.453C156.318 122.914 156.605 123.308 156.978 123.579C157.37 123.825 157.823 123.919 158.268 123.847C158.713 123.775 159.124 123.541 159.436 123.181C161.424 121.03 163.822 119.403 166.453 118.421C166.843 118.262 167.194 118.003 167.476 117.664C167.758 117.325 167.964 116.916 168.076 116.472C168.205 116.016 168.239 115.534 168.177 115.061C168.115 114.588 167.958 114.137 167.718 113.741L164.854 109.14C164.744 108.966 164.691 108.755 164.704 108.542C164.717 108.33 164.795 108.129 164.926 107.973C165.028 107.872 165.145 107.791 165.272 107.734L168.351 106.886C169.067 106.647 169.067 106.342 168.637 105.865C164.423 101.432 160.09 97.1434 155.642 93.0035C153.255 90.6567 150.868 90.2722 147.921 89.7948C147.229 89.6623 147.069 89.2468 147.443 88.5485C149.4 85.0349 152.909 86.2149 156 87.0635L157.969 87.6867C158.673 87.8458 158.947 87.5408 159.019 86.9176C159.233 84.2658 160.216 82.0781 161.966 80.3544C162.515 79.824 162.889 79.9832 163.088 80.8317C164.078 85.2735 165.761 87.859 167.79 90.9749L169.341 93.388C170.391 95.1824 171.652 95.4918 173.124 94.3162C173.432 94.0608 173.669 93.7133 173.806 93.3142C173.943 92.9151 173.976 92.4809 173.9 92.0621C173.846 91.7868 173.753 91.5228 173.625 91.2799L168.709 83.4835L168.565 83.2449C168.52 83.1172 168.499 82.9807 168.503 82.8436C168.507 82.7065 168.536 82.5718 168.589 82.4476C168.641 82.3235 168.716 82.2126 168.808 82.1217C168.901 82.0308 169.009 81.9618 169.126 81.919L177.969 78.644C178.138 78.5511 178.286 78.4147 178.398 78.2462C178.475 78.1265 178.528 77.9904 178.555 77.8467C178.582 77.7029 178.581 77.5545 178.554 77.4109C178.53 77.2637 178.478 77.1238 178.402 77.0004C178.326 76.877 178.227 76.7729 178.112 76.6949L177.277 76.1513C176.012 75.4618 176.079 75.2011 177.48 75.369L183.088 76.1513C183.661 76.1513 184.007 75.9126 184.007 75.2895C184.044 74.5592 184.25 73.8519 184.606 73.2362C184.961 72.6206 185.454 72.1175 186.036 71.7758C186.156 71.6997 186.254 71.5866 186.317 71.4501C186.381 71.3137 186.407 71.1597 186.394 71.0068C186.376 70.8589 186.335 70.7155 186.274 70.5825C186.189 70.4721 186.089 70.3781 185.976 70.3041C182.919 68.8312 179.618 68.086 176.286 68.1163H173.542L173.553 68.0368ZM103.839 158.291C104.471 158.914 104.961 159.299 105.45 159.378C106.154 159.537 106.5 159.14 106.5 158.45C106.614 157.439 106.529 156.413 106.251 155.442C105.973 154.472 105.508 153.58 104.889 152.828L103.839 154.38L103.767 154.313H103.696V154.234H103.553V154.154L103.35 153.995C102.948 154.899 102.705 155.88 102.634 156.886L104.042 157.893L103.839 158.291ZM103.481 153.611L103.767 153.292L103.839 153.372C103.733 153.474 103.612 153.555 103.481 153.611ZM153.195 146.358L151.93 149.076C151.787 149.381 151.736 149.729 151.785 150.068C151.835 150.408 151.982 150.72 152.205 150.959L158.529 158.755C158.697 158.958 158.906 159.113 159.138 159.207C159.371 159.302 159.62 159.333 159.866 159.299C160.574 159.21 160.972 158.768 161.059 157.973C161.033 157.605 160.908 157.254 160.701 156.965C158.276 152.917 156.649 148.344 155.928 143.547C155.642 141.598 154.663 140.272 153.124 139.715C152.912 139.635 152.684 139.631 152.47 139.702C152.256 139.773 152.067 139.917 151.93 140.113C151.803 140.3 151.723 140.521 151.697 140.754C151.672 140.987 151.703 141.223 151.787 141.439L153.195 145.178C153.269 145.364 153.307 145.565 153.307 145.768C153.307 145.971 153.269 146.172 153.195 146.358ZM145.677 155.944C145.403 160.625 143.291 161.951 140.761 163.436C139.782 164.059 138.66 164.682 137.61 165.69C137.405 165.872 137.264 166.128 137.212 166.414C137.16 166.7 137.199 166.997 137.324 167.254C137.324 167.413 137.467 167.493 137.61 167.652C140.629 170.304 144.138 171.55 147.992 171.55C148.26 171.57 148.527 171.506 148.763 171.365C148.999 171.224 149.195 171.013 149.329 170.755C151.298 166.631 153.47 156.886 148.911 153.995C148.589 153.793 148.225 153.687 147.855 153.687C147.485 153.687 147.121 153.793 146.799 153.995C146.479 154.188 146.208 154.468 146.011 154.809C145.815 155.15 145.7 155.54 145.677 155.944ZM161.907 177.238L136.489 174.043H136.345C136.306 174.085 136.28 174.141 136.274 174.202V174.281C136.21 174.759 136.469 175.276 137.049 175.833C137.873 176.477 138.768 177.003 139.711 177.397C142.598 178.458 145.546 179.187 148.553 179.585L149.054 179.665C152.069 179.992 155.085 179.992 158.1 179.665C159.064 179.528 160.01 179.261 160.916 178.869C161.62 178.485 162.038 178.021 162.038 177.543V177.318C162 177.274 161.949 177.246 161.895 177.238"/>
</mask>
<path d="M108.541 215H106.93V216.764L108.686 216.605L108.541 215ZM110.295 214.841L110.355 213.231L110.252 213.227L110.149 213.236L110.295 214.841ZM203.948 161.486L205.374 162.235L205.375 162.234L203.948 161.486ZM187.456 47.5913L188.635 46.493L188.628 46.4861L188.622 46.4792L187.456 47.5913ZM184.926 44.9395L186.092 43.8274L184.891 42.5694L183.728 43.8618L184.926 44.9395ZM184.783 45.0986L183.76 46.3438L184.95 47.3208L185.98 46.1763L184.783 45.0986ZM170.248 33.1655L171.27 31.9203L171.199 31.862L171.122 31.8121L170.248 33.1655ZM98.8508 18.5805L99.1364 20.1661L99.1403 20.1654L98.8508 18.5805ZM31.5945 167.652L33.0953 168.238L33.3773 167.516L32.9891 166.845L31.5945 167.652ZM31.3201 168.355L32.7266 169.14L32.7805 169.044L32.8208 168.941L31.3201 168.355ZM31.1053 168.739L29.6987 167.953L28.8666 169.443L30.4015 170.188L31.1053 168.739ZM32.7163 169.521L34.0588 168.631L33.8156 168.264L33.42 168.072L32.7163 169.521ZM78.4209 207.575L79.1301 206.128L79.0796 206.104L79.0275 206.082L78.4209 207.575ZM80.0439 208.37L79.3347 209.817L81.655 210.955V208.37H80.0439ZM80.0439 208.211L80.6299 206.711L78.4328 205.853V208.211H80.0439ZM108.541 214.841H110.152V213.358L108.674 213.235L108.541 214.841ZM173.553 68.0368L175.147 68.2756L175.409 66.5279L173.644 66.4282L173.553 68.0368ZM172.145 67.9572L172.034 69.5644L172.044 69.5652L172.054 69.5657L172.145 67.9572ZM170.594 67.2545L171.709 66.0914L171.7 66.083L170.594 67.2545ZM156.847 63.595L156.434 62.0376L156.101 62.1258L155.833 62.3425L156.847 63.595ZM151.93 67.5727L152.883 68.8716L152.914 68.8491L152.944 68.8252L151.93 67.5727ZM150.307 67.4931L149.149 68.6134L149.172 68.6371L149.196 68.6598L150.307 67.4931ZM142.384 66.7109L141.481 65.3764L141.461 65.3899L141.441 65.4041L142.384 66.7109ZM140.474 66.9495L139.774 68.4006L139.82 68.4225L139.866 68.4414L140.474 66.9495ZM138.028 65.7695L137.28 67.1965L137.304 67.2089L137.328 67.2206L138.028 65.7695ZM126.512 66.2468L125.462 65.0247L125.461 65.0256L126.512 66.2468ZM123.845 67.2602V68.8713V67.2602ZM121.178 66.2468L122.229 65.0256L122.222 65.02L122.216 65.0145L121.178 66.2468ZM119.698 65.0004L118.626 66.2028L118.643 66.218L118.66 66.2327L119.698 65.0004ZM107.562 60.9432L108.362 62.3418L108.394 62.3235L108.425 62.3038L107.562 60.9432ZM103.063 63.5154L103.792 64.9521L103.828 64.9339L103.863 64.9141L103.063 63.5154ZM101.667 62.9718L103.155 62.3538L103.145 62.3289L103.133 62.3045L101.667 62.9718ZM90.7839 55.5467L90.3075 54.0076L90.2964 54.0111L90.7839 55.5467ZM84.0415 56.8726L83.8901 58.4766L83.9847 58.4855L84.0796 58.4833L84.0415 56.8726ZM72.6691 61.8713L73.9818 62.8053L73.9877 62.797L73.9936 62.7886L72.6691 61.8713ZM72.1798 63.8999L73.7792 63.7063L73.7782 63.6979L73.7771 63.6895L72.1798 63.8999ZM72.8123 69.124L74.4176 68.9877L74.4152 68.959L74.4117 68.9304L72.8123 69.124ZM72.3827 69.3627L71.0348 70.2452L71.0689 70.2974L71.107 70.3467L72.3827 69.3627ZM68.2418 63.0381L69.5898 62.1556L69.583 62.1455L68.2418 63.0381ZM67.4065 62.5077L67.1868 64.1038L67.2036 64.1061L67.2205 64.1081L67.4065 62.5077ZM66.4876 62.8127L65.3822 61.6405L65.3756 61.6469L66.4876 62.8127ZM63.9577 65.2258L62.8457 64.06L62.8006 64.1031L62.7589 64.1495L63.9577 65.2258ZM64.2441 67.334L65.0985 65.9681L65.08 65.9565L65.0611 65.9454L64.2441 67.334ZM65.8551 68.3417L66.7113 66.9769L66.7095 66.9758L65.8551 68.3417ZM65.9983 68.6599L67.1959 69.7377L67.5388 69.3567L67.5985 68.8476L65.9983 68.6599ZM65.8551 68.819V70.4301H66.5727L67.0527 69.8968L65.8551 68.819ZM65.7119 68.819L65.5102 70.4175L65.6107 70.4301H65.7119V68.819ZM61.9291 68.3417L62.1308 66.7432L62.1169 66.7416L61.9291 68.3417ZM60.6641 69.0444L62.0676 69.8357L62.0756 69.8215L62.0833 69.8071L60.6641 69.0444ZM62.4183 79.9699L63.4454 78.7286L63.4045 78.6948L63.3615 78.6637L62.4183 79.9699ZM62.6928 81.5345L64.0803 82.3534L64.0888 82.339L64.097 82.3243L62.6928 81.5345ZM68.0389 93.3085L69.0251 92.0345L68.9918 92.0087L68.9571 91.9846L68.0389 93.3085ZM70.5569 95.2576L71.5561 93.9937L71.5496 93.9886L71.5431 93.9836L70.5569 95.2576ZM70.4256 95.6553L70.623 94.0564L70.61 94.0548L70.5969 94.0534L70.4256 95.6553ZM60.8789 94.6344L60.6435 96.2282L60.6755 96.2329L60.7076 96.2364L60.8789 94.6344ZM59.256 95.8808L60.8318 96.2162L60.8328 96.2116L59.256 95.8808ZM60.0913 97.8298L59.3299 99.2496L59.3391 99.2546L59.3483 99.2594L60.0913 97.8298ZM65.6523 100.72L66.4587 99.3255L66.4274 99.3074L66.3953 99.2908L65.6523 100.72ZM66.0103 101.847L67.4894 102.486L67.4998 102.462L67.5094 102.438L66.0103 101.847ZM65.7835 102.205L66.895 103.372L66.9434 103.325L66.9878 103.276L65.7835 102.205ZM62.7644 105.083L61.6529 103.916L61.5957 103.971L61.5442 104.031L62.7644 105.083ZM62.5615 105.401L61.0955 104.733L60.9973 104.948L60.9652 105.183L62.5615 105.401ZM62.5615 105.799H64.1726V105.689L64.1578 105.581L62.5615 105.799ZM62.7644 106.342L61.5669 107.42L61.6004 107.457L61.6361 107.492L62.7644 106.342ZM68.1702 111.646L67.0419 112.796L67.0526 112.806L67.0635 112.817L68.1702 111.646ZM67.1917 114.682V116.293H67.207L67.2224 116.293L67.1917 114.682ZM63.7549 111.328L65.3653 111.278L65.3648 111.266L63.7549 111.328ZM62.9195 109.538L63.9671 108.314L63.9539 108.302L63.9404 108.291L62.9195 109.538ZM51.5351 104.459L51.7638 102.865L51.756 102.863L51.5351 104.459ZM50.1986 105.255L51.6553 105.943L51.6618 105.929L51.668 105.916L50.1986 105.255ZM50.485 106.965L49.3612 108.12L49.3637 108.122L50.485 106.965ZM51.6067 108.053L52.8043 106.975L52.7675 106.934L52.728 106.896L51.6067 108.053ZM51.7499 108.212H53.3611V107.593L52.9475 107.134L51.7499 108.212ZM51.7499 108.358L53.3551 108.496L53.3611 108.427V108.358H51.7499ZM51.5351 108.596V110.207H51.6207L51.7058 110.198L51.5351 108.596ZM51.4635 108.596L51.426 110.207L51.4448 110.207H51.4635V108.596ZM41.2128 108.358L41.1509 109.967L41.1631 109.968L41.1753 109.968L41.2128 108.358ZM37.9908 111.248L39.5767 111.532L39.5791 111.519L39.5813 111.505L37.9908 111.248ZM47.1079 115.928V114.317H47.0042L46.9014 114.331L47.1079 115.928ZM47.4659 115.928V117.54H47.5743L47.6817 117.525L47.4659 115.928ZM49.9957 117.878L51.5705 117.537L51.57 117.535L49.9957 117.878ZM48.4444 121.007L48.979 122.526L48.9969 122.52L49.0146 122.513L48.4444 121.007ZM45.3537 122.094L45.8777 123.617L45.8883 123.614L45.3537 122.094ZM44.5899 125.753L45.781 124.668L45.7683 124.654L45.7552 124.641L44.5899 125.753ZM49.5661 131.216L48.3751 132.301L49.1581 133.161L50.2205 132.688L49.5661 131.216ZM49.9241 131.057L51.318 130.249L50.5922 128.997L49.2698 129.585L49.9241 131.057ZM50.8311 132.622L49.4372 133.43L49.5957 133.703L49.8456 133.896L50.8311 132.622ZM57.5137 144.157L59.077 143.767L59.0742 143.756L59.0712 143.745L57.5137 144.157ZM58.4803 147.75L60.0327 147.319L60.0214 147.278L60.008 147.238L58.4803 147.75ZM59.614 148.851L59.9669 147.279L59.9368 147.272L59.9065 147.266L59.614 148.851ZM66.9769 147.922L66.0105 146.633L66.0068 146.636L66.9769 147.922ZM77.4424 140.577L78.3257 141.924L78.3347 141.918L78.3437 141.912L77.4424 140.577ZM79.5427 135.353L77.9345 135.451L77.9373 135.497L77.9428 135.543L79.5427 135.353ZM78.7073 133.868L77.8315 135.22L77.8412 135.226L78.7073 133.868ZM70.0676 132.542L70.4227 134.113L70.4681 134.103L70.5129 134.09L70.0676 132.542ZM68.3134 131.839L69.6356 130.919L69.6306 130.911L69.6255 130.904L68.3134 131.839ZM65.0914 127.318L66.4035 126.383L66.3405 126.295L66.2662 126.215L65.0914 127.318ZM65.1511 126.151L64.2541 124.813L64.1791 124.863L64.1102 124.921L65.1511 126.151ZM65.5091 125.992L65.8945 127.556L65.9985 127.531L66.0981 127.492L65.5091 125.992ZM65.9864 125.992L66.693 124.544L66.6353 124.516L66.5755 124.492L65.9864 125.992ZM70.7001 128.644L69.859 130.018L69.8699 130.025L69.8808 130.031L70.7001 128.644ZM84.8769 131.693L85.2533 133.26L85.2808 133.253L85.3081 133.246L84.8769 131.693ZM85.7241 131.76L86.4219 130.308L86.2682 130.234L86.1024 130.194L85.7241 131.76ZM86.285 132.555L84.7066 132.878L84.7352 133.018L84.7878 133.15L86.285 132.555ZM92.8125 137.766L93.0616 136.174L92.9949 136.164L92.9275 136.159L92.8125 137.766ZM93.8627 138.867L95.4514 138.599L95.4461 138.567L95.4395 138.536L93.8627 138.867ZM98.994 154.313L97.5576 155.043L97.5592 155.046L98.994 154.313ZM100.545 155.082L100.926 156.648L100.945 156.643L100.965 156.638L100.545 155.082ZM102.646 151.966L104.236 152.223L104.35 151.519L103.905 150.961L102.646 151.966ZM101.524 150.561L100.429 149.379L99.3309 150.396L100.265 151.566L101.524 150.561ZM102.502 150.017L102.912 151.576L104.236 151.227L104.106 149.864L102.502 150.017ZM102.085 145.642L103.689 145.489L103.688 145.482L103.687 145.474L102.085 145.642ZM102.992 144.873L102.444 146.388L102.52 146.416L102.599 146.436L102.992 144.873ZM105.104 145.403L105.539 143.852L105.518 143.846L105.496 143.841L105.104 145.403ZM106.715 144.78L108.041 145.695L108.055 145.675L108.068 145.654L106.715 144.78ZM112.049 136.52L110.736 135.585L110.715 135.615L110.696 135.646L112.049 136.52ZM113.803 135.671L113.983 134.07L113.965 134.068L113.947 134.066L113.803 135.671ZM115.355 136.917L113.859 137.518L113.869 137.542L113.88 137.567L115.355 136.917ZM122.515 145.496L121.656 146.859L121.662 146.863L122.515 145.496ZM123.422 147.047L121.817 147.197L121.82 147.225L121.824 147.253L123.422 147.047ZM129.388 161.486L130.745 160.617L130.709 160.561L130.668 160.508L129.388 161.486ZM129.889 162.269L131.415 161.75L131.352 161.565L131.246 161.4L129.889 162.269ZM129.46 162.667L128.295 163.78L128.321 163.807L128.349 163.833L129.46 162.667ZM121.739 158.596L121.569 156.994L121.541 156.997L121.513 157.001L121.739 158.596ZM121.453 159.524L122.75 158.569L122.735 158.548L122.718 158.527L121.453 159.524ZM129.889 170.993L128.592 171.948L128.757 172.173L128.989 172.329L129.889 170.993ZM131.286 171.935L132.799 172.489L133.232 171.304L132.186 170.599L131.286 171.935ZM130.999 172.717L129.486 172.163L129.195 172.96L129.687 173.651L130.999 172.717ZM134.52 175.607L133.88 177.086L133.917 177.102L133.955 177.116L134.52 175.607ZM135.224 175.448L134.216 174.191L134.151 174.243L134.092 174.302L135.224 175.448ZM135.51 174.666L133.906 174.821L133.911 174.869L133.918 174.917L135.51 174.666ZM131.5 165.226L129.94 165.627L130.036 166.001L130.292 166.291L131.5 165.226ZM131.453 165.04L129.842 165.042L129.842 165.245L129.892 165.441L131.453 165.04ZM131.5 164.841L130.2 163.89L130.127 163.99L130.07 164.1L131.5 164.841ZM131.978 164.761L131.015 166.053L131.033 166.067L131.052 166.08L131.978 164.761ZM132.204 164.921L131.279 166.239L131.696 166.532H132.204V164.921ZM132.336 164.921L133.013 163.459L132.691 163.309H132.336V164.921ZM132.479 164.987L133.286 163.593L133.223 163.556L133.156 163.525L132.479 164.987ZM134.508 163.82L132.924 163.522L132.915 163.573L132.908 163.624L134.508 163.82ZM134.376 162.892L132.91 163.559L132.925 163.594L132.943 163.627L134.376 162.892ZM127.634 148.068L126.158 148.713L126.162 148.724L126.167 148.735L127.634 148.068ZM127.849 146.822L126.756 145.638L126.728 145.664L126.701 145.691L127.849 146.822ZM128.971 146.742L128.042 148.059L128.064 148.074L128.086 148.089L128.971 146.742ZM133.04 152.205L134.576 151.721L134.566 151.689L134.555 151.658L133.04 152.205ZM137.67 154.459L138.379 155.906L138.388 155.901L137.67 154.459ZM141.25 150.561L139.665 150.269L139.658 150.311L139.652 150.354L141.25 150.561ZM139.436 146.186L138.14 147.143L138.151 147.157L138.162 147.172L139.436 146.186ZM135.08 141.121L133.525 141.54L133.637 141.956L133.941 142.26L135.08 141.121ZM135.295 140.192L134.436 138.83L134.253 138.945L134.107 139.104L135.295 140.192ZM135.713 140.033L135.97 141.624L135.986 141.621L136.002 141.618L135.713 140.033ZM139.567 139.331V137.72H139.422L139.278 137.746L139.567 139.331ZM139.925 139.012L141.395 139.674L141.536 139.358V139.012H139.925ZM139.925 138.482L138.315 138.523L138.324 138.876L138.479 139.192L139.925 138.482ZM140.2 137.925L140.696 139.458L140.784 139.43L140.867 139.392L140.2 137.925ZM150.307 133.324L150.975 134.791L150.984 134.786L150.307 133.324ZM151.298 131.601L149.687 131.625L149.687 131.642L149.688 131.658L151.298 131.601ZM148.422 120.065L146.992 120.807L146.992 120.808L148.422 120.065ZM147.014 119.203V120.815H147.051L147.087 120.813L147.014 119.203ZM145.116 119.203L145.002 120.81L145.059 120.815H145.116V119.203ZM144.627 117.798L145.814 118.888L145.82 118.881L144.627 117.798ZM146.035 116.247L147.228 117.329L147.273 117.28L147.314 117.226L146.035 116.247ZM145.677 114.921L145.209 116.462L145.218 116.465L145.228 116.468L145.677 114.921ZM139.997 113.197L140.465 111.655L140.42 111.642L140.375 111.631L139.997 113.197ZM139.436 112.494L141.041 112.358L141.041 112.349L139.436 112.494ZM139.782 111.646L138.832 110.344L138.806 110.363L138.781 110.383L139.782 111.646ZM150.307 117.347L151.61 116.399L151.604 116.391L151.598 116.383L150.307 117.347ZM151.715 119.283L150.413 120.231L150.421 120.242L150.429 120.253L151.715 119.283ZM153.326 119.747L152.827 118.215L152.759 118.237L152.695 118.265L153.326 119.747ZM155.856 116.472L157.447 116.729L157.455 116.681L157.459 116.632L155.856 116.472ZM155.152 114.921L156.026 113.567L155.987 113.542L155.948 113.52L155.152 114.921ZM152.288 109.219L153.89 109.388L153.891 109.381L153.892 109.374L152.288 109.219ZM153.398 107.973L153.258 106.368L153.224 106.371L153.189 106.376L153.398 107.973ZM158.386 102.908L156.81 102.574L156.809 102.581L156.807 102.588L158.386 102.908ZM159.508 101.887V100.276H159.478L159.448 100.277L159.508 101.887ZM160.212 102.126L159.014 103.204L159.123 103.324L159.253 103.42L160.212 102.126ZM160.63 102.828L159.052 103.153L159.062 103.202L159.075 103.251L160.63 102.828ZM163.446 113.197L165.007 112.799L165.004 112.787L165.001 112.775L163.446 113.197ZM162.73 114.443L162.552 112.842L162.504 112.848L162.456 112.856L162.73 114.443ZM156.071 121.007L154.5 120.651L154.499 120.655L156.071 121.007ZM156.978 123.579L156.03 124.881L156.074 124.914L156.121 124.943L156.978 123.579ZM159.436 123.181L158.253 122.088L158.236 122.106L158.22 122.125L159.436 123.181ZM166.453 118.421L167.016 119.931L167.039 119.922L167.061 119.913L166.453 118.421ZM168.076 116.472L166.526 116.034L166.52 116.056L166.514 116.077L168.076 116.472ZM167.718 113.741L169.095 112.905L169.091 112.897L169.086 112.889L167.718 113.741ZM164.854 109.14L166.222 108.288L166.215 108.277L164.854 109.14ZM164.926 107.973L163.793 106.827L163.739 106.88L163.691 106.938L164.926 107.973ZM165.272 107.734L164.844 106.181L164.725 106.214L164.612 106.265L165.272 107.734ZM168.351 106.886L168.779 108.439L168.82 108.428L168.86 108.414L168.351 106.886ZM168.637 105.865L169.834 104.787L169.82 104.771L169.805 104.755L168.637 105.865ZM155.642 93.0035L154.512 94.1523L154.528 94.1678L154.544 94.1829L155.642 93.0035ZM147.921 89.7948L147.618 91.3772L147.64 91.3815L147.663 91.3852L147.921 89.7948ZM147.443 88.5485L146.036 87.7645L146.029 87.7762L146.023 87.788L147.443 88.5485ZM156 87.0635L156.486 85.5275L156.456 85.5181L156.426 85.5099L156 87.0635ZM157.969 87.6867L157.482 89.2227L157.547 89.2432L157.613 89.2581L157.969 87.6867ZM159.019 86.9176L160.619 87.1015L160.622 87.0747L160.624 87.0477L159.019 86.9176ZM161.966 80.3544L160.847 79.1958L160.841 79.2011L160.836 79.2065L161.966 80.3544ZM163.088 80.8317L164.66 80.4811L164.659 80.4726L164.657 80.4641L163.088 80.8317ZM167.79 90.9749L169.145 90.1037L169.14 90.0959L167.79 90.9749ZM169.341 93.388L170.731 92.5743L170.714 92.5452L170.696 92.5168L169.341 93.388ZM173.124 94.3162L174.129 95.575L174.141 95.566L174.152 95.5568L173.124 94.3162ZM173.9 92.0621L175.485 91.7735L175.483 91.7641L175.481 91.7547L173.9 92.0621ZM173.625 91.2799L175.05 90.5274L175.021 90.4728L174.988 90.4205L173.625 91.2799ZM168.709 83.4835L167.327 84.3124L167.336 84.3278L167.346 84.3429L168.709 83.4835ZM168.565 83.2449L167.046 83.7822L167.1 83.9349L167.184 84.0738L168.565 83.2449ZM169.126 81.919L169.679 83.4323L169.686 83.4298L169.126 81.919ZM177.969 78.644L178.528 80.1548L178.639 80.1137L178.743 80.0568L177.969 78.644ZM178.398 78.2462L179.737 79.1425L179.747 79.1281L179.756 79.1135L178.398 78.2462ZM178.554 77.4109L176.963 77.6702L176.967 77.6925L176.971 77.7148L178.554 77.4109ZM178.112 76.6949L179.017 75.3621L179.004 75.3532L178.991 75.3446L178.112 76.6949ZM177.277 76.1513L178.155 74.801L178.103 74.7667L178.048 74.7367L177.277 76.1513ZM177.48 75.369L177.702 73.7733L177.687 73.7712L177.671 73.7694L177.48 75.369ZM183.088 76.1513L182.866 77.747L182.976 77.7624H183.088V76.1513ZM184.007 75.2895L182.398 75.2082L182.396 75.2488V75.2895H184.007ZM186.036 71.7758L186.851 73.1652L186.875 73.1514L186.898 73.1369L186.036 71.7758ZM186.394 71.0068L187.999 70.8647L187.996 70.8383L187.993 70.8121L186.394 71.0068ZM186.274 70.5825L187.739 69.9108L187.662 69.7442L187.55 69.599L186.274 70.5825ZM185.976 70.3041L186.862 68.9582L186.772 68.8992L186.675 68.8526L185.976 70.3041ZM176.286 68.1163V69.7274H176.294L176.301 69.7274L176.286 68.1163ZM173.542 68.1163L171.948 67.8774L171.671 69.7274H173.542V68.1163ZM103.839 158.291L102.404 157.559L101.868 158.61L102.708 159.439L103.839 158.291ZM105.45 159.378L105.805 157.807L105.757 157.796L105.709 157.788L105.45 159.378ZM106.5 158.45L104.899 158.269L104.889 158.359V158.45H106.5ZM104.889 152.828L106.132 151.804L104.762 150.141L103.555 151.925L104.889 152.828ZM103.839 154.38L102.744 155.562L104.121 156.837L105.173 155.283L103.839 154.38ZM103.767 154.313L104.862 153.131L104.399 152.702H103.767V154.313ZM103.696 154.313H102.085V155.924H103.696V154.313ZM103.696 154.234H105.307V152.623H103.696V154.234ZM103.553 154.234H101.941V155.845H103.553V154.234ZM103.553 154.154H105.164V153.37L104.547 152.887L103.553 154.154ZM103.35 153.995L104.344 152.727L102.716 151.451L101.877 153.342L103.35 153.995ZM102.634 156.886L101.027 156.771L100.963 157.671L101.696 158.196L102.634 156.886ZM104.042 157.893L105.477 158.625L106.107 157.39L104.979 156.583L104.042 157.893ZM103.481 153.611L102.283 152.533L104.11 155.094L103.481 153.611ZM103.767 153.292L104.965 152.215L103.767 150.884L102.57 152.215L103.767 153.292ZM103.839 153.372L104.959 154.53L106.076 153.449L105.036 152.294L103.839 153.372ZM153.195 146.358L154.656 147.038L154.675 146.996L154.692 146.954L153.195 146.358ZM151.93 149.076L153.388 149.763L153.391 149.756L151.93 149.076ZM152.205 150.959L153.456 149.944L153.421 149.901L153.383 149.86L152.205 150.959ZM158.529 158.755L157.278 159.77L157.283 159.776L157.288 159.782L158.529 158.755ZM159.866 159.299L159.666 157.7L159.654 157.702L159.642 157.703L159.866 159.299ZM161.059 157.973L162.661 158.149L162.677 158.003L162.666 157.857L161.059 157.973ZM160.701 156.965L159.319 157.793L159.353 157.85L159.391 157.903L160.701 156.965ZM155.928 143.547L154.334 143.781L154.335 143.787L155.928 143.547ZM153.124 139.715L152.555 141.223L152.565 141.226L152.576 141.23L153.124 139.715ZM151.93 140.113L150.61 139.19L150.604 139.198L150.598 139.207L151.93 140.113ZM151.787 141.439L153.295 140.871L153.292 140.863L153.288 140.854L151.787 141.439ZM153.195 145.178L151.687 145.746L151.693 145.76L151.698 145.774L153.195 145.178ZM145.677 155.944L147.286 156.039L147.286 156.035L145.677 155.944ZM140.761 163.436L139.945 162.046L139.92 162.061L139.895 162.077L140.761 163.436ZM137.61 165.69L138.681 166.894L138.704 166.873L138.726 166.852L137.61 165.69ZM137.324 167.254H138.935V166.884L138.773 166.551L137.324 167.254ZM137.61 167.652L136.413 168.73L136.476 168.8L136.547 168.862L137.61 167.652ZM147.992 171.55L148.11 169.943L148.051 169.939H147.992V171.55ZM149.329 170.755L150.76 171.494L150.772 171.472L150.783 171.449L149.329 170.755ZM148.911 153.995L149.774 152.634L149.767 152.63L148.911 153.995ZM146.799 153.995L147.629 155.376L147.642 155.368L147.655 155.36L146.799 153.995ZM136.489 174.043L136.689 172.444L136.589 172.432H136.489V174.043ZM136.345 174.043V172.432H135.647L135.17 172.941L136.345 174.043ZM136.274 174.202L134.672 174.026L134.663 174.114V174.202H136.274ZM136.274 174.281L137.871 174.494L137.885 174.388V174.281H136.274ZM137.049 175.833L135.934 176.996L135.993 177.052L136.057 177.102L137.049 175.833ZM139.711 177.397L139.089 178.884L139.122 178.897L139.155 178.91L139.711 177.397ZM148.553 179.585L148.806 177.994L148.785 177.991L148.764 177.988L148.553 179.585ZM149.054 179.665L148.802 181.256L148.841 181.262L148.881 181.266L149.054 179.665ZM158.1 179.665L158.274 181.266L158.3 181.264L158.326 181.26L158.1 179.665ZM160.916 178.869L161.555 180.348L161.623 180.319L161.688 180.283L160.916 178.869ZM162.038 177.318H163.649V176.718L163.257 176.264L162.038 177.318ZM108.686 216.605L110.44 216.445L110.149 213.236L108.395 213.395L108.686 216.605ZM110.235 216.451C148.708 217.877 185.823 199.483 205.374 162.235L202.521 160.738C183.6 196.786 147.706 214.616 110.355 213.231L110.235 216.451ZM205.375 162.234C225.728 123.357 217.418 77.3841 188.635 46.493L186.277 48.6896C214.201 78.6575 222.192 123.164 202.52 160.739L205.375 162.234ZM188.622 46.4792L186.092 43.8274L183.76 46.0516L186.29 48.7034L188.622 46.4792ZM183.728 43.8618L183.585 44.0209L185.98 46.1763L186.123 46.0172L183.728 43.8618ZM185.805 43.8534L171.27 31.9203L169.226 34.4107L183.76 46.3438L185.805 43.8534ZM171.122 31.8121C149.234 17.6743 123.577 12.4266 98.5613 16.9956L99.1403 20.1654C123.327 15.7479 148.154 20.813 169.374 34.5188L171.122 31.8121ZM98.5652 16.9949C33.8824 28.6453 -8.59178 101.409 30.2 168.459L32.9891 166.845C-4.59245 101.888 36.4667 31.4539 99.1364 20.1661L98.5652 16.9949ZM30.0938 167.066L29.8194 167.769L32.8208 168.941L33.0953 168.238L30.0938 167.066ZM29.9135 167.569L29.6987 167.953L32.5118 169.525L32.7266 169.14L29.9135 167.569ZM30.4015 170.188L32.0125 170.971L33.42 168.072L31.809 167.29L30.4015 170.188ZM31.3738 170.412C43.0834 188.061 59.2288 201.515 77.8144 209.068L79.0275 206.082C61.0786 198.789 45.4322 185.773 34.0588 168.631L31.3738 170.412ZM77.7118 209.022L79.3347 209.817L80.753 206.924L79.1301 206.128L77.7118 209.022ZM81.655 208.37V208.211H78.4328V208.37H81.655ZM79.4579 209.712C88.7967 213.359 98.5303 215.624 108.407 216.446L108.674 213.235C99.1116 212.439 89.6825 210.245 80.6299 206.711L79.4579 209.712ZM106.93 214.841V215H110.152V214.841H106.93ZM173.644 66.4282L172.236 66.3487L172.054 69.5657L173.463 69.6453L173.644 66.4282ZM172.257 66.35C172.08 66.3377 171.885 66.2604 171.709 66.0914L169.479 68.4175C170.171 69.0809 171.066 69.4973 172.034 69.5644L172.257 66.35ZM171.7 66.083C169.642 64.1399 167.187 62.7503 164.528 62.0427L163.699 65.1565C165.818 65.7204 167.803 66.8351 169.488 68.426L171.7 66.083ZM164.528 62.0427C161.869 61.3348 159.094 61.333 156.434 62.0376L157.259 65.1524C159.377 64.5914 161.582 64.5928 163.699 65.1565L164.528 62.0427ZM155.833 62.3425L150.917 66.3202L152.944 68.8252L157.86 64.8475L155.833 62.3425ZM150.977 66.2737C150.838 66.3761 150.93 66.2613 151.181 66.2787C151.43 66.2959 151.519 66.4221 151.418 66.3265L149.196 68.6598C149.597 69.0415 150.181 69.4395 150.959 69.4932C151.738 69.547 152.39 69.2333 152.883 68.8716L150.977 66.2737ZM151.465 66.3729C150.083 64.9441 148.49 64.0159 146.689 63.838C144.89 63.6604 143.138 64.2558 141.481 65.3764L143.286 68.0453C144.518 67.2124 145.529 66.9614 146.372 67.0446C147.212 67.1275 148.137 67.5671 149.149 68.6134L151.465 66.3729ZM141.441 65.4041C141.373 65.4532 141.309 65.4751 141.254 65.4819L141.654 68.6793C142.263 68.6032 142.835 68.372 143.326 68.0176L141.441 65.4041ZM141.254 65.4819C141.201 65.4887 141.143 65.4823 141.082 65.4576L139.866 68.4414C140.432 68.672 141.045 68.7554 141.654 68.6793L141.254 65.4819ZM141.174 65.4984L138.728 64.3184L137.328 67.2206L139.774 68.4006L141.174 65.4984ZM138.776 64.3424C136.843 63.3297 134.813 62.265 132.611 62.1231C130.264 61.9719 127.986 62.8568 125.462 65.0247L127.562 67.4689C129.669 65.6591 131.15 65.2579 132.404 65.3387C133.802 65.4288 135.215 66.1143 137.28 67.1965L138.776 64.3424ZM125.461 65.0256C124.977 65.4427 124.407 65.6491 123.845 65.6491V68.8713C125.214 68.8713 126.521 68.3647 127.563 67.468L125.461 65.0256ZM123.845 65.6491C123.283 65.6491 122.714 65.4427 122.229 65.0256L120.127 67.468C121.169 68.3647 122.476 68.8713 123.845 68.8713V65.6491ZM122.216 65.0145L120.736 63.7682L118.66 66.2327L120.14 67.479L122.216 65.0145ZM120.771 63.7981C119.077 62.2874 117 60.3694 114.728 59.2654C112.332 58.1009 109.562 57.7673 106.699 59.5825L108.425 62.3038C110.121 61.2286 111.665 61.3591 113.32 62.1635C115.1 63.0285 116.811 64.5843 118.626 66.2028L120.771 63.7981ZM106.762 59.5445L102.264 62.1168L103.863 64.9141L108.362 62.3418L106.762 59.5445ZM102.334 62.0788C102.234 62.1294 102.459 61.9846 102.815 62.1235C103.157 62.2564 103.213 62.493 103.155 62.3538L100.179 63.5898C100.408 64.1401 100.84 64.8121 101.646 65.1261C102.468 65.4462 103.248 65.2285 103.792 64.9521L102.334 62.0788ZM103.133 62.3045C102.04 59.9006 101.041 58.0685 100.068 56.7063C99.0956 55.3446 98.0901 54.3675 96.9539 53.7871C94.6199 52.595 92.294 53.3929 90.3075 54.0077L91.2602 57.0858C93.5579 56.3747 94.5255 56.1649 95.4881 56.6567C96.0002 56.9182 96.6438 57.4559 97.4455 58.5787C98.2467 59.7009 99.1466 61.3228 100.201 63.6391L103.133 62.3045ZM90.2964 54.0111C88.5436 54.5676 86.555 55.2017 84.0035 55.262L84.0796 58.4833C87.1367 58.411 89.5158 57.6396 91.2713 57.0823L90.2964 54.0111ZM84.1929 55.2687C78.747 54.7546 74.2937 56.6958 71.3446 60.954L73.9936 62.7886C76.2235 59.5687 79.503 58.0625 83.8901 58.4766L84.1929 55.2687ZM71.3564 60.9372C71.0317 61.3935 70.8006 61.9095 70.6698 62.4518L73.8022 63.2072C73.8397 63.0518 73.9033 62.9157 73.9818 62.8053L71.3564 60.9372ZM70.6698 62.4518C70.539 62.994 70.5097 63.5576 70.5825 64.1103L73.7771 63.6895C73.7558 63.5276 73.7647 63.3627 73.8022 63.2072L70.6698 62.4518ZM70.5804 64.0936L71.2128 69.3176L74.4117 68.9304L73.7792 63.7063L70.5804 64.0936ZM71.2069 69.2603C71.2216 69.4325 71.2205 69.4826 71.2209 69.4723C71.2209 69.4712 71.2231 69.3728 71.261 69.2331C71.2867 69.1385 71.4111 68.6977 71.8773 68.3819C72.4558 67.9899 73.0463 68.1108 73.3232 68.222C73.5615 68.3176 73.7007 68.4467 73.7179 68.4622C73.7702 68.5093 73.7618 68.5127 73.6583 68.3786L71.107 70.3467C71.2183 70.491 71.3785 70.6917 71.561 70.8561C71.6432 70.9302 71.8379 71.0979 72.123 71.2123C72.4468 71.3423 73.0755 71.4622 73.6846 71.0495C74.1813 70.713 74.3287 70.2318 74.3707 70.0773C74.4249 69.8776 74.4366 69.6998 74.4406 69.5998C74.4488 69.3919 74.4328 69.1668 74.4176 68.9877L71.2069 69.2603ZM73.7306 68.4801L69.5897 62.1556L66.8939 63.9206L71.0348 70.2452L73.7306 68.4801ZM69.583 62.1455C69.3653 61.8183 69.0802 61.5324 68.7379 61.3151L67.0108 64.0354C66.9562 64.0007 66.9214 63.9619 66.9006 63.9307L69.583 62.1455ZM68.7379 61.3151C68.395 61.0974 68.0049 60.9553 67.5925 60.9074L67.2205 64.1081C67.1375 64.0984 67.0662 64.0705 67.0108 64.0354L68.7379 61.3151ZM67.6261 60.9117C67.2161 60.8552 66.8011 60.8945 66.4108 61.024L67.4257 64.0822C67.3517 64.1068 67.2693 64.1152 67.1868 64.1038L67.6261 60.9117ZM66.4108 61.024C66.0211 61.1534 65.6723 61.367 65.3823 61.6406L67.5929 63.9848C67.5546 64.021 67.499 64.0579 67.4257 64.0822L66.4108 61.024ZM65.3756 61.6469L62.8457 64.06L65.0698 66.3916L67.5996 63.9785L65.3756 61.6469ZM62.7589 64.1495C62.4604 64.482 62.2469 64.8752 62.1237 65.2922L65.2139 66.2052C65.2071 66.2282 65.1915 66.2633 65.1566 66.3022L62.7589 64.1495ZM62.1237 65.2922C62.0005 65.7091 61.9679 66.1481 62.0262 66.577L65.2191 66.1433C65.2216 66.1622 65.2206 66.1823 65.2139 66.2052L62.1237 65.2922ZM62.0262 66.577C62.0844 67.006 62.2335 67.4238 62.471 67.796L65.1872 66.0625C65.2089 66.0963 65.2165 66.1244 65.2191 66.1433L62.0262 66.577ZM62.471 67.796C62.7088 68.1686 63.0325 68.4905 63.4272 68.7226L65.0611 65.9454C65.1259 65.9835 65.1653 66.0281 65.1872 66.0625L62.471 67.796ZM63.3898 68.6999L65.0008 69.7076L66.7095 66.9758L65.0985 65.9681L63.3898 68.6999ZM64.999 69.7065C64.7629 69.5584 64.598 69.3526 64.5013 69.1377L67.4397 67.8154C67.292 67.4871 67.0468 67.1874 66.7113 66.9769L64.999 69.7065ZM64.5013 69.1377C64.4049 68.9235 64.3722 68.6936 64.3982 68.4723L67.5985 68.8476C67.6392 68.5006 67.5871 68.1429 67.4397 67.8154L64.5013 69.1377ZM64.8008 67.5821L64.6576 67.7413L67.0527 69.8968L67.1959 69.7377L64.8008 67.5821ZM65.8551 67.2079H65.7119V70.4301H65.8551V67.2079ZM65.9136 67.2206L62.1308 66.7433L61.7274 69.9402L65.5102 70.4175L65.9136 67.2206ZM62.1169 66.7416C61.5244 66.6721 60.9343 66.7945 60.4217 67.0793L61.9866 69.896C61.9223 69.9317 61.8353 69.9529 61.7413 69.9418L62.1169 66.7416ZM60.4217 67.0793C59.9118 67.3625 59.5105 67.7876 59.245 68.2818L62.0833 69.8071C62.0747 69.8231 62.0482 69.8618 61.9866 69.896L60.4217 67.0793ZM59.2607 68.2532C57.8594 70.7386 57.1867 73.1641 57.5563 75.4684C57.9325 77.8131 59.3381 79.733 61.4752 81.2761L63.3615 78.6637C61.7157 77.4754 60.9435 76.2397 60.7379 74.958C60.5258 73.636 60.8674 71.9645 62.0676 69.8357L59.2607 68.2532ZM61.3913 81.2112C61.5069 81.3069 61.3576 81.2257 61.312 80.9585C61.2684 80.7027 61.3749 80.5911 61.2886 80.7446L64.097 82.3243C64.3687 81.8414 64.6185 81.1795 64.4883 80.4166C64.3562 79.6422 63.8906 79.097 63.4454 78.7286L61.3913 81.2112ZM61.3054 80.7155C60.3419 82.3478 59.8973 83.9238 59.9443 85.4451C59.9914 86.9671 60.5262 88.293 61.2884 89.4315C62.7557 91.6232 65.2168 93.3118 67.1207 94.6323L68.9571 91.9846C66.9231 90.5738 65.0285 89.2261 63.966 87.6389C63.4632 86.888 63.1895 86.1389 63.165 85.3455C63.1405 84.5515 63.3611 83.5718 64.0803 82.3534L61.3054 80.7155ZM67.0527 94.5825L69.5707 96.5316L71.5431 93.9836L69.0251 92.0345L67.0527 94.5825ZM69.5577 96.5214C69.6281 96.5771 69.5926 96.5589 69.5263 96.4765C69.4937 96.4361 69.4015 96.3168 69.3281 96.1284C69.2538 95.9377 69.1538 95.5536 69.3044 95.0974C69.4628 94.6173 69.8015 94.3471 70.0408 94.22C70.2579 94.1047 70.4423 94.0762 70.5084 94.0676C70.643 94.0501 70.706 94.0666 70.623 94.0564L70.2282 97.2543C70.3958 97.275 70.6522 97.2981 70.923 97.263C71.0573 97.2456 71.2955 97.2021 71.5521 97.0658C71.8309 96.9178 72.1949 96.6205 72.3643 96.1073C72.5258 95.6178 72.4224 95.1945 72.3305 94.9586C72.2394 94.7249 72.1153 94.5542 72.0365 94.4563C71.8777 94.259 71.6925 94.1016 71.5561 93.9937L69.5577 96.5214ZM70.5969 94.0534L61.0503 93.0324L60.7076 96.2364L70.2543 97.2573L70.5969 94.0534ZM61.1144 93.0406C60.3045 92.9209 59.502 93.146 58.8696 93.6317L60.8322 96.1872C60.8179 96.1982 60.7933 96.2125 60.7583 96.2219C60.7229 96.2313 60.6831 96.2341 60.6435 96.2282L61.1144 93.0406ZM58.8696 93.6317C58.2432 94.1127 57.8354 94.8055 57.6792 95.5499L60.8328 96.2116C60.837 96.1916 60.8431 96.1795 60.8459 96.175C60.8487 96.1705 60.846 96.1766 60.8322 96.1872L58.8696 93.6317ZM57.6802 95.5453C57.5306 96.2482 57.5994 96.9888 57.8842 97.6532L60.8459 96.3839C60.8269 96.3395 60.8188 96.2773 60.8318 96.2162L57.6802 95.5453ZM57.8842 97.6532C58.1695 98.3189 58.6672 98.8942 59.3299 99.2496L60.8528 96.41C60.8658 96.417 60.8692 96.4219 60.8662 96.4185C60.8631 96.415 60.8546 96.4043 60.8459 96.3839L57.8842 97.6532ZM59.3483 99.2594L64.9092 102.15L66.3953 99.2908L60.8344 96.4003L59.3483 99.2594ZM64.8458 102.115C64.6488 102.001 64.5413 101.836 64.4959 101.693L67.5669 100.718C67.3886 100.156 67.0101 99.6443 66.4587 99.3255L64.8458 102.115ZM64.4959 101.693C64.4509 101.551 64.4549 101.4 64.5112 101.257L67.5094 102.438C67.7258 101.888 67.7449 101.278 67.5669 100.718L64.4959 101.693ZM64.5312 101.209C64.5399 101.189 64.5546 101.163 64.5792 101.135L66.9878 103.276C67.1983 103.039 67.3663 102.771 67.4894 102.486L64.5312 101.209ZM64.6721 101.039L61.6529 103.916L63.8759 106.249L66.895 103.372L64.6721 101.039ZM61.5442 104.031C61.3603 104.244 61.2101 104.481 61.0955 104.733L64.0276 106.069C64.0192 106.087 64.0058 106.11 63.9847 106.135L61.5442 104.031ZM60.9652 105.183C60.9275 105.459 60.9275 105.74 60.9652 106.016L64.1578 105.581C64.1596 105.593 64.1596 105.606 64.1578 105.619L60.9652 105.183ZM60.9504 105.799V106.024H64.1726V105.799H60.9504ZM60.9504 106.024C60.9504 106.605 61.2097 107.02 61.4025 107.249C61.488 107.351 61.5703 107.428 61.5963 107.453C61.6475 107.501 61.6048 107.462 61.5669 107.42L63.9619 105.264C63.9178 105.215 63.8783 105.176 63.8552 105.154C63.8356 105.135 63.8094 105.111 63.8087 105.11C63.79 105.092 63.826 105.124 63.8698 105.177C63.9178 105.234 63.9966 105.339 64.0622 105.491C64.1311 105.65 64.1726 105.832 64.1726 106.024H60.9504ZM61.6361 107.492L67.0419 112.796L69.2985 110.496L63.8927 105.192L61.6361 107.492ZM67.0635 112.817C67.0634 112.816 67.0687 112.822 67.076 112.834C67.0833 112.847 67.0914 112.866 67.0973 112.89L70.2303 112.137C70.08 111.512 69.7564 110.928 69.2769 110.475L67.0635 112.817ZM67.0973 112.89C67.1098 112.942 67.1071 112.999 67.0921 113.046L70.159 114.034C70.3565 113.421 70.3805 112.762 70.2303 112.137L67.0973 112.89ZM67.0921 113.046C67.0772 113.092 67.0586 113.105 67.0651 113.099L69.0729 115.62C69.5918 115.206 69.9614 114.647 70.159 114.034L67.0921 113.046ZM67.0651 113.099C67.0744 113.092 67.1074 113.072 67.1609 113.071L67.2224 116.293C67.9062 116.28 68.5513 116.035 69.0729 115.62L67.0651 113.099ZM67.1917 113.071C66.2858 113.071 65.9257 112.863 65.7745 112.718C65.6262 112.575 65.3941 112.22 65.3652 111.278L62.1445 111.377C62.1872 112.768 62.5518 114.091 63.5432 115.042C64.5316 115.991 65.8541 116.293 67.1917 116.293V113.071ZM65.3648 111.266C65.3436 110.708 65.2127 110.156 64.9756 109.648L62.0557 111.011C62.1073 111.122 62.1397 111.251 62.1449 111.389L65.3648 111.266ZM64.9756 109.648C64.7385 109.14 64.3977 108.682 63.9671 108.314L61.872 110.762C61.9381 110.818 62.0042 110.901 62.0557 111.011L64.9756 109.648ZM63.9404 108.291C60.3772 105.373 56.1876 103.499 51.7638 102.865L51.3065 106.054C55.1255 106.602 58.7719 108.223 61.8987 110.784L63.9404 108.291ZM51.756 102.863C51.115 102.775 50.4744 102.912 49.929 103.237L51.5771 106.005C51.5105 106.045 51.4164 106.069 51.3143 106.055L51.756 102.863ZM49.929 103.237C49.3871 103.559 48.9773 104.042 48.7292 104.594L51.668 105.916C51.6627 105.928 51.6403 105.968 51.5771 106.005L49.929 103.237ZM48.7419 104.567C48.4668 105.149 48.3808 105.803 48.486 106.431L51.664 105.899C51.665 105.905 51.665 105.91 51.6643 105.915C51.6636 105.921 51.6616 105.93 51.6553 105.943L48.7419 104.567ZM48.486 106.431C48.5912 107.06 48.8879 107.659 49.3612 108.12L51.6088 105.811C51.6548 105.856 51.6626 105.891 51.664 105.899L48.486 106.431ZM49.3637 108.122L50.4854 109.209L52.728 106.896L51.6063 105.808L49.3637 108.122ZM50.4092 109.13L50.5524 109.289L52.9475 107.134L52.8043 106.975L50.4092 109.13ZM50.1388 108.212V108.358H53.3611V108.212H50.1388ZM50.1448 108.219C50.168 107.95 50.2762 107.672 50.4836 107.442L52.8787 109.597C53.1645 109.28 53.3213 108.888 53.3551 108.496L50.1448 108.219ZM50.4836 107.442C50.694 107.208 51.0008 107.033 51.3645 106.994L51.7058 110.198C52.1798 110.148 52.5899 109.918 52.8787 109.597L50.4836 107.442ZM51.5351 106.985H51.4635V110.207H51.5351V106.985ZM51.501 106.985L41.2503 106.747L41.1753 109.968L51.426 110.207L51.501 106.985ZM41.2748 106.748C40.076 106.701 38.9286 107.14 38.0409 107.936L40.1926 110.335C40.4884 110.069 40.8294 109.955 41.1509 109.967L41.2748 106.748ZM38.0409 107.936C37.1578 108.728 36.5898 109.819 36.4003 110.991L39.5813 111.505C39.6607 111.014 39.8922 110.604 40.1926 110.335L38.0409 107.936ZM36.405 110.964C36.0845 112.752 36.3406 114.304 37.2485 115.506C38.1265 116.669 39.4188 117.243 40.626 117.528C42.9874 118.086 45.8296 117.718 47.3143 117.526L46.9014 114.331C45.3074 114.537 43.06 114.792 41.367 114.392C40.547 114.198 40.071 113.897 39.8202 113.565C39.5993 113.272 39.366 112.708 39.5767 111.532L36.405 110.964ZM47.1079 117.54H47.4659V114.317H47.1079V117.54ZM47.6817 117.525C47.802 117.509 47.9423 117.537 48.0814 117.644L50.0479 115.092C49.2542 114.48 48.2566 114.196 47.25 114.332L47.6817 117.525ZM48.0814 117.644C48.2262 117.756 48.3631 117.952 48.4215 118.22L51.57 117.535C51.3616 116.577 50.8359 115.699 50.0479 115.092L48.0814 117.644ZM48.421 118.218C48.4842 118.51 48.4438 118.815 48.322 119.06L51.2089 120.492C51.661 119.58 51.7849 118.53 51.5705 117.537L48.421 118.218ZM48.322 119.06C48.2013 119.304 48.0272 119.442 47.8742 119.5L49.0146 122.513C49.9876 122.145 50.7557 121.406 51.2089 120.492L48.322 119.06ZM47.9098 119.487L44.819 120.574L45.8883 123.614L48.979 122.526L47.9098 119.487ZM44.8297 120.57C44.2115 120.783 43.6753 121.165 43.264 121.656L45.7348 123.724C45.7894 123.659 45.8424 123.63 45.8777 123.617L44.8297 120.57ZM43.264 121.656C42.8536 122.146 42.5779 122.732 42.4488 123.351L45.603 124.009C45.6285 123.887 45.6793 123.791 45.7348 123.724L43.264 121.656ZM42.4488 123.351C42.3197 123.969 42.3385 124.613 42.5044 125.223L45.6136 124.377C45.5817 124.26 45.5776 124.131 45.603 124.009L42.4488 123.351ZM42.5044 125.223C42.6704 125.833 42.982 126.402 43.4246 126.866L45.7552 124.641C45.7001 124.583 45.6456 124.495 45.6136 124.377L42.5044 125.223ZM43.3989 126.838L48.3751 132.301L50.7572 130.131L45.781 124.668L43.3989 126.838ZM50.2205 132.688L50.5785 132.529L49.2698 129.585L48.9118 129.744L50.2205 132.688ZM48.5303 131.865L49.4372 133.43L52.2249 131.814L51.318 130.249L48.5303 131.865ZM49.8456 133.896C51.9828 135.549 53.1945 137.121 54.0221 138.766C54.875 140.46 55.3489 142.275 55.9563 144.569L59.0712 143.745C58.4852 141.531 57.9329 139.368 56.9003 137.317C55.8424 135.215 54.3095 133.274 51.8166 131.347L49.8456 133.896ZM55.9505 144.547C56.211 145.591 56.5085 146.936 56.9527 148.262L60.008 147.238C59.6169 146.071 59.3654 144.923 59.077 143.767L55.9505 144.547ZM56.928 148.181C57.0789 148.725 57.3685 149.232 57.7843 149.635L60.0287 147.323C60.0367 147.331 60.0392 147.336 60.0387 147.335C60.0381 147.334 60.0354 147.329 60.0327 147.319L56.928 148.181ZM57.7843 149.635C58.2016 150.04 58.7315 150.326 59.3216 150.435L59.9065 147.266C59.9719 147.278 60.0119 147.307 60.0287 147.323L57.7843 149.635ZM59.2612 150.423C62.6528 151.184 65.6619 150.932 67.9469 149.209L66.0068 146.636C64.7755 147.565 62.876 147.932 59.9669 147.279L59.2612 150.423ZM67.9433 149.212C71.3654 146.646 74.7744 144.252 78.3257 141.924L76.5591 139.23C72.9504 141.595 69.4859 144.028 66.0105 146.633L67.9433 149.212ZM78.3437 141.912C80.5297 140.437 81.4887 138.08 81.1425 135.163L77.9428 135.543C78.1694 137.452 77.5772 138.542 76.5411 139.242L78.3437 141.912ZM81.1508 135.255C81.118 134.714 80.9652 134.182 80.6967 133.704L77.8883 135.284C77.9113 135.325 77.9304 135.382 77.9345 135.451L81.1508 135.255ZM80.6967 133.704C80.428 133.226 80.0468 132.811 79.5735 132.509L77.8412 135.226C77.8448 135.229 77.8656 135.244 77.8883 135.284L80.6967 133.704ZM79.5832 132.516C76.5918 130.578 73.006 130.021 69.6223 130.994L70.5129 134.09C72.9784 133.381 75.6031 133.777 77.8315 135.22L79.5832 132.516ZM69.7125 130.971C69.6357 130.988 69.6021 130.987 69.6009 130.987C69.6009 130.987 69.6029 130.987 69.6067 130.988C69.6105 130.988 69.6159 130.989 69.6227 130.99C69.6368 130.993 69.6538 130.997 69.672 131.004C69.6903 131.011 69.7057 131.018 69.7173 131.025C69.7287 131.032 69.7333 131.036 69.7314 131.034C69.7268 131.031 69.6926 131.001 69.6356 130.919L66.9912 132.76C67.3695 133.303 67.8732 133.773 68.5479 134.024C69.2178 134.273 69.8711 134.238 70.4227 134.113L69.7125 130.971ZM69.6255 130.904L66.4035 126.383L63.7794 128.253L67.0014 132.774L69.6255 130.904ZM66.2662 126.215C66.3526 126.308 66.4104 126.409 66.4451 126.507L63.4076 127.582C63.5156 127.887 63.6859 128.175 63.9166 128.42L66.2662 126.215ZM66.4451 126.507C66.4798 126.605 66.4934 126.705 66.4885 126.802L63.2705 126.637C63.2542 126.956 63.2998 127.277 63.4076 127.582L66.4451 126.507ZM66.4885 126.802C66.4835 126.899 66.4596 126.999 66.4128 127.097L63.5057 125.707C63.3651 126.001 63.2867 126.318 63.2705 126.637L66.4885 126.802ZM66.4128 127.097C66.3658 127.195 66.2938 127.295 66.1919 127.381L64.1102 124.921C63.8493 125.142 63.6464 125.413 63.5057 125.707L66.4128 127.097ZM66.048 127.489C66.0068 127.517 65.9552 127.541 65.8945 127.556L65.1236 124.428C64.8103 124.505 64.5169 124.637 64.2541 124.813L66.048 127.489ZM66.0981 127.492C65.8739 127.58 65.6215 127.58 65.3973 127.492L66.5755 124.492C66.0424 124.283 65.4531 124.283 64.92 124.492L66.0981 127.492ZM65.2799 127.44C66.9714 128.265 68.4544 129.158 69.859 130.018L71.5411 127.27C70.1295 126.406 68.5337 125.442 66.693 124.544L65.2799 127.44ZM69.8808 130.031C72.0194 131.294 74.1285 132.561 76.5529 133.263C79.0422 133.983 81.7835 134.094 85.2533 133.26L84.5005 130.127C81.5143 130.844 79.345 130.716 77.4489 130.167C75.4878 129.6 73.7364 128.566 71.5193 127.257L69.8808 130.031ZM85.3081 133.246C85.1788 133.282 85.0913 133.269 85.0994 133.27C85.1043 133.27 85.1231 133.273 85.1667 133.283C85.1881 133.288 85.2123 133.293 85.2427 133.301C85.2579 133.304 85.2734 133.308 85.2909 133.312C85.3077 133.317 85.3267 133.321 85.3459 133.326L86.1024 130.194C85.96 130.159 85.2188 129.926 84.4457 130.141L85.3081 133.246ZM85.0264 133.212C84.9276 133.164 84.8343 133.086 84.7683 132.993C84.7085 132.908 84.7016 132.854 84.7066 132.878L87.8634 132.232C87.7073 131.469 87.2694 130.715 86.4219 130.308L85.0264 133.212ZM84.7878 133.15C85.4937 134.926 86.4796 136.427 87.8263 137.52C89.1873 138.625 90.8258 139.239 92.6976 139.373L92.9275 136.159C91.6489 136.068 90.6561 135.667 89.8572 135.019C89.0439 134.358 88.3412 133.367 87.7822 131.96L84.7878 133.15ZM92.5634 139.358C92.5609 139.357 92.5279 139.352 92.4782 139.327C92.4265 139.301 92.3756 139.264 92.3331 139.22C92.2473 139.13 92.2616 139.082 92.2858 139.197L95.4395 138.536C95.3285 138.006 95.1002 137.452 94.6643 136.995C94.2139 136.523 93.6471 136.266 93.0616 136.174L92.5634 139.358ZM92.274 139.134C93.2214 144.753 95.0295 150.066 97.5576 155.043L100.43 153.584C98.042 148.882 96.3417 143.879 95.4514 138.599L92.274 139.134ZM97.5592 155.046C97.8566 155.628 98.3309 156.122 98.9404 156.425L100.372 153.538C100.423 153.563 100.433 153.589 100.429 153.58L97.5592 155.046ZM98.9404 156.425C99.554 156.729 100.253 156.811 100.926 156.648L100.165 153.517C100.24 153.499 100.316 153.51 100.372 153.538L98.9404 156.425ZM100.965 156.638C102.999 156.089 103.912 154.233 104.236 152.223L101.055 151.71C100.806 153.253 100.32 153.475 100.126 153.527L100.965 156.638ZM103.905 150.961L102.783 149.556L100.265 151.566L101.386 152.972L103.905 150.961ZM102.619 151.743C102.717 151.652 102.819 151.6 102.912 151.576L102.093 148.459C101.467 148.624 100.899 148.944 100.429 149.379L102.619 151.743ZM104.106 149.864L103.689 145.489L100.481 145.795L100.899 150.171L104.106 149.864ZM103.687 145.474C103.678 145.383 103.692 145.411 103.67 145.511C103.646 145.621 103.561 145.882 103.294 146.108C103.017 146.343 102.723 146.391 102.565 146.393C102.428 146.394 102.375 146.363 102.444 146.388L103.54 143.358C103.105 143.201 102.074 142.918 101.21 143.651C100.395 144.342 100.436 145.362 100.482 145.81L103.687 145.474ZM102.599 146.436L104.712 146.966L105.496 143.841L103.384 143.31L102.599 146.436ZM104.669 146.955C105.3 147.131 105.966 147.098 106.575 146.862L105.412 143.857C105.448 143.843 105.496 143.84 105.539 143.852L104.669 146.955ZM106.575 146.862C107.181 146.628 107.685 146.212 108.041 145.695L105.388 143.866C105.377 143.883 105.379 143.87 105.412 143.857L106.575 146.862ZM108.068 145.654L113.403 137.394L110.696 135.646L105.361 143.906L108.068 145.654ZM113.362 137.454C113.42 137.372 113.482 137.326 113.532 137.302L112.129 134.401C111.567 134.673 111.092 135.085 110.736 135.585L113.362 137.454ZM113.532 137.302C113.58 137.278 113.623 137.273 113.66 137.276L113.947 134.066C113.318 134.01 112.693 134.128 112.129 134.401L113.532 137.302ZM113.623 137.272C113.642 137.274 113.677 137.283 113.721 137.319L115.739 134.807C115.238 134.404 114.633 134.143 113.983 134.07L113.623 137.272ZM113.721 137.319C113.766 137.355 113.82 137.42 113.859 137.518L116.85 136.317C116.615 135.733 116.238 135.208 115.739 134.807L113.721 137.319ZM113.88 137.567C115.601 141.476 118.124 144.636 121.656 146.859L123.373 144.133C120.461 142.299 118.33 139.678 116.829 136.268L113.88 137.567ZM121.662 146.863C121.726 146.903 121.745 146.93 121.754 146.944C121.763 146.959 121.801 147.025 121.817 147.197L125.026 146.898C124.907 145.627 124.283 144.7 123.367 144.129L121.662 146.863ZM121.824 147.253C122.565 153.007 124.721 158.032 128.108 162.465L130.668 160.508C127.612 156.508 125.686 152.013 125.019 146.841L121.824 147.253ZM128.032 162.356L128.533 163.138L131.246 161.4L130.745 160.617L128.032 162.356ZM128.364 162.787C128.42 162.953 128.423 162.996 128.419 162.96C128.416 162.945 128.401 162.834 128.422 162.671C128.441 162.529 128.518 162.127 128.89 161.783C129.318 161.386 129.823 161.346 130.126 161.387C130.388 161.422 130.557 161.517 130.596 161.539C130.683 161.589 130.685 161.608 130.571 161.5L128.349 163.833C128.514 163.99 128.741 164.192 129.004 164.341C129.13 164.412 129.374 164.537 129.697 164.58C130.062 164.629 130.616 164.576 131.079 164.147C131.487 163.77 131.587 163.314 131.616 163.097C131.648 162.86 131.629 162.653 131.611 162.522C131.574 162.254 131.494 161.983 131.415 161.75L128.364 162.787ZM130.624 161.553C129.561 160.441 128.236 159.234 126.746 158.34C125.262 157.449 123.483 156.791 121.569 156.994L121.909 160.198C122.87 160.096 123.938 160.412 125.088 161.103C126.232 161.79 127.33 162.771 128.295 163.78L130.624 161.553ZM121.513 157.001C121.108 157.058 120.075 157.295 119.706 158.366C119.362 159.363 119.926 160.19 120.187 160.521L122.718 158.527C122.681 158.479 122.723 158.519 122.765 158.64C122.81 158.769 122.874 159.061 122.752 159.416C122.625 159.785 122.374 159.998 122.202 160.097C122.05 160.184 121.946 160.194 121.965 160.191L121.513 157.001ZM120.155 160.479L128.592 171.948L131.187 170.039L122.75 158.569L120.155 160.479ZM128.989 172.329L130.385 173.27L132.186 170.599L130.79 169.657L128.989 172.329ZM129.773 171.381L129.486 172.163L132.512 173.271L132.799 172.489L129.773 171.381ZM129.687 173.651C130.769 175.171 132.212 176.364 133.88 177.086L135.159 174.129C134.06 173.653 133.072 172.851 132.312 171.782L129.687 173.651ZM133.955 177.116C134.366 177.27 134.814 177.302 135.246 177.205L134.536 174.062C134.721 174.02 134.912 174.034 135.084 174.099L133.955 177.116ZM135.246 177.205C135.677 177.107 136.057 176.889 136.355 176.595L134.092 174.302C134.201 174.193 134.352 174.103 134.536 174.062L135.246 177.205ZM136.231 176.705C136.582 176.424 136.835 176.055 136.981 175.657L133.955 174.549C134 174.427 134.083 174.298 134.216 174.191L136.231 176.705ZM136.981 175.657C137.127 175.258 137.167 174.83 137.101 174.415L133.918 174.917C133.9 174.796 133.91 174.671 133.955 174.549L136.981 175.657ZM137.114 174.511C136.74 170.633 135.199 166.984 132.709 164.16L130.292 166.291C132.31 168.58 133.594 171.582 133.906 174.821L137.114 174.511ZM133.061 164.824L133.013 164.639L129.892 165.441L129.94 165.627L133.061 164.824ZM133.064 165.038C133.064 165.22 133.021 165.407 132.931 165.582L130.07 164.1C129.917 164.396 129.841 164.72 129.842 165.042L133.064 165.038ZM132.801 165.792C132.627 166.03 132.346 166.228 131.99 166.288L131.46 163.109C130.927 163.198 130.487 163.498 130.2 163.89L132.801 165.792ZM131.99 166.288C131.63 166.348 131.279 166.25 131.015 166.053L132.941 163.47C132.528 163.162 131.997 163.02 131.46 163.109L131.99 166.288ZM131.052 166.08L131.279 166.239L133.13 163.602L132.903 163.443L131.052 166.08ZM132.204 166.532H132.336V163.309H132.204V166.532ZM131.659 166.383L131.802 166.449L133.156 163.525L133.013 163.459L131.659 166.383ZM131.672 166.381C132.109 166.634 132.606 166.773 133.12 166.774L133.125 163.551C133.19 163.551 133.247 163.57 133.286 163.593L131.672 166.381ZM133.12 166.774C133.634 166.774 134.131 166.637 134.569 166.385L132.963 163.592C133.003 163.569 133.059 163.551 133.125 163.551L133.12 166.774ZM134.569 166.385C135.006 166.134 135.364 165.781 135.626 165.368L132.905 163.642C132.908 163.636 132.924 163.614 132.963 163.592L134.569 166.385ZM135.626 165.368C135.887 164.956 136.048 164.492 136.107 164.016L132.908 163.624C132.907 163.632 132.906 163.638 132.905 163.641C132.903 163.645 132.903 163.645 132.905 163.642L135.626 165.368ZM136.091 164.118C136.215 163.458 136.121 162.763 135.81 162.157L132.943 163.627C132.931 163.603 132.925 163.583 132.923 163.568C132.921 163.553 132.921 163.538 132.924 163.522L136.091 164.118ZM135.843 162.225L129.101 147.401L126.167 148.735L132.91 163.559L135.843 162.225ZM129.11 147.423C129.149 147.511 129.157 147.598 129.143 147.679L125.967 147.132C125.876 147.662 125.94 148.214 126.158 148.713L129.11 147.423ZM129.143 147.679C129.129 147.76 129.088 147.86 128.997 147.953L126.701 145.691C126.306 146.092 126.059 146.602 125.967 147.132L129.143 147.679ZM128.942 148.006C128.842 148.098 128.693 148.174 128.512 148.186L128.284 144.972C127.7 145.014 127.167 145.259 126.756 145.638L128.942 148.006ZM128.512 148.186C128.33 148.199 128.164 148.145 128.042 148.059L129.899 145.426C129.436 145.099 128.869 144.931 128.284 144.972L128.512 148.186ZM128.086 148.089C129.632 149.104 130.768 150.658 131.524 152.752L134.555 151.658C133.617 149.059 132.104 146.873 129.855 145.396L128.086 148.089ZM131.503 152.689C131.977 154.193 132.77 155.541 134.132 156.193C135.533 156.863 137.038 156.564 138.379 155.906L136.96 153.013C136.058 153.455 135.666 153.355 135.522 153.286C135.338 153.198 134.938 152.869 134.576 151.721L131.503 152.689ZM138.388 155.901C140.738 154.731 142.54 153.138 142.848 150.768L139.652 150.354C139.554 151.113 138.969 152.012 136.952 153.017L138.388 155.901ZM142.834 150.853C143.188 148.93 142.112 147.01 140.71 145.199L138.162 147.172C139.552 148.967 139.741 149.859 139.665 150.269L142.834 150.853ZM140.732 145.229C139.35 143.357 137.842 141.603 136.219 139.981L133.941 142.26C135.448 143.766 136.852 145.398 138.14 147.143L140.732 145.229ZM136.636 140.702C136.661 140.796 136.663 140.893 136.641 140.987L133.502 140.26C133.405 140.681 133.412 141.122 133.525 141.54L136.636 140.702ZM136.641 140.987C136.619 141.081 136.571 141.185 136.483 141.281L134.107 139.104C133.802 139.437 133.599 139.839 133.502 140.26L136.641 140.987ZM136.155 141.555C136.105 141.586 136.042 141.612 135.97 141.624L135.456 138.443C135.089 138.502 134.743 138.636 134.436 138.83L136.155 141.555ZM136.002 141.618L139.856 140.916L139.278 137.746L135.424 138.448L136.002 141.618ZM139.567 140.942C140.155 140.942 140.654 140.69 140.998 140.309C141.251 140.027 141.384 139.698 141.395 139.674L138.456 138.351C138.434 138.401 138.439 138.387 138.452 138.364C138.466 138.337 138.514 138.252 138.602 138.153C138.698 138.047 138.84 137.927 139.034 137.838C139.228 137.749 139.416 137.72 139.567 137.72V140.942ZM141.536 139.012C141.536 139.041 141.534 139.055 141.536 139.038C141.537 139.027 141.539 139.017 141.542 138.989C141.545 138.967 141.55 138.927 141.555 138.884C141.571 138.729 141.616 138.269 141.372 137.772L138.479 139.192C138.395 139.02 138.361 138.857 138.35 138.733C138.345 138.675 138.346 138.629 138.347 138.599C138.348 138.571 138.35 138.552 138.35 138.551C138.35 138.551 138.349 138.556 138.346 138.579C138.344 138.597 138.339 138.634 138.335 138.672C138.326 138.752 138.314 138.871 138.314 139.012H141.536ZM141.536 138.441C141.536 138.444 141.537 138.481 141.527 138.541C141.516 138.602 141.492 138.703 141.433 138.823C141.372 138.947 141.277 139.084 141.137 139.206C140.997 139.33 140.842 139.411 140.696 139.458L139.703 136.393C139.179 136.562 138.774 136.929 138.543 137.399C138.339 137.813 138.307 138.227 138.315 138.523L141.536 138.441ZM140.867 139.392L150.975 134.791L149.64 131.858L139.532 136.459L140.867 139.392ZM150.984 134.786C151.609 134.497 152.111 134.016 152.443 133.438L149.649 131.832C149.627 131.87 149.613 131.87 149.631 131.862L150.984 134.786ZM152.443 133.438C152.774 132.861 152.931 132.2 152.908 131.543L149.688 131.658C149.69 131.732 149.672 131.793 149.649 131.832L152.443 133.438ZM152.909 131.576C152.844 127.278 151.795 123.061 149.851 119.322L146.992 120.808C148.699 124.092 149.629 127.815 149.687 131.625L152.909 131.576ZM149.852 119.324C149.583 118.805 149.18 118.356 148.667 118.042L146.985 120.79C146.977 120.785 146.975 120.782 146.977 120.784C146.979 120.787 146.985 120.794 146.992 120.807L149.852 119.324ZM148.667 118.042C148.152 117.726 147.554 117.566 146.94 117.594L147.087 120.813C147.04 120.815 147.004 120.801 146.985 120.79L148.667 118.042ZM147.014 117.592H145.116V120.815H147.014V117.592ZM145.231 117.596C145.037 117.583 145.02 117.558 145.095 117.59C145.179 117.627 145.52 117.803 145.68 118.263C145.832 118.699 145.689 119.019 145.672 119.055C145.652 119.097 145.67 119.044 145.814 118.888L143.441 116.708C143.19 116.981 142.933 117.308 142.757 117.682C142.584 118.048 142.404 118.651 142.637 119.322C142.879 120.016 143.42 120.378 143.824 120.551C144.218 120.721 144.639 120.785 145.002 120.81L145.231 117.596ZM145.82 118.881L147.228 117.329L144.842 115.164L143.434 116.715L145.82 118.881ZM147.314 117.226C147.622 116.825 148.118 116.033 147.896 115.071C147.645 113.987 146.713 113.544 146.127 113.374L145.228 116.468C145.295 116.487 145.229 116.48 145.118 116.391C144.986 116.285 144.823 116.087 144.757 115.798C144.694 115.529 144.75 115.329 144.776 115.258C144.8 115.191 144.812 115.194 144.756 115.267L147.314 117.226ZM146.145 113.379L140.465 111.655L139.529 114.739L145.209 116.462L146.145 113.379ZM140.375 111.631C140.595 111.684 140.764 111.806 140.872 111.942L138.354 113.952C138.664 114.341 139.101 114.638 139.619 114.763L140.375 111.631ZM140.872 111.942C140.979 112.076 141.03 112.223 141.041 112.358L137.831 112.631C137.871 113.101 138.045 113.566 138.354 113.952L140.872 111.942ZM141.041 112.349C141.049 112.439 141.036 112.533 140.998 112.627L138.015 111.41C137.855 111.801 137.794 112.224 137.832 112.64L141.041 112.349ZM140.998 112.627C140.96 112.72 140.892 112.822 140.783 112.908L138.781 110.383C138.433 110.659 138.174 111.018 138.015 111.41L140.998 112.627ZM140.732 112.947C141.46 112.415 142.058 112.303 142.578 112.358C143.147 112.419 143.801 112.701 144.553 113.265C146.101 114.425 147.572 116.379 149.017 118.312L151.598 116.383C150.238 114.563 148.481 112.182 146.485 110.686C145.465 109.922 144.268 109.298 142.92 109.154C141.523 109.005 140.138 109.391 138.832 110.344L140.732 112.947ZM149.004 118.295L150.413 120.231L153.018 118.335L151.61 116.399L149.004 118.295ZM150.429 120.253C150.817 120.768 151.363 121.164 152.008 121.35L152.9 118.254C152.967 118.273 152.997 118.306 153.002 118.313L150.429 120.253ZM152.008 121.35C152.656 121.537 153.342 121.492 153.958 121.229L152.695 118.265C152.754 118.24 152.83 118.233 152.9 118.254L152.008 121.35ZM153.826 121.279C154.814 120.956 155.656 120.389 156.29 119.568C156.914 118.761 157.276 117.787 157.447 116.729L154.266 116.215C154.158 116.881 153.959 117.315 153.74 117.599C153.531 117.869 153.247 118.078 152.827 118.215L153.826 121.279ZM157.459 116.632C157.518 116.049 157.423 115.453 157.179 114.914L154.245 116.246C154.25 116.258 154.256 116.282 154.253 116.312L157.459 116.632ZM157.179 114.914C156.934 114.375 156.541 113.9 156.026 113.567L154.279 116.274C154.243 116.252 154.239 116.235 154.245 116.246L157.179 114.914ZM155.948 113.52C155.084 113.03 154.551 112.462 154.241 111.844C153.929 111.223 153.781 110.429 153.89 109.388L150.686 109.05C150.525 110.573 150.719 112.011 151.362 113.29C152.006 114.573 153.04 115.574 154.357 116.322L155.948 113.52ZM153.892 109.374C153.891 109.379 153.89 109.387 153.885 109.399C153.88 109.411 153.87 109.43 153.85 109.452L151.444 107.309C151.003 107.804 150.746 108.426 150.685 109.065L153.892 109.374ZM153.85 109.452C153.81 109.497 153.729 109.555 153.607 109.57L153.189 106.376C152.498 106.466 151.887 106.811 151.444 107.309L153.85 109.452ZM153.538 109.578C155.236 109.43 156.705 108.807 157.838 107.644C158.947 106.506 159.61 104.978 159.965 103.229L156.807 102.588C156.53 103.954 156.071 104.84 155.53 105.395C155.014 105.926 154.305 106.277 153.258 106.368L153.538 109.578ZM159.962 103.242C159.957 103.269 159.937 103.322 159.876 103.378L157.707 100.995C157.24 101.42 156.936 101.98 156.81 102.574L159.962 103.242ZM159.876 103.378C159.811 103.437 159.704 103.492 159.568 103.497L159.448 100.277C158.788 100.302 158.177 100.567 157.707 100.995L159.876 103.378ZM159.508 103.498C159.537 103.498 159.551 103.498 159.565 103.498C159.577 103.499 159.58 103.499 159.577 103.499C159.574 103.499 159.536 103.496 159.478 103.482C159.418 103.468 159.337 103.44 159.248 103.39C159.157 103.338 159.078 103.274 159.014 103.204L161.41 101.048C160.665 100.221 159.674 100.276 159.508 100.276V103.498ZM159.253 103.42C159.185 103.37 159.13 103.307 159.093 103.244C159.057 103.184 159.05 103.147 159.052 103.153L162.208 102.504C162.079 101.881 161.761 101.268 161.171 100.831L159.253 103.42ZM159.075 103.251L161.891 113.619L165.001 112.775L162.184 102.406L159.075 103.251ZM161.885 113.595C161.915 113.713 161.909 113.738 161.909 113.698C161.91 113.651 161.92 113.489 162.032 113.293C162.151 113.082 162.319 112.952 162.45 112.887C162.56 112.832 162.615 112.835 162.552 112.842L162.908 116.045C163.465 115.983 164.34 115.753 164.833 114.884C165.272 114.112 165.131 113.286 165.007 112.799L161.885 113.595ZM162.456 112.856C160.394 113.211 158.625 114.039 157.243 115.401C155.867 116.757 154.977 118.543 154.5 120.651L157.642 121.363C158.016 119.714 158.661 118.527 159.505 117.696C160.343 116.87 161.478 116.294 163.004 116.031L162.456 112.856ZM154.499 120.655C154.326 121.428 154.372 122.241 154.636 122.989L157.675 121.918C157.614 121.744 157.601 121.546 157.643 121.359L154.499 120.655ZM154.636 122.989C154.9 123.738 155.377 124.406 156.03 124.881L157.927 122.277C157.834 122.209 157.736 122.091 157.675 121.918L154.636 122.989ZM156.121 124.943C156.835 125.391 157.684 125.574 158.526 125.437L158.011 122.257C157.963 122.264 157.904 122.258 157.835 122.214L156.121 124.943ZM158.526 125.437C159.365 125.302 160.109 124.864 160.653 124.237L158.22 122.125C158.14 122.217 158.061 122.248 158.011 122.257L158.526 125.437ZM160.62 124.274C162.444 122.3 164.632 120.82 167.016 119.931L165.89 116.912C163.012 117.985 160.405 119.759 158.253 122.088L160.62 124.274ZM167.061 119.913C167.708 119.65 168.271 119.227 168.714 118.695L166.238 116.633C166.116 116.778 165.979 116.875 165.845 116.929L167.061 119.913ZM168.714 118.695C169.156 118.163 169.469 117.536 169.638 116.867L166.514 116.077C166.458 116.297 166.36 116.486 166.238 116.633L168.714 118.695ZM169.627 116.91C169.815 116.242 169.865 115.54 169.775 114.852L166.58 115.27C166.614 115.528 166.594 115.79 166.526 116.034L169.627 116.91ZM169.775 114.852C169.685 114.164 169.455 113.498 169.095 112.905L166.341 114.576C166.462 114.776 166.546 115.013 166.58 115.27L169.775 114.852ZM169.086 112.889L166.222 108.288L163.486 109.991L166.35 114.592L169.086 112.889ZM166.215 108.277C166.292 108.399 166.319 108.527 166.312 108.641L163.096 108.444C163.062 108.983 163.195 109.532 163.493 110.002L166.215 108.277ZM166.312 108.641C166.305 108.755 166.262 108.887 166.161 109.008L163.691 106.938C163.328 107.371 163.129 107.904 163.096 108.444L166.312 108.641ZM166.058 109.119C166.028 109.149 165.986 109.18 165.932 109.204L164.612 106.265C164.303 106.403 164.028 106.595 163.793 106.827L166.058 109.119ZM165.7 109.288L168.779 108.439L167.922 105.333L164.844 106.181L165.7 109.288ZM168.86 108.414C169.116 108.329 169.429 108.2 169.717 107.987C170.02 107.762 170.374 107.381 170.498 106.805C170.619 106.245 170.464 105.772 170.318 105.477C170.175 105.189 169.985 104.955 169.834 104.787L167.439 106.943C167.503 107.014 167.475 106.996 167.43 106.907C167.383 106.811 167.263 106.519 167.349 106.125C167.437 105.715 167.683 105.484 167.799 105.398C167.898 105.325 167.943 105.323 167.841 105.357L168.86 108.414ZM169.805 104.755C165.569 100.299 161.211 95.9865 156.739 91.8242L154.544 94.1829C158.968 98.3002 163.278 102.566 167.469 106.975L169.805 104.755ZM156.771 91.8548C153.983 89.1135 151.116 88.6803 148.178 88.2045L147.663 91.3852C150.62 91.8641 152.526 92.1998 154.512 94.1523L156.771 91.8548ZM148.224 88.2125C148.09 88.1869 148.57 88.2403 148.787 88.8076C148.88 89.0521 148.859 89.2485 148.845 89.3243C148.831 89.3933 148.819 89.3928 148.864 89.309L146.023 87.788C145.777 88.2474 145.438 89.0742 145.778 89.96C146.154 90.9427 147.059 91.2702 147.618 91.3772L148.224 88.2125ZM148.851 89.3325C149.217 88.6756 149.605 88.3212 149.966 88.116C150.335 87.9068 150.779 87.7949 151.337 87.7808C152.547 87.7502 153.915 88.1619 155.573 88.6171L156.426 85.5099C154.993 85.1165 153.061 84.5139 151.256 84.5596C150.305 84.5836 149.312 84.7824 148.376 85.3136C147.433 85.8489 146.648 86.6646 146.036 87.7645L148.851 89.3325ZM155.513 88.5995L157.482 89.2227L158.455 86.1507L156.486 85.5275L155.513 88.5995ZM157.613 89.2581C158.181 89.3864 159.025 89.4308 159.745 88.8469C160.412 88.3067 160.569 87.5401 160.619 87.1015L157.418 86.7337C157.411 86.7981 157.406 86.7774 157.433 86.71C157.465 86.6344 157.544 86.4832 157.716 86.3441C158.105 86.0287 158.46 86.1461 158.324 86.1152L157.613 89.2581ZM160.624 87.0477C160.811 84.7467 161.646 82.9314 163.097 81.5023L160.836 79.2065C158.786 81.2248 157.656 83.785 157.413 86.7876L160.624 87.0477ZM163.086 81.5131C163.145 81.4557 163.099 81.5194 162.946 81.5806C162.76 81.6556 162.411 81.7218 162.027 81.5584C161.683 81.412 161.536 81.1747 161.505 81.1207C161.473 81.0634 161.489 81.0699 161.519 81.1994L164.657 80.4641C164.587 80.1693 164.482 79.8377 164.307 79.5284C164.133 79.2225 163.82 78.8195 163.289 78.5935C162.108 78.0907 161.164 78.8894 160.847 79.1958L163.086 81.5131ZM161.515 81.1824C162.574 85.9279 164.4 88.7209 166.439 91.854L169.14 90.0959C167.122 86.9971 165.583 84.6191 164.66 80.4811L161.515 81.1824ZM166.434 91.8461L167.986 94.2593L170.696 92.5168L169.145 90.1037L166.434 91.8461ZM167.95 94.2018C168.568 95.2566 169.441 96.2242 170.69 96.5306C171.997 96.8511 173.187 96.3278 174.129 95.575L172.118 93.0574C171.859 93.2646 171.677 93.3506 171.573 93.3837C171.523 93.3993 171.494 93.4024 171.481 93.403C171.47 93.4035 171.464 93.4025 171.458 93.4012C171.446 93.3982 171.164 93.3139 170.731 92.5743L167.95 94.2018ZM174.152 95.5568C174.7 95.1022 175.101 94.5014 175.329 93.8385L172.283 92.79C172.236 92.9252 172.164 93.0194 172.096 93.0756L174.152 95.5568ZM175.329 93.8385C175.557 93.1758 175.61 92.4616 175.485 91.7735L172.314 92.3508C172.342 92.5003 172.329 92.6544 172.283 92.79L175.329 93.8385ZM175.481 91.7547C175.398 91.3275 175.253 90.9131 175.05 90.5274L172.2 92.0323C172.253 92.1324 172.294 92.2462 172.318 92.3696L175.481 91.7547ZM174.988 90.4205L170.071 82.6242L167.346 84.3429L172.262 92.1393L174.988 90.4205ZM170.09 82.6547L169.947 82.416L167.184 84.0738L167.327 84.3124L170.09 82.6547ZM170.084 82.7076C170.106 82.7698 170.115 82.8315 170.113 82.8906L166.893 82.7966C166.883 83.1299 166.934 83.4647 167.046 83.7822L170.084 82.7076ZM170.113 82.8906C170.112 82.9498 170.099 83.0122 170.072 83.0753L167.105 81.82C166.973 82.1313 166.902 82.4632 166.893 82.7966L170.113 82.8906ZM170.072 83.0753C170.046 83.1385 170.003 83.2066 169.938 83.2704L167.679 80.973C167.429 81.2185 167.237 81.5086 167.105 81.82L170.072 83.0753ZM169.938 83.2704C169.873 83.3345 169.786 83.3932 169.679 83.4323L168.573 80.4056C168.232 80.5305 167.929 80.7271 167.679 80.973L169.938 83.2704ZM169.686 83.4298L178.528 80.1548L177.409 77.1332L168.567 80.4082L169.686 83.4298ZM178.743 80.0568C179.151 79.8334 179.488 79.5151 179.737 79.1425L177.06 77.3499C177.083 77.3144 177.126 77.2688 177.194 77.2312L178.743 80.0568ZM179.756 79.1135C179.947 78.8139 180.075 78.4823 180.139 78.1408L176.971 77.5525C176.981 77.4986 177.002 77.4391 177.041 77.3789L179.756 79.1135ZM180.139 78.1408C180.202 77.7994 180.201 77.4482 180.136 77.107L176.971 77.7148C176.961 77.6608 176.961 77.6063 176.971 77.5525L180.139 78.1408ZM180.144 77.1516C180.087 76.8027 179.963 76.4626 179.773 76.1548L177.03 77.8461C176.993 77.785 176.972 77.7248 176.963 77.6702L180.144 77.1516ZM179.773 76.1548C179.583 75.8466 179.328 75.5734 179.017 75.3621L177.207 78.0278C177.125 77.9725 177.068 77.9075 177.03 77.8461L179.773 76.1548ZM178.991 75.3446L178.155 74.801L176.398 77.5016L177.233 78.0453L178.991 75.3446ZM178.048 74.7367C177.755 74.5771 177.619 74.484 177.579 74.4526C177.553 74.4316 177.63 74.4858 177.722 74.6137C177.783 74.6986 178.112 75.1726 177.938 75.8431C177.753 76.5568 177.185 76.8109 177.043 76.8653C176.946 76.9026 176.871 76.9178 176.837 76.9238C176.818 76.9272 176.803 76.9291 176.794 76.93C176.786 76.931 176.781 76.9313 176.781 76.9313C176.781 76.9313 176.784 76.9311 176.791 76.931C176.797 76.9308 176.807 76.9307 176.82 76.9308C176.845 76.931 176.88 76.9321 176.925 76.9346C177.017 76.9398 177.136 76.9505 177.288 76.9687L177.671 73.7694C177.295 73.7243 176.911 73.6944 176.578 73.7155C176.422 73.7254 176.163 73.7519 175.89 73.8565C175.648 73.9493 175.021 74.2552 174.819 75.0342C174.628 75.7698 174.982 76.3224 175.109 76.4993C175.268 76.7192 175.453 76.8788 175.576 76.9765C175.836 77.1827 176.166 77.3808 176.506 77.5659L178.048 74.7367ZM177.257 76.9647L182.866 77.747L183.311 74.5556L177.702 73.7733L177.257 76.9647ZM183.088 77.7624C183.557 77.7624 184.244 77.671 184.82 77.1695C185.441 76.6292 185.618 75.8962 185.618 75.2895H182.396C182.396 75.3059 182.4 75.0038 182.705 74.7386C182.965 74.5123 183.192 74.5402 183.088 74.5402V77.7624ZM185.616 75.3707C185.64 74.8879 185.777 74.4299 186.001 74.0418L183.21 72.4307C182.723 73.2738 182.447 74.2305 182.398 75.2082L185.616 75.3707ZM186.001 74.0418C186.225 73.6543 186.523 73.3581 186.851 73.1652L185.22 70.3864C184.385 70.8769 183.697 71.5869 183.21 72.4307L186.001 74.0418ZM186.898 73.1369C187.294 72.886 187.592 72.5292 187.778 72.1301L184.857 70.7702C184.915 70.6441 185.018 70.5135 185.174 70.4147L186.898 73.1369ZM187.778 72.1301C187.963 71.7317 188.037 71.2937 187.999 70.8647L184.789 71.1488C184.778 71.0257 184.798 70.8956 184.857 70.7702L187.778 72.1301ZM187.993 70.8121C187.955 70.5023 187.87 70.1976 187.739 69.9108L184.81 71.2542C184.8 71.2333 184.796 71.2155 184.794 71.2015L187.993 70.8121ZM187.55 69.599C187.36 69.352 187.129 69.1339 186.862 68.9582L185.09 71.6499C185.048 71.6223 185.019 71.5923 184.998 71.566L187.55 69.599ZM186.675 68.8526C183.4 67.2746 179.855 66.4727 176.272 66.5053L176.301 69.7274C179.381 69.6993 182.438 70.3879 185.277 71.7555L186.675 68.8526ZM176.286 66.5052H173.542V69.7274H176.286V66.5052ZM175.135 68.3552L175.147 68.2756L171.96 67.7979L171.948 67.8774L175.135 68.3552ZM102.708 159.439C103.301 160.023 104.128 160.796 105.191 160.969L105.709 157.788C105.788 157.801 105.771 157.823 105.623 157.719C105.471 157.613 105.267 157.436 104.97 157.143L102.708 159.439ZM105.095 160.95C105.779 161.104 106.66 161.055 107.348 160.401C107.976 159.805 108.111 159.013 108.111 158.45H104.889C104.889 158.577 104.851 158.328 105.13 158.064C105.277 157.924 105.45 157.846 105.602 157.816C105.74 157.789 105.818 157.81 105.805 157.807L105.095 160.95ZM108.101 158.631C108.239 157.412 108.137 156.174 107.8 154.998L104.703 155.886C104.922 156.652 104.99 157.466 104.899 158.269L108.101 158.631ZM107.8 154.998C107.463 153.823 106.897 152.732 106.132 151.804L103.646 153.853C104.119 154.427 104.483 155.12 104.703 155.886L107.8 154.998ZM103.555 151.925L102.505 153.477L105.173 155.283L106.223 153.731L103.555 151.925ZM104.934 153.198L104.862 153.131L102.673 155.495L102.744 155.562L104.934 153.198ZM103.767 152.702H103.696V155.924H103.767V152.702ZM105.307 154.313V154.234H102.085V154.313H105.307ZM103.696 152.623H103.553V155.845H103.696V152.623ZM105.164 154.234V154.154H101.941V154.234H105.164ZM104.547 152.887L104.344 152.727L102.355 155.263L102.558 155.422L104.547 152.887ZM101.877 153.342C101.399 154.42 101.111 155.583 101.027 156.771L104.241 157C104.299 156.178 104.498 155.379 104.822 154.649L101.877 153.342ZM101.696 158.196L103.104 159.203L104.979 156.583L103.571 155.575L101.696 158.196ZM102.607 157.161L102.404 157.559L105.274 159.023L105.477 158.625L102.607 157.161ZM104.678 154.688L104.965 154.37L102.57 152.215L102.283 152.533L104.678 154.688ZM102.57 154.37L102.641 154.45L105.036 152.294L104.965 152.215L102.57 154.37ZM102.719 152.214C102.75 152.183 102.794 152.152 102.852 152.127L104.11 155.094C104.429 154.958 104.716 154.765 104.959 154.53L102.719 152.214ZM151.734 145.678L150.47 148.396L153.391 149.756L154.656 147.038L151.734 145.678ZM150.473 148.39C150.192 148.986 150.097 149.654 150.191 150.301L153.38 149.836C153.375 149.803 153.382 149.775 153.388 149.763L150.473 148.39ZM150.191 150.301C150.285 150.947 150.569 151.567 151.027 152.058L153.383 149.86C153.39 149.867 153.39 149.87 153.388 149.865C153.385 149.86 153.382 149.85 153.38 149.836L150.191 150.301ZM150.954 151.974L157.278 159.77L159.781 157.74L153.456 149.944L150.954 151.974ZM157.288 159.782C157.617 160.18 158.04 160.5 158.531 160.7L159.745 157.715C159.771 157.725 159.777 157.736 159.771 157.728L157.288 159.782ZM158.531 160.7C159.023 160.9 159.559 160.969 160.09 160.894L159.642 157.703C159.681 157.698 159.718 157.704 159.745 157.715L158.531 160.7ZM160.066 160.897C160.723 160.815 161.385 160.543 161.893 159.979C162.384 159.433 162.593 158.768 162.661 158.149L159.458 157.797C159.438 157.973 159.405 157.927 159.498 157.823C159.544 157.772 159.597 157.735 159.642 157.713C159.684 157.693 159.698 157.696 159.666 157.7L160.066 160.897ZM162.666 157.857C162.619 157.205 162.398 156.567 162.011 156.027L159.391 157.903C159.418 157.941 159.446 158.005 159.452 158.089L162.666 157.857ZM162.083 156.137C159.769 152.274 158.212 147.902 157.521 143.307L154.335 143.787C155.087 148.785 156.783 153.559 159.319 157.793L162.083 156.137ZM157.522 143.313C157.169 140.911 155.886 139.001 153.672 138.2L152.576 141.23C153.44 141.543 154.114 142.285 154.334 143.781L157.522 143.313ZM153.692 138.208C153.135 137.998 152.526 137.985 151.96 138.174L152.979 141.231C152.841 141.277 152.689 141.273 152.555 141.223L153.692 138.208ZM151.96 138.174C151.398 138.361 150.933 138.728 150.61 139.19L153.251 141.036C153.202 141.106 153.114 141.186 152.979 141.231L151.96 138.174ZM150.598 139.207C150.317 139.62 150.148 140.095 150.096 140.581L153.299 140.927C153.297 140.948 153.289 140.98 153.262 141.019L150.598 139.207ZM150.096 140.581C150.043 141.067 150.107 141.564 150.286 142.023L153.288 140.854C153.3 140.883 153.301 140.907 153.299 140.927L150.096 140.581ZM150.279 142.007L151.687 145.746L154.703 144.61L153.295 140.871L150.279 142.007ZM151.698 145.774C151.697 145.77 151.696 145.768 151.696 145.767C151.696 145.767 151.696 145.767 151.696 145.768H154.919C154.919 145.364 154.843 144.96 154.692 144.582L151.698 145.774ZM151.696 145.768C151.696 145.769 151.696 145.769 151.696 145.768C151.696 145.768 151.697 145.766 151.698 145.762L154.692 146.954C154.843 146.575 154.919 146.172 154.919 145.768H151.696ZM144.069 155.85C143.946 157.943 143.429 159.101 142.805 159.884C142.139 160.72 141.236 161.288 139.945 162.046L141.576 164.825C142.815 164.098 144.234 163.261 145.325 161.892C146.458 160.471 147.134 158.626 147.286 156.039L144.069 155.85ZM139.895 162.077C139.009 162.641 137.693 163.377 136.495 164.527L138.726 166.852C139.627 165.987 140.555 165.477 141.626 164.795L139.895 162.077ZM136.54 164.486C136.049 164.922 135.74 165.507 135.627 166.124L138.797 166.704C138.789 166.749 138.761 166.822 138.681 166.894L136.54 164.486ZM135.627 166.124C135.514 166.741 135.597 167.386 135.874 167.958L138.773 166.551C138.801 166.608 138.805 166.66 138.797 166.704L135.627 166.124ZM135.713 167.254C135.713 167.905 136.041 168.336 136.216 168.531C136.29 168.613 136.371 168.689 136.388 168.706C136.42 168.737 136.419 168.737 136.413 168.73L138.808 166.574C138.73 166.488 138.657 166.418 138.623 166.385C138.572 166.336 138.59 166.352 138.611 166.375C138.638 166.405 138.723 166.503 138.798 166.658C138.882 166.831 138.935 167.036 138.935 167.254H135.713ZM136.547 168.862C139.87 171.781 143.76 173.161 147.992 173.161V169.939C144.516 169.939 141.389 168.827 138.673 166.441L136.547 168.862ZM147.874 173.157C148.48 173.201 149.075 173.054 149.587 172.749L147.939 169.981C147.979 169.957 148.04 169.938 148.11 169.943L147.874 173.157ZM149.587 172.749C150.097 172.446 150.497 172.004 150.76 171.494L147.897 170.015C147.894 170.022 147.901 170.003 147.939 169.981L149.587 172.749ZM150.783 171.449C151.851 169.211 152.942 165.545 153.175 162.019C153.292 160.251 153.2 158.427 152.722 156.799C152.24 155.159 151.335 153.625 149.774 152.634L148.048 155.356C148.766 155.811 149.299 156.579 149.631 157.707C149.966 158.848 150.062 160.261 149.96 161.806C149.755 164.906 148.775 168.175 147.875 170.06L150.783 171.449ZM149.767 152.63C149.196 152.272 148.537 152.076 147.855 152.076V155.298C147.913 155.298 147.982 155.314 148.055 155.36L149.767 152.63ZM147.855 152.076C147.173 152.076 146.514 152.272 145.943 152.63L147.655 155.36C147.728 155.314 147.797 155.298 147.855 155.298V152.076ZM145.969 152.614C145.401 152.955 144.94 153.439 144.615 154.005L147.408 155.612C147.475 155.496 147.556 155.42 147.629 155.376L145.969 152.614ZM144.615 154.005C144.29 154.57 144.105 155.206 144.069 155.853L147.286 156.035C147.295 155.875 147.34 155.729 147.408 155.612L144.615 154.005ZM162.107 175.64L136.689 172.444L136.288 175.641L161.706 178.837L162.107 175.64ZM136.489 172.432H136.345V175.654H136.489V172.432ZM135.17 172.941C134.879 173.251 134.715 173.638 134.672 174.026L137.875 174.378C137.846 174.645 137.733 174.919 137.521 175.145L135.17 172.941ZM134.663 174.202V174.281H137.885V174.202H134.663ZM134.677 174.069C134.51 175.319 135.23 176.32 135.934 176.996L138.164 174.67C137.959 174.473 137.882 174.35 137.861 174.307C137.852 174.29 137.86 174.3 137.867 174.337C137.875 174.376 137.879 174.431 137.871 174.494L134.677 174.069ZM136.057 177.102C136.992 177.833 138.01 178.432 139.089 178.884L140.332 175.911C139.525 175.573 138.755 175.121 138.042 174.564L136.057 177.102ZM139.155 178.91C142.153 180.011 145.215 180.769 148.342 181.182L148.764 177.988C145.876 177.606 143.044 176.905 140.266 175.885L139.155 178.91ZM148.301 181.176L148.802 181.256L149.307 178.073L148.806 177.994L148.301 181.176ZM148.881 181.266C152.011 181.606 155.143 181.606 158.274 181.266L157.926 178.063C155.026 178.377 152.128 178.377 149.228 178.063L148.881 181.266ZM158.326 181.26C159.435 181.103 160.519 180.796 161.555 180.348L160.277 177.39C159.501 177.726 158.694 177.953 157.874 178.069L158.326 181.26ZM161.688 180.283C162.148 180.032 162.604 179.708 162.962 179.291C163.325 178.87 163.649 178.276 163.649 177.543H160.427C160.427 177.288 160.542 177.164 160.519 177.19C160.51 177.202 160.479 177.235 160.413 177.284C160.349 177.333 160.26 177.391 160.144 177.455L161.688 180.283ZM163.649 177.543V177.318H160.427V177.543H163.649ZM163.257 176.264C162.978 175.942 162.579 175.705 162.111 175.642L161.678 178.835C161.32 178.786 161.021 178.606 160.819 178.371L163.257 176.264Z" fill="#D02138" mask="url(#path-1-inside-1_522_98)"/>
</svg>
