<svg width="232" height="232" viewBox="0 0 232 232" fill="none" xmlns="http://www.w3.org/2000/svg">
<path d="M71.7717 177.61L71.5924 177.308L71.2488 177.234L41.2475 170.763L44.1956 139.798L44.2284 139.453L44.0004 139.192L23.7476 116L44.01 92.808L44.2382 92.5468L44.2052 92.2014L41.2477 61.2465L71.2584 54.7758L71.6022 54.7017L71.7816 54.3992L87.5567 27.7923L115.687 39.6698L116 39.8022L116.314 39.6697L144.443 27.7828L160.228 54.3993L160.408 54.7018L160.751 54.7759L190.753 61.2371L187.804 92.2017L187.772 92.5469L188 92.808L208.262 116L188.019 139.192L187.791 139.453L187.824 139.798L190.762 170.763L160.751 177.224L160.407 177.298L160.228 177.601L144.453 204.217L116.313 192.33L116 192.198L115.687 192.33L87.5564 204.208L71.7717 177.61ZM90.6605 193.267L91.0191 193.86L91.6595 193.594L116.001 183.466L140.458 193.594L141.1 193.86L141.457 193.264L155.18 170.361L181.425 164.53L182.114 164.377L182.052 163.673L179.666 136.573L197.321 116.533L197.789 116.001L197.322 115.469L179.666 95.3216L182.052 68.2207L182.115 67.5142L181.422 67.363L155.177 61.6369L141.339 38.7335L140.981 38.1397L140.34 38.4064L115.999 48.5437L91.5522 38.4059L90.9102 38.1397L90.5528 38.7358L76.8215 61.6372L50.5783 67.363L49.8853 67.5142L49.9475 68.2207L52.334 95.3216L34.6775 115.469L34.211 116.001L34.6789 116.533L52.334 136.574L49.9475 163.78L49.8856 164.486L50.5783 164.637L76.823 170.363L90.6605 193.267ZM105.282 130.395L105.852 130.961L106.42 130.393L146.929 89.8841L152.643 95.6953L105.85 142.488L79.3619 116L85.0683 110.294L105.282 130.395Z" stroke="#D02138" stroke-width="1.61111"/>
</svg>
