<svg width="232" height="232" viewBox="0 0 232 232" fill="none" xmlns="http://www.w3.org/2000/svg">
<path d="M31.6867 95.7041H29.8282L31.0988 97.0604L95.7876 166.11L97.1098 165.228L65.9595 96.1784L65.7455 95.7041H65.2252H31.6867ZM115.266 177.002L116 178.625L116.734 177.002L152.972 96.8414L153.487 95.7041H152.238H79.762H78.5138L79.028 96.8414L115.266 177.002ZM65.5367 84.0244H66.0209L66.2481 83.5967L87.4303 43.7243L88.059 42.5408H86.7189H59.5143H59.1115L58.8699 42.8631L28.9656 82.7355L27.9989 84.0244H29.61H65.5367ZM134.891 165.228L136.213 166.11L200.902 97.0604L202.172 95.7041H200.314H166.775H166.255L166.041 96.1784L134.891 165.228ZM79.8813 82.8409L79.2526 84.0244H80.5927H151.408H152.748L152.119 82.8409L130.937 42.9685L130.71 42.5408H130.226H101.775H101.291L101.063 42.9685L79.8813 82.8409ZM165.752 83.5967L165.979 84.0244H166.464H202.39H204.002L203.035 82.7355L173.131 42.8631L172.889 42.5408H172.486H145.282H143.941L144.57 43.7243L165.752 83.5967ZM180.442 33.2138L180.451 33.2264L180.46 33.2386L220.332 86.4018L220.332 86.4019L220.341 86.4131C221.189 87.5033 221.583 88.7508 221.522 90.1934C221.461 91.6285 220.949 92.846 219.975 93.8808L219.974 93.882L120.293 200.208L120.287 200.214L120.282 200.22C119.201 201.421 117.799 202.03 116 202.03C114.201 202.03 112.799 201.421 111.719 200.22L111.713 200.214L111.708 200.208L12.0267 93.882L12.0256 93.8808C11.0517 92.846 10.5397 91.6285 10.4786 90.1934C10.4172 88.7508 10.8115 87.5033 11.6595 86.4131L11.6596 86.4131L11.6681 86.4018L51.5405 33.2386L51.5497 33.2264L51.5584 33.2138C52.6463 31.6424 54.1579 30.8612 56.1916 30.8612H175.809C177.843 30.8612 179.354 31.6424 180.442 33.2138Z" stroke="#D02138" stroke-width="1.61111"/>
</svg>
