<svg width="200" height="200" viewBox="0 0 200 200" fill="none" xmlns="http://www.w3.org/2000/svg">
<path d="M90.9103 58.6404C94.0596 57.9807 97.2687 57.6489 100.486 57.6504C125.738 57.6504 146.281 77.8134 146.894 102.917M78.6093 123.924C73.6682 118.495 70.9347 111.415 70.9453 104.073C70.9453 87.7574 84.1713 74.5314 100.486 74.5314C103.348 74.5314 106.114 74.9384 108.729 75.6964" stroke="#D02138" stroke-linecap="round" stroke-linejoin="round"/>
<path d="M158.889 80.9883C161.726 88.1563 163.471 95.8963 163.471 104.072C163.471 138.857 135.272 167.056 100.487 167.056C81.1605 167.056 63.8645 158.351 52.3125 144.647" stroke="#D02138" stroke-linecap="round" stroke-linejoin="round"/>
<path d="M105.119 87.209C112.528 89.239 117.974 96.019 117.974 104.072C117.974 113.728 110.146 121.556 100.49 121.556C91.8478 121.556 84.6688 115.285 83.2578 107.044" stroke="#D02138" stroke-linecap="round" stroke-linejoin="round"/>
<path d="M62.4964 174.086C37.5944 160.56 20.6094 134.403 20.6094 104.073C20.6094 59.9574 56.3734 24.1914 100.491 24.1914C114.278 24.1914 127.439 28.0554 138.756 34.2034" stroke="#D02138" stroke-linecap="round" stroke-linejoin="round"/>
<path d="M92.2388 166.521C80.7388 175.041 69.9198 178.157 62.2238 173.943C45.9048 165.005 49.8068 126.478 70.9408 87.889C92.0748 49.302 122.435 25.265 138.756 34.204C148.214 39.384 150.88 54.501 147.337 73.808" stroke="#D02138" stroke-linecap="round" stroke-linejoin="round"/>
<path d="M123.165 90.5103C122.409 93.5473 120.519 97.2223 117.719 101.102M116.499 82.7733C110.524 83.5283 101.63 88.4153 93.2099 96.0553C81.1369 107.011 74.6069 119.483 78.6239 123.911C81.3179 126.879 88.0669 125.481 95.8589 120.938M86.2929 64.3223C93.3489 65.7123 101.145 69.6523 108.727 75.7003M71.1419 107.494C69.1539 103.907 67.5439 100.328 66.3359 96.8463" stroke="#D02138" stroke-linecap="round" stroke-linejoin="round"/>
<path d="M90.2966 130.839C88.27 129.111 86.3277 127.286 84.4766 125.371M108.731 75.6973C112.798 78.9403 116.773 82.7873 120.48 87.1713C127.217 95.1403 132.06 103.69 134.776 111.698" stroke="#D02138" stroke-linecap="round" stroke-linejoin="round"/>
<path d="M135.138 73.1781C147.644 72.5811 156.583 75.1481 158.893 80.9901C163.404 92.4021 140.912 111.988 108.657 124.736C102.39 127.214 96.2129 129.251 90.2969 130.841" stroke="#D02138" stroke-linecap="round" stroke-linejoin="round"/>
<path d="M90.2936 130.84C75.6226 134.785 62.5516 135.982 53.6406 134.338" stroke="#D02138" stroke-linecap="round" stroke-linejoin="round"/>
</svg>
