<svg width="1064" height="461" viewBox="0 0 1064 461" fill="none" xmlns="http://www.w3.org/2000/svg">
<path d="M542 -164C677.56 -164 800.191 -130.883 888.864 -77.4443C977.576 -23.9827 1032 49.598 1032 130.5C1032 211.402 977.576 284.983 888.864 338.444C800.191 391.883 677.56 425 542 425C406.44 425 283.809 391.883 195.136 338.444C106.424 284.983 52 211.402 52 130.5C52 49.598 106.424 -23.9827 195.136 -77.4443C283.809 -130.883 406.44 -164 542 -164Z" stroke="#282829" stroke-width="4"/>
<rect x="107" y="264" width="100" height="100" rx="8" fill="#282829"/>
<g clip-path="url(#clip0_2048_719)">
<path fill-rule="evenodd" clip-rule="evenodd" d="M157 282C174.613 282 189 296.413 189 314C189 331.613 174.587 346 157 346C139.387 346 125 331.587 125 314C125 296.387 139.413 282 157 282Z" fill="#1EEFA4"/>
<path d="M160.431 321.168C160.431 319.453 161.813 318.045 163.554 318.045H164.808C166.523 318.045 167.906 319.427 167.906 321.168V322.422C167.906 324.138 166.523 325.546 164.783 325.546H163.528C161.813 325.546 160.431 324.163 160.431 322.422V321.168ZM163.554 306.858C161.839 306.858 160.456 308.24 160.456 309.981V311.235C160.456 312.95 161.839 314.358 163.579 314.358H164.834C166.549 314.358 167.931 312.976 167.931 311.235V309.981C167.931 308.266 166.549 306.858 164.808 306.858H163.554Z" fill="black"/>
<path fill-rule="evenodd" clip-rule="evenodd" d="M149.218 293.776C142.331 293.776 136.776 299.357 136.776 306.218V321.782C136.776 328.669 142.357 334.224 149.218 334.224H164.783C171.669 334.224 177.224 328.643 177.224 321.782V306.218C177.224 299.331 171.643 293.776 164.783 293.776H149.218ZM164.783 298.742H149.218C145.096 298.742 141.743 302.096 141.743 306.218V321.782C141.743 325.904 145.096 329.258 149.218 329.258H164.783C168.904 329.258 172.258 325.904 172.258 321.782V306.218C172.258 302.096 168.904 298.742 164.783 298.742Z" fill="black"/>
</g>
<rect x="877" y="264" width="100" height="100" rx="8" fill="#282829"/>
<path opacity="0.8" d="M953 325.784C953 335.508 944.979 343.405 935.1 343.405H901.282V331.637H935.1C938.352 331.637 940.984 329.004 940.984 325.753C940.984 322.501 938.352 319.869 935.1 319.869H923.177V308.131H935.1C938.352 308.131 940.984 305.499 940.984 302.247C940.984 298.996 938.352 296.363 935.1 296.363H901.282V284.595H935.1C944.979 284.626 953 292.523 953 302.247C953 306.614 951.39 310.795 948.448 314.015C951.39 317.236 953 321.448 953 325.784Z" fill="#FE815F"/>
<path opacity="0.12" d="M901.282 331.637H930.331C924.168 338.759 914.351 343.405 903.295 343.405C902.614 343.405 901.964 343.374 901.313 343.343C901.282 343.374 901.282 331.637 901.282 331.637ZM936.401 319.869H925.159V308.131H936.401C937.299 312.003 937.299 316.028 936.401 319.869ZM930.331 296.363H901.282V284.657C901.933 284.626 902.614 284.595 903.264 284.595C914.32 284.626 924.137 289.241 930.331 296.363Z" fill="black"/>
<path d="M901.282 284.626C917.758 284.626 931.105 297.788 931.105 314.015C931.105 330.243 917.758 343.405 901.282 343.405V331.637C911.161 331.637 919.182 323.74 919.182 314.015C919.182 304.291 911.161 296.394 901.282 296.394V284.626Z" fill="#FF6238"/>
<rect y="62" width="100" height="100" rx="8" fill="#282829"/>
<g clip-path="url(#clip1_2048_719)">
<mask id="mask0_2048_719" style="mask-type:luminance" maskUnits="userSpaceOnUse" x="18" y="87" width="64" height="50">
<path d="M82 87.6726H18V136.381H82V87.6726Z" fill="white"/>
</mask>
<g mask="url(#mask0_2048_719)">
<path d="M21.3985 96.4514C24.9667 96.4514 28.5348 96.4514 32.1596 96.4514C32.1596 96.678 32.1596 96.9045 32.1596 97.1311C32.1596 98.0939 32.103 99.0567 32.1596 100.02C32.3295 101.775 32.7826 103.474 33.5189 105.117C34.1985 106.589 35.0481 107.892 36.1808 109.025C37.5401 110.441 39.1826 111.517 41.1083 112.083C41.2782 112.14 41.3348 112.197 41.3348 112.366C41.2782 113.273 41.4481 114.122 41.2215 115.028C40.8817 116.501 40.0322 117.52 38.7295 118.087C38.1065 118.37 37.4835 118.483 36.8038 118.483C34.6516 118.483 32.4428 118.483 30.2906 118.483C29.2711 118.483 28.3083 118.313 27.4587 117.69C26.2127 116.784 25.6463 115.482 25.6463 113.896C25.6463 109.648 25.6463 105.343 25.6463 101.096C25.6463 100.982 25.6463 100.869 25.6463 100.756C25.6463 100.133 25.2499 99.793 24.6835 99.6231C23.2109 99.17 22.1348 98.1505 21.4552 96.7912C21.4552 96.7346 21.3985 96.6213 21.3985 96.5647C21.3985 96.5647 21.3985 96.5081 21.3985 96.4514ZM27.6853 106.023C27.6853 106.816 28.2516 107.439 29.0445 107.439C29.7808 107.439 30.4605 106.816 30.4605 106.023C30.4605 105.23 29.8375 104.607 29.0445 104.551C28.3649 104.607 27.6286 105.174 27.6853 106.023Z" fill="black"/>
<path d="M39.5794 106.023C39.5794 106.703 38.9564 107.326 38.2767 107.326C37.5971 107.326 36.9741 106.703 36.9741 105.967C36.9741 105.287 37.5971 104.664 38.2767 104.664C39.013 104.721 39.6927 105.4 39.5794 106.023Z" fill="black"/>
<path d="M27.6851 106.023C27.6285 105.174 28.3648 104.607 29.0444 104.607C29.8373 104.607 30.4603 105.287 30.4603 106.08C30.4603 106.873 29.7807 107.496 29.0444 107.496C28.2515 107.439 27.6851 106.816 27.6851 106.023Z" fill="white"/>
<path d="M80.1876 120.692C80.2442 120.692 80.2442 120.692 80.1876 120.692C80.3008 120.692 80.3008 120.692 80.3575 120.692C80.4141 120.692 80.5274 120.636 80.584 120.636C80.6407 120.579 80.6407 120.579 80.6973 120.522C81.3203 120.126 81.2637 119.503 81.2637 118.88C81.2637 116.048 81.2637 113.159 81.2637 110.328C81.2637 109.421 81.1504 108.515 80.8672 107.609C79.8477 104.494 76.9592 102.228 73.561 102.228C69.9362 102.172 66.3115 102.172 62.6867 102.172C56.4566 102.172 50.2265 102.172 44.053 102.115C43.9964 102.115 43.8831 102.115 43.8265 102.115C43.7132 102.115 43.6566 102.059 43.5433 102.059C43.43 101.775 43.5433 101.605 43.8265 101.492C43.9398 101.436 43.9964 101.436 44.1097 101.379C45.8088 100.529 46.9982 99.1134 47.7345 97.3577C48.0177 96.7347 48.2442 96.055 48.3008 95.3754C48.3008 94.5825 47.9044 94.1294 47.1115 94.1294C45.5823 94.1294 44.053 94.1294 42.5238 94.0727C42.3539 94.0727 42.2407 94.0727 42.0707 94.0727C42.0707 93.9028 42.0707 93.7895 42.0707 93.6196C42.0707 92.8833 42.0707 92.1471 42.0707 91.4674C42.0707 91.1276 42.0141 90.7878 41.9575 90.5046C41.561 89.0887 40.1451 88.1258 38.5026 88.4656C37.3699 88.6922 36.3504 89.7683 36.2938 90.901C36.2371 91.8072 36.2371 92.7134 36.2371 93.6196C36.2371 93.7895 36.2371 93.9594 36.2371 94.0727H30.8566C30.8566 93.9028 30.8566 93.7329 30.8566 93.563C30.8566 92.7701 30.8566 91.9771 30.8566 91.1842C30.8 89.2586 28.9309 87.8426 26.9486 88.5223C25.7592 88.9187 24.9663 90.1081 24.9663 91.4108C24.9663 92.1471 24.9663 92.8833 24.9663 93.6196C24.9663 93.7895 24.9663 93.9028 24.9663 94.0727C24.7964 94.0727 24.6265 94.0727 24.4566 94.0727C22.9274 94.0727 21.3982 94.0727 19.869 94.1294C19.1327 94.1294 18.6796 94.5825 18.7362 95.3187C18.7929 95.7718 18.9061 96.2249 19.0194 96.6214C19.6991 98.717 21.0017 100.359 22.984 101.379C23.3805 101.605 23.4938 101.775 23.4938 102.228C23.4938 106.25 23.4938 110.214 23.4938 114.236C23.4938 114.802 23.5504 115.368 23.7203 115.878C24.5132 118.483 26.2123 120.126 28.8177 120.636C28.8743 120.636 28.9309 120.692 28.9876 120.692H29.0442C29.0442 120.692 29.1008 120.692 29.1575 120.692C29.2141 120.692 29.2707 120.692 29.2707 120.749C29.3274 120.749 29.384 120.749 29.4407 120.749C29.6672 120.749 29.8371 120.749 30.0637 120.749C30.1203 120.749 30.1769 120.749 30.2336 120.749C30.5734 120.749 30.9132 120.749 31.253 120.749C31.3663 120.749 31.423 120.749 31.5362 120.749H35.6707C35.7274 120.749 35.784 120.749 35.8407 120.749C36.407 120.749 36.7469 121.032 37.03 121.485C37.1433 121.768 37.3132 122.108 37.3132 122.448C37.3132 122.505 37.3132 122.505 37.3132 122.561C37.3132 122.788 37.3132 123.071 37.3132 123.298C37.3132 123.354 37.3132 123.354 37.3132 123.411C37.3699 124.317 37.3699 125.28 37.4265 126.186C37.4831 127.602 37.5398 129.018 37.5964 130.434C37.653 131.51 37.6531 132.586 37.6531 133.662C37.7097 134.738 38.446 135.531 39.4088 135.588C41.6743 135.588 43.8831 135.588 46.1486 135.588C46.9415 135.588 47.6212 135.021 47.7911 134.228C48.0177 133.266 48.2442 132.246 48.4141 131.283C48.6407 130.264 48.8672 129.301 49.0938 128.282C49.207 128.282 49.207 128.225 49.2637 128.225C53.9079 128.225 58.4955 128.225 63.1398 128.225C63.423 128.225 63.4796 128.338 63.5362 128.565C63.6495 129.188 63.8194 129.811 63.9327 130.49C64.2159 131.68 64.4424 132.926 64.7256 134.115C64.8955 134.908 65.6318 135.588 66.4247 135.644C68.6902 135.644 70.8991 135.644 73.1646 135.644C74.0708 135.644 74.8637 134.851 74.9203 133.889C74.9769 132.756 75.0336 131.623 75.0902 130.434C75.1469 129.018 75.2601 127.602 75.3168 126.129C75.3734 125.28 75.3734 124.487 75.43 123.637C75.4867 122.165 75.6 120.749 75.6566 119.276C75.7699 117.69 75.8265 116.048 75.8831 114.462C75.9398 113.103 76.0531 111.744 76.0531 110.384C76.0531 108.402 75.3734 106.646 74.184 105.174C74.1274 105.117 74.0708 105.004 74.0141 104.89C74.1274 104.89 74.184 104.89 74.2407 104.89C76.6761 105.23 78.6017 107.496 78.6017 109.988C78.6017 112.99 78.6017 115.935 78.6017 118.936C78.6017 119.503 78.6584 120.069 79.1115 120.466C79.5646 120.636 79.8477 120.692 80.1876 120.692ZM38.446 91.3541C38.446 91.0143 38.7858 90.6745 39.1256 90.6745C39.4088 90.6745 39.8053 90.901 39.8053 91.2409C39.8053 92.2037 39.8053 93.1099 39.8053 94.0727H38.446C38.446 93.1099 38.446 92.2037 38.446 91.3541ZM38.3327 104.721C39.0123 104.721 39.692 105.4 39.6354 106.08C39.6354 106.759 39.0123 107.382 38.3327 107.382C37.6531 107.382 37.03 106.759 37.03 106.023C37.03 105.344 37.6531 104.721 38.3327 104.721ZM27.1752 91.5241C27.1752 91.3541 27.1752 91.1842 27.2884 91.071C27.4017 90.7878 27.7415 90.6179 27.9681 90.6745C28.3079 90.7311 28.5345 91.0143 28.5345 91.3541C28.5345 92.2037 28.5345 93.0533 28.5345 93.9028C28.5345 93.9594 28.5345 93.9594 28.4778 94.0727H27.2318C27.2318 93.9594 27.1752 93.9028 27.1752 93.7895C27.1752 93.0533 27.1752 92.2603 27.1752 91.5241ZM38.7292 118.144C38.1061 118.427 37.4831 118.54 36.8035 118.54C34.6513 118.54 32.4424 118.54 30.2902 118.54C29.2707 118.54 28.3079 118.37 27.4584 117.747C26.2123 116.841 25.646 115.538 25.646 113.952C25.646 109.705 25.646 105.4 25.646 101.152C25.646 101.039 25.646 100.926 25.646 100.813C25.646 100.19 25.2495 99.8497 24.6831 99.6798C23.2106 99.2267 22.1345 98.2072 21.4548 96.8479C21.4548 96.7347 21.3982 96.6214 21.3982 96.5648C21.3982 96.5648 21.3982 96.5081 21.3982 96.4515H32.1592C32.1592 96.678 32.1592 96.9046 32.1592 97.1311C32.1592 98.094 32.1026 99.0568 32.1592 100.02C32.3292 101.775 32.7823 103.474 33.5185 105.117C34.1982 106.59 35.0477 107.892 36.1805 109.025C37.5398 110.441 39.1823 111.517 41.1079 112.083C41.2778 112.14 41.3345 112.197 41.3345 112.367C41.2778 113.273 41.4477 114.122 41.2212 115.028C40.938 116.501 40.0884 117.521 38.7292 118.144ZM73.6176 111.121C73.5044 112.536 73.4477 113.952 73.3911 115.368C73.2778 117.181 73.2212 118.993 73.1079 120.805C72.9946 122.844 72.8814 124.94 72.7681 126.979C72.7115 128.225 72.5982 129.471 72.5415 130.717C72.4849 131.51 72.4283 132.246 72.3716 133.096H67.161C66.538 130.66 66.0849 128.225 65.4619 125.733C65.292 125.733 65.1787 125.676 65.0654 125.676C59.1752 125.676 53.2849 125.676 47.4513 125.676C46.9982 125.676 46.9982 125.733 46.8849 126.129C46.6584 127.205 46.3752 128.338 46.1486 129.414C45.9221 130.434 45.6955 131.51 45.469 132.529C45.3557 133.039 45.3557 133.039 44.9026 133.039C43.43 133.039 42.0141 133.039 40.5982 133.039C40.1451 133.039 40.1451 133.039 40.1451 132.529C40.1451 129.698 40.0884 126.866 40.0884 124.09C40.0884 122.844 40.0884 121.598 40.0318 120.352C40.0318 120.069 40.0884 119.899 40.3716 119.786C41.7876 118.936 42.807 117.69 43.3168 116.048C43.4867 115.538 43.5433 115.028 43.5433 114.519C43.5433 111.46 43.5433 108.402 43.5433 105.344C43.5433 105.23 43.5433 105.117 43.5433 105.004C43.5433 104.777 43.6566 104.721 43.8265 104.721C43.9398 104.721 44.0531 104.721 44.1663 104.721C46.0354 104.721 47.8477 104.721 49.7168 104.721H67.3876V104.777C68.2938 104.777 69.1433 104.777 70.0495 104.777C70.3327 104.777 70.5592 104.89 70.7292 105.117C71.1256 105.57 71.4654 105.967 71.8619 106.363C73.1079 107.666 73.7876 109.251 73.6176 111.121Z" fill="white"/>
<path d="M80.244 121.428H80.1873C79.8475 121.428 79.3944 121.372 78.9413 121.145L78.6581 121.032L78.6015 120.862C78.0918 120.296 78.0351 119.559 78.0351 118.936C78.0351 116.274 78.0351 113.613 78.0351 110.951V109.988C78.0351 108.402 77.1289 106.929 75.7696 106.136C76.5059 107.496 76.9024 108.912 76.8458 110.441C76.8458 111.404 76.7891 112.366 76.7325 113.273C76.7325 113.726 76.6758 114.122 76.6758 114.575L76.6192 116.274C76.5626 117.351 76.5059 118.37 76.4493 119.446C76.3927 120.296 76.336 121.089 76.2794 121.938C76.2227 122.561 76.2227 123.184 76.1661 123.807C76.1661 124.26 76.1095 124.713 76.1095 125.166C76.1095 125.563 76.0528 125.903 76.0528 126.299C75.9962 127.149 75.9396 127.942 75.9396 128.791L75.7696 131.397C75.713 132.246 75.6564 133.152 75.6564 134.002C75.5997 135.305 74.467 136.381 73.221 136.381C70.9555 136.381 68.7466 136.381 66.4812 136.381C65.3484 136.381 64.3289 135.474 64.1024 134.342C63.9325 133.549 63.7626 132.699 63.5927 131.906L63.2528 130.377C63.1396 129.924 63.0829 129.528 62.9697 129.074C59.5148 129.074 56.1166 129.074 52.7183 129.074H49.7166L49.6033 129.471C49.4334 130.151 49.2635 130.83 49.1502 131.566C49.0935 131.963 48.9803 132.303 48.9236 132.699C48.8104 133.322 48.6404 133.889 48.5272 134.512C48.244 135.644 47.2812 136.437 46.205 136.437C45.0157 136.437 43.8829 136.437 42.7502 136.437C41.6174 136.437 40.5413 136.437 39.4652 136.437C38.1059 136.437 37.0298 135.305 37.0298 133.832C37.0298 133.322 37.0298 132.756 36.9732 132.246C36.9732 131.68 36.9732 131.17 36.9166 130.604C36.9166 129.641 36.8599 128.678 36.8033 127.715L36.6334 123.467V123.411C36.6334 123.184 36.6334 122.958 36.6334 122.731V122.674V122.561C36.6334 122.448 36.5767 122.278 36.4068 121.882C36.2935 121.655 36.1236 121.542 35.8404 121.542H35.7838C35.7272 121.542 35.6705 121.542 35.6705 121.542H35.0475H31.536C31.4794 121.542 31.3661 121.542 31.3095 121.542H31.2528H31.0263C30.7431 121.542 30.4599 121.542 30.1767 121.542C30.1201 121.542 30.1201 121.542 30.0635 121.542C29.8369 121.542 29.6104 121.542 29.4404 121.542L28.9873 121.485L28.7042 121.372C25.8723 120.805 23.9466 119.05 23.0971 116.161C22.9272 115.651 22.8705 115.028 22.8705 114.292C22.8705 110.441 22.8705 106.42 22.8705 102.285C22.8705 102.172 22.8705 102.115 22.8705 102.115C22.8705 102.115 22.8139 102.115 22.7573 102.059C20.6617 100.982 19.2458 99.2833 18.4528 96.9045C18.2829 96.4514 18.1696 95.9417 18.113 95.432C18.0564 94.9222 18.2263 94.4125 18.5661 94.0727C18.9059 93.7329 19.4157 93.5063 19.9254 93.5063C21.0581 93.5063 22.1909 93.5063 23.3236 93.5063H24.3431V93.2798C24.3431 92.6567 24.3431 92.0337 24.3431 91.4674C24.3431 89.8249 25.3059 88.409 26.7785 87.8992C27.9112 87.5028 29.1006 87.6727 30.0635 88.3523C30.9696 89.032 31.536 90.0514 31.5927 91.1842C31.5927 91.7506 31.5927 92.3169 31.5927 92.8267C31.5927 92.9966 31.5927 93.1665 31.5927 93.393H35.6139C35.6139 93.1665 35.6139 92.9399 35.6139 92.7134C35.6139 92.0904 35.6139 91.4674 35.6705 90.8444C35.7272 89.3718 36.9166 88.0691 38.3891 87.7293C40.2581 87.3329 42.1272 88.4656 42.6369 90.278C42.7502 90.6178 42.7502 90.9576 42.8068 91.4107C42.8068 91.9205 42.8068 92.3736 42.8068 92.8833C42.8068 93.0532 42.8068 93.2231 42.8068 93.3364H44.4493C45.3555 93.3364 46.2617 93.3364 47.1679 93.3364C47.7343 93.3364 48.244 93.5063 48.5838 93.8461C48.9236 94.186 49.0935 94.6957 49.0369 95.2621C49.0369 96.1116 48.6971 96.8479 48.4139 97.5275C47.7343 99.1134 46.7148 100.359 45.4121 101.266H49.7166C54.0776 101.266 58.382 101.266 62.7431 101.266C66.7643 101.266 70.1626 101.266 73.6174 101.322C77.2422 101.379 80.4139 103.701 81.5466 107.213C81.8298 108.062 81.9431 109.025 81.9997 110.158C81.9997 111.913 81.9997 113.669 81.9997 115.425C81.9997 116.501 81.9997 117.634 81.9997 118.71C81.9997 119.163 81.9997 119.729 81.7165 120.239L80.244 121.428ZM37.9927 123.524L38.1626 127.602C38.2192 128.565 38.2192 129.528 38.2758 130.49C38.2758 131.057 38.2758 131.566 38.3325 132.133C38.3325 132.643 38.3325 133.209 38.3891 133.719C38.3891 134.398 38.8989 134.908 39.4652 134.965C41.5608 134.965 43.7696 134.965 46.205 134.965C46.6581 134.965 47.1112 134.625 47.2245 134.115C47.3378 133.492 47.5077 132.926 47.621 132.303C47.6776 131.906 47.7909 131.51 47.8475 131.17C48.0174 130.49 48.1873 129.811 48.3006 129.074L48.5838 127.772L49.0369 127.659C49.0935 127.659 49.2068 127.602 49.3201 127.602H52.7183C56.2298 127.602 59.6847 127.602 63.1962 127.602C63.7626 127.602 64.159 127.942 64.2723 128.508C64.3856 129.018 64.4989 129.528 64.6121 129.981L64.952 131.51C65.1219 132.359 65.2918 133.152 65.4617 134.002C65.575 134.512 66.0281 134.965 66.5378 134.965C68.8033 134.965 71.0121 134.965 73.2776 134.965C73.7873 134.965 74.2971 134.455 74.3537 133.889C74.4104 133.039 74.467 132.133 74.467 131.283L74.6369 128.678C74.6935 127.828 74.7502 127.036 74.7502 126.186C74.7502 125.789 74.8068 125.45 74.8068 125.053C74.8068 124.6 74.8635 124.147 74.8635 123.694C74.9201 123.071 74.9201 122.448 74.9767 121.825C75.0334 120.975 75.09 120.182 75.1466 119.333C75.2033 118.257 75.2599 117.237 75.3165 116.161L75.3732 114.462C75.3732 114.009 75.4298 113.613 75.4298 113.159C75.4865 112.253 75.5431 111.29 75.5431 110.384C75.5431 108.685 74.9767 107.043 73.844 105.627C73.7873 105.57 73.7307 105.457 73.6741 105.4L72.9378 104.324L74.1838 104.211C74.2404 104.211 74.3537 104.211 74.467 104.211C77.1856 104.607 79.4511 107.156 79.4511 109.988V110.951C79.4511 113.613 79.4511 116.274 79.4511 118.936C79.4511 119.389 79.5077 119.673 79.6776 119.899C79.7909 119.956 79.9042 119.956 80.0174 119.956H80.244H80.3006C80.3006 119.956 80.3006 119.956 80.3573 119.956H80.4139C80.6971 119.786 80.6971 119.559 80.6971 118.936C80.6971 117.804 80.6971 116.728 80.6971 115.595C80.6971 113.839 80.6971 112.083 80.6971 110.328C80.6971 109.365 80.5838 108.572 80.3573 107.836C79.3944 104.947 76.7325 102.965 73.7307 102.908C70.2758 102.851 66.8776 102.851 62.8564 102.851C58.4953 102.851 54.1909 102.851 49.8298 102.851H44.2227H44.0528C43.9396 102.851 43.8829 102.851 43.7696 102.851C43.6564 102.851 43.5997 102.795 43.4865 102.795L43.0334 102.682L42.9201 102.285C42.6935 101.662 42.9767 101.096 43.5997 100.869C43.6564 100.813 43.7696 100.813 43.8263 100.756C45.2989 99.9629 46.4316 98.7736 47.1679 97.0744C47.3944 96.5081 47.621 95.9417 47.6776 95.3753C47.6776 95.1488 47.6776 95.0355 47.5643 94.9789C47.5077 94.9222 47.3378 94.8656 47.1679 94.8656C46.2617 94.8656 45.3555 94.8656 44.4493 94.8656H42.5803C42.467 94.8656 42.3537 94.8656 42.2404 94.8656L41.4475 94.809L41.3909 94.016C41.3909 93.9028 41.3909 93.7895 41.3909 93.6762C41.3909 93.4497 41.3909 93.1665 41.3909 92.9399C41.3909 92.4868 41.3909 91.9771 41.3909 91.524C41.3909 91.2975 41.3909 90.9576 41.2776 90.7311C40.9944 89.7683 39.975 88.9187 38.6157 89.1452C37.7661 89.3152 36.9732 90.1647 36.9166 90.9576C36.8599 91.524 36.8599 92.147 36.8599 92.77C36.8599 93.0532 36.8599 93.3364 36.8599 93.6196C36.8599 93.7329 36.8599 93.8461 36.8033 93.9594L36.7466 94.7523H30.1201V93.5629C30.1201 93.3364 30.1201 93.0532 30.1201 92.8267C30.1201 92.3169 30.1201 91.7506 30.1201 91.2408C30.1201 90.5045 29.7803 89.8815 29.1573 89.4851C28.5909 89.0886 27.798 88.9753 27.1183 89.2019C26.2121 89.4851 25.6458 90.3913 25.6458 91.4107C25.6458 92.0337 25.6458 92.6567 25.6458 93.2798V93.6762C25.6458 93.7895 25.6458 93.9028 25.6458 94.016L25.5891 94.809H23.267C22.1343 94.809 21.0015 94.809 19.8688 94.809C19.6989 94.809 19.5856 94.8656 19.4723 94.9222C19.4157 94.9789 19.4157 95.1488 19.4157 95.2621C19.4157 95.6585 19.5856 96.055 19.6989 96.3948C20.3219 98.3771 21.5679 99.8497 23.267 100.699C23.89 101.039 24.1732 101.492 24.1732 102.172C24.1732 106.306 24.1732 110.328 24.1732 114.179C24.1732 114.745 24.2298 115.255 24.3431 115.651C25.0794 118.03 26.552 119.446 28.9307 119.899C29.044 119.899 29.1573 119.956 29.2139 120.013C29.2139 120.013 29.2139 120.013 29.2705 120.013H29.3272C29.3838 120.013 29.3838 120.013 29.4404 120.013C29.6104 120.013 29.7803 120.013 30.0068 120.013C30.0068 120.013 30.0635 120.013 30.1201 120.013C30.4033 120.013 30.6865 120.013 31.0263 120.013H31.1396C31.2528 120.013 31.3661 120.013 31.4794 120.013H36.2935V120.069C36.8599 120.182 37.313 120.579 37.5962 121.145C37.7095 121.428 37.936 121.882 37.936 122.335C37.936 122.391 37.936 122.448 37.936 122.561C37.936 122.788 37.936 123.014 37.936 123.241C37.9927 123.411 37.9927 123.467 37.9927 123.524ZM40.598 133.832C39.7484 133.832 39.4652 133.492 39.4652 132.643L39.4086 123.694C39.4086 122.618 39.4086 121.485 39.352 120.409C39.352 119.899 39.5785 119.503 40.0316 119.22C41.3343 118.427 42.2404 117.294 42.6935 115.878C42.8068 115.482 42.8635 115.028 42.8635 114.519C42.8635 112.197 42.8635 109.931 42.8635 107.609V105.287V105.23C42.8635 105.174 42.8635 105.117 42.8635 105.004C42.8635 104.607 42.9767 104.381 43.1466 104.267C43.2599 104.154 43.4865 103.984 43.8829 103.984H45.2989C46.6015 103.984 47.9042 103.984 49.2635 103.984H49.7166H68.067V104.097C68.69 104.097 69.3696 104.097 69.9927 104.097C70.5024 104.097 70.8989 104.267 71.182 104.664C71.5219 105.06 71.9183 105.457 72.3148 105.91C73.7873 107.382 74.467 109.195 74.2971 111.234C74.2404 112.197 74.1838 113.216 74.1272 114.179L73.7873 120.862C73.6741 122.901 73.5608 124.997 73.4475 127.036C73.3909 128.055 73.3342 129.074 73.2776 130.151L73.0511 133.832H66.7077L66.5944 133.322C66.2546 132.02 65.9714 130.66 65.6882 129.358C65.4617 128.395 65.2351 127.432 65.0086 126.469C59.2316 126.469 53.4546 126.469 47.621 126.469C47.4511 127.149 47.3378 127.828 47.1679 128.508L46.8281 129.924C46.6015 130.887 46.375 131.85 46.1484 132.869C45.9785 133.662 45.6953 133.889 44.9024 133.889L40.598 133.832ZM40.7679 120.409C40.7679 121.542 40.7679 122.618 40.8245 123.694V132.416H44.8458C45.0723 131.453 45.2989 130.49 45.4688 129.528L45.8086 128.112C45.9785 127.432 46.1484 126.752 46.2617 126.016C46.4316 125.336 46.6581 124.997 47.4511 124.997C53.3413 124.997 59.2316 124.997 65.0652 124.997C65.1785 124.997 65.2918 124.997 65.405 124.997L66.0281 125.053L66.1413 125.563C66.4245 126.696 66.6511 127.828 66.9342 128.961C67.1608 130.094 67.444 131.227 67.7272 132.359H71.805L71.975 129.981C72.0316 128.961 72.0882 127.942 72.1449 126.922C72.2581 124.883 72.3714 122.788 72.4847 120.749L72.8245 114.066C72.8812 113.046 72.9378 112.083 72.9944 111.064C73.1077 109.421 72.598 108.062 71.4086 106.816C71.0121 106.363 70.559 105.966 70.2192 105.513C70.1626 105.457 70.1626 105.457 70.0493 105.457C69.1431 105.457 68.2935 105.457 67.3873 105.457H66.7077V105.4H49.7732C48.3006 105.4 46.8281 105.4 45.3555 105.4H44.336V107.666C44.336 109.988 44.336 112.253 44.336 114.575C44.336 115.198 44.2227 115.821 44.0528 116.331C43.4298 118.087 42.3537 119.446 40.7679 120.409ZM30.29 119.22C28.9873 119.22 27.9679 118.936 27.0617 118.257C25.6458 117.237 24.9661 115.765 24.9095 113.896C24.9095 110.894 24.9095 107.892 24.9095 104.947V100.982C24.9095 100.926 24.9095 100.813 24.9095 100.756C24.9095 100.586 24.8528 100.416 24.4564 100.303C22.8705 99.793 21.6812 98.7169 20.8316 97.1311C20.775 97.0178 20.7183 96.9045 20.7183 96.7913C20.6617 96.6214 20.6617 96.4514 20.7183 96.3948L20.8316 95.8284L21.398 95.7718H32.8387V97.1311C32.8387 97.4143 32.8387 97.7541 32.8387 98.0373C32.8387 98.7169 32.8387 99.3399 32.8953 99.9629C33.0086 101.549 33.4617 103.191 34.198 104.777C34.821 106.193 35.6705 107.496 36.69 108.515C38.1059 109.988 39.5785 110.894 41.2776 111.404C42.0139 111.63 42.0139 112.197 42.0139 112.366C42.0139 112.65 42.0139 112.933 42.0139 113.216C42.0139 113.839 42.0705 114.462 41.9006 115.142C41.5608 116.784 40.5413 117.974 39.0121 118.71C38.3891 118.993 37.7095 119.163 36.8033 119.163H34.4245C33.0652 119.163 31.7059 119.163 30.29 119.22ZM22.4741 97.1311C23.0971 98.0373 23.89 98.6603 24.9095 98.9435C26.0989 99.3399 26.3254 100.189 26.3254 100.699C26.3254 100.813 26.3254 100.926 26.3254 100.982V104.89C26.3254 107.892 26.3254 110.837 26.3254 113.839C26.3254 115.198 26.8351 116.274 27.8546 117.067C28.4776 117.52 29.2705 117.747 30.29 117.747C31.6493 117.747 33.0652 117.747 34.4245 117.747H36.8033C37.4829 117.747 37.9927 117.634 38.4458 117.464C39.5785 116.954 40.3148 116.105 40.5413 114.859C40.6546 114.349 40.6546 113.839 40.598 113.273C40.598 113.103 40.598 112.876 40.598 112.706C38.7856 112.14 37.1431 111.064 35.6705 109.535C34.5378 108.402 33.6316 106.986 32.8953 105.4C32.1024 103.644 31.6493 101.889 31.4794 100.076C31.4227 99.3966 31.4227 98.6603 31.4227 98.0373C31.4227 97.7541 31.4227 97.4709 31.4227 97.1877H22.4741V97.1311ZM38.3325 108.062C37.8227 108.062 37.313 107.836 36.9166 107.439C36.5201 107.043 36.3502 106.533 36.3502 106.023C36.3502 104.947 37.2564 104.041 38.3325 104.041C38.8989 104.041 39.4652 104.324 39.805 104.777C40.1449 105.174 40.3148 105.683 40.2581 106.136C40.2581 107.156 39.352 108.062 38.3325 108.062ZM38.2758 105.4C37.9927 105.4 37.7095 105.683 37.7095 106.023C37.7095 106.136 37.7661 106.306 37.8794 106.42C37.9927 106.533 38.1626 106.646 38.3325 106.646C38.6157 106.646 38.8989 106.363 38.8989 106.023V105.966C38.8989 105.853 38.8422 105.74 38.7856 105.627C38.6723 105.513 38.4458 105.4 38.2758 105.4ZM29.044 94.809H26.6652L26.552 94.186C26.552 94.1293 26.4953 94.016 26.4953 93.8461C26.4953 93.0532 26.4953 92.3169 26.4953 91.524C26.4953 91.2408 26.552 90.9576 26.6652 90.7877C26.8918 90.2214 27.5714 89.8815 28.1378 89.9948C28.8174 90.1081 29.2705 90.6744 29.2705 91.3541C29.2705 92.0337 29.2705 92.7134 29.2705 93.3364V93.9028C29.2705 94.0727 29.2139 94.186 29.2139 94.2426L29.044 94.809ZM40.4847 94.7523H37.7661V93.2798C37.7661 92.6001 37.7661 91.9771 37.7661 91.3541C37.7661 90.6178 38.3325 90.0514 39.0688 89.9948C39.4086 89.9948 39.805 90.1081 40.0882 90.3346C40.3714 90.5612 40.4847 90.901 40.5413 91.2408C40.5413 91.9205 40.5413 92.6001 40.5413 93.2798L40.4847 94.7523Z" fill="white"/>
<path d="M71.8625 106.363C71.4661 105.966 71.0696 105.513 70.7298 105.117C70.5599 104.89 70.3333 104.777 70.0501 104.777C69.4271 104.777 68.8041 104.777 68.2377 104.777V104.72H51.19C51.02 104.72 50.9068 104.72 50.7369 104.72C48.528 104.72 46.3192 104.72 44.1103 104.72C43.997 104.72 43.8838 104.72 43.7705 104.72C43.5439 104.72 43.4873 104.834 43.4873 105.004C43.4873 105.117 43.4873 105.23 43.4873 105.343C43.4873 108.402 43.4873 111.46 43.4873 114.519C43.4873 115.028 43.4307 115.595 43.2608 116.048C42.751 117.634 41.7882 118.88 40.3156 119.786C40.0891 119.956 39.9758 120.069 39.9758 120.352C39.9758 121.598 39.9758 122.844 40.0324 124.09C40.0324 126.922 40.0891 129.754 40.0891 132.529C40.0891 132.982 40.0891 133.039 40.5422 133.039C42.0147 133.039 43.4307 133.039 44.8466 133.039C45.2997 133.039 45.2997 133.039 45.413 132.529C45.6395 131.51 45.8661 130.434 46.0926 129.414C46.3192 128.338 46.6023 127.205 46.8289 126.129C46.9422 125.676 46.9422 125.676 47.3953 125.676C53.2855 125.676 59.1758 125.676 65.0094 125.676C65.1227 125.676 65.2926 125.676 65.4059 125.733C65.9723 128.225 66.482 130.66 67.105 133.096C68.8608 133.096 70.5599 133.096 72.3156 133.096C72.3723 132.246 72.4289 131.51 72.4855 130.717C72.5422 129.471 72.6554 128.225 72.7121 126.979C72.8254 124.94 72.9386 122.844 73.0519 120.805C73.1652 118.993 73.2218 117.181 73.3351 115.368C73.3917 113.952 73.4484 112.536 73.5616 111.12C73.7882 109.251 73.1085 107.666 71.8625 106.363Z" fill="black"/>
<path d="M52.7757 112.423C55.3244 112.423 57.42 110.328 57.42 107.722C57.42 105.117 55.381 102.965 52.7757 102.965C50.2271 102.965 48.1315 105.06 48.1315 107.666C48.1315 110.271 50.2271 112.423 52.7757 112.423Z" fill="white"/>
<path d="M66.0849 121.768C68.2371 121.768 69.9929 120.013 69.9929 117.804C69.9929 115.595 68.2371 113.839 66.0849 113.839C63.9327 113.839 62.1769 115.595 62.1769 117.804C62.1769 120.013 63.9327 121.768 66.0849 121.768Z" fill="white"/>
<path d="M52.889 127.206C55.0412 127.149 57.1934 127.432 59.289 127.715C59.3456 127.715 59.4022 127.715 59.4589 127.715C59.5155 127.375 59.5155 127.092 59.5155 126.752C59.5155 123.241 56.7403 120.409 53.2854 120.409C49.8306 120.409 47.0553 123.241 47.0553 126.752C47.0553 127.375 47.1686 127.942 47.2819 128.508C48.7545 127.092 51.0199 127.262 52.889 127.206Z" fill="white"/>
<path d="M55.8338 102.682C55.6638 102.682 55.5506 102.682 55.4373 102.625C54.8709 103.248 54.5877 103.928 54.5877 104.721C54.5877 106.816 56.9099 108.515 59.7984 108.515C62.6869 108.515 65.009 106.816 65.009 104.721C65.009 103.984 64.7258 103.248 64.2161 102.682H55.8338Z" fill="white"/>
<path d="M37.03 106.023C36.9734 105.174 37.7097 104.607 38.3893 104.607C39.1822 104.607 39.8052 105.287 39.8052 106.08C39.8052 106.873 39.1256 107.496 38.3893 107.496C37.5964 107.439 37.03 106.816 37.03 106.023Z" fill="black"/>
<path d="M28.6475 93.4498C28.0245 93.4498 27.4015 93.4498 26.7785 93.4498C26.7785 93.3365 26.7218 93.2232 26.7218 93.1099C26.7218 92.1471 26.7218 92.4303 26.7218 91.4108C26.7218 91.1843 26.7785 90.9577 26.8351 90.7878C27.005 90.448 27.5147 90.2214 27.8546 90.2781C28.3643 90.3914 28.7608 90.7312 28.7608 91.2409C28.7608 92.317 28.7608 92.1471 28.7608 93.2799C28.7608 93.2799 28.7041 93.3365 28.6475 93.4498Z" fill="black"/>
<path d="M40.089 93.4498C39.466 93.4498 38.8429 93.4498 38.2199 93.4498C38.2199 93.3365 38.1633 93.2232 38.1633 93.1099C38.1633 92.1471 38.1633 92.4303 38.1633 91.4108C38.1633 91.1843 38.2199 90.9577 38.2766 90.7878C38.4465 90.448 38.9562 90.2214 39.296 90.2781C39.8058 90.3347 40.1456 90.7312 40.1456 91.1843C40.1456 92.2604 40.1456 92.0905 40.1456 93.2232C40.1456 93.2799 40.089 93.3365 40.089 93.4498Z" fill="black"/>
</g>
</g>
<rect x="348" y="361" width="100" height="100" rx="8" fill="#282829"/>
<g clip-path="url(#clip2_2048_719)">
<path fill-rule="evenodd" clip-rule="evenodd" d="M377.4 389C376.4 383.8 380.4 379 385.6 379C390.2 379 394 382.8 394 387.4V397.8C395.2 397.8 396.4 397.6 397.6 397.6C398.8 397.6 399.8 397.6 401 397.8V387.4C401 382.8 404.8 379 409.4 379C414.6 379 418.6 383.8 417.8 389L415.6 401.2C423.4 404.6 429.4 410.6 429.4 418V422.6C429.4 428.8 425.4 434 419.6 437.4C413.8 441 406.2 443 397.6 443C389 443 381.4 441 375.6 437.4C370 434 366 428.8 366 422.6V418C366 410.6 371.8 404.6 379.6 401.2L377.4 389ZM412.6 402.8L415.2 388.4C415.8 384.8 413.2 381.4 409.4 381.4C406.2 381.4 403.6 384 403.6 387.2V400.4C402.8 400.2 401.8 400.2 401 400.2C399.8 400.2 398.8 400 397.6 400C396.4 400 395.2 400 394 400.2C393.2 400.2 392.2 400.4 391.4 400.4V387.4C391.4 384.2 388.8 381.6 385.6 381.6C382 381.6 379.2 385 380 388.6L382.6 403C374.2 406.2 368.6 411.8 368.6 418.2V422.8C368.6 432.6 381.6 440.6 397.6 440.6C413.6 440.6 426.6 432.6 426.6 422.8V418.2C426.8 411.6 421.2 406 412.6 402.8Z" fill="#633001"/>
<path d="M426.8 422.6C426.8 432.4 413.8 440.4 397.8 440.4C381.8 440.4 368.8 432.4 368.8 422.6V418H427V422.6H426.8Z" fill="#FEDC90"/>
<path fill-rule="evenodd" clip-rule="evenodd" d="M380 388.6C379.2 385 382 381.6 385.6 381.6C388.8 381.6 391.4 384.2 391.4 387.4V400.6C393.4 400.4 395.4 400.2 397.6 400.2C399.6 400.2 401.6 400.4 403.6 400.6V387.4C403.6 384.2 406.2 381.6 409.4 381.6C413 381.6 415.8 385 415.2 388.6L412.6 403C421 406.2 426.8 411.8 426.8 418.2C426.8 428 413.8 436 397.8 436C381.8 436 368.8 428 368.8 418.2C368.8 411.8 374.4 406.2 382.8 403L380 388.6Z" fill="#D1884F"/>
<path d="M389.6 416.8C389.6 419.4 388.2 421.6 386.4 421.6C384.6 421.6 383.2 419.4 383.2 416.8C383.2 414.2 384.6 412 386.4 412C388.2 412 389.6 414.2 389.6 416.8Z" fill="#633001"/>
<path d="M411.8 416.8C411.8 419.4 410.4 421.6 408.6 421.6C406.8 421.6 405.4 419.4 405.4 416.8C405.4 414.2 406.8 412 408.6 412C410.4 412 411.8 414.2 411.8 416.8Z" fill="#633001"/>
</g>
<rect x="636" y="361" width="100" height="100" rx="8" fill="#282829"/>
<g clip-path="url(#clip3_2048_719)">
<path d="M667.232 409.207C667.232 408.852 667.302 408.5 667.438 408.172C667.575 407.844 667.775 407.546 668.027 407.295C668.279 407.045 668.577 406.846 668.906 406.711C669.235 406.576 669.587 406.508 669.943 406.51L674.437 406.524C675.154 406.524 675.841 406.809 676.348 407.316C676.855 407.822 677.14 408.51 677.14 409.226V426.223C677.646 426.073 678.294 425.913 679.007 425.745C679.5 425.629 679.941 425.349 680.256 424.952C680.571 424.554 680.742 424.061 680.742 423.554V402.472C680.742 401.756 681.027 401.068 681.534 400.561C682.041 400.055 682.728 399.77 683.445 399.77H687.953C688.67 399.77 689.357 400.055 689.864 400.561C690.37 401.068 690.655 401.756 690.655 402.472V422.039C690.655 422.039 691.783 421.583 692.881 421.119C693.289 420.947 693.637 420.658 693.882 420.289C694.127 419.92 694.258 419.487 694.258 419.044V395.717C694.258 395 694.543 394.313 695.049 393.806C695.556 393.299 696.243 393.015 696.96 393.014H701.463C702.179 393.015 702.866 393.3 703.372 393.807C703.878 394.314 704.163 395 704.163 395.717V414.926C708.067 412.096 712.024 408.692 715.165 404.6C715.62 404.006 715.922 403.308 716.042 402.57C716.162 401.831 716.098 401.073 715.855 400.366C714.401 396.184 712.09 392.351 709.071 389.113C706.051 385.876 702.389 383.304 698.318 381.563C694.247 379.822 689.858 378.95 685.431 379.002C681.004 379.055 676.637 380.031 672.608 381.868C668.58 383.706 664.98 386.364 662.038 389.672C659.096 392.981 656.877 396.867 655.524 401.083C654.17 405.298 653.711 409.75 654.176 414.152C654.642 418.555 656.021 422.813 658.226 426.652C658.61 427.314 659.175 427.853 659.855 428.205C660.535 428.557 661.301 428.708 662.064 428.64C662.916 428.565 663.977 428.459 665.238 428.311C665.786 428.249 666.293 427.986 666.661 427.574C667.029 427.163 667.233 426.63 667.234 426.077V409.207" fill="white"/>
<path d="M667.135 436.466C671.882 439.919 677.492 441.992 683.344 442.455C689.196 442.918 695.062 441.753 700.294 439.089C705.525 436.425 709.917 432.366 712.984 427.361C716.051 422.356 717.674 416.599 717.673 410.729C717.673 409.994 717.639 409.272 717.591 408.551C705.964 425.891 684.497 433.998 667.135 436.466Z" fill="#F0B90B"/>
</g>
<rect x="964" y="43" width="100" height="100" rx="8" fill="#282829"/>
<g clip-path="url(#clip4_2048_719)">
<mask id="mask1_2048_719" style="mask-type:luminance" maskUnits="userSpaceOnUse" x="981" y="60" width="65" height="65">
<path d="M1045.5 60.5H981.5V124.5H1045.5V60.5Z" fill="white"/>
</mask>
<g mask="url(#mask1_2048_719)">
<mask id="mask2_2048_719" style="mask-type:luminance" maskUnits="userSpaceOnUse" x="981" y="60" width="65" height="65">
<path d="M1045.5 60.5H981.5V124.5H1045.5V60.5Z" fill="white"/>
</mask>
<g mask="url(#mask2_2048_719)">
<path d="M1026.31 98.2409C1025.2 99.7289 1022.87 102.199 1021.57 102.199H1015.53V98.2377H1020.34C1021.03 98.2377 1021.68 97.9593 1022.16 97.4697C1024.63 94.9097 1026.05 91.8633 1026.05 88.5961C1026.05 83.0217 1021.89 78.0937 1015.53 75.1241V72.4617C1015.53 71.3161 1014.6 70.3881 1013.45 70.3881C1012.31 70.3881 1011.38 71.3161 1011.38 72.4617V73.5657C1009.6 73.0441 1007.71 72.6473 1005.74 72.4201C1009 75.9657 1010.99 80.7081 1010.99 85.9081C1010.99 90.5705 1009.4 94.8521 1006.72 98.2441H1011.38V102.212H1004.56C1003.64 102.212 1002.89 101.466 1002.89 100.542V98.8073C1002.89 98.5033 1002.65 98.2537 1002.34 98.2537H993.353C993.177 98.2537 993.026 98.3977 993.026 98.5737C993.02 105.671 998.636 110.999 1005.35 110.999H1024.31C1028.86 110.999 1030.89 105.175 1033.55 101.47C1034.58 100.036 1037.06 98.8841 1037.82 98.5641C1037.95 98.5065 1038.03 98.3785 1038.03 98.2281V95.9241C1038.03 95.6905 1037.8 95.5145 1037.58 95.5785C1037.58 95.5785 1026.62 98.0969 1026.49 98.1321C1026.36 98.1705 1026.31 98.2441 1026.31 98.2441V98.2409Z" fill="white"/>
<path d="M1007.48 85.892C1007.48 82.3176 1006.26 79.028 1004.21 76.4264L993.897 94.2728H1004.99C1006.57 91.8664 1007.49 88.9864 1007.49 85.8952L1007.48 85.892Z" fill="white"/>
<path d="M1013.78 60.5001C995.884 60.3529 981.353 74.8841 981.5 92.7785C981.65 110.155 995.845 124.353 1013.22 124.497C1031.11 124.651 1045.65 110.113 1045.5 92.2185C1045.35 74.8489 1031.15 60.6505 1013.78 60.5001ZM1004.21 76.4265C1006.26 79.0281 1007.48 82.3209 1007.48 85.8921C1007.48 88.9865 1006.57 91.8665 1004.99 94.2697H993.893L1004.21 76.4233L1004.21 76.4265ZM1038.03 95.9209V98.2249C1038.03 98.3753 1037.95 98.5033 1037.82 98.5609C1037.06 98.8809 1034.58 100.033 1033.55 101.467C1030.89 105.172 1028.86 110.996 1024.31 110.996H1005.35C998.639 110.996 993.023 105.668 993.026 98.5705C993.026 98.3945 993.177 98.2505 993.353 98.2505H1002.34C1002.65 98.2505 1002.89 98.5001 1002.89 98.8041V100.539C1002.89 101.46 1003.64 102.209 1004.56 102.209H1011.38V98.2409H1006.72C1009.4 94.8489 1010.99 90.5673 1010.99 85.9049C1010.99 80.7049 1009 75.9625 1005.74 72.4169C1007.71 72.6473 1009.6 73.0409 1011.38 73.5625V72.4585C1011.38 71.3129 1012.31 70.3849 1013.45 70.3849C1014.6 70.3849 1015.53 71.3129 1015.53 72.4585V75.1209C1021.89 78.0905 1026.05 83.0185 1026.05 88.5929C1026.05 91.8633 1024.62 94.9065 1022.16 97.4665C1021.68 97.9561 1021.03 98.2345 1020.34 98.2345H1015.53V102.196H1021.57C1022.87 102.196 1025.21 99.7257 1026.31 98.2377C1026.31 98.2377 1026.36 98.1641 1026.49 98.1257C1026.62 98.0873 1037.58 95.5721 1037.58 95.5721C1037.81 95.5081 1038.03 95.6841 1038.03 95.9177V95.9209Z" fill="#0086FF"/>
</g>
</g>
</g>
<defs>
<clipPath id="clip0_2048_719">
<rect width="64" height="64" fill="white" transform="translate(125 282)"/>
</clipPath>
<clipPath id="clip1_2048_719">
<rect width="64" height="48.708" fill="white" transform="translate(18 87.6726)"/>
</clipPath>
<clipPath id="clip2_2048_719">
<rect width="63.4" height="64" fill="white" transform="translate(366 379)"/>
</clipPath>
<clipPath id="clip3_2048_719">
<rect width="64" height="64" fill="white" transform="translate(654 379)"/>
</clipPath>
<clipPath id="clip4_2048_719">
<rect width="64" height="64" fill="white" transform="translate(981.5 60.5)"/>
</clipPath>
</defs>
</svg>
