<svg width="1064" height="463" viewBox="0 0 1064 463" fill="none" xmlns="http://www.w3.org/2000/svg">
<g clip-path="url(#clip0_2010_157)">
<path d="M542 -164C677.56 -164 800.191 -130.883 888.864 -77.4443C977.576 -23.9827 1032 49.5979 1032 130.5C1032 211.402 977.576 284.983 888.864 338.444C800.191 391.883 677.56 425 542 425C406.44 425 283.809 391.883 195.136 338.444C106.424 284.983 52 211.402 52 130.5C52 49.5979 106.424 -23.9827 195.136 -77.4443C283.809 -130.883 406.44 -164 542 -164Z" stroke="#282829" stroke-width="4"/>
<rect x="139" y="274" width="100" height="100" rx="8" fill="#282829"/>
<g clip-path="url(#clip1_2010_157)">
<path fill-rule="evenodd" clip-rule="evenodd" d="M189 292C206.613 292 221 306.413 221 324C221 341.613 206.587 356 189 356C171.387 356 157 341.587 157 324C157 306.387 171.413 292 189 292Z" fill="#1EEFA4"/>
<path d="M192.431 331.168C192.431 329.453 193.813 328.045 195.554 328.045H196.808C198.523 328.045 199.906 329.427 199.906 331.168V332.422C199.906 334.138 198.523 335.546 196.783 335.546H195.528C193.813 335.546 192.431 334.163 192.431 332.422V331.168ZM195.554 316.858C193.839 316.858 192.456 318.24 192.456 319.981V321.235C192.456 322.95 193.839 324.358 195.579 324.358H196.834C198.549 324.358 199.931 322.976 199.931 321.235V319.981C199.931 318.266 198.549 316.858 196.808 316.858H195.554Z" fill="black"/>
<path fill-rule="evenodd" clip-rule="evenodd" d="M181.218 303.776C174.332 303.776 168.776 309.357 168.776 316.218V331.782C168.776 338.669 174.357 344.224 181.218 344.224H196.783C203.669 344.224 209.224 338.643 209.224 331.782V316.218C209.224 309.331 203.644 303.776 196.783 303.776H181.218ZM196.783 308.742H181.218C177.096 308.742 173.743 312.096 173.743 316.218V331.782C173.743 335.904 177.096 339.258 181.218 339.258H196.783C200.904 339.258 204.258 335.904 204.258 331.782V316.218C204.258 312.096 200.904 308.742 196.783 308.742Z" fill="black"/>
</g>
<rect x="877" y="254" width="100" height="100" rx="8" fill="#282829"/>
<path opacity="0.8" d="M953 315.784C953 325.508 944.979 333.405 935.1 333.405H901.282V321.637H935.1C938.352 321.637 940.984 319.004 940.984 315.753C940.984 312.501 938.352 309.869 935.1 309.869H923.177V298.131H935.1C938.352 298.131 940.984 295.499 940.984 292.247C940.984 288.996 938.352 286.363 935.1 286.363H901.282V274.595H935.1C944.979 274.626 953 282.523 953 292.247C953 296.614 951.39 300.795 948.448 304.015C951.39 307.236 953 311.448 953 315.784Z" fill="#FE815F"/>
<path opacity="0.12" d="M901.282 321.637H930.331C924.168 328.759 914.351 333.405 903.295 333.405C902.614 333.405 901.964 333.374 901.313 333.343C901.282 333.374 901.282 321.637 901.282 321.637ZM936.401 309.869H925.159V298.131H936.401C937.299 302.003 937.299 306.028 936.401 309.869ZM930.331 286.363H901.282V274.657C901.933 274.626 902.614 274.595 903.264 274.595C914.32 274.626 924.137 279.241 930.331 286.363Z" fill="black"/>
<path d="M901.282 274.626C917.758 274.626 931.105 287.788 931.105 304.015C931.105 320.243 917.758 333.405 901.282 333.405V321.637C911.161 321.637 919.182 313.74 919.182 304.015C919.182 294.291 911.161 286.394 901.282 286.394V274.626Z" fill="#FF6238"/>
<rect x="360" y="363" width="100" height="100" rx="8" fill="#282829"/>
<g clip-path="url(#clip2_2010_157)">
<path fill-rule="evenodd" clip-rule="evenodd" d="M389.4 391C388.4 385.8 392.4 381 397.6 381C402.2 381 406 384.8 406 389.4V399.8C407.2 399.8 408.4 399.6 409.6 399.6C410.8 399.6 411.8 399.6 413 399.8V389.4C413 384.8 416.8 381 421.4 381C426.6 381 430.6 385.8 429.8 391L427.6 403.2C435.4 406.6 441.4 412.6 441.4 420V424.6C441.4 430.8 437.4 436 431.6 439.4C425.8 443 418.2 445 409.6 445C401 445 393.4 443 387.6 439.4C382 436 378 430.8 378 424.6V420C378 412.6 383.8 406.6 391.6 403.2L389.4 391ZM424.6 404.8L427.2 390.4C427.8 386.8 425.2 383.4 421.4 383.4C418.2 383.4 415.6 386 415.6 389.2V402.4C414.8 402.2 413.8 402.2 413 402.2C411.8 402.2 410.8 402 409.6 402C408.4 402 407.2 402 406 402.2C405.2 402.2 404.2 402.4 403.4 402.4V389.4C403.4 386.2 400.8 383.6 397.6 383.6C394 383.6 391.2 387 392 390.6L394.6 405C386.2 408.2 380.6 413.8 380.6 420.2V424.8C380.6 434.6 393.6 442.6 409.6 442.6C425.6 442.6 438.6 434.6 438.6 424.8V420.2C438.8 413.6 433.2 408 424.6 404.8Z" fill="#633001"/>
<path d="M438.8 424.6C438.8 434.4 425.8 442.4 409.8 442.4C393.8 442.4 380.8 434.4 380.8 424.6V420H439V424.6H438.8Z" fill="#FEDC90"/>
<path fill-rule="evenodd" clip-rule="evenodd" d="M392 390.6C391.2 387 394 383.6 397.6 383.6C400.8 383.6 403.4 386.2 403.4 389.4V402.6C405.4 402.4 407.4 402.2 409.6 402.2C411.6 402.2 413.6 402.4 415.6 402.6V389.4C415.6 386.2 418.2 383.6 421.4 383.6C425 383.6 427.8 387 427.2 390.6L424.6 405C433 408.2 438.8 413.8 438.8 420.2C438.8 430 425.8 438 409.8 438C393.8 438 380.8 430 380.8 420.2C380.8 413.8 386.4 408.2 394.8 405L392 390.6Z" fill="#D1884F"/>
<path d="M401.6 418.8C401.6 421.4 400.2 423.6 398.4 423.6C396.6 423.6 395.2 421.4 395.2 418.8C395.2 416.2 396.6 414 398.4 414C400.2 414 401.6 416.2 401.6 418.8Z" fill="#633001"/>
<path d="M423.8 418.8C423.8 421.4 422.4 423.6 420.6 423.6C418.8 423.6 417.4 421.4 417.4 418.8C417.4 416.2 418.8 414 420.6 414C422.4 414 423.8 416.2 423.8 418.8Z" fill="#633001"/>
</g>
<rect y="62" width="100" height="100" rx="8" fill="#282829"/>
<g clip-path="url(#clip3_2010_157)">
<mask id="mask0_2010_157" style="mask-type:luminance" maskUnits="userSpaceOnUse" x="18" y="87" width="64" height="50">
<path d="M82 87.6725H18V136.381H82V87.6725Z" fill="white"/>
</mask>
<g mask="url(#mask0_2010_157)">
<path d="M21.3984 96.4514C24.9666 96.4514 28.5347 96.4514 32.1595 96.4514C32.1595 96.678 32.1595 96.9045 32.1595 97.1311C32.1595 98.0939 32.1029 99.0567 32.1595 100.02C32.3294 101.775 32.7825 103.474 33.5188 105.117C34.1984 106.589 35.048 107.892 36.1807 109.025C37.54 110.441 39.1825 111.517 41.1082 112.083C41.2781 112.14 41.3347 112.197 41.3347 112.366C41.2781 113.273 41.448 114.122 41.2214 115.028C40.8816 116.501 40.0321 117.52 38.7294 118.087C38.1064 118.37 37.4834 118.483 36.8037 118.483C34.6515 118.483 32.4427 118.483 30.2905 118.483C29.271 118.483 28.3082 118.313 27.4586 117.69C26.2126 116.784 25.6462 115.482 25.6462 113.896C25.6462 109.648 25.6462 105.343 25.6462 101.096C25.6462 100.982 25.6462 100.869 25.6462 100.756C25.6462 100.133 25.2498 99.793 24.6834 99.6231C23.2108 99.17 22.1347 98.1505 21.4551 96.7912C21.4551 96.7346 21.3984 96.6213 21.3984 96.5647C21.3984 96.5647 21.3984 96.5081 21.3984 96.4514ZM27.6852 106.023C27.6852 106.816 28.2515 107.439 29.0445 107.439C29.7807 107.439 30.4604 106.816 30.4604 106.023C30.4604 105.23 29.8374 104.607 29.0445 104.551C28.3648 104.607 27.6285 105.174 27.6852 106.023Z" fill="black"/>
<path d="M39.5799 106.023C39.5799 106.703 38.9569 107.326 38.2773 107.326C37.5976 107.326 36.9746 106.703 36.9746 105.966C36.9746 105.287 37.5976 104.664 38.2773 104.664C39.0135 104.72 39.6932 105.4 39.5799 106.023Z" fill="black"/>
<path d="M27.6857 106.023C27.6291 105.174 28.3653 104.607 29.045 104.607C29.8379 104.607 30.4609 105.287 30.4609 106.08C30.4609 106.873 29.7813 107.496 29.045 107.496C28.2521 107.439 27.6857 106.816 27.6857 106.023Z" fill="white"/>
<path d="M80.1875 120.692C80.2442 120.692 80.2442 120.692 80.1875 120.692C80.3008 120.692 80.3008 120.692 80.3574 120.692C80.4141 120.692 80.5274 120.635 80.584 120.635C80.6406 120.579 80.6406 120.579 80.6973 120.522C81.3203 120.126 81.2636 119.503 81.2636 118.88C81.2636 116.048 81.2636 113.159 81.2636 110.328C81.2636 109.421 81.1504 108.515 80.8672 107.609C79.8477 104.494 76.9592 102.228 73.561 102.228C69.9362 102.172 66.3114 102.172 62.6866 102.172C56.4566 102.172 50.2265 102.172 44.053 102.115C43.9964 102.115 43.8831 102.115 43.8265 102.115C43.7132 102.115 43.6566 102.059 43.5433 102.059C43.43 101.775 43.5433 101.605 43.8265 101.492C43.9397 101.435 43.9964 101.435 44.1097 101.379C45.8088 100.529 46.9982 99.1134 47.7344 97.3576C48.0176 96.7346 48.2442 96.055 48.3008 95.3753C48.3008 94.5824 47.9043 94.1293 47.1114 94.1293C45.5822 94.1293 44.053 94.1293 42.5238 94.0727C42.3539 94.0727 42.2406 94.0727 42.0707 94.0727C42.0707 93.9028 42.0707 93.7895 42.0707 93.6196C42.0707 92.8833 42.0707 92.147 42.0707 91.4674C42.0707 91.1275 42.0141 90.7877 41.9574 90.5045C41.561 89.0886 40.1451 88.1258 38.5026 88.4656C37.3698 88.6921 36.3504 89.7682 36.2937 90.901C36.2371 91.8072 36.2371 92.7134 36.2371 93.6196C36.2371 93.7895 36.2371 93.9594 36.2371 94.0727H30.8566C30.8566 93.9028 30.8566 93.7328 30.8566 93.5629C30.8566 92.77 30.8566 91.9771 30.8566 91.1842C30.7999 89.2585 28.9309 87.8426 26.9486 88.5222C25.7592 88.9187 24.9663 90.1081 24.9663 91.4107C24.9663 92.147 24.9663 92.8833 24.9663 93.6196C24.9663 93.7895 24.9663 93.9028 24.9663 94.0727C24.7964 94.0727 24.6265 94.0727 24.4566 94.0727C22.9274 94.0727 21.3982 94.0727 19.8689 94.1293C19.1327 94.1293 18.6796 94.5824 18.7362 95.3187C18.7928 95.7718 18.9061 96.2249 19.0194 96.6213C19.699 98.7169 21.0017 100.359 22.984 101.379C23.3805 101.605 23.4937 101.775 23.4937 102.228C23.4937 106.25 23.4937 110.214 23.4937 114.235C23.4937 114.802 23.5504 115.368 23.7203 115.878C24.5132 118.483 26.2123 120.126 28.8176 120.635C28.8743 120.635 28.9309 120.692 28.9875 120.692H29.0442C29.0442 120.692 29.1008 120.692 29.1574 120.692C29.2141 120.692 29.2707 120.692 29.2707 120.749C29.3274 120.749 29.384 120.749 29.4406 120.749C29.6672 120.749 29.8371 120.749 30.0636 120.749C30.1203 120.749 30.1769 120.749 30.2335 120.749C30.5734 120.749 30.9132 120.749 31.253 120.749C31.3663 120.749 31.4229 120.749 31.5362 120.749H35.6707C35.7274 120.749 35.784 120.749 35.8406 120.749C36.407 120.749 36.7468 121.032 37.03 121.485C37.1433 121.768 37.3132 122.108 37.3132 122.448C37.3132 122.505 37.3132 122.505 37.3132 122.561C37.3132 122.788 37.3132 123.071 37.3132 123.297C37.3132 123.354 37.3132 123.354 37.3132 123.411C37.3698 124.317 37.3698 125.28 37.4265 126.186C37.4831 127.602 37.5397 129.018 37.5964 130.434C37.653 131.51 37.653 132.586 37.653 133.662C37.7097 134.738 38.4459 135.531 39.4088 135.588C41.6743 135.588 43.8831 135.588 46.1486 135.588C46.9415 135.588 47.6212 135.021 47.7911 134.228C48.0176 133.266 48.2442 132.246 48.4141 131.283C48.6406 130.264 48.8672 129.301 49.0937 128.282C49.207 128.282 49.207 128.225 49.2636 128.225C53.9079 128.225 58.4955 128.225 63.1397 128.225C63.4229 128.225 63.4796 128.338 63.5362 128.565C63.6495 129.188 63.8194 129.811 63.9327 130.49C64.2159 131.68 64.4424 132.926 64.7256 134.115C64.8955 134.908 65.6318 135.588 66.4247 135.644C68.6902 135.644 70.899 135.644 73.1645 135.644C74.0707 135.644 74.8636 134.851 74.9203 133.889C74.9769 132.756 75.0336 131.623 75.0902 130.434C75.1468 129.018 75.2601 127.602 75.3167 126.129C75.3734 125.28 75.3734 124.487 75.43 123.637C75.4866 122.165 75.5999 120.749 75.6566 119.276C75.7698 117.69 75.8265 116.048 75.8831 114.462C75.9397 113.103 76.053 111.743 76.053 110.384C76.053 108.402 75.3734 106.646 74.184 105.174C74.1274 105.117 74.0707 105.004 74.0141 104.89C74.1274 104.89 74.184 104.89 74.2406 104.89C76.676 105.23 78.6017 107.496 78.6017 109.988C78.6017 112.989 78.6017 115.935 78.6017 118.936C78.6017 119.503 78.6583 120.069 79.1114 120.466C79.5645 120.635 79.8477 120.692 80.1875 120.692ZM38.4459 91.3541C38.4459 91.0143 38.7858 90.6744 39.1256 90.6744C39.4088 90.6744 39.8052 90.901 39.8052 91.2408C39.8052 92.2036 39.8052 93.1098 39.8052 94.0727H38.4459C38.4459 93.1098 38.4459 92.2036 38.4459 91.3541ZM38.3327 104.72C39.0123 104.72 39.692 105.4 39.6353 106.08C39.6353 106.759 39.0123 107.382 38.3327 107.382C37.653 107.382 37.03 106.759 37.03 106.023C37.03 105.343 37.653 104.72 38.3327 104.72ZM27.1751 91.524C27.1751 91.3541 27.1751 91.1842 27.2884 91.0709C27.4017 90.7877 27.7415 90.6178 27.9681 90.6744C28.3079 90.7311 28.5344 91.0143 28.5344 91.3541C28.5344 92.2036 28.5344 93.0532 28.5344 93.9028C28.5344 93.9594 28.5344 93.9594 28.4778 94.0727H27.2318C27.2318 93.9594 27.1751 93.9028 27.1751 93.7895C27.1751 93.0532 27.1751 92.2603 27.1751 91.524ZM38.7291 118.143C38.1061 118.427 37.4831 118.54 36.8035 118.54C34.6512 118.54 32.4424 118.54 30.2902 118.54C29.2707 118.54 28.3079 118.37 27.4583 117.747C26.2123 116.841 25.6459 115.538 25.6459 113.952C25.6459 109.705 25.6459 105.4 25.6459 101.152C25.6459 101.039 25.6459 100.926 25.6459 100.812C25.6459 100.189 25.2495 99.8497 24.6831 99.6797C23.2105 99.2266 22.1344 98.2072 21.4548 96.8479C21.4548 96.7346 21.3982 96.6213 21.3982 96.5647C21.3982 96.5647 21.3982 96.5081 21.3982 96.4514H32.1592C32.1592 96.678 32.1592 96.9045 32.1592 97.1311C32.1592 98.0939 32.1026 99.0567 32.1592 100.02C32.3291 101.775 32.7822 103.474 33.5185 105.117C34.1982 106.589 35.0477 107.892 36.1805 109.025C37.5397 110.441 39.1822 111.517 41.1079 112.083C41.2778 112.14 41.3344 112.197 41.3344 112.366C41.2778 113.273 41.4477 114.122 41.2212 115.028C40.938 116.501 40.0884 117.52 38.7291 118.143ZM73.6176 111.12C73.5043 112.536 73.4477 113.952 73.3911 115.368C73.2778 117.181 73.2212 118.993 73.1079 120.805C72.9946 122.844 72.8813 124.94 72.7681 126.979C72.7114 128.225 72.5982 129.471 72.5415 130.717C72.4849 131.51 72.4282 132.246 72.3716 133.096H67.161C66.538 130.66 66.0849 128.225 65.4619 125.733C65.292 125.733 65.1787 125.676 65.0654 125.676C59.1751 125.676 53.2849 125.676 47.4512 125.676C46.9982 125.676 46.9982 125.733 46.8849 126.129C46.6583 127.205 46.3751 128.338 46.1486 129.414C45.922 130.434 45.6955 131.51 45.4689 132.529C45.3557 133.039 45.3557 133.039 44.9026 133.039C43.43 133.039 42.0141 133.039 40.5982 133.039C40.1451 133.039 40.1451 133.039 40.1451 132.529C40.1451 129.697 40.0884 126.866 40.0884 124.09C40.0884 122.844 40.0884 121.598 40.0318 120.352C40.0318 120.069 40.0884 119.899 40.3716 119.786C41.7875 118.936 42.807 117.69 43.3167 116.048C43.4866 115.538 43.5433 115.028 43.5433 114.519C43.5433 111.46 43.5433 108.402 43.5433 105.343C43.5433 105.23 43.5433 105.117 43.5433 105.004C43.5433 104.777 43.6566 104.72 43.8265 104.72C43.9397 104.72 44.053 104.72 44.1663 104.72C46.0353 104.72 47.8477 104.72 49.7167 104.72H67.3875V104.777C68.2937 104.777 69.1433 104.777 70.0495 104.777C70.3327 104.777 70.5592 104.89 70.7291 105.117C71.1256 105.57 71.4654 105.966 71.8619 106.363C73.1079 107.666 73.7875 109.251 73.6176 111.12Z" fill="white"/>
<path d="M80.2442 121.428H80.1876C79.8478 121.428 79.3947 121.372 78.9416 121.145L78.6584 121.032L78.6018 120.862C78.092 120.296 78.0354 119.559 78.0354 118.936C78.0354 116.274 78.0354 113.612 78.0354 110.95V109.988C78.0354 108.402 77.1292 106.929 75.7699 106.136C76.5062 107.496 76.9027 108.912 76.846 110.441C76.846 111.404 76.7894 112.366 76.7327 113.273C76.7327 113.726 76.6761 114.122 76.6761 114.575L76.6195 116.274C76.5628 117.35 76.5062 118.37 76.4496 119.446C76.3929 120.296 76.3363 121.089 76.2796 121.938C76.223 122.561 76.223 123.184 76.1664 123.807C76.1664 124.26 76.1097 124.713 76.1097 125.166C76.1097 125.563 76.0531 125.903 76.0531 126.299C75.9965 127.149 75.9398 127.942 75.9398 128.791L75.7699 131.397C75.7133 132.246 75.6566 133.152 75.6566 134.002C75.6 135.304 74.4673 136.381 73.2212 136.381C70.9557 136.381 68.7469 136.381 66.4814 136.381C65.3487 136.381 64.3292 135.474 64.1027 134.342C63.9327 133.549 63.7628 132.699 63.5929 131.906L63.2531 130.377C63.1398 129.924 63.0832 129.527 62.9699 129.074C59.515 129.074 56.1168 129.074 52.7186 129.074H49.7168L49.6035 129.471C49.4336 130.15 49.2637 130.83 49.1504 131.566C49.0938 131.963 48.9805 132.303 48.9239 132.699C48.8106 133.322 48.6407 133.889 48.5274 134.512C48.2442 135.644 47.2814 136.437 46.2053 136.437C45.0159 136.437 43.8832 136.437 42.7504 136.437C41.6177 136.437 40.5416 136.437 39.4655 136.437C38.1062 136.437 37.0301 135.304 37.0301 133.832C37.0301 133.322 37.0301 132.756 36.9734 132.246C36.9734 131.68 36.9734 131.17 36.9168 130.604C36.9168 129.641 36.8602 128.678 36.8035 127.715L36.6336 123.467V123.411C36.6336 123.184 36.6336 122.958 36.6336 122.731V122.674V122.561C36.6336 122.448 36.577 122.278 36.4071 121.881C36.2938 121.655 36.1239 121.542 35.8407 121.542H35.7841C35.7274 121.542 35.6708 121.542 35.6708 121.542H35.0478H31.5363C31.4796 121.542 31.3664 121.542 31.3097 121.542H31.2531H31.0265C30.7434 121.542 30.4602 121.542 30.177 121.542C30.1204 121.542 30.1204 121.542 30.0637 121.542C29.8372 121.542 29.6106 121.542 29.4407 121.542L28.9876 121.485L28.7044 121.372C25.8726 120.805 23.9469 119.05 23.0973 116.161C22.9274 115.651 22.8708 115.028 22.8708 114.292C22.8708 110.441 22.8708 106.42 22.8708 102.285C22.8708 102.172 22.8708 102.115 22.8708 102.115C22.8708 102.115 22.8142 102.115 22.7575 102.058C20.6619 100.982 19.246 99.2832 18.4531 96.9045C18.2832 96.4514 18.1699 95.9416 18.1133 95.4319C18.0566 94.9222 18.2265 94.4124 18.5664 94.0726C18.9062 93.7328 19.4159 93.5062 19.9257 93.5062C21.0584 93.5062 22.1911 93.5062 23.3239 93.5062H24.3434V93.2797C24.3434 92.6567 24.3434 92.0337 24.3434 91.4673C24.3434 89.8248 25.3062 88.4089 26.7788 87.8992C27.9115 87.5027 29.1009 87.6726 30.0637 88.3523C30.9699 89.0319 31.5363 90.0514 31.5929 91.1841C31.5929 91.7505 31.5929 92.3169 31.5929 92.8266C31.5929 92.9965 31.5929 93.1664 31.5929 93.393H35.6142C35.6142 93.1664 35.6142 92.9399 35.6142 92.7133C35.6142 92.0903 35.6142 91.4673 35.6708 90.8443C35.7274 89.3717 36.9168 88.0691 38.3894 87.7293C40.2584 87.3328 42.1274 88.4655 42.6372 90.2779C42.7504 90.6178 42.7504 90.9576 42.8071 91.4107C42.8071 91.9204 42.8071 92.3735 42.8071 92.8832C42.8071 93.0531 42.8071 93.2231 42.8071 93.3363H44.4496C45.3558 93.3363 46.2619 93.3363 47.1681 93.3363C47.7345 93.3363 48.2442 93.5062 48.5841 93.8461C48.9239 94.1859 49.0938 94.6956 49.0372 95.262C49.0372 96.1116 48.6973 96.8478 48.4142 97.5275C47.7345 99.1133 46.715 100.359 45.4124 101.266H49.7168C54.0779 101.266 58.3823 101.266 62.7434 101.266C66.7646 101.266 70.1628 101.266 73.6177 101.322C77.2425 101.379 80.4142 103.701 81.5469 107.212C81.8301 108.062 81.9434 109.025 82 110.158C82 111.913 82 113.669 82 115.425C82 116.501 82 117.634 82 118.71C82 119.163 82 119.729 81.7168 120.239L80.2442 121.428ZM37.9929 123.524L38.1628 127.602C38.2195 128.565 38.2195 129.527 38.2761 130.49C38.2761 131.057 38.2761 131.566 38.3327 132.133C38.3327 132.643 38.3327 133.209 38.3894 133.719C38.3894 134.398 38.8991 134.908 39.4655 134.965C41.5611 134.965 43.7699 134.965 46.2053 134.965C46.6584 134.965 47.1115 134.625 47.2248 134.115C47.338 133.492 47.508 132.926 47.6212 132.303C47.6779 131.906 47.7911 131.51 47.8478 131.17C48.0177 130.49 48.1876 129.811 48.3009 129.074L48.5841 127.772L49.0372 127.658C49.0938 127.658 49.2071 127.602 49.3204 127.602H52.7186C56.2301 127.602 59.685 127.602 63.1965 127.602C63.7628 127.602 64.1593 127.942 64.2726 128.508C64.3858 129.018 64.4991 129.527 64.6124 129.981L64.9522 131.51C65.1221 132.359 65.292 133.152 65.4619 134.002C65.5752 134.512 66.0283 134.965 66.538 134.965C68.8035 134.965 71.0124 134.965 73.2779 134.965C73.7876 134.965 74.2973 134.455 74.354 133.889C74.4106 133.039 74.4673 132.133 74.4673 131.283L74.6372 128.678C74.6938 127.828 74.7504 127.035 74.7504 126.186C74.7504 125.789 74.8071 125.45 74.8071 125.053C74.8071 124.6 74.8637 124.147 74.8637 123.694C74.9204 123.071 74.9203 122.448 74.977 121.825C75.0336 120.975 75.0903 120.182 75.1469 119.333C75.2035 118.257 75.2602 117.237 75.3168 116.161L75.3734 114.462C75.3734 114.009 75.4301 113.612 75.4301 113.159C75.4867 112.253 75.5434 111.29 75.5434 110.384C75.5434 108.685 74.977 107.043 73.8442 105.627C73.7876 105.57 73.731 105.457 73.6743 105.4L72.938 104.324L74.1841 104.211C74.2407 104.211 74.354 104.211 74.4673 104.211C77.1858 104.607 79.4513 107.156 79.4513 109.988V110.95C79.4513 113.612 79.4513 116.274 79.4513 118.936C79.4513 119.389 79.508 119.673 79.6779 119.899C79.7911 119.956 79.9044 119.956 80.0177 119.956H80.2442H80.3009C80.3009 119.956 80.3009 119.956 80.3575 119.956H80.4142C80.6973 119.786 80.6973 119.559 80.6973 118.936C80.6973 117.804 80.6973 116.727 80.6973 115.595C80.6973 113.839 80.6973 112.083 80.6973 110.327C80.6973 109.365 80.5841 108.572 80.3575 107.835C79.3947 104.947 76.7327 102.965 73.731 102.908C70.2761 102.851 66.8779 102.851 62.8566 102.851C58.4956 102.851 54.1911 102.851 49.8301 102.851H44.223H44.0531C43.9398 102.851 43.8832 102.851 43.7699 102.851C43.6566 102.851 43.6 102.795 43.4867 102.795L43.0336 102.681L42.9204 102.285C42.6938 101.662 42.977 101.096 43.6 100.869C43.6566 100.812 43.7699 100.812 43.8265 100.756C45.2991 99.9629 46.4319 98.7735 47.1681 97.0744C47.3947 96.508 47.6212 95.9416 47.6779 95.3753C47.6779 95.1487 47.6779 95.0354 47.5646 94.9788C47.508 94.9222 47.3381 94.8655 47.1681 94.8655C46.2619 94.8655 45.3558 94.8655 44.4496 94.8655H42.5805C42.4673 94.8655 42.354 94.8655 42.2407 94.8655L41.4478 94.8089L41.3911 94.016C41.3911 93.9027 41.3911 93.7894 41.3911 93.6762C41.3911 93.4496 41.3911 93.1664 41.3911 92.9399C41.3911 92.4868 41.3911 91.977 41.3911 91.5239C41.3911 91.2974 41.3911 90.9576 41.2779 90.731C40.9947 89.7682 39.9752 88.9186 38.6159 89.1452C37.7664 89.3151 36.9734 90.1647 36.9168 90.9576C36.8602 91.5239 36.8602 92.147 36.8602 92.77C36.8602 93.0531 36.8602 93.3363 36.8602 93.6195C36.8602 93.7328 36.8602 93.8461 36.8035 93.9593L36.7469 94.7523H30.1204V93.5629C30.1204 93.3363 30.1204 93.0531 30.1204 92.8266C30.1204 92.3169 30.1204 91.7505 30.1204 91.2408C30.1204 90.5045 29.7805 89.8815 29.1575 89.485C28.5911 89.0885 27.7982 88.9753 27.1186 89.2018C26.2124 89.485 25.646 90.3912 25.646 91.4107C25.646 92.0337 25.646 92.6567 25.646 93.2797V93.6762C25.646 93.7894 25.646 93.9027 25.646 94.016L25.5894 94.8089H23.2673C22.1345 94.8089 21.0018 94.8089 19.869 94.8089C19.6991 94.8089 19.5858 94.8655 19.4726 94.9222C19.4159 94.9788 19.4159 95.1487 19.4159 95.262C19.4159 95.6585 19.5858 96.0549 19.6991 96.3947C20.3221 98.377 21.5681 99.8496 23.2673 100.699C23.8903 101.039 24.1734 101.492 24.1734 102.172C24.1734 106.306 24.1734 110.327 24.1734 114.179C24.1734 114.745 24.2301 115.255 24.3434 115.651C25.0796 118.03 26.5522 119.446 28.931 119.899C29.0442 119.899 29.1575 119.956 29.2142 120.012C29.2142 120.012 29.2142 120.012 29.2708 120.012H29.3274C29.3841 120.012 29.3841 120.012 29.4407 120.012C29.6106 120.012 29.7805 120.012 30.0071 120.012C30.0071 120.012 30.0637 120.012 30.1204 120.012C30.4035 120.012 30.6867 120.012 31.0265 120.012H31.1398C31.2531 120.012 31.3664 120.012 31.4796 120.012H36.2938V120.069C36.8602 120.182 37.3133 120.579 37.5965 121.145C37.7097 121.428 37.9363 121.881 37.9363 122.335C37.9363 122.391 37.9363 122.448 37.9363 122.561C37.9363 122.788 37.9363 123.014 37.9363 123.241C37.9929 123.411 37.9929 123.467 37.9929 123.524ZM40.5982 133.832C39.7487 133.832 39.4655 133.492 39.4655 132.643L39.4088 123.694C39.4088 122.618 39.4088 121.485 39.3522 120.409C39.3522 119.899 39.5788 119.503 40.0319 119.22C41.3345 118.427 42.2407 117.294 42.6938 115.878C42.8071 115.481 42.8637 115.028 42.8637 114.519C42.8637 112.197 42.8637 109.931 42.8637 107.609V105.287V105.23C42.8637 105.174 42.8637 105.117 42.8637 105.004C42.8637 104.607 42.977 104.381 43.1469 104.267C43.2602 104.154 43.4867 103.984 43.8832 103.984H45.2991C46.6018 103.984 47.9044 103.984 49.2637 103.984H49.7168H68.0673V104.097C68.6903 104.097 69.3699 104.097 69.9929 104.097C70.5027 104.097 70.8991 104.267 71.1823 104.664C71.5221 105.06 71.9186 105.457 72.315 105.91C73.7876 107.382 74.4673 109.195 74.2973 111.234C74.2407 112.197 74.1841 113.216 74.1274 114.179L73.7876 120.862C73.6743 122.901 73.5611 124.997 73.4478 127.035C73.3911 128.055 73.3345 129.074 73.2779 130.15L73.0513 133.832H66.708L66.5947 133.322C66.2549 132.02 65.9717 130.66 65.6885 129.358C65.4619 128.395 65.2354 127.432 65.0088 126.469C59.2319 126.469 53.4549 126.469 47.6212 126.469C47.4513 127.149 47.3381 127.828 47.1681 128.508L46.8283 129.924C46.6018 130.887 46.3752 131.85 46.1487 132.869C45.9788 133.662 45.6956 133.889 44.9027 133.889L40.5982 133.832ZM40.7681 120.409C40.7681 121.542 40.7681 122.618 40.8248 123.694V132.416H44.846C45.0726 131.453 45.2991 130.49 45.469 129.527L45.8088 128.112C45.9788 127.432 46.1487 126.752 46.2619 126.016C46.4319 125.336 46.6584 124.997 47.4513 124.997C53.3416 124.997 59.2319 124.997 65.0655 124.997C65.1788 124.997 65.292 124.997 65.4053 124.997L66.0283 125.053L66.1416 125.563C66.4248 126.696 66.6513 127.828 66.9345 128.961C67.1611 130.094 67.4442 131.227 67.7274 132.359H71.8053L71.9752 129.981C72.0319 128.961 72.0885 127.942 72.1451 126.922C72.2584 124.883 72.3717 122.788 72.4849 120.749L72.8248 114.066C72.8814 113.046 72.938 112.083 72.9947 111.064C73.108 109.421 72.5982 108.062 71.4088 106.816C71.0124 106.363 70.5593 105.966 70.2195 105.513C70.1628 105.457 70.1628 105.457 70.0496 105.457C69.1434 105.457 68.2938 105.457 67.3876 105.457H66.708V105.4H49.7734C48.3009 105.4 46.8283 105.4 45.3557 105.4H44.3363V107.666C44.3363 109.988 44.3363 112.253 44.3363 114.575C44.3363 115.198 44.223 115.821 44.0531 116.331C43.4301 118.087 42.354 119.446 40.7681 120.409ZM30.2903 119.22C28.9876 119.22 27.9681 118.936 27.0619 118.257C25.646 117.237 24.9664 115.765 24.9097 113.896C24.9097 110.894 24.9097 107.892 24.9097 104.947V100.982C24.9097 100.926 24.9097 100.812 24.9097 100.756C24.9097 100.586 24.8531 100.416 24.4566 100.303C22.8708 99.793 21.6814 98.7169 20.8319 97.131C20.7752 97.0178 20.7186 96.9045 20.7186 96.7912C20.6619 96.6213 20.6619 96.4514 20.7186 96.3947L20.8319 95.8284L21.3982 95.7717H32.8389V97.131C32.8389 97.4142 32.8389 97.754 32.8389 98.0372C32.8389 98.7169 32.8389 99.3399 32.8956 99.9629C33.0088 101.549 33.4619 103.191 34.1982 104.777C34.8212 106.193 35.6708 107.496 36.6903 108.515C38.1062 109.988 39.5788 110.894 41.2779 111.404C42.0142 111.63 42.0142 112.197 42.0142 112.366C42.0142 112.65 42.0142 112.933 42.0142 113.216C42.0142 113.839 42.0708 114.462 41.9009 115.142C41.5611 116.784 40.5416 117.974 39.0124 118.71C38.3894 118.993 37.7097 119.163 36.8035 119.163H34.4248C33.0655 119.163 31.7062 119.163 30.2903 119.22ZM22.4743 97.131C23.0973 98.0372 23.8903 98.6602 24.9097 98.9434C26.0991 99.3399 26.3257 100.189 26.3257 100.699C26.3257 100.812 26.3257 100.926 26.3257 100.982V104.89C26.3257 107.892 26.3257 110.837 26.3257 113.839C26.3257 115.198 26.8354 116.274 27.8549 117.067C28.4779 117.52 29.2708 117.747 30.2903 117.747C31.6496 117.747 33.0655 117.747 34.4248 117.747H36.8035C37.4832 117.747 37.9929 117.634 38.446 117.464C39.5788 116.954 40.315 116.104 40.5416 114.858C40.6549 114.349 40.6549 113.839 40.5982 113.273C40.5982 113.103 40.5982 112.876 40.5982 112.706C38.7858 112.14 37.1434 111.064 35.6708 109.535C34.5381 108.402 33.6319 106.986 32.8956 105.4C32.1027 103.644 31.6496 101.889 31.4796 100.076C31.423 99.3965 31.423 98.6602 31.423 98.0372C31.423 97.754 31.423 97.4708 31.423 97.1877H22.4743V97.131ZM38.3327 108.062C37.823 108.062 37.3133 107.835 36.9168 107.439C36.5204 107.043 36.3504 106.533 36.3504 106.023C36.3504 104.947 37.2566 104.041 38.3327 104.041C38.8991 104.041 39.4655 104.324 39.8053 104.777C40.1451 105.174 40.315 105.683 40.2584 106.136C40.2584 107.156 39.3522 108.062 38.3327 108.062ZM38.2761 105.4C37.9929 105.4 37.7097 105.683 37.7097 106.023C37.7097 106.136 37.7664 106.306 37.8796 106.42C37.9929 106.533 38.1628 106.646 38.3327 106.646C38.6159 106.646 38.8991 106.363 38.8991 106.023V105.966C38.8991 105.853 38.8425 105.74 38.7858 105.627C38.6726 105.513 38.446 105.4 38.2761 105.4ZM29.0442 94.8089H26.6655L26.5522 94.1859C26.5522 94.1293 26.4956 94.016 26.4956 93.8461C26.4956 93.0531 26.4956 92.3169 26.4956 91.5239C26.4956 91.2408 26.5522 90.9576 26.6655 90.7877C26.892 90.2213 27.5717 89.8815 28.1381 89.9947C28.8177 90.108 29.2708 90.6744 29.2708 91.354C29.2708 92.0337 29.2708 92.7133 29.2708 93.3363V93.9027C29.2708 94.0726 29.2142 94.1859 29.2142 94.2425L29.0442 94.8089ZM40.485 94.7523H37.7664V93.2797C37.7664 92.6001 37.7664 91.977 37.7664 91.354C37.7664 90.6178 38.3327 90.0514 39.069 89.9947C39.4088 89.9947 39.8053 90.108 40.0885 90.3346C40.3717 90.5611 40.485 90.9009 40.5416 91.2408C40.5416 91.9204 40.5416 92.6001 40.5416 93.2797L40.485 94.7523Z" fill="white"/>
<path d="M71.8623 106.363C71.4659 105.966 71.0694 105.513 70.7296 105.117C70.5597 104.89 70.3331 104.777 70.0499 104.777C69.4269 104.777 68.8039 104.777 68.2375 104.777V104.72H51.1897C51.0198 104.72 50.9066 104.72 50.7366 104.72C48.5278 104.72 46.3189 104.72 44.1101 104.72C43.9968 104.72 43.8836 104.72 43.7703 104.72C43.5437 104.72 43.4871 104.834 43.4871 105.004C43.4871 105.117 43.4871 105.23 43.4871 105.343C43.4871 108.402 43.4871 111.46 43.4871 114.519C43.4871 115.028 43.4305 115.595 43.2605 116.048C42.7508 117.634 41.788 118.88 40.3154 119.786C40.0889 119.956 39.9756 120.069 39.9756 120.352C39.9756 121.598 39.9756 122.844 40.0322 124.09C40.0322 126.922 40.0889 129.754 40.0889 132.529C40.0889 132.982 40.0889 133.039 40.542 133.039C42.0145 133.039 43.4305 133.039 44.8464 133.039C45.2995 133.039 45.2995 133.039 45.4128 132.529C45.6393 131.51 45.8659 130.434 46.0924 129.414C46.3189 128.338 46.6021 127.205 46.8287 126.129C46.942 125.676 46.942 125.676 47.3951 125.676C53.2853 125.676 59.1756 125.676 65.0092 125.676C65.1225 125.676 65.2924 125.676 65.4057 125.733C65.972 128.225 66.4818 130.66 67.1048 133.096C68.8605 133.096 70.5597 133.096 72.3154 133.096C72.372 132.246 72.4287 131.51 72.4853 130.717C72.542 129.471 72.6552 128.225 72.7119 126.979C72.8251 124.94 72.9384 122.844 73.0517 120.805C73.165 118.993 73.2216 117.181 73.3349 115.368C73.3915 113.952 73.4482 112.536 73.5614 111.12C73.788 109.251 73.1083 107.666 71.8623 106.363Z" fill="black"/>
<path d="M52.7761 112.423C55.3248 112.423 57.4203 110.327 57.4203 107.722C57.4203 105.117 55.3814 102.965 52.7761 102.965C50.2274 102.965 48.1318 105.06 48.1318 107.666C48.1318 110.271 50.2274 112.423 52.7761 112.423Z" fill="white"/>
<path d="M66.0847 121.768C68.2369 121.768 69.9927 120.013 69.9927 117.804C69.9927 115.595 68.2369 113.839 66.0847 113.839C63.9325 113.839 62.1768 115.595 62.1768 117.804C62.1768 120.013 63.9325 121.768 66.0847 121.768Z" fill="white"/>
<path d="M52.8893 127.205C55.0415 127.149 57.1937 127.432 59.2893 127.715C59.3459 127.715 59.4026 127.715 59.4592 127.715C59.5158 127.375 59.5158 127.092 59.5158 126.752C59.5158 123.241 56.7406 120.409 53.2858 120.409C49.8309 120.409 47.0557 123.241 47.0557 126.752C47.0557 127.375 47.1689 127.942 47.2822 128.508C48.7548 127.092 51.0203 127.262 52.8893 127.205Z" fill="white"/>
<path d="M55.8339 102.682C55.664 102.682 55.5507 102.682 55.4374 102.625C54.8711 103.248 54.5879 103.928 54.5879 104.721C54.5879 106.816 56.91 108.515 59.7985 108.515C62.687 108.515 65.0091 106.816 65.0091 104.721C65.0091 103.984 64.7259 103.248 64.2162 102.682H55.8339Z" fill="white"/>
<path d="M37.0304 106.023C36.9738 105.174 37.7101 104.607 38.3897 104.607C39.1826 104.607 39.8056 105.287 39.8056 106.08C39.8056 106.873 39.126 107.496 38.3897 107.496C37.5968 107.439 37.0304 106.816 37.0304 106.023Z" fill="black"/>
<path d="M28.6473 93.4496C28.0243 93.4496 27.4013 93.4496 26.7783 93.4496C26.7783 93.3364 26.7217 93.2231 26.7217 93.1098C26.7217 92.147 26.7217 92.4302 26.7217 91.4107C26.7217 91.1842 26.7783 90.9576 26.835 90.7877C27.0049 90.4479 27.5146 90.2213 27.8544 90.278C28.3642 90.3912 28.7606 90.7311 28.7606 91.2408C28.7606 92.3169 28.7606 92.147 28.7606 93.2797C28.7606 93.2797 28.704 93.3364 28.6473 93.4496Z" fill="black"/>
<path d="M40.0888 93.4496C39.4657 93.4496 38.8427 93.4496 38.2197 93.4496C38.2197 93.3364 38.1631 93.2231 38.1631 93.1098C38.1631 92.147 38.1631 92.4302 38.1631 91.4107C38.1631 91.1842 38.2197 90.9576 38.2764 90.7877C38.4463 90.4479 38.956 90.2213 39.2958 90.278C39.8056 90.3346 40.1454 90.7311 40.1454 91.1842C40.1454 92.2603 40.1454 92.0904 40.1454 93.2231C40.1454 93.2797 40.0888 93.3364 40.0888 93.4496Z" fill="black"/>
</g>
</g>
<rect x="636" y="358" width="100" height="100" rx="8" fill="#282829"/>
<g clip-path="url(#clip4_2010_157)">
<path d="M667.232 406.207C667.232 405.852 667.302 405.5 667.438 405.172C667.575 404.844 667.775 404.546 668.027 404.295C668.279 404.045 668.577 403.846 668.906 403.711C669.235 403.576 669.587 403.508 669.943 403.51L674.437 403.524C675.154 403.524 675.841 403.809 676.348 404.316C676.855 404.822 677.14 405.51 677.14 406.226V423.223C677.646 423.073 678.294 422.913 679.007 422.745C679.5 422.629 679.941 422.349 680.256 421.952C680.571 421.554 680.742 421.061 680.742 420.554V399.472C680.742 398.756 681.027 398.068 681.534 397.561C682.041 397.055 682.728 396.77 683.445 396.77H687.953C688.67 396.77 689.357 397.055 689.864 397.561C690.37 398.068 690.655 398.756 690.655 399.472V419.039C690.655 419.039 691.783 418.583 692.881 418.119C693.289 417.947 693.637 417.658 693.882 417.289C694.127 416.92 694.258 416.487 694.258 416.044V392.717C694.258 392 694.543 391.313 695.049 390.806C695.556 390.299 696.243 390.015 696.96 390.014H701.463C702.179 390.015 702.866 390.3 703.372 390.807C703.878 391.314 704.163 392 704.163 392.717V411.926C708.067 409.096 712.024 405.692 715.165 401.6C715.62 401.006 715.922 400.308 716.042 399.57C716.162 398.831 716.098 398.073 715.855 397.366C714.401 393.184 712.09 389.351 709.071 386.113C706.051 382.876 702.389 380.304 698.318 378.563C694.247 376.822 689.858 375.95 685.431 376.002C681.004 376.055 676.637 377.031 672.608 378.868C668.58 380.706 664.98 383.364 662.038 386.672C659.096 389.981 656.877 393.867 655.524 398.083C654.17 402.298 653.711 406.75 654.176 411.152C654.642 415.555 656.021 419.813 658.226 423.652C658.61 424.314 659.175 424.853 659.855 425.205C660.535 425.557 661.301 425.708 662.064 425.64C662.916 425.565 663.977 425.459 665.238 425.311C665.786 425.249 666.293 424.986 666.661 424.574C667.029 424.163 667.233 423.63 667.234 423.077V406.207" fill="white"/>
<path d="M667.135 433.466C671.882 436.919 677.492 438.992 683.344 439.455C689.196 439.918 695.062 438.753 700.293 436.089C705.524 433.425 709.917 429.366 712.984 424.361C716.051 419.356 717.674 413.599 717.673 407.729C717.673 406.994 717.639 406.272 717.59 405.551C705.964 422.891 684.497 430.998 667.135 433.466Z" fill="#F0B90B"/>
</g>
<rect x="964" y="43" width="100" height="100" rx="8" fill="#282829"/>
<g clip-path="url(#clip5_2010_157)">
<mask id="mask1_2010_157" style="mask-type:luminance" maskUnits="userSpaceOnUse" x="981" y="60" width="65" height="65">
<path d="M1045.5 60.5H981.5V124.5H1045.5V60.5Z" fill="white"/>
</mask>
<g mask="url(#mask1_2010_157)">
<mask id="mask2_2010_157" style="mask-type:luminance" maskUnits="userSpaceOnUse" x="981" y="60" width="65" height="65">
<path d="M1045.5 60.5H981.5V124.5H1045.5V60.5Z" fill="white"/>
</mask>
<g mask="url(#mask2_2010_157)">
<path d="M1026.31 98.2409C1025.2 99.7289 1022.87 102.199 1021.57 102.199H1015.53V98.2377H1020.34C1021.03 98.2377 1021.68 97.9593 1022.16 97.4697C1024.63 94.9097 1026.05 91.8633 1026.05 88.5961C1026.05 83.0217 1021.89 78.0937 1015.53 75.1241V72.4617C1015.53 71.3161 1014.6 70.3881 1013.45 70.3881C1012.31 70.3881 1011.38 71.3161 1011.38 72.4617V73.5657C1009.6 73.0441 1007.71 72.6473 1005.74 72.4201C1009 75.9657 1010.99 80.7081 1010.99 85.9081C1010.99 90.5705 1009.4 94.8521 1006.72 98.2441H1011.38V102.212H1004.56C1003.64 102.212 1002.89 101.466 1002.89 100.542V98.8073C1002.89 98.5033 1002.65 98.2537 1002.34 98.2537H993.353C993.177 98.2537 993.026 98.3977 993.026 98.5737C993.02 105.671 998.636 110.999 1005.35 110.999H1024.31C1028.86 110.999 1030.89 105.175 1033.55 101.47C1034.58 100.036 1037.06 98.8841 1037.82 98.5641C1037.95 98.5065 1038.03 98.3785 1038.03 98.2281V95.9241C1038.03 95.6905 1037.8 95.5145 1037.58 95.5785C1037.58 95.5785 1026.62 98.0969 1026.49 98.1321C1026.36 98.1705 1026.31 98.2441 1026.31 98.2441V98.2409Z" fill="white"/>
<path d="M1007.48 85.8921C1007.48 82.3177 1006.26 79.0281 1004.21 76.4265L993.896 94.2729H1004.99C1006.57 91.8665 1007.49 88.9865 1007.49 85.8953L1007.48 85.8921Z" fill="white"/>
<path d="M1013.78 60.5001C995.884 60.3529 981.353 74.8841 981.5 92.7785C981.651 110.155 995.846 124.353 1013.22 124.497C1031.11 124.651 1045.65 110.113 1045.5 92.2185C1045.35 74.8489 1031.15 60.6505 1013.78 60.5001ZM1004.21 76.4265C1006.26 79.0281 1007.48 82.3209 1007.48 85.8921C1007.48 88.9865 1006.57 91.8665 1004.99 94.2697H993.894L1004.21 76.4233L1004.21 76.4265ZM1038.03 95.9209V98.2249C1038.03 98.3753 1037.95 98.5033 1037.82 98.5609C1037.06 98.8809 1034.58 100.033 1033.55 101.467C1030.89 105.172 1028.86 110.996 1024.31 110.996H1005.35C998.639 110.996 993.023 105.668 993.027 98.5705C993.027 98.3945 993.177 98.2505 993.353 98.2505H1002.34C1002.65 98.2505 1002.89 98.5001 1002.89 98.8041V100.539C1002.89 101.46 1003.64 102.209 1004.56 102.209H1011.38V98.2409H1006.72C1009.4 94.8489 1010.99 90.5673 1010.99 85.9049C1010.99 80.7049 1009 75.9625 1005.74 72.4169C1007.71 72.6473 1009.6 73.0409 1011.38 73.5625V72.4585C1011.38 71.3129 1012.31 70.3849 1013.45 70.3849C1014.6 70.3849 1015.53 71.3129 1015.53 72.4585V75.1209C1021.89 78.0905 1026.05 83.0185 1026.05 88.5929C1026.05 91.8633 1024.62 94.9065 1022.16 97.4665C1021.68 97.9561 1021.03 98.2345 1020.34 98.2345H1015.53V102.196H1021.57C1022.87 102.196 1025.21 99.7257 1026.31 98.2377C1026.31 98.2377 1026.36 98.1641 1026.49 98.1257C1026.62 98.0873 1037.58 95.5721 1037.58 95.5721C1037.81 95.5081 1038.03 95.6841 1038.03 95.9177V95.9209Z" fill="#0086FF"/>
</g>
</g>
</g>
</g>
<defs>
<clipPath id="clip0_2010_157">
<rect width="1064" height="629" fill="white" transform="translate(0 -166)"/>
</clipPath>
<clipPath id="clip1_2010_157">
<rect width="64" height="64" fill="white" transform="translate(157 292)"/>
</clipPath>
<clipPath id="clip2_2010_157">
<rect width="63.4" height="64" fill="white" transform="translate(378 381)"/>
</clipPath>
<clipPath id="clip3_2010_157">
<rect width="64" height="48.708" fill="white" transform="translate(18 87.6725)"/>
</clipPath>
<clipPath id="clip4_2010_157">
<rect width="64" height="64" fill="white" transform="translate(654 376)"/>
</clipPath>
<clipPath id="clip5_2010_157">
<rect width="64" height="64" fill="white" transform="translate(981.5 60.5)"/>
</clipPath>
</defs>
</svg>
