<svg width="200" height="200" viewBox="0 0 200 200" fill="none" xmlns="http://www.w3.org/2000/svg">
<path d="M178.13 54.9418L100.011 99.8738L21.8906 54.9418L100.011 10.0098L178.13 54.9418Z" stroke="#D02138" stroke-linecap="round" stroke-linejoin="round"/>
<path d="M131.326 37.4007L100.007 55.4137L68.6875 37.4007L100.007 19.3867L131.326 37.4007Z" stroke="#D02138" stroke-linecap="round" stroke-linejoin="round"/>
<path d="M100.008 99.8734V55.4134L131.327 37.4004V81.8604L100.008 99.8734Z" stroke="#D02138" stroke-linecap="round" stroke-linejoin="round"/>
<path d="M30.2266 59.7398L61.2526 41.7948L68.6846 46.1088M100.005 19.3868V10.0098M169.78 59.7398L138.753 41.7948L131.323 46.1088M68.6866 37.3998V81.8598L100.006 99.8728V55.4128L68.6866 37.3998Z" stroke="#D02138" stroke-linecap="round" stroke-linejoin="round"/>
<path d="M21.8906 54.9414L100.01 99.8734V189.992L22.1846 144.805L21.8906 54.9414Z" stroke="#D02138" stroke-linecap="round" stroke-linejoin="round"/>
<path d="M100.008 189.992V99.8734L178.127 54.9414L177.831 144.805L100.008 189.992Z" stroke="#D02138" stroke-linecap="round" stroke-linejoin="round"/>
</svg>
