<svg width="200" height="200" viewBox="0 0 200 200" fill="none" xmlns="http://www.w3.org/2000/svg">
<path d="M178.13 54.9418L100.011 99.8738L21.8906 54.9418L100.011 10.0098L178.13 54.9418Z" stroke="#D02138" stroke-linecap="round" stroke-linejoin="round"/>
<path d="M131.326 37.4007L100.007 55.4137L68.6875 37.4007L100.007 19.3867L131.326 37.4007Z" stroke="#D02138" stroke-linecap="round" stroke-linejoin="round"/>
<path d="M100.008 99.8734V55.4134L131.327 37.4004V81.8604L100.008 99.8734Z" stroke="#D02138" stroke-linecap="round" stroke-linejoin="round"/>
<path d="M30.2266 59.7398L61.2526 41.7948L68.6846 46.1088M100.005 19.3868V10.0098M169.78 59.7398L138.753 41.7948L131.323 46.1088M68.6866 37.3998V81.8598L100.006 99.8728V55.4128L68.6866 37.3998Z" stroke="#D02138" stroke-linecap="round" stroke-linejoin="round"/>
<path d="M21.8906 54.9414L100.01 99.8734V189.992L22.1846 144.805L21.8906 54.9414Z" stroke="#D02138" stroke-linecap="round" stroke-linejoin="round"/>
<path d="M61.5022 122.102L30.2422 103.986L30.3022 140.116L61.5622 158.231L61.5022 122.102ZM61.5022 122.102L100.005 99.8729L68.7452 81.7559L30.2432 103.986L61.5022 122.102Z" stroke="#D02138" stroke-linecap="round" stroke-linejoin="round"/>
<path d="M100.143 180.367L69.0875 162.47L69.1105 153.877M30.3095 140.115L22.1875 144.805M30.3655 59.7402L30.3375 95.3532L37.7905 99.6322M61.5675 158.231L100.071 136.003L100.012 99.8732L61.5095 122.101L61.5675 158.231Z" stroke="#D02138" stroke-linecap="round" stroke-linejoin="round"/>
<path d="M100.008 189.992V99.8734L178.127 54.9414L177.831 144.805L100.008 189.992Z" stroke="#D02138" stroke-linecap="round" stroke-linejoin="round"/>
<path d="M138.453 158.231L138.512 122.102L169.771 103.986L169.712 140.116L138.453 158.231Z" stroke="#D02138" stroke-linecap="round" stroke-linejoin="round"/>
<path d="M100.006 99.873L138.508 122.101L138.45 158.231L99.9453 136.003L100.006 99.873Z" stroke="#D02138" stroke-linecap="round" stroke-linejoin="round"/>
<path d="M169.769 103.986L131.267 81.7561L100.008 99.8731L138.51 122.102L169.769 103.986Z" stroke="#D02138" stroke-linecap="round" stroke-linejoin="round"/>
<path d="M169.651 59.74L169.679 95.353L162.227 99.632M169.711 140.115L177.831 144.805M99.875 180.367L130.93 162.47L130.908 153.877" stroke="#D02138" stroke-linecap="round" stroke-linejoin="round"/>
</svg>
