<svg width="375" height="375" viewBox="0 0 375 375" fill="none" xmlns="http://www.w3.org/2000/svg">
<path d="M66.6207 168.316H66.6197H41.0215C37.9006 168.316 36.1705 171.906 38.0862 174.336L38.0865 174.336L138.392 301.411L138.392 301.411C143.401 307.751 153.023 307.747 158.066 301.414L158.068 301.411L336.921 74.7688C336.922 74.7676 336.923 74.7663 336.924 74.7651C338.852 72.3605 337.097 68.7801 333.99 68.7801H308.392C304.56 68.7801 300.921 70.5388 298.57 73.5545C298.57 73.555 298.57 73.5556 298.569 73.5561L148.212 264.029L76.4401 173.089C75.2701 171.604 73.7787 170.402 72.0781 169.576C70.3774 168.749 68.5116 168.319 66.6207 168.316Z" stroke="#D02138" stroke-width="1.6"/>
</svg>
