<svg width="144" height="30" viewBox="0 0 144 30" fill="none" xmlns="http://www.w3.org/2000/svg">
<path d="M6.8666 15L3.61126 18.2525L0.358742 15L3.61126 11.7475L6.8666 15ZM14.7587 7.10223L20.3325 12.6788L23.585 9.42627L14.7587 0.600006L5.93248 9.42627L9.185 12.6788L14.7587 7.10223ZM25.909 11.7475L22.6565 15L25.909 18.2525L29.1587 15L25.909 11.7475ZM14.7587 22.8978L9.185 17.324L5.93248 20.5737L14.7587 29.4L23.585 20.5737L20.3325 17.324L14.7587 22.8978ZM14.7587 18.2525L18.0113 15L14.7587 11.7475L11.5062 15L14.7587 18.2525ZM49.0846 18.5648V18.5198C49.0846 16.3984 47.9592 15.3376 46.1276 14.6399C47.253 14.0068 48.204 13.0136 48.204 11.2326V11.1876C48.204 8.70599 46.2176 7.10223 42.9904 7.10223H35.6638V22.8978H43.1761C46.7409 22.8978 49.0903 21.4544 49.0903 18.5648H49.0846ZM44.7517 11.8122C44.7517 12.9855 43.781 13.4835 42.2476 13.4835H39.0485V10.1494H42.4783C43.9442 10.1494 44.7573 10.7346 44.7573 11.7728L44.7517 11.8122ZM45.6324 18.1315C45.6324 19.3048 44.7067 19.845 43.1705 19.845H39.0485V16.3759H43.0635C44.8474 16.3759 45.638 17.0314 45.638 18.0922L45.6324 18.1315ZM56.3859 22.8978V7.10223H52.8999V22.8978H56.3859ZM75.0654 22.8978V7.10223H71.6244V16.8288L64.2246 7.10223H61.0199V22.8978H64.4497V12.856L72.0971 22.8978H75.0654ZM94.3132 22.8978L87.5325 6.98969H84.3278L77.5611 22.8978H81.1034L82.5524 19.3555H89.2319L90.6753 22.8978H94.3132ZM87.9967 16.2858H83.7876L85.8865 11.1651L87.9967 16.2858ZM110.877 22.8978V7.10223H107.436V16.8288L100.033 7.10223H96.8314V22.8978H100.258V12.856L107.909 22.8978H110.877ZM128.814 20.3487L126.605 18.1147C125.364 19.2401 124.258 19.9632 122.452 19.9632C119.745 19.9632 117.872 17.7123 117.872 15V14.955C117.872 12.2483 119.79 10.0368 122.452 10.0368C124.03 10.0368 125.266 10.7121 126.492 11.8178L128.695 9.26871C127.23 7.82533 125.449 6.83213 122.469 6.83213C117.618 6.83213 114.234 10.5095 114.234 14.9916V15.0366C114.234 19.5721 117.686 23.1594 122.334 23.1594C125.375 23.1679 127.179 22.0847 128.802 20.3487H128.814ZM143.641 22.8978V19.8028H135.054V16.48H142.502V13.385H135.054V10.1944H143.517V7.09942H131.602V22.895L143.641 22.8978Z" fill="#EBB300"/>
</svg>
