<svg width="100" height="100" viewBox="0 0 100 100" fill="none" xmlns="http://www.w3.org/2000/svg">
<path d="M27.821 49.9374L27.8568 63.0677L39.0136 69.6329V77.3201L21.3274 66.9471V46.0978L27.821 49.9374ZM27.821 36.8071V44.4585L21.3235 40.6149V32.9635L27.821 29.1199L34.3503 32.9635L27.821 36.8071ZM43.6728 32.9635L50.1703 29.1199L56.6997 32.9635L50.1703 36.8071L43.6728 32.9635Z" fill="#1E1E1E"/>
<path d="M32.516 60.3462V52.659L39.0135 56.5026V64.154L32.516 60.3462ZM43.6728 72.3863L50.1703 76.2299L56.6996 72.3863V80.0377L50.1703 83.8813L43.6728 80.0377V72.3863ZM66.0182 32.9635L72.5157 29.1199L79.045 32.9635V40.6149L72.5157 44.4585V36.8071L66.0182 32.9635ZM72.5157 63.0677L72.5515 49.9374L79.049 46.0938V66.9432L61.3629 77.3161V69.6289L72.5157 63.0677Z" fill="#1E1E1E"/>
<path d="M67.8565 60.3462L61.359 64.154V56.5026L67.8565 52.659V60.3462Z" fill="#1E1E1E"/>
<path d="M67.8564 39.5287L67.8922 47.2159L56.7036 53.781V66.9432L50.2061 70.751L43.7086 66.9432V53.781L32.52 47.2159V39.5287L39.0453 35.6851L50.1663 42.2821L61.3549 35.6851L67.8843 39.5287H67.8564ZM32.516 26.4024L50.1703 15.9936L67.8564 26.4024L61.3589 30.246L50.1703 23.649L39.0135 30.246L32.516 26.4024Z" fill="#1E1E1E"/>
</svg>
