<svg width="74" height="74" viewBox="0 0 74 74" fill="none" xmlns="http://www.w3.org/2000/svg">
<g clip-path="url(#clip0_108_31535)">
<path d="M14.8212 36.9374L14.857 50.0678L26.0138 56.6329V64.3201L8.32769 53.9472V33.0978L14.8212 36.9374ZM14.8212 23.8071V31.4585L8.32371 27.6149V19.9635L14.8212 16.1199L21.3506 19.9635L14.8212 23.8071ZM30.6731 19.9635L37.1706 16.1199L43.6999 19.9635L37.1706 23.8071L30.6731 19.9635Z" fill="#1E1E1E"/>
<path d="M19.5162 47.3462V39.659L26.0137 43.5026V51.154L19.5162 47.3462ZM30.673 59.3863L37.1705 63.2299L43.6999 59.3863V67.0377L37.1705 70.8813L30.673 67.0377V59.3863ZM53.0184 19.9635L59.5159 16.1199L66.0453 19.9635V27.6149L59.5159 31.4585V23.8071L53.0184 19.9635ZM59.5159 50.0678L59.5517 36.9374L66.0492 33.0938V53.9432L48.3631 64.3161V56.6289L59.5159 50.0678Z" fill="#1E1E1E"/>
<path d="M54.8567 47.3462L48.3592 51.154V43.5026L54.8567 39.659V47.3462Z" fill="#1E1E1E"/>
<path d="M54.8566 26.5287L54.8925 34.2159L43.7038 40.781V53.9432L37.2063 57.751L30.7088 53.9432V40.781L19.5202 34.2159V26.5287L26.0456 22.6851L37.1665 29.2821L48.3552 22.6851L54.8845 26.5287H54.8566ZM19.5162 13.4024L37.1705 2.99363L54.8566 13.4024L48.3591 17.246L37.1705 10.649L26.0137 17.246L19.5162 13.4024Z" fill="#1E1E1E"/>
</g>
<defs>
<clipPath id="clip0_108_31535">
<rect width="74" height="74" fill="white"/>
</clipPath>
</defs>
</svg>
