<svg width="48" height="48" viewBox="0 0 48 48" fill="none" xmlns="http://www.w3.org/2000/svg">
<g clip-path="url(#clip0_2013_231)">
<path d="M9.61365 23.9595L9.63688 32.4764L16.8737 36.7349V41.7212L5.40163 34.9928V21.4689L9.61365 23.9595ZM9.61365 15.4425V20.4056L5.39905 17.9124V12.9494L9.61365 10.4562L13.8489 12.9494L9.61365 15.4425ZM19.8959 12.9494L24.1105 10.4562L28.3458 12.9494L24.1105 15.4425L19.8959 12.9494Z" fill="#F2C828"/>
<path d="M12.6591 30.7111V25.7248L16.8737 28.2179V33.181L12.6591 30.7111ZM19.8959 38.5209L24.1105 41.014L28.3457 38.5209V43.4839L24.1105 45.9771L19.8959 43.4839V38.5209ZM34.3902 12.9494L38.6048 10.4562L42.8401 12.9494V17.9124L38.6048 20.4056V15.4425L34.3902 12.9494ZM38.6048 32.4764L38.628 23.9595L42.8426 21.4663V34.9902L31.3706 41.7186V36.7323L38.6048 32.4764Z" fill="#F2C828"/>
<path d="M35.5826 30.7111L31.368 33.181V28.2179L35.5826 25.7248V30.7111Z" fill="#F2C828"/>
<path d="M35.5826 17.2078L35.6058 22.1941L28.3483 26.4526V34.9902L24.1337 37.4601L19.9191 34.9902V26.4526L12.6616 22.1941V17.2078L16.8943 14.7147L24.1079 18.9938L31.3654 14.7147L35.6006 17.2078H35.5826ZM12.6591 8.69346L24.1105 1.94184L35.5826 8.69346L31.368 11.1866L24.1105 6.90748L16.8737 11.1866L12.6591 8.69346Z" fill="#F2C828"/>
</g>
<defs>
<clipPath id="clip0_2013_231">
<rect width="48" height="48" fill="white"/>
</clipPath>
</defs>
</svg>
