<svg width="9" height="8" viewBox="0 0 9 8" fill="none" xmlns="http://www.w3.org/2000/svg">
<path d="M0.15625 7.60156V0.855469C0.15625 0.733073 0.196615 0.628906 0.277344 0.542969C0.360677 0.457031 0.466146 0.414062 0.59375 0.414062C0.716146 0.414062 0.817708 0.457031 0.898438 0.542969C0.981771 0.628906 1.02344 0.733073 1.02344 0.855469V6.97656C1.02344 7.04688 1.0599 7.08203 1.13281 7.08203H8.375C8.4974 7.08203 8.60026 7.1237 8.68359 7.20703C8.76953 7.29036 8.8125 7.39323 8.8125 7.51562C8.8125 7.64323 8.76953 7.7474 8.68359 7.82812C8.60026 7.90885 8.4974 7.94922 8.375 7.94922H0.507812C0.403646 7.94922 0.31901 7.91667 0.253906 7.85156C0.188802 7.78906 0.15625 7.70573 0.15625 7.60156ZM0.953125 5.44922L0.355469 4.85547L2.125 3.05469C2.22396 2.95312 2.32031 2.88151 2.41406 2.83984C2.51042 2.79557 2.60938 2.77344 2.71094 2.77344C2.8125 2.77344 2.91146 2.79557 3.00781 2.83984C3.10677 2.88411 3.20312 2.95573 3.29688 3.05469L4.66016 4.47656C4.69401 4.51042 4.72786 4.52734 4.76172 4.52734C4.79818 4.52734 4.83333 4.51042 4.86719 4.47656L6.36719 2.94141L5.78516 2.35938C5.72266 2.29688 5.6901 2.22917 5.6875 2.15625C5.6875 2.08333 5.71224 2.01823 5.76172 1.96094C5.8138 1.90104 5.88411 1.85938 5.97266 1.83594L8.27344 1.24609C8.35156 1.22526 8.42448 1.23177 8.49219 1.26562C8.5625 1.29948 8.61458 1.35026 8.64844 1.41797C8.68229 1.48307 8.6888 1.55599 8.66797 1.63672L8.07422 3.94141C8.05078 4.02995 8.00911 4.10026 7.94922 4.15234C7.88932 4.20182 7.82292 4.22656 7.75 4.22656C7.67969 4.22396 7.61328 4.19141 7.55078 4.12891L6.96094 3.53516L5.34766 5.15625C5.15755 5.34635 4.96224 5.44141 4.76172 5.44141C4.66016 5.44141 4.5599 5.41927 4.46094 5.375C4.36198 5.32812 4.26693 5.25521 4.17578 5.15625L2.8125 3.73828C2.78125 3.70182 2.7474 3.68359 2.71094 3.68359C2.67708 3.68359 2.64323 3.70182 2.60938 3.73828L0.953125 5.44922Z" fill="#D02138"/>
</svg>
