<svg width="56" height="56" viewBox="0 0 56 56" fill="none" xmlns="http://www.w3.org/2000/svg">
<path d="M9.94915 24.7547H9.94854H6.12588C5.34242 24.7547 4.90559 25.657 5.38872 26.2697L5.38889 26.2699L20.3678 45.2465L20.3679 45.2467C21.2689 46.387 22.9973 46.3845 23.9022 45.2482L23.9035 45.2465L50.6101 11.4039C50.6107 11.4032 50.6112 11.4025 50.6118 11.4018C51.1031 10.7874 50.6504 9.89062 49.8759 9.89062H46.0532C45.3654 9.89062 44.711 10.2059 44.287 10.7494C44.2867 10.7498 44.2864 10.7501 44.2862 10.7505L22.133 38.8141L11.714 25.6125C11.714 25.6125 11.7139 25.6124 11.7139 25.6124C11.5037 25.3455 11.2356 25.1296 10.93 24.9811C10.6244 24.8325 10.289 24.7551 9.94915 24.7547Z" stroke="#D02138"/>
</svg>
