<svg width="100" height="100" viewBox="0 0 100 100" fill="none" xmlns="http://www.w3.org/2000/svg">
<rect width="100" height="100" rx="24" fill="#F1F1F5"/>
<path d="M30.8863 33.6401H35.9699L49.9902 67.3578H45.0671L41.0001 57.4565H25.642L21.6821 67.3578H17.1335L30.8863 33.6401ZM33.1338 38.778L27.0869 53.7636H39.5018L33.3478 38.778H33.1338Z" fill="#191919"/>
<path d="M49.8925 50.4989C49.8925 40.116 57.1167 32.9978 66.4279 32.9978C76.0601 32.9978 81.5184 38.9386 82.1605 47.6088L77.6655 47.8229C77.2909 41.6146 73.3845 36.9583 66.4279 36.9583C59.5783 36.9583 54.6551 42.2033 54.6551 50.4989C54.6551 58.7945 59.5783 64.0395 66.4279 64.0395C73.3845 64.0395 77.2909 59.3833 77.6655 53.1749L82.1605 53.389C81.5184 62.0593 76.0601 68 66.4279 68C57.1167 68 49.8925 60.8818 49.8925 50.4989Z" fill="#191919"/>
</svg>
