<svg width="112" height="26" viewBox="0 0 112 26" fill="none" xmlns="http://www.w3.org/2000/svg">
<path fill-rule="evenodd" clip-rule="evenodd" d="M92.104 7.88199H95.2313V4.75172H92.104V7.88199ZM75.4817 13.095C76.0793 11.5088 77.6095 10.3795 79.4039 10.3795C81.1979 10.3795 82.7281 11.5088 83.3259 13.095H75.4817ZM79.4039 7.46919C75.4838 7.46919 72.305 10.6506 72.305 14.575C72.305 18.4995 75.4838 21.6803 79.4039 21.6803C82.0938 21.6803 84.4341 20.1832 85.6385 17.9765L83.0155 16.7026C82.2865 17.9396 80.9423 18.7699 79.4039 18.7699C77.46 18.7699 75.8259 17.4454 75.3518 15.6488H83.4557C83.4552 15.6503 83.4548 15.6519 83.4546 15.6535H86.4227C86.4762 15.3017 86.5039 14.9415 86.5039 14.575C86.5039 10.6505 83.3252 7.46919 79.4039 7.46919ZM87.3283 21.3016H90.4556V18.1712H87.3283V21.3016ZM92.1041 21.3016H95.2313V9.25813H92.104L92.1041 21.3016ZM103.96 18.7699C101.645 18.7699 99.7688 16.8917 99.7688 14.575C99.7688 12.2578 101.645 10.3795 103.96 10.3795C106.275 10.3795 108.151 12.2578 108.151 14.575C108.151 16.8917 106.275 18.7699 103.96 18.7699ZM103.959 7.46919C100.039 7.46919 96.8599 10.6506 96.8599 14.575C96.8599 18.4995 100.039 21.6803 103.959 21.6803C107.88 21.6803 111.059 18.4995 111.059 14.575C111.059 10.6506 107.88 7.46919 103.959 7.46919M38.5741 11.9557V15.1923H42.9469C42.7185 16.1171 42.2671 16.9459 41.6199 17.6079C40.6436 18.6066 39.2899 19.1568 37.8078 19.1568C34.7326 19.1568 32.2304 16.6525 32.2304 13.574C32.2304 10.4955 34.7326 7.99086 37.8078 7.99086C39.4552 7.99086 40.9694 8.69657 42.0192 9.91381L44.5228 7.86634C42.8629 5.91915 40.4 4.75404 37.8078 4.75404C32.9494 4.75404 28.9969 8.71078 28.9969 13.574C28.9969 18.4372 32.9495 22.3937 37.8078 22.3937C40.1668 22.3937 42.3414 21.5429 43.9312 19.9168C45.2652 18.5518 46.1494 16.648 46.3195 14.7408C46.4024 13.8104 46.4099 12.8863 46.361 11.9557H38.5741ZM54.5031 18.7707C52.1883 18.7707 50.3116 16.8919 50.3116 14.575C50.3116 12.2576 52.1883 10.3793 54.5031 10.3793C56.8181 10.3793 58.6947 12.2575 58.6947 14.575C58.6947 16.8919 56.8181 18.7707 54.5031 18.7707ZM58.6953 8.85404C57.5203 7.99164 56.0714 7.4812 54.5031 7.4812C50.5831 7.4812 47.4052 10.6623 47.4052 14.586C47.4052 18.5103 50.5831 21.6908 54.5031 21.6908C56.0714 21.6908 57.5203 21.1806 58.6953 20.3183V21.3016H61.601V7.87075H58.6953V8.85404ZM67.839 4.75194H64.933V7.88199H63.1911V10.6272H64.9329V17.8113C64.9329 18.5532 65.026 19.1772 65.2106 19.667C65.3926 20.1516 65.6709 20.531 66.0018 20.8272C66.337 21.128 66.7303 21.3623 67.1966 21.4953C67.6705 21.6288 68.1934 21.6803 68.7459 21.6803C69.3179 21.6803 69.8278 21.6208 70.263 21.5034C70.6635 21.3963 71.05 21.2427 71.4148 21.0458V18.8338C70.8416 19.082 70.3056 19.1718 69.6943 19.2002C69.0487 19.2307 68.6669 19.0461 68.3492 18.7429C68.0163 18.4255 67.839 18.0115 67.839 17.3173V10.6272H71.4147V7.88199H67.839V4.75194Z" fill="black"/>
<path fill-rule="evenodd" clip-rule="evenodd" d="M13.5468 19.9397C9.71781 19.9397 6.61381 16.833 6.61381 13.0001C6.61381 9.16747 9.71781 6.06024 13.5468 6.06024V0.382324C6.58485 0.382324 0.941101 6.03137 0.941101 13.0001C0.941101 19.9686 6.58485 25.6176 13.5468 25.6176C20.5086 25.6176 26.1525 19.9686 26.1525 13H20.4798C20.4798 16.833 17.3758 19.9397 13.5468 19.9397Z" fill="#2354E6"/>
<path fill-rule="evenodd" clip-rule="evenodd" d="M13.5467 13H20.4798V6.06026H13.5467V13Z" fill="#17E6A1"/>
</svg>
