<svg width="9" height="9" viewBox="0 0 9 9" fill="none" xmlns="http://www.w3.org/2000/svg">
<path d="M1.50391 4.56641C1.35547 4.5638 1.23177 4.53125 1.13281 4.46875C1.03646 4.40365 0.964844 4.32161 0.917969 4.22266C0.871094 4.12109 0.852865 4.01432 0.863281 3.90234C0.873698 3.78776 0.91276 3.68229 0.980469 3.58594C1.04818 3.48698 1.14844 3.40755 1.28125 3.34766L7.53125 0.46875C7.71094 0.388021 7.8763 0.355469 8.02734 0.371094C8.17839 0.384115 8.30208 0.4375 8.39844 0.53125C8.49479 0.622396 8.55208 0.742188 8.57031 0.890625C8.59115 1.03646 8.5599 1.20052 8.47656 1.38281L5.60547 7.60938C5.54297 7.75 5.46094 7.85547 5.35938 7.92578C5.25781 7.9987 5.14974 8.04036 5.03516 8.05078C4.92057 8.0638 4.8125 8.04688 4.71094 8C4.60938 7.95312 4.52734 7.88021 4.46484 7.78125C4.40234 7.6849 4.37109 7.5651 4.37109 7.42188L4.36328 4.63672C4.36328 4.59505 4.34245 4.57422 4.30078 4.57422L1.50391 4.56641Z" fill="#D02138"/>
</svg>
