<svg width="80" height="80" viewBox="0 0 80 80" fill="none" xmlns="http://www.w3.org/2000/svg">
<g clip-path="url(#clip0_356_4887)">
<mask id="mask0_356_4887" style="mask-type:luminance" maskUnits="userSpaceOnUse" x="0" y="0" width="80" height="80">
<path d="M0 0H80V80H0V0Z" fill="white"/>
</mask>
<g mask="url(#mask0_356_4887)">
<path d="M65.0008 32.2115C67.2455 30.9065 68.9811 29.3854 70.1585 27.6897C70.7246 26.8752 71.1556 26.0231 71.44 25.1576C71.7188 24.3156 71.8598 23.4341 71.8574 22.5471C71.8527 21.6726 71.7017 20.7947 71.4104 19.9367C71.1159 19.0712 70.6753 18.2193 70.1002 17.4037C68.904 15.708 67.1516 14.1871 64.8916 12.8822C62.6316 11.5776 60 10.5677 57.0692 9.88046C55.6605 9.54974 54.1881 9.29786 52.6927 9.13003C51.1959 8.96306 49.691 8.87955 48.1849 8.87988C46.6753 8.87988 45.1597 8.96394 43.6802 9.13003C42.2107 9.29358 40.7521 9.54417 39.3121 9.88046C36.3892 10.5677 33.7689 11.5781 31.5234 12.8831" stroke="#D4374B" stroke-width="1.21136" stroke-linecap="round" stroke-linejoin="round"/>
<path d="M69.1001 29.1044C67.9963 27.9004 66.5876 26.7998 64.8928 25.8218C62.6328 24.5172 60.0012 23.5073 57.0705 22.8201C56.7196 22.7381 56.3653 22.6607 56.0076 22.5879M65.0012 44.9117C67.2459 43.6067 68.9815 42.0859 70.1589 40.3902C70.725 39.5754 71.1557 38.7235 71.4403 37.858C71.7191 37.016 71.8599 36.1345 71.8574 35.2476M15.0128 35.2033C12.7679 36.5082 11.0322 38.0293 9.85483 39.7247C9.28874 40.5395 8.85773 41.3914 8.57367 42.2577C8.29482 43.0997 8.15387 43.9812 8.15628 44.8682C8.1633 45.7567 8.31414 46.6383 8.60295 47.4786C8.89744 48.3441 9.33802 49.1963 9.91309 50.0117C11.1096 51.7073 12.8621 53.2282 15.1218 54.5331C17.3818 55.838 20.0137 56.8476 22.9441 57.5351C24.3528 57.8659 25.8253 58.1177 27.3206 58.2853C28.8174 58.4523 30.3224 58.536 31.8285 58.5357C33.338 58.5357 34.8537 58.4514 36.3331 58.2853C37.8027 58.1218 39.2613 57.8713 40.7012 57.5351C43.6244 56.8476 46.2447 55.8372 48.4902 54.5331" stroke="#D4374B" stroke-width="1.21136" stroke-linecap="round" stroke-linejoin="round"/>
<path d="M8.15625 44.8668V57.4523C8.16337 58.3408 8.31431 59.2224 8.60321 60.0627C8.89741 60.9285 9.33828 61.7804 9.91335 62.5958C11.1096 64.2914 12.862 65.8126 15.122 67.1172C17.382 68.4221 20.0136 69.432 22.9444 70.1192C24.3871 70.4558 25.8485 70.7062 27.3209 70.8694C28.8015 71.0355 30.3189 71.1198 31.8284 71.1198C33.338 71.1198 34.8539 71.0355 36.3334 70.8694C37.8029 70.7059 39.2615 70.4554 40.7015 70.1192C43.6244 69.432 46.2447 68.4213 48.4902 67.1172M15.0128 48.2563C13.4151 49.1847 12.0762 50.2227 11.0119 51.3552M37.4003 48.2572C37.8844 47.3007 38.1565 46.2195 38.1565 45.0749C38.1565 41.1679 34.9658 37.9937 31.0589 38.0129C27.3278 38.0311 24.2806 40.9236 24.0464 44.5984C24.0255 44.9158 24.048 45.2345 24.1131 45.5459C24.1264 45.6141 24.1438 45.6815 24.1652 45.7476C24.2709 46.0524 24.4199 46.3404 24.6076 46.6027C25.0119 47.1755 25.6029 47.6882 26.3661 48.1291C27.1293 48.57 28.0174 48.9105 29.0067 49.1427C29.4939 49.2561 29.9875 49.3407 30.4847 49.396C30.9847 49.4523 31.4965 49.4801 32.0064 49.4801C32.5162 49.4801 33.0281 49.4523 33.5276 49.396C34.0237 49.3405 34.5161 49.2559 35.0023 49.1427C35.9893 48.9105 36.8736 48.57 37.6316 48.1291L65.0012 32.2117M15.0134 35.2027L42.7826 19.0645M48.4905 54.5302L65.0012 44.9108M71.8577 35.2462V22.5468M24.0447 45.0082L24.0331 57.7705M48.4905 67.116L62.289 58.7726V46.4836" stroke="#D4374B" stroke-width="1.21136" stroke-linecap="round" stroke-linejoin="round"/>
<path d="M32.391 38.1312L53.8698 25.6167C54.21 25.4186 54.5353 25.196 54.8432 24.9506C55.212 24.6554 55.5101 24.2813 55.7157 23.8559C55.9213 23.4305 56.0291 22.9645 56.0313 22.4921V22.4785C56.0313 18.5782 52.8692 15.4161 48.9692 15.4161C45.0692 15.4161 41.9072 18.5785 41.9072 22.4785C41.9072 25.848 44.2681 28.6672 47.4255 29.3712M15.0156 48.2547L24.4179 42.7759M17.973 33.4825V20.759L31.5258 12.8828M56.0533 22.5947L56.0307 37.328" stroke="#D4374B" stroke-width="1.21136" stroke-linecap="round" stroke-linejoin="round"/>
</g>
</g>
<defs>
<clipPath id="clip0_356_4887">
<rect width="80" height="80" fill="white"/>
</clipPath>
</defs>
</svg>
