<svg width="112" height="38" viewBox="0 0 112 38" fill="none" xmlns="http://www.w3.org/2000/svg">
<path d="M95.6536 35.4529V37.8229H111.782V27.1338H109.432V35.4529H95.6536ZM95.6536 0.176453V2.54645H109.432V10.8662H111.782V0.176453H95.6536ZM87.336 18.512V13.0047H91.0227C92.8202 13.0047 93.4653 13.6088 93.4653 15.2588V16.2347C93.4653 17.9312 92.8429 18.512 91.0227 18.512H87.336ZM93.1882 19.4879C94.87 19.0465 96.0449 17.4659 96.0449 15.5841C96.0449 14.3988 95.5845 13.3297 94.709 12.4697C93.6029 11.4006 92.1279 10.8662 90.2157 10.8662H85.0316V27.1332H87.336V20.65H90.7923C92.5662 20.65 93.2807 21.3935 93.2807 23.2529V27.1338H95.6308V23.6247C95.6308 21.0682 95.0319 20.0923 93.1882 19.8135V19.4879ZM73.7879 20.0223H80.8848V17.8844H73.7879V13.0041H81.5759V10.8662H71.4375V27.1332H81.9215V24.9953H73.7879V20.0223ZM66.0687 20.8823V21.9976C66.0687 24.3447 65.2161 25.1117 63.0735 25.1117H62.5667C60.4236 25.1117 59.3869 24.4144 59.3869 21.1841V16.8153C59.3869 13.562 60.4699 12.8876 62.6125 12.8876H63.0729C65.17 12.8876 65.8381 13.6779 65.8608 15.8623H68.3956C68.1652 12.6553 66.0454 10.6341 62.8656 10.6341C61.3221 10.6341 60.0316 11.1223 59.064 12.0515C57.6124 13.4226 56.806 15.7465 56.806 18.9997C56.806 22.137 57.4975 24.4609 58.9258 25.9015C59.8934 26.8544 61.2299 27.3656 62.5434 27.3656C63.9256 27.3656 65.1933 26.8076 65.8381 25.5994H66.1603V27.1332H68.2801V18.7441H62.0359V20.8823H66.0687ZM45.7469 13.0041H48.2587C50.6321 13.0041 51.9226 13.6082 51.9226 16.8617V21.1376C51.9226 24.3906 50.6321 24.9953 48.2587 24.9953H45.7469V13.0041ZM48.4657 27.1335C52.8668 27.1335 54.5022 23.7641 54.5022 19.0003C54.5022 14.1667 52.7513 10.8667 48.4193 10.8667H43.4423V27.1338L48.4657 27.1335ZM32.3141 20.0223H39.4109V17.8844H32.3141V13.0041H40.1018V10.8662H29.9633V27.1332H40.4476V24.9953H32.3141V20.0223ZM18.7196 10.8665H16.3697V27.1332H26.9687V24.9953H18.7196V10.8665ZM0.217499 27.1335V37.8235H16.3464V35.4529H2.56737V27.1338L0.217499 27.1335ZM0.217499 0.176453V10.8662H2.56737V2.54645H16.3464V0.176453H0.217499Z" fill="black"/>
</svg>
