<svg width="32" height="32" viewBox="0 0 32 32" fill="none" xmlns="http://www.w3.org/2000/svg">
<path d="M25.0598 16.9172V15.0711H30V16.9172H25.0598ZM26.7193 28.8462L22.7656 25.2667L23.7185 23.8047L27.6721 27.3823L26.7193 28.8462ZM23.6007 8.04149L22.6478 6.57944L26.6015 3L27.5544 4.4639L23.6007 8.04149ZM6.05921 27.0001V19.9705H2V12.0178H10.1765L16.2363 7.68705V24.3012L10.1765 19.9705H7.58868V27.0001H6.05921ZM14.7068 21.0135V10.9748L10.6063 13.8638H3.52947V18.1245H10.6063L14.7068 21.0135ZM18.9419 21.3273V10.6628C19.4538 11.2351 19.8662 11.9871 20.1793 12.9187C20.4923 13.8503 20.6483 14.8755 20.6473 15.9941C20.6463 17.1128 20.4903 18.138 20.1793 19.0696C19.8683 20.0012 19.4558 20.755 18.9419 21.3273Z" fill="#D02138"/>
</svg>
