<svg width="11" height="8" viewBox="0 0 11 8" fill="none" xmlns="http://www.w3.org/2000/svg">
<path d="M5.12891 7.72266C4.79818 7.72266 4.56771 7.67188 4.4375 7.57031C4.30729 7.47135 4.24219 7.32943 4.24219 7.14453C4.24219 6.89453 4.31901 6.63151 4.47266 6.35547C4.6263 6.07943 4.84766 5.82161 5.13672 5.58203C5.42578 5.33984 5.77344 5.14323 6.17969 4.99219C6.58854 4.84115 7.04557 4.76562 7.55078 4.76562C8.05599 4.76562 8.51172 4.84115 8.91797 4.99219C9.32682 5.14323 9.67578 5.33984 9.96484 5.58203C10.2539 5.82161 10.4753 6.07943 10.6289 6.35547C10.7826 6.63151 10.8594 6.89453 10.8594 7.14453C10.8594 7.32943 10.7943 7.47135 10.6641 7.57031C10.5339 7.67188 10.3021 7.72266 9.96875 7.72266H5.12891ZM7.55078 4.07812C7.26172 4.07812 6.9974 4.0013 6.75781 3.84766C6.51823 3.69141 6.32552 3.48307 6.17969 3.22266C6.03646 2.95964 5.96484 2.66536 5.96484 2.33984C5.96484 2.02474 6.03776 1.73828 6.18359 1.48047C6.32943 1.22005 6.52214 1.01432 6.76172 0.863281C7.0013 0.709635 7.26432 0.632812 7.55078 0.632812C7.83984 0.632812 8.10417 0.708333 8.34375 0.859375C8.58333 1.01042 8.77474 1.21484 8.91797 1.47266C9.0638 1.72786 9.13672 2.01562 9.13672 2.33594C9.13672 2.66146 9.0638 2.95573 8.91797 3.21875C8.77474 3.48177 8.58333 3.69141 8.34375 3.84766C8.10417 4.0013 7.83984 4.07812 7.55078 4.07812ZM0.886719 7.72656C0.613281 7.72656 0.420573 7.66927 0.308594 7.55469C0.196615 7.44271 0.140625 7.28385 0.140625 7.07812C0.140625 6.81771 0.208333 6.55208 0.34375 6.28125C0.481771 6.00781 0.677083 5.75651 0.929688 5.52734C1.1849 5.29818 1.48828 5.11198 1.83984 4.96875C2.19401 4.82552 2.58854 4.75391 3.02344 4.75391C3.36719 4.75391 3.67839 4.79948 3.95703 4.89062C4.23828 4.97917 4.48438 5.09115 4.69531 5.22656C4.46875 5.40625 4.27474 5.60807 4.11328 5.83203C3.95182 6.05599 3.82812 6.28516 3.74219 6.51953C3.65885 6.7513 3.61849 6.97135 3.62109 7.17969C3.6263 7.39062 3.68099 7.57292 3.78516 7.72656H0.886719ZM3.02344 4.16406C2.77344 4.16406 2.54297 4.09766 2.33203 3.96484C2.1237 3.82943 1.95703 3.64714 1.83203 3.41797C1.70703 3.1888 1.64453 2.93359 1.64453 2.65234C1.64453 2.3763 1.70703 2.1263 1.83203 1.90234C1.95964 1.67578 2.1276 1.49609 2.33594 1.36328C2.54688 1.23047 2.77604 1.16406 3.02344 1.16406C3.27083 1.16406 3.4987 1.23047 3.70703 1.36328C3.91797 1.49349 4.08594 1.67057 4.21094 1.89453C4.33854 2.11849 4.40234 2.36979 4.40234 2.64844C4.40234 2.92969 4.33984 3.1862 4.21484 3.41797C4.08984 3.64714 3.92318 3.82943 3.71484 3.96484C3.50651 4.09766 3.27604 4.16406 3.02344 4.16406Z" fill="#4D4D5A" fill-opacity="0.24"/>
</svg>
