<svg width="13" height="11" viewBox="0 0 13 11" fill="none" xmlns="http://www.w3.org/2000/svg">
<path fill-rule="evenodd" clip-rule="evenodd" d="M11.0333 0.584146C11.1774 0.523474 11.3352 0.502549 11.4902 0.523548C11.6452 0.544547 11.7917 0.606703 11.9145 0.703546C12.0373 0.800389 12.1319 0.928379 12.1885 1.07419C12.2451 1.22001 12.2615 1.37832 12.2361 1.53265L10.9131 9.55756C10.7848 10.3316 9.93546 10.7756 9.22554 10.39C8.63171 10.0674 7.74971 9.5704 6.95637 9.05181C6.55971 8.79223 5.34462 7.96098 5.49396 7.36948C5.62229 6.86373 7.66396 4.96323 8.83062 3.83331C9.28854 3.3894 9.07971 3.13331 8.53896 3.54165C7.19612 4.55548 5.04012 6.09723 4.32729 6.53123C3.69846 6.9139 3.37062 6.97923 2.97862 6.9139C2.26346 6.7949 1.60021 6.61056 1.05887 6.38598C0.327372 6.08265 0.362955 5.07698 1.05829 4.78415L11.0333 0.584146Z" fill="#9D9DAA"/>
</svg>
