<svg width="50" height="50" viewBox="0 0 50 50" fill="none" xmlns="http://www.w3.org/2000/svg">
<path d="M38.709 39.2016L38.2901 39.5911L37.9497 39.9062M38.709 39.2016L39.0366 38.8687L39.441 38.4455L39.7533 38.0953L40.1412 37.6401L40.4356 37.2734L40.8044 36.7881L41.0785 36.4058L41.4261 35.8924L41.6781 35.4953L42.0022 34.9558L42.2299 34.5455L42.529 33.9821L42.7305 33.5593L43.0026 32.9743L43.2437 32.3758L43.4196 31.9363L43.6316 31.3203L43.7776 30.872L43.9587 30.2412L44.0738 29.7854L44.2234 29.1421L44.4234 28.0274L44.5073 27.3694L44.5575 26.9015L44.608 26.2384L44.6249 25.7683L44.6417 25.1029M38.709 39.2016L38.3577 39.5265L37.9497 39.9062M37.9497 39.9062L37.5868 40.2129L37.1687 40.5571L36.797 40.845L35.9932 41.4212M26.4979 15.5846L26.9712 15.6129L27.6488 15.67L28.3216 15.7432L28.9886 15.8321L29.6488 15.9372L30.3008 16.0578L30.9435 16.1937L31.5761 16.345L32.1973 16.5115L32.806 16.6921L33.4015 16.8874L33.9821 17.0968L34.5473 17.3196L35.0964 17.5562L35.6279 17.8053L36.141 18.0671L36.635 18.3406L37.1091 18.6258L37.5624 18.9221L37.9939 19.229L38.4033 19.5459L38.7894 19.8721L39.1519 20.2076L39.4903 20.5513L39.8035 20.9028L40.0915 21.2615L40.3535 21.6267L40.589 21.9977L40.7981 22.3743L40.9798 22.7553L41.1339 23.1404L41.2607 23.529L41.3595 23.9201L41.4299 24.3133L41.4723 24.7078L41.4866 25.1029L41.475 25.4729M41.475 25.4729L41.4723 25.6618L41.4584 26.0567L41.4158 26.6136L41.3738 27.0069L41.3031 27.5595L41.2334 27.9497L41.2048 28.108L41.1352 28.4959L41.0095 29.0361L40.9131 29.4191L40.7607 29.949L40.6379 30.3256L40.4602 30.843L40.3122 31.2122L40.1098 31.7149L39.8814 32.2064L39.7118 32.5613L39.6564 32.666M41.475 25.4729L41.4303 25.8928L41.3598 26.2859L41.2611 26.6772L41.1343 27.0656L40.9801 27.4508L40.7984 27.8319L40.5894 28.2082L40.3538 28.5794L40.0917 28.9446L39.8038 29.3033L39.4906 29.6548L39.1522 29.9984L38.7897 30.3337L38.4037 30.6602L37.9942 30.977L37.5627 31.2839L37.1095 31.5801L36.6354 31.8654L36.4319 31.9781M39.6564 32.666L39.4303 32.8138L38.8662 33.1533L38.2779 33.4792L37.6669 33.7906L37.0341 34.0874L36.3807 34.3685L35.708 34.6341L35.0163 34.8832L34.3077 35.1156L33.583 35.331L32.8433 35.529L32.0906 35.7091L31.3252 35.8711L30.549 36.0145L29.7633 36.1395L28.9691 36.2455L28.168 36.3326L27.3615 36.4004L26.5508 36.449L25.7372 36.4781L24.9223 36.4879L24.1075 36.4781L23.2939 36.449L22.4832 36.4004L21.6767 36.3326L20.8756 36.2455L20.0816 36.1395L19.2957 36.0145L18.5194 35.8711L17.7542 35.7091L17.0011 35.529L16.2616 35.331L15.537 35.1156L14.8283 34.8832L14.1368 34.6341L13.464 34.3685L12.8106 34.0874L12.1778 33.7906L11.5669 33.4792L10.9787 33.1533L10.4144 32.8138L10.1883 32.666M39.6564 32.666L39.6649 32.6607L39.9701 32.4611L40.4841 32.0959L40.9711 31.7185L41.4308 31.3299L41.8624 30.9308L42.2653 30.5216L42.6384 30.1033L42.981 29.6763L43.2928 29.2415L43.5734 28.7997L43.8221 28.3515L44.0386 27.8979L44.2221 27.4394L44.373 26.9769L44.4904 26.5113L44.5745 26.0432L44.625 25.5734L44.6417 25.1029M10.1883 32.666L10.1801 32.6605L9.87486 32.4611L9.3611 32.0957L8.87378 31.7185L8.41399 31.3299L7.98247 30.9307L7.57976 30.5216L7.20657 30.1031L6.86399 29.6763L6.55204 29.2415L6.27142 28.7997L6.02287 28.3515L5.80639 27.8979L5.62269 27.4394L5.47197 26.9769L5.35439 26.5111L5.27034 26.0432L5.21997 25.5734L5.20312 25.1029M10.1883 32.666L10.1332 32.5615L9.96381 32.2064L9.73537 31.7149L9.53283 31.2122L9.38501 30.843L9.20711 30.3256L9.08428 29.949L8.93211 29.4191L8.83555 29.0363L8.70983 28.4959L8.54189 27.5596L8.47142 27.0069L8.42921 26.6138L8.38682 26.0567L8.37269 25.662L8.35856 25.1029M5.20312 25.1029L5.21997 24.6325L5.27034 24.1629L5.35439 23.6946L5.47215 23.229L5.62269 22.7665L5.80639 22.3082L6.02287 21.8544L6.27142 21.4062L6.55204 20.9645L6.86399 20.5296L7.20675 20.1026L7.57976 19.6841L7.98247 19.2752L8.41399 18.8759L8.87378 18.4875L9.3611 18.1102L9.87486 17.745L10.4144 17.3921L10.9787 17.0526L11.5669 16.7269L12.1778 16.4153L12.8106 16.1185L13.464 15.8374L14.137 15.5718L14.8283 15.3227L15.537 15.0901L16.2616 14.8749L17.0011 14.6769L17.7542 14.497L18.5194 14.335L19.2957 14.1913L20.0816 14.0663L20.8756 13.9604L21.6767 13.8734L22.4832 13.8055L23.2939 13.7569L24.1075 13.7278L24.9223 13.718L25.7372 13.7278L26.5508 13.7567L27.3615 13.8057L28.168 13.8732L28.9691 13.9604L29.7633 14.0663L30.549 14.1913L31.3252 14.335L32.0906 14.497L32.8433 14.6769L33.583 14.8749L34.3077 15.0901L35.0163 15.3227L35.708 15.5718L36.3807 15.8374L37.0341 16.1185L37.6669 16.4153L38.2779 16.7269L38.8662 17.0526L39.4303 17.3921L39.97 17.745L40.4837 18.1102L40.9709 18.4875L41.4307 18.8759L41.8622 19.2752L42.2651 19.6841L42.6381 20.1026L42.9808 20.5296L43.2926 20.9645L43.5732 21.4062L43.822 21.8544L44.0384 22.3082L44.222 22.7665L44.3729 23.229L44.4903 23.6946L44.5743 24.1629L44.6249 24.6325L44.6417 25.1029M5.20312 25.1029L5.21997 25.7683L5.23664 26.2384L5.28718 26.9015L5.33755 27.3694L5.42124 28.0274L5.62142 29.1421L5.77088 29.7854L5.8861 30.2412L6.06726 30.872L6.21327 31.3203L6.42505 31.9363L6.60131 32.3758L6.84226 32.9743L7.11418 33.5593L7.31581 33.9821L7.61472 34.5455L7.84226 34.9558L8.16653 35.4953L8.4187 35.8924L8.76617 36.4058L9.04044 36.7881L9.40928 37.2734L9.70367 37.6401L10.0914 38.0953L10.4037 38.4455L10.808 38.8687L11.1357 39.2017M35.9932 41.4212L35.5962 41.6807L35.181 41.9403L34.7821 42.1803L34.3662 42.4107L33.9678 42.6218L33.554 42.8326L33.1256 43.0336L32.75 43.1951L32.683 43.2243L32.3281 43.3776L31.893 43.5491L31.4462 43.7102L30.687 43.9587L30.2419 44.091L29.7875 44.2125L29.3252 44.323L28.8551 44.4225M35.9932 41.4212L36.3711 41.1526M28.8551 44.4225L28.3783 44.5107L28.1919 44.547M28.8551 44.4225L28.6426 44.4636L28.1919 44.547M28.1919 44.547L27.7352 44.6196M27.7352 44.6196L27.2738 44.6812L26.8084 44.7319L26.3397 44.7712L25.8685 44.7995L25.3959 44.8163L24.9223 44.8221L24.4488 44.8163L23.9761 44.7995L23.5051 44.7712L23.0365 44.7319L22.5709 44.6812L22.1095 44.6196M27.7352 44.6196L27.8955 44.5875M22.1095 44.6196L21.6529 44.547M22.1095 44.6196L21.9493 44.5875M21.6529 44.547L21.4663 44.5107L20.9897 44.4225M21.6529 44.547L21.2015 44.4636L20.9897 44.4225M20.9897 44.4225L20.5196 44.323L20.0571 44.2125L19.6029 44.091L19.1578 43.9587L18.8566 43.8604L18.3986 43.7102L17.9517 43.5491L17.5169 43.3776L17.1618 43.2243L17.0948 43.1951L16.7192 43.0336L16.2908 42.8326L15.8769 42.6218L15.4787 42.4107L15.0627 42.1803L14.6636 41.9403L14.2486 41.6807L13.8515 41.4212M13.8515 41.4212L13.4734 41.1526M13.8515 41.4212L13.0479 40.845L12.676 40.5571L12.2578 40.2129L11.895 39.9062M11.895 39.9062L11.487 39.5265L11.1357 39.2017M11.895 39.9062L11.5546 39.5912L11.1357 39.2017M27.3506 17.4908L27.6741 17.5261L28.2142 17.5982L28.7486 17.683L29.2763 17.7808L29.7966 17.891L30.3087 18.0134L30.8115 18.148L31.3044 18.2942L31.7863 18.4524L32.2566 18.622L32.7142 18.8024L33.1584 18.9937L33.5886 19.1955L34.0042 19.4071L34.404 19.6288L34.7879 19.8598L35.1546 20.0995L35.504 20.348L35.8354 20.6046L36.1481 20.8687L36.4413 21.1403L36.7153 21.4183L36.9691 21.7028L37.202 21.9933L37.4142 22.2888L37.6049 22.5892L37.7741 22.8941L37.9212 23.2026L38.0461 23.5144L38.1488 23.8288L38.2285 24.1453L38.2857 24.4636L38.3202 24.7832L38.3314 25.1031M38.3314 25.1031L38.3202 25.423L38.2857 25.7424L38.2285 26.0607L38.1488 26.3774L38.0461 26.6917L37.9212 27.0035L37.7741 27.312L37.6049 27.6169L37.4142 27.9173L37.202 28.2129L36.9691 28.5033L36.7153 28.7877L36.4413 29.066L36.1481 29.3374L35.8354 29.6017L35.504 29.8582L35.1546 30.1066L34.7879 30.3464L34.404 30.5774L34.0042 30.7988L33.5886 31.0107L33.1584 31.2124L33.1548 31.214M38.3314 25.1031L38.3247 25.3821L38.3203 25.5555L38.3087 25.875L38.2743 26.3259L38.2403 26.6442L38.1832 27.0917L38.1265 27.4075L38.1037 27.5357L38.0471 27.8497L37.9455 28.287L37.8673 28.597L37.7439 29.0259L37.6448 29.3308L37.5008 29.7497L37.381 30.0486L37.2171 30.4555L37.0321 30.8533L36.895 31.1408L36.6919 31.5239L36.537 31.8029L36.4319 31.9781M33.1548 31.214L32.7142 31.4037L32.2566 31.5843L31.7863 31.7537L31.3044 31.9118L30.8115 32.0582L30.3087 32.1928L29.7966 32.3153L29.2763 32.4254L28.7486 32.523L28.2142 32.608L27.6741 32.6801L27.1294 32.7392L26.5808 32.7854L26.0296 32.8183L25.4763 32.8383L24.9223 32.8448L24.3682 32.8383L23.8151 32.8183L23.2638 32.7854L22.7153 32.7392L22.1705 32.6801L21.6307 32.608L21.0962 32.523L20.5683 32.4254L20.0481 32.3153L19.5359 32.1928L19.0332 32.0582L18.5403 31.9118L18.0584 31.7537L17.5883 31.5843L17.1307 31.4037L16.6901 31.214M33.1548 31.214L33.1814 31.1794L33.324 30.9805L33.5048 30.7134L33.6357 30.5071L33.8042 30.2265L33.9227 30.0131L34.0781 29.7201L34.183 29.5004L34.3243 29.1961L34.4499 28.8848L34.5412 28.6564L34.6515 28.3361L34.7276 28.1029L34.8216 27.7749L34.8814 27.5379L34.9593 27.2033L35.0634 26.6238L35.1067 26.2816L35.1328 26.0383L35.1593 25.6935L35.168 25.449L35.1765 25.1031M16.6901 31.214L16.6865 31.2124L16.256 31.0107L15.8406 30.7988L15.4406 30.5774L15.0569 30.3464L14.6901 30.1066L14.3406 29.8582L14.0093 29.6017L13.6966 29.3374L13.4031 29.066L13.1294 28.7877L12.8758 28.5033L12.6426 28.2129L12.4307 27.9173L12.2397 27.6169L12.0707 27.312L11.9236 27.0035L11.7986 26.6917L11.6961 26.3774L11.6163 26.0607L11.5589 25.7424L11.5245 25.423L11.5133 25.1031M16.6901 31.214L16.6642 31.1794L16.5214 30.9805L16.3408 30.7134L16.2096 30.5071L16.0412 30.2265L15.9227 30.0131L15.7673 29.7201L15.6624 29.5004L15.5211 29.1961L15.3957 28.8848L15.304 28.6564L15.1939 28.3361L15.118 28.1029L15.0238 27.7749L14.964 27.5379L14.8861 27.2033L14.7821 26.6238L14.7386 26.2816L14.7124 26.0383L14.6861 25.6935L14.6774 25.449L14.674 25.3165L14.6687 25.1031M11.5133 25.1031L11.5247 24.7832L11.5591 24.4636L11.6162 24.1453L11.6961 23.8288L11.7986 23.5144L11.9236 23.2026L12.0707 22.8941L12.2397 22.5892L12.4305 22.2888L12.6426 21.9933L12.8758 21.7028L13.1294 21.4183L13.4031 21.1403L13.6966 20.8687L14.0093 20.6046L14.3408 20.348L14.6901 20.0995L15.0569 19.8598L15.4406 19.6288L15.8406 19.4071L16.256 19.1955L16.6863 18.9937L17.1307 18.8024L17.5883 18.622L18.0584 18.4524L18.5403 18.2942L19.0332 18.148L19.5359 18.0134L20.0481 17.891L20.5683 17.7807L21.0962 17.683L21.6307 17.5982L22.1705 17.5261L22.4941 17.4908M11.5133 25.1031L11.5247 25.5555L11.5361 25.875L11.5703 26.3259L11.6048 26.6442L11.6616 27.0917L11.7977 27.8497L11.8993 28.287L11.9776 28.597L12.1008 29.0259L12.2002 29.3308L12.3442 29.7497L12.464 30.0486L12.6279 30.4555L12.8127 30.8533L12.9499 31.1408L13.1531 31.524L13.308 31.8029L13.4131 31.9781M13.4131 31.9781L13.704 32.139L14.2173 32.4008L14.7488 32.6499L15.2977 32.8863L15.8629 33.1091L16.4437 33.3185L17.039 33.5138L17.6477 33.6948L18.2689 33.8609L18.9015 34.0122L19.5442 34.1482L20.1964 34.2689L20.8564 34.3738L21.5234 34.4629L22.1964 34.5359L22.8738 34.593L23.5549 34.6337L24.2383 34.6582L24.9227 34.6663L25.6073 34.6582L26.2906 34.6337L26.9716 34.593L27.6491 34.5359L28.322 34.4629L28.989 34.3738L29.6491 34.2689L30.3011 34.1482L30.9439 34.0122L31.5765 33.8609L32.1977 33.6948L32.8064 33.5138L33.4019 33.3185L33.9825 33.1091L34.5477 32.8863L35.0968 32.6499L35.6281 32.4008L36.1413 32.139L36.4319 31.9781M13.4131 31.9781L13.21 31.8654L12.7361 31.5801L12.2828 31.2839L11.8513 30.977L11.4419 30.6602L11.0557 30.3337L10.6932 29.9984L10.3549 29.6548L10.0415 29.3033L9.75349 28.9446L9.49153 28.5794L9.25602 28.2082L9.04715 27.8319L8.86526 27.4508L8.7111 27.0656L8.58428 26.6772L8.48573 26.2859L8.41508 25.8928L8.37269 25.4982L8.35856 25.1029M8.35856 25.1029L8.37269 24.708L8.41508 24.3133L8.48573 23.9201L8.58447 23.529L8.7111 23.1404L8.86526 22.7555L9.04715 22.3743L9.25602 21.9979L9.49153 21.6269L9.75367 21.2615L10.0417 20.9028L10.3549 20.5513L10.6932 20.2076L11.0557 19.8723L11.4419 19.5461L11.8513 19.2292L12.2828 18.9221L12.7361 18.6259L13.21 18.3408L13.704 18.0672L14.2173 17.8053L14.7488 17.5564L15.2977 17.3198L15.8629 17.097L16.4437 16.8875L17.039 16.6922L17.6477 16.5115L18.2689 16.3451L18.9015 16.1939L19.5442 16.058L20.1964 15.9372L20.8564 15.8321L21.5234 15.7433L22.1964 15.6701L22.8738 15.6131L23.3471 15.5846M26.4999 19.2542L26.61 19.2636L27.0267 19.3089L27.4397 19.364L27.8481 19.429L28.2517 19.5035L28.6497 19.5879L29.0412 19.6816L29.4258 19.7845L29.8026 19.8964L30.1711 20.0174L30.5308 20.147L30.8808 20.285L31.2205 20.431L31.5495 20.5855L31.8671 20.7473L32.173 20.9169L32.4665 21.0933L32.747 21.2769L33.0144 21.4669L33.2676 21.6629L33.5066 21.8649L33.731 22.0725L33.9404 22.2854L34.1345 22.5028L34.3127 22.725L34.4749 22.9509L34.6207 23.1807L34.7502 23.4138L34.8627 23.6499L34.958 23.8881L35.0366 24.1285L35.0977 24.3707L35.1413 24.614L35.1676 24.8582L35.1765 25.1031M35.1765 25.1031L35.1676 25.3477L35.1413 25.5919L35.0977 25.8354L35.0366 26.0774L34.958 26.318L34.8627 26.5564L34.7502 26.7923L34.6207 27.0252L34.4749 27.2551L34.3127 27.4812L34.1345 27.7031L33.9404 27.9207L33.731 28.1336L33.5066 28.341L33.2676 28.5432L33.0144 28.7394L32.747 28.9292L32.4665 29.1127L32.173 29.2892L31.8671 29.4587L31.5495 29.6207L31.2205 29.7749L30.8808 29.9212L30.5308 30.0593L30.1711 30.1888L29.8026 30.3096L29.7173 30.335M29.7173 30.335L29.7163 30.3354L29.4258 30.4216L29.0412 30.5245L28.6497 30.6182L28.2517 30.7024L27.8481 30.777L27.4397 30.8421L27.0267 30.8971L26.61 30.9424L26.1908 30.9778L25.7691 31.0029L25.3461 31.0182L24.9223 31.0232L24.4986 31.0182L24.0756 31.0029L23.654 30.9778L23.2346 30.9424L22.818 30.8971L22.4051 30.8421L21.9964 30.777L21.5928 30.7024L21.195 30.6182L20.8033 30.5245L20.4187 30.4216L20.1285 30.3354M29.7173 30.335L29.7348 30.3185L29.7596 30.2959L29.8857 30.1785L30.0037 30.0587L30.1493 29.9064L30.2618 29.7803L30.4013 29.6163L30.5073 29.4843L30.6401 29.3096L30.7388 29.172L30.864 28.9872L30.9546 28.8442L31.0714 28.65L31.1535 28.5024L31.2609 28.2995L31.3334 28.1473L31.4314 27.9366L31.5817 27.5631L31.6578 27.3413L31.7106 27.1799L31.7758 26.9528L31.8173 26.7886L31.8709 26.5571L31.9008 26.3908L31.9131 26.323L31.943 26.1558L31.973 25.9189L31.9913 25.7504L32.0095 25.5118L32.0154 25.3426L32.0178 25.2508L32.0212 25.1031M20.1285 30.3354L20.1274 30.335L20.0636 30.3028M20.1285 30.3354L20.1104 30.3185L20.0636 30.3028M20.0636 30.3028L19.9591 30.1785L19.8412 30.0587L19.6955 29.9064L19.5832 29.7803L19.4435 29.6163L19.3375 29.4845L19.2048 29.3096L19.106 29.172L18.981 28.9872L18.8903 28.8442L18.7736 28.65L18.6915 28.5024L18.5839 28.2995L18.5113 28.1473L18.4135 27.9366L18.3267 27.7212L18.2633 27.5631L18.187 27.3413L18.1345 27.1799L18.0692 26.9528L18.0278 26.7886L17.974 26.5571L17.9441 26.391L17.9319 26.323L17.9019 26.1558L17.8718 25.9191L17.8537 25.7504L17.8356 25.5118L17.8294 25.3426L17.8283 25.2616M20.0636 30.3028L19.6738 30.1888L19.3142 30.0593L18.9644 29.9212L18.6245 29.7749L18.2955 29.6207L17.9778 29.4587L17.672 29.2892L17.3785 29.1127L17.0981 28.9292L16.8308 28.7394L16.5774 28.5432L16.3383 28.341L16.114 28.1336L15.9046 27.9207L15.7106 27.7031L15.5323 27.4812L15.3702 27.2551L15.2243 27.0252L15.095 26.7923L14.9825 26.5564L14.8868 26.318L14.8086 26.0774L14.7473 25.8354L14.7037 25.5919L14.6774 25.3477L14.6687 25.1031M17.8283 25.2616L17.8234 25.1031L17.8294 24.9336L17.8475 24.7647L17.8779 24.5959L17.9202 24.4285L17.9745 24.2618L18.0406 24.097L18.1185 23.9336L18.208 23.7723L18.3089 23.6131L18.4212 23.4567L18.5448 23.3029L18.679 23.1522L18.824 23.0049L18.9794 22.8613L19.1448 22.7214L19.3203 22.5857L19.5053 22.4542L19.6995 22.3272L19.9026 22.2049L20.1144 22.0877L20.3343 21.9754L20.562 21.8687L20.7973 21.7673L21.0395 21.672L21.2884 21.5821L21.5435 21.4984L21.8046 21.4209L22.0707 21.3497L22.3417 21.2848L22.6173 21.2267L22.8968 21.1749L23.1796 21.1299L23.4654 21.0919L23.7538 21.0604L24.0442 21.0359L24.3361 21.0185L24.629 21.008L24.9223 21.0044L25.2158 21.008L25.5086 21.0185L25.8004 21.0359L26.0908 21.0604L26.379 21.0919L26.6649 21.1299L26.9479 21.1749L27.2272 21.2267L27.5029 21.2848L27.774 21.3497L28.0401 21.4209L28.3009 21.4984L28.5562 21.5821L28.8051 21.672L29.0473 21.7673L29.2825 21.8687L29.5104 21.9754L29.7303 22.0877L29.9419 22.2049L30.1453 22.3272L30.3394 22.4542L30.5243 22.5857L30.6999 22.7214L30.8653 22.8613L31.0207 23.0049L31.1658 23.1522L31.3 23.3029L31.4232 23.4567L31.5357 23.6131L31.6366 23.7723L31.7263 23.9336L31.804 24.097L31.8702 24.2618L31.9243 24.4285L31.9667 24.5959L31.9971 24.7647L32.0153 24.9336L32.0212 25.1031M17.8283 25.2616L17.8477 25.4415L17.8779 25.61L17.9202 25.7776L17.9745 25.9441L18.0406 26.1091L18.1185 26.2725L18.208 26.4339L18.3089 26.593L18.4212 26.7495L18.5448 26.9031L18.679 27.0537L18.824 27.2009L18.9794 27.3448L19.1448 27.4846L19.3203 27.6205L19.5053 27.7519L19.6995 27.8788L19.9026 28.0011L20.1144 28.1185L20.3343 28.2307L20.562 28.3374L20.7973 28.4386L21.0395 28.5343L21.2884 28.624L21.5435 28.7076L21.8046 28.7852L22.0707 28.8564L22.3417 28.9212L22.6173 28.9796L22.8968 29.0312L23.1796 29.0761L23.4654 29.1144L23.7538 29.1457L24.0442 29.1701L24.3361 29.1875L24.629 29.198L24.9223 29.2017L25.2158 29.198L25.5086 29.1875L25.8004 29.1701L26.0908 29.1457L26.379 29.1144L26.6649 29.0761L26.9479 29.0312L27.2272 28.9796L27.5029 28.9212L27.774 28.8564L28.0401 28.7852L28.3009 28.7076L28.5562 28.624L28.8051 28.5343L29.0473 28.4386L29.2825 28.3374L29.5104 28.2307L29.7303 28.1185L29.9419 28.0011L30.1453 27.8788L30.3394 27.7519L30.5243 27.6205L30.6999 27.4846L30.8653 27.3448L31.0207 27.2009L31.1658 27.0537L31.3 26.9031L31.4232 26.7495L31.5357 26.593L31.6366 26.4339L31.7263 26.2725L31.804 26.1091L31.8702 25.9441L31.9243 25.7776L31.9667 25.61L31.9971 25.4415L32.0153 25.2723L32.0212 25.1031M14.6687 25.1031L14.6774 24.8582L14.7037 24.614L14.7473 24.3707L14.8086 24.1285L14.8868 23.8881L14.9825 23.6499L15.0948 23.4138L15.2243 23.1807L15.3702 22.9509L15.5323 22.725L15.7106 22.5028L15.9044 22.2854L16.114 22.0725L16.3385 21.8649L16.5776 21.6629L16.8308 21.4669L17.0981 21.2769L17.3785 21.0933L17.672 20.9169L17.9778 20.7473L18.2955 20.5855L18.6245 20.431L18.9644 20.285L19.3142 20.147L19.6738 20.0174L20.0423 19.8964L20.4191 19.7845L20.8037 19.6816L21.1953 19.5879L21.5932 19.5035L21.9968 19.429L22.4055 19.364L22.8183 19.3089L23.235 19.2636L23.3453 19.2542M26.9408 16.0837L26.9495 16.095M26.9495 16.095L27.0024 16.1785L27.0519 16.2644L27.0979 16.352L27.1397 16.4413L27.1781 16.5325L27.1839 16.5473L27.2185 16.6401L27.2491 16.7343L27.2758 16.8297L27.2984 16.9261L27.3169 17.0232L27.3312 17.1209L27.3325 17.1307L27.3332 17.1377L27.3439 17.2361L27.3499 17.335L27.352 17.4339L27.3499 17.5328L27.3439 17.6317L27.3332 17.7301L27.3189 17.8279L27.3004 17.9252L27.2778 18.0216L27.251 18.1172L27.2203 18.2113L27.1859 18.3042L27.1475 18.3957L27.1051 18.4855L27.0591 18.5736L27.0096 18.6595L26.9564 18.7435L26.8997 18.8252L26.8397 18.9047L26.7765 18.9816L26.71 19.0557L26.6404 19.127L26.5682 19.1957L26.4928 19.2611L26.4147 19.3234L26.3345 19.3826L26.2513 19.4384L26.1662 19.4908L26.0788 19.5399L25.9895 19.585L25.8986 19.6267L25.8057 19.6645L25.7113 19.6988L25.6156 19.7288L25.5191 19.7549L25.4212 19.7772L25.3225 19.7957L25.2231 19.81L25.1232 19.8201L25.0231 19.8263L24.9227 19.8283L24.8221 19.8263L24.722 19.8201L24.6221 19.81L24.5227 19.7957L24.4241 19.7772L24.3263 19.7549L24.2294 19.7288L24.1337 19.6988L24.0395 19.6645L23.9468 19.6267L23.8557 19.585L23.7663 19.5399L23.679 19.4908L23.5939 19.4384L23.5109 19.3826L23.4305 19.3234L23.3524 19.2611L23.2772 19.1957L23.2048 19.127L23.1352 19.0557L23.0687 18.9816L23.0055 18.9047L22.9455 18.8252L22.8888 18.7435L22.8356 18.6595L22.7859 18.5736L22.7401 18.4855L22.6979 18.3957L22.6595 18.3042L22.6249 18.2113L22.5942 18.1172L22.5676 18.0216L22.545 17.9252L22.5263 17.8281L22.5118 17.7303L22.5015 17.6317L22.4953 17.5328L22.4932 17.4339L22.4953 17.335L22.5015 17.2361L22.5118 17.1377L22.5127 17.1307L22.514 17.1209L22.5283 17.0232L22.547 16.9261L22.5696 16.8297L22.5962 16.7343L22.6269 16.6401L22.6613 16.5473L22.6671 16.5325L22.7055 16.4413L22.7475 16.352L22.7933 16.2644L22.8428 16.1785L22.8957 16.095L22.9522 16.0134L22.9606 16.0022L23.012 15.9343L23.0202 15.9238L23.083 15.8473L23.149 15.7738L23.218 15.7031L23.2899 15.635L23.3645 15.57L23.4419 15.508L23.5218 15.4493L23.604 15.3941L23.612 15.389L23.6886 15.3419L23.6961 15.3374L23.7821 15.2892L23.8702 15.2444L23.96 15.2035L24.0515 15.1662L24.1446 15.1325L24.2388 15.1026L24.3343 15.0767L24.4308 15.0549L24.5281 15.0368L24.6261 15.0227L24.7247 15.0125L24.8236 15.0064L24.9227 15.0046L25.0214 15.0064L25.1203 15.0125L25.2191 15.0227L25.3169 15.0368L25.4144 15.0549L25.5107 15.0767L25.6064 15.1026L25.7008 15.1325L25.7937 15.1662L25.885 15.2035L25.9749 15.2444L26.0631 15.2892L26.1491 15.3374L26.1567 15.3419L26.2332 15.389L26.2413 15.3941L26.3234 15.4493L26.4035 15.508L26.4808 15.57L26.5553 15.6352L26.6274 15.7031L26.6961 15.7738L26.7622 15.8473L26.8249 15.9238L26.8332 15.9343L26.8846 16.0022L26.893 16.0133L26.9495 16.095ZM24.9225 21.9482L24.7939 21.9508L24.6656 21.9586L24.5375 21.9716L24.4104 21.9899L24.2839 22.0136L24.1586 22.0419L24.0346 22.0758L23.912 22.1145L23.7913 22.1578L23.6725 22.2066L23.5557 22.2598L23.4413 22.3178L23.3296 22.3807L23.32 22.3863L23.2203 22.4475L23.2102 22.4538L23.1033 22.5259L22.9995 22.6022L22.8991 22.6825L22.802 22.7669L22.7087 22.8553L22.6191 22.9473L22.5334 23.043L22.4519 23.1419L22.4412 23.1558L22.3743 23.2441L22.3636 23.2584L22.2903 23.3642L22.2214 23.4729L22.1573 23.5843L22.0977 23.6982L22.0432 23.8142L21.9933 23.9326L21.9857 23.9519L21.941 24.0723L21.9013 24.1948L21.8667 24.3185L21.8372 24.4435L21.8131 24.5698L21.7944 24.6968L21.7917 24.7187L21.7783 24.8464L21.7702 24.9747L21.7674 25.1033L21.7702 25.2317L21.7783 25.36L21.7917 25.4879L21.8106 25.6151L21.8346 25.7413L21.864 25.8667L21.8986 25.9906L21.9384 26.1129L21.9834 26.2337L22.0332 26.3524L22.0881 26.4691L22.1477 26.5834L22.2122 26.695L22.2812 26.804L22.3548 26.9102L22.4328 27.0133L22.5149 27.1131L22.6013 27.2093L22.6915 27.302L22.7857 27.3912L22.8834 27.4761L22.9846 27.5573L23.0892 27.6341L23.197 27.7066L23.3075 27.7747L23.4209 27.8381L23.5368 27.897L23.6551 27.9509L23.7756 28.0002L23.8981 28.0444L24.0223 28.0836L24.148 28.1178L24.275 28.1468L24.4033 28.1705L24.5323 28.189L24.662 28.2022L24.7923 28.2102L24.9225 28.2129L25.0528 28.2102L25.1832 28.2022L25.3129 28.189L25.4419 28.1705L25.57 28.1468L25.697 28.1178L25.8227 28.0836L25.947 28.0444L26.0696 28.0002L26.1901 27.9509L26.3082 27.897L26.4241 27.8381L26.5377 27.7747L26.6482 27.7066L26.7558 27.6341L26.8606 27.5573L26.9616 27.4761L27.0593 27.3912L27.1535 27.302L27.2439 27.2093L27.3301 27.1131L27.4124 27.0133L27.4904 26.9102L27.564 26.804L27.633 26.695L27.6975 26.5834L27.7569 26.4691L27.812 26.3524L27.8618 26.2337L27.9067 26.1129L27.9464 25.9906L27.9812 25.8667L28.0105 25.7413L28.0346 25.6151L28.0535 25.4879L28.0669 25.36L28.075 25.2317L28.0778 25.1033L28.075 24.9747L28.0669 24.8464L28.0535 24.7187L28.0506 24.6968L28.0321 24.5698L28.008 24.4435L27.9787 24.3185L27.9439 24.1948L27.904 24.0723L27.8595 23.9519L27.8519 23.9326L27.8022 23.8142L27.7473 23.6982L27.6879 23.5843L27.6236 23.4729L27.5549 23.3642L27.4816 23.2584L27.4037 23.1558L27.3932 23.1419L27.3116 23.043L27.2259 22.9473L27.1365 22.8553L27.043 22.7669L26.9461 22.6825L26.8455 22.6022L26.7417 22.5259L26.635 22.4538L26.6249 22.4475L26.5252 22.3863L26.5156 22.3807L26.4037 22.3178L26.2894 22.2598L26.1727 22.2066L26.0537 22.1578L25.933 22.1145L25.8104 22.0758L25.6865 22.0419L25.5611 22.0136L25.4346 21.9899L25.3075 21.9716L25.1796 21.9586L25.0511 21.9508L24.9225 21.9482ZM26.127 10.9517L26.0763 10.9997L26.0232 11.0455L25.9689 11.0895L25.9124 11.131L25.854 11.1701L25.7944 11.2067L25.733 11.2412L25.6705 11.2729L25.6066 11.3022L25.5415 11.3287L25.4756 11.3526L25.4086 11.3738L25.3404 11.3919L25.272 11.4078L25.2026 11.4205L25.1332 11.4307L25.0629 11.4377L24.9926 11.4419L24.9223 11.4435L24.8519 11.4421L24.7816 11.4377L24.7115 11.4307L24.6419 11.4207L24.5727 11.4078L24.504 11.3921L24.4361 11.3738L24.3691 11.3526L24.3029 11.3287L24.2379 11.3022L24.174 11.2727L24.1113 11.2412L24.05 11.2067L23.9904 11.1701L23.9323 11.131L23.8758 11.0895L23.8211 11.0455L23.7683 10.9997L23.7176 10.9517L23.6687 10.9015L23.6221 10.8495L23.5778 10.7955L23.5357 10.7401L23.4959 10.6828L23.4587 10.624L23.4238 10.5636L23.3917 10.502L23.362 10.4388L23.335 10.3747L23.3107 10.3095L23.2894 10.2435L23.2707 10.1765L23.2548 10.1089L23.2417 10.0406L23.2316 9.97178L23.2243 9.90294L23.22 9.83355L23.2185 9.76435L23.22 9.69479L23.2243 9.62558L23.2316 9.55638L23.2321 9.55167L23.233 9.54497L23.2432 9.47613L23.2562 9.40819L23.2721 9.34062L23.2908 9.27359L23.3122 9.20747L23.3365 9.14261L23.3404 9.13229L23.3674 9.06816L23.3968 9.00547L23.429 8.94388L23.4636 8.8841L23.5008 8.82522L23.5404 8.76797L23.5462 8.76055L23.5823 8.71254L23.5881 8.70529L23.6321 8.65167L23.6785 8.60004L23.7269 8.5504L23.7772 8.50258L23.8296 8.45729L23.8839 8.41381L23.9399 8.37268L23.9975 8.33374L24.0031 8.33011L24.0567 8.29732L24.062 8.29406L24.1225 8.26019L24.1841 8.22884L24.2471 8.20022L24.3115 8.17377L24.3767 8.15022L24.4428 8.12939L24.5096 8.11127L24.5774 8.09569L24.6457 8.08301L24.7144 8.07341L24.7836 8.06616L24.8528 8.062L24.9223 8.06055L24.9919 8.06218L25.0611 8.06616L25.1301 8.07341L25.199 8.08319L25.2673 8.09587L25.3346 8.11127L25.4017 8.12939L25.468 8.15022L25.533 8.17377L25.5973 8.20022L25.6604 8.22884L25.722 8.26019L25.7825 8.29406L25.7875 8.29732L25.8415 8.33011L25.8471 8.33374L25.9046 8.37268L25.9607 8.41381L26.0151 8.45729L26.0673 8.50258L26.1176 8.5504L26.1662 8.60004L26.2124 8.65167L26.2566 8.70529L26.2622 8.71254L26.2982 8.76037L26.3042 8.76797L26.3435 8.82522L26.3808 8.88392L26.4156 8.94388L26.4479 9.00547L26.4772 9.06816L26.504 9.13229L26.508 9.14243L26.5325 9.20765L26.5537 9.27359L26.5725 9.34062L26.5884 9.40819L26.6015 9.47613L26.6115 9.54497L26.6122 9.55167L26.6129 9.55638L26.6202 9.62558L26.6245 9.69479L26.6259 9.76435L26.6245 9.83355L26.6202 9.90294L26.6129 9.97178L26.6026 10.0406L26.5899 10.1089L26.5738 10.1765L26.5553 10.2435L26.5336 10.3096L26.5095 10.3747L26.4825 10.4388L26.4528 10.5019L26.4207 10.5634L26.3857 10.624L26.3486 10.6828L26.3089 10.7401L26.2667 10.7955L26.2223 10.8495L26.1756 10.9015L26.127 10.9517Z" stroke="#D02138" stroke-width="0.862069" stroke-linejoin="round"/>
</svg>
