<svg width="15" height="12" viewBox="0 0 15 12" fill="none" xmlns="http://www.w3.org/2000/svg">
<path d="M6 8.25L9.8925 6L6 3.75V8.25ZM14.67 2.3775C14.7675 2.73 14.835 3.2025 14.88 3.8025C14.9325 4.4025 14.955 4.92 14.955 5.37L15 6C15 7.6425 14.88 8.85 14.67 9.6225C14.4825 10.2975 14.0475 10.7325 13.3725 10.92C13.02 11.0175 12.375 11.085 11.385 11.13C10.41 11.1825 9.5175 11.205 8.6925 11.205L7.5 11.25C4.3575 11.25 2.4 11.13 1.6275 10.92C0.9525 10.7325 0.5175 10.2975 0.33 9.6225C0.2325 9.27 0.165 8.7975 0.12 8.1975C0.0675001 7.5975 0.045 7.08 0.045 6.63L0 6C0 4.3575 0.12 3.15 0.33 2.3775C0.5175 1.7025 0.9525 1.2675 1.6275 1.08C1.98 0.9825 2.625 0.915 3.615 0.87C4.59 0.8175 5.4825 0.795 6.3075 0.795L7.5 0.75C10.6425 0.75 12.6 0.87 13.3725 1.08C14.0475 1.2675 14.4825 1.7025 14.67 2.3775Z" fill="#9D9DAA"/>
</svg>
